<svg width="20" height="20" viewBox="0 0 20 20" fill="none" xmlns="http://www.w3.org/2000/svg">
<path d="M4.10829 4.16663C2.59996 5.67496 1.66663 7.75829 1.66663 10.0583C1.66663 12.3583 2.59996 14.4416 4.10829 15.95L5.28329 14.775C4.07496 13.575 3.33329 11.9083 3.33329 10.0583C3.33329 8.21663 4.07496 6.54163 5.28329 5.34163L4.10829 4.16663ZM15.8916 4.16663L14.7166 5.34163C15.925 6.54163 16.6666 8.21663 16.6666 10.0583C16.6666 11.9083 15.925 13.575 14.7166 14.775L15.8916 15.95C17.4 14.4416 18.3333 12.3583 18.3333 10.0583C18.3333 7.75829 17.4 5.67496 15.8916 4.16663ZM6.46663 6.52496C5.55829 7.43329 4.99996 8.68329 4.99996 10.0583C4.99996 11.4333 5.55829 12.6833 6.46663 13.5916L7.64163 12.4166C7.04163 11.8166 6.66663 10.9833 6.66663 10.0583C6.66663 9.13329 7.04163 8.29996 7.64163 7.69996L6.46663 6.52496ZM13.5333 6.52496L12.3583 7.69996C12.9583 8.29996 13.3333 9.13329 13.3333 10.0583C13.3333 10.9833 12.9583 11.8166 12.3583 12.4166L13.5333 13.5916C14.4416 12.6833 15 11.4333 15 10.0583C15 8.68329 14.4416 7.43329 13.5333 6.52496ZM9.99996 8.39163C9.55793 8.39163 9.13401 8.56722 8.82145 8.87978C8.50889 9.19234 8.33329 9.61627 8.33329 10.0583C8.33329 10.5003 8.50889 10.9242 8.82145 11.2368C9.13401 11.5494 9.55793 11.725 9.99996 11.725C10.442 11.725 10.8659 11.5494 11.1785 11.2368C11.491 10.9242 11.6666 10.5003 11.6666 10.0583C11.6666 9.61627 11.491 9.19234 11.1785 8.87978C10.8659 8.56722 10.442 8.39163 9.99996 8.39163Z" fill="currentColor"/>
</svg>
