<svg width="20" height="20" viewBox="0 0 20 20" fill="none" xmlns="http://www.w3.org/2000/svg">
<path d="M4.10829 1.66663C2.59996 3.17496 1.66663 5.25829 1.66663 7.55829C1.66663 9.85829 2.59996 11.9416 4.10829 13.45L5.28329 12.275C4.07496 11.075 3.33329 9.40829 3.33329 7.55829C3.33329 5.71663 4.07496 4.04163 5.28329 2.84163L4.10829 1.66663ZM15.8916 1.66663L14.7166 2.84163C15.925 4.04163 16.6666 5.71663 16.6666 7.55829C16.6666 9.40829 15.925 11.075 14.7166 12.275L15.8916 13.45C17.4 11.9416 18.3333 9.85829 18.3333 7.55829C18.3333 5.25829 17.4 3.17496 15.8916 1.66663ZM6.46663 4.02496C5.55829 4.93329 4.99996 6.18329 4.99996 7.55829C4.99996 8.93329 5.55829 10.1833 6.46663 11.0916L7.64163 9.91663C7.04163 9.31663 6.66663 8.48329 6.66663 7.55829C6.66663 6.63329 7.04163 5.79996 7.64163 5.19996L6.46663 4.02496ZM13.5333 4.02496L12.3583 5.19996C12.9583 5.79996 13.3333 6.63329 13.3333 7.55829C13.3333 8.48329 12.9583 9.31663 12.3583 9.91663L13.5333 11.0916C14.4416 10.1833 15 8.93329 15 7.55829C15 6.18329 14.4416 4.93329 13.5333 4.02496ZM9.99996 5.89163C9.55793 5.89163 9.13401 6.06722 8.82145 6.37978C8.50889 6.69234 8.33329 7.11627 8.33329 7.55829C8.33329 8.00032 8.50889 8.42424 8.82145 8.7368C9.13401 9.04936 9.55793 9.22496 9.99996 9.22496C10.442 9.22496 10.8659 9.04936 11.1785 8.7368C11.491 8.42424 11.6666 8.00032 11.6666 7.55829C11.6666 7.11627 11.491 6.69234 11.1785 6.37978C10.8659 6.06722 10.442 5.89163 9.99996 5.89163V5.89163ZM9.16663 10.8916V14.225H8.33329C8.11228 14.225 7.90032 14.3128 7.74404 14.469C7.58776 14.6253 7.49996 14.8373 7.49996 15.0583H1.66663V16.725H7.49996C7.49996 16.946 7.58776 17.1579 7.74404 17.3142C7.90032 17.4705 8.11228 17.5583 8.33329 17.5583H11.6666C11.8876 17.5583 12.0996 17.4705 12.2559 17.3142C12.4122 17.1579 12.5 16.946 12.5 16.725H18.3333V15.0583H12.5C12.5 14.8373 12.4122 14.6253 12.2559 14.469C12.0996 14.3128 11.8876 14.225 11.6666 14.225H10.8333V10.8916H9.16663Z" fill="currentColor"/>
</svg>
