<svg width="20" height="20" viewBox="0 0 20 20" fill="none" xmlns="http://www.w3.org/2000/svg">
<path d="M13.3335 7.49992C15.2752 7.49992 19.1668 8.47492 19.1668 10.4166V12.4999H14.1668V10.4166C14.1668 9.16659 13.4918 8.24159 12.5335 7.54159L13.3335 7.49992ZM6.66683 7.49992C8.6085 7.49992 12.5002 8.47492 12.5002 10.4166V12.4999H0.833496V10.4166C0.833496 8.47492 4.72516 7.49992 6.66683 7.49992ZM6.66683 5.83325C6.00379 5.83325 5.3679 5.56986 4.89906 5.10102C4.43022 4.63218 4.16683 3.99629 4.16683 3.33325C4.16683 2.67021 4.43022 2.03433 4.89906 1.56548C5.3679 1.09664 6.00379 0.833252 6.66683 0.833252C7.32987 0.833252 7.96576 1.09664 8.4346 1.56548C8.90344 2.03433 9.16683 2.67021 9.16683 3.33325C9.16683 3.99629 8.90344 4.63218 8.4346 5.10102C7.96576 5.56986 7.32987 5.83325 6.66683 5.83325V5.83325ZM13.3335 5.83325C12.6705 5.83325 12.0346 5.56986 11.5657 5.10102C11.0969 4.63218 10.8335 3.99629 10.8335 3.33325C10.8335 2.67021 11.0969 2.03433 11.5657 1.56548C12.0346 1.09664 12.6705 0.833252 13.3335 0.833252C13.9965 0.833252 14.6324 1.09664 15.1013 1.56548C15.5701 2.03433 15.8335 2.67021 15.8335 3.33325C15.8335 3.99629 15.5701 4.63218 15.1013 5.10102C14.6324 5.56986 13.9965 5.83325 13.3335 5.83325V5.83325ZM7.50016 13.9583V15.8333H12.5002V13.9583L15.2085 16.6666L12.5002 19.3749V17.4999H7.50016V19.3749L4.79183 16.6666L7.50016 13.9583Z" fill="currentColor"/>
</svg>
