<svg width="20" height="20" viewBox="0 0 20 20" fill="none" xmlns="http://www.w3.org/2000/svg">
<path d="M7.91667 2.5C9.35326 2.5 10.731 3.07068 11.7468 4.0865C12.7627 5.10233 13.3333 6.48008 13.3333 7.91667C13.3333 9.25833 12.8417 10.4917 12.025 11.4417L12.2583 11.6667H12.9167L17.0833 15.8333L15.8333 17.0833L11.6667 12.9167V12.2583L11.4417 12.025C10.4917 12.8417 9.25833 13.3333 7.91667 13.3333C6.48008 13.3333 5.10233 12.7627 4.0865 11.7468C3.07068 10.731 2.5 9.35326 2.5 7.91667C2.5 6.48008 3.07068 5.10233 4.0865 4.0865C5.10233 3.07068 6.48008 2.5 7.91667 2.5V2.5ZM7.91667 11.6667C9.25833 11.6667 10.4167 10.9583 11.1 9.9C10.4167 8.95833 9.25833 8.33333 7.91667 8.33333C6.575 8.33333 5.41667 8.95833 4.73333 9.9C5.41667 10.9583 6.575 11.6667 7.91667 11.6667ZM7.91667 4.16667C7.52989 4.16667 7.15896 4.32031 6.88547 4.5938C6.61198 4.86729 6.45833 5.23823 6.45833 5.625C6.45833 6.01177 6.61198 6.38271 6.88547 6.6562C7.15896 6.92969 7.52989 7.08333 7.91667 7.08333C8.30344 7.08333 8.67437 6.92969 8.94786 6.6562C9.22135 6.38271 9.375 6.01177 9.375 5.625C9.375 5.23823 9.22135 4.86729 8.94786 4.5938C8.67437 4.32031 8.30344 4.16667 7.91667 4.16667Z" fill="currentColor"/>
</svg>
