<svg width="20" height="20" viewBox="0 0 20 20" fill="none" xmlns="http://www.w3.org/2000/svg">
<path d="M10.0002 5C9.33712 5 8.70124 5.26339 8.2324 5.73223C7.76355 6.20107 7.50016 6.83696 7.50016 7.5C7.50016 8.16304 7.76355 8.79893 8.2324 9.26777C8.70124 9.73661 9.33712 10 10.0002 10C10.6632 10 11.2991 9.73661 11.7679 9.26777C12.2368 8.79893 12.5002 8.16304 12.5002 7.5C12.5002 6.83696 12.2368 6.20107 11.7679 5.73223C11.2991 5.26339 10.6632 5 10.0002 5ZM5.00016 6.80833C4.44763 6.80833 3.91772 7.02783 3.52702 7.41853C3.13632 7.80923 2.91683 8.33913 2.91683 8.89167C2.91683 9.16525 2.97072 9.43616 3.07541 9.68892C3.18011 9.94169 3.33357 10.1714 3.52702 10.3648C3.72048 10.5583 3.95014 10.7117 4.20291 10.8164C4.45567 10.9211 4.72658 10.975 5.00016 10.975C5.7335 10.975 6.37516 10.5917 6.74183 10.025C6.1835 9.31667 5.8335 8.45833 5.8335 7.5C5.8335 7.33333 5.8335 7.16667 5.86683 7C5.60016 6.875 5.3085 6.80833 5.00016 6.80833ZM15.0002 6.80833C14.6918 6.80833 14.4002 6.875 14.1335 7C14.1668 7.16667 14.1668 7.33333 14.1668 7.5C14.1668 8.45833 13.8168 9.31667 13.2585 10.025C13.6252 10.5917 14.2668 10.975 15.0002 10.975C15.2738 10.975 15.5447 10.9211 15.7974 10.8164C16.0502 10.7117 16.2798 10.5583 16.4733 10.3648C16.6668 10.1714 16.8202 9.94169 16.9249 9.68892C17.0296 9.43616 17.0835 9.16525 17.0835 8.89167C17.0835 8.61808 17.0296 8.34717 16.9249 8.09441C16.8202 7.84165 16.6668 7.61198 16.4733 7.41853C16.2798 7.22507 16.0502 7.07161 15.7974 6.96692C15.5447 6.86222 15.2738 6.80833 15.0002 6.80833ZM10.0002 11.6667C8.3335 11.6667 5.00016 12.5 5.00016 14.1667V15.8333H15.0002V14.1667C15.0002 12.5 11.6668 11.6667 10.0002 11.6667ZM3.89183 12.475C2.50016 12.7167 0.833496 13.3667 0.833496 14.4417V15.8333H3.3335V14.1667C3.3335 13.5167 3.57516 12.9417 3.89183 12.475ZM16.1085 12.475C16.4252 12.9417 16.6668 13.5167 16.6668 14.1667V15.8333H19.1668V14.4417C19.1668 13.3667 17.5002 12.7167 16.1085 12.475Z" fill="currentColor"/>
</svg>
