<svg width="20" height="20" viewBox="0 0 20 20" fill="none" xmlns="http://www.w3.org/2000/svg">
<path d="M17.25 10.2917L16.4167 11.125L14.7083 9.41667L15.5417 8.58333C15.7167 8.40833 16.0083 8.40833 16.1833 8.58333L17.25 9.65C17.425 9.825 17.425 10.1167 17.25 10.2917ZM9.16667 14.95L14.2167 9.9L15.925 11.6083L10.8833 16.6667H9.16667V14.95ZM9.16667 10.8333C5.48333 10.8333 2.5 12.325 2.5 14.1667V15.8333H7.5V14.2583L10.8333 10.925C10.2833 10.8583 9.725 10.8333 9.16667 10.8333ZM9.16667 2.5C8.28261 2.5 7.43477 2.85119 6.80964 3.47631C6.18452 4.10143 5.83333 4.94928 5.83333 5.83333C5.83333 6.71739 6.18452 7.56524 6.80964 8.19036C7.43477 8.81548 8.28261 9.16667 9.16667 9.16667C10.0507 9.16667 10.8986 8.81548 11.5237 8.19036C12.1488 7.56524 12.5 6.71739 12.5 5.83333C12.5 4.94928 12.1488 4.10143 11.5237 3.47631C10.8986 2.85119 10.0507 2.5 9.16667 2.5Z" fill="currentColor"/>
</svg>
