<svg width="20" height="20" viewBox="0 0 20 20" fill="none" xmlns="http://www.w3.org/2000/svg">
<path d="M7.50016 4.16675C8.38422 4.16675 9.23206 4.51794 9.85719 5.14306C10.4823 5.76818 10.8335 6.61603 10.8335 7.50008C10.8335 8.38414 10.4823 9.23198 9.85719 9.8571C9.23206 10.4822 8.38422 10.8334 7.50016 10.8334C6.61611 10.8334 5.76826 10.4822 5.14314 9.8571C4.51802 9.23198 4.16683 8.38414 4.16683 7.50008C4.16683 6.61603 4.51802 5.76818 5.14314 5.14306C5.76826 4.51794 6.61611 4.16675 7.50016 4.16675V4.16675ZM7.50016 12.5001C9.72516 12.5001 14.1668 13.6167 14.1668 15.8334V17.5001H0.833496V15.8334C0.833496 13.6167 5.27516 12.5001 7.50016 12.5001ZM13.9668 4.46675C15.6502 6.30008 15.6502 8.84175 13.9668 10.5251L12.5668 9.11675C13.2668 8.13341 13.2668 6.85841 12.5668 5.87508L13.9668 4.46675ZM16.7252 1.66675C20.0002 5.04175 19.9752 10.0917 16.7252 13.3334L15.3668 11.9751C17.6752 9.32508 17.6752 5.54175 15.3668 3.02508L16.7252 1.66675Z" fill="currentColor"/>
</svg>
