<svg width="20" height="20" viewBox="0 0 20 20" fill="none" xmlns="http://www.w3.org/2000/svg">
<path d="M10.0002 1.66675C10.8842 1.66675 11.7321 2.01794 12.3572 2.64306C12.9823 3.26818 13.3335 4.11603 13.3335 5.00008C13.3335 5.88414 12.9823 6.73198 12.3572 7.3571C11.7321 7.98223 10.8842 8.33341 10.0002 8.33341C9.11611 8.33341 8.26826 7.98223 7.64314 7.3571C7.01802 6.73198 6.66683 5.88414 6.66683 5.00008C6.66683 4.11603 7.01802 3.26818 7.64314 2.64306C8.26826 2.01794 9.11611 1.66675 10.0002 1.66675V1.66675ZM10.0002 10.0001C13.6835 10.0001 16.6668 11.4917 16.6668 13.3334V15.0001H3.3335V13.3334C3.3335 11.4917 6.31683 10.0001 10.0002 10.0001ZM5.8335 16.6667H7.50016V18.3334H5.8335V16.6667ZM9.16683 16.6667H10.8335V18.3334H9.16683V16.6667ZM12.5002 16.6667H14.1668V18.3334H12.5002V16.6667Z" fill="currentColor"/>
</svg>
