<svg width="20" height="20" viewBox="0 0 20 20" fill="none" xmlns="http://www.w3.org/2000/svg">
<path d="M7.50016 1.66675C6.61611 1.66675 5.76826 2.01794 5.14314 2.64306C4.51802 3.26818 4.16683 4.11603 4.16683 5.00008C4.16683 5.88414 4.51802 6.73198 5.14314 7.3571C5.76826 7.98223 6.61611 8.33341 7.50016 8.33341C8.38422 8.33341 9.23206 7.98223 9.85719 7.3571C10.4823 6.73198 10.8335 5.88414 10.8335 5.00008C10.8335 4.11603 10.4823 3.26818 9.85719 2.64306C9.23206 2.01794 8.38422 1.66675 7.50016 1.66675ZM7.50016 10.0001C5.27516 10.0001 0.833496 11.1084 0.833496 13.3334V15.0001H10.0668C10.0252 14.7251 10.0002 14.4501 10.0002 14.1667C10.0002 12.9167 10.4168 11.6667 11.1752 10.6667C9.90016 10.2334 8.4835 10.0001 7.50016 10.0001ZM15.0002 10.0001C14.8918 10.0001 14.8002 10.0751 14.7835 10.1751L14.6252 11.2751C14.3752 11.3834 14.1335 11.5167 13.9168 11.6667L12.8835 11.2501C12.7918 11.2501 12.6835 11.2501 12.6252 11.3584L11.7918 12.8001C11.7418 12.8917 11.7585 13.0001 11.8418 13.0667L12.7252 13.7501C12.7085 13.8917 12.7002 14.0251 12.7002 14.1667C12.7002 14.3084 12.7085 14.4417 12.7252 14.5834L11.8418 15.2667C11.7668 15.3334 11.7418 15.4417 11.7918 15.5334L12.6252 16.9751C12.6752 17.0834 12.7835 17.0834 12.8835 17.0834L13.9168 16.6667C14.1335 16.8167 14.3668 16.9584 14.6252 17.0584L14.7835 18.1584C14.8002 18.2584 14.8835 18.3334 15.0002 18.3334H16.6668C16.7585 18.3334 16.8502 18.2584 16.8668 18.1584L17.0252 17.0584C17.2752 16.9501 17.5002 16.8167 17.7252 16.6667L18.7502 17.0834C18.8585 17.0834 18.9668 17.0834 19.0252 16.9751L19.8585 15.5334C19.9085 15.4417 19.8835 15.3334 19.8085 15.2667L18.9168 14.5834C18.9335 14.4417 18.9502 14.3084 18.9502 14.1667C18.9502 14.0251 18.9418 13.8917 18.9168 13.7501L19.8002 13.0667C19.8752 13.0001 19.9002 12.8917 19.8502 12.8001L19.0168 11.3584C18.9668 11.2501 18.8585 11.2501 18.7502 11.2501L17.7252 11.6667C17.5002 11.5167 17.2752 11.3751 17.0168 11.2751L16.8585 10.1751C16.8502 10.0751 16.7585 10.0001 16.6668 10.0001H15.0002ZM15.8335 12.9167C16.165 12.9167 16.483 13.0484 16.7174 13.2829C16.9518 13.5173 17.0835 13.8352 17.0835 14.1667C17.0835 14.4983 16.9518 14.8162 16.7174 15.0506C16.483 15.2851 16.165 15.4167 15.8335 15.4167C15.1335 15.4167 14.5835 14.8584 14.5835 14.1667C14.5835 13.8352 14.7152 13.5173 14.9496 13.2829C15.184 13.0484 15.502 12.9167 15.8335 12.9167Z" fill="currentColor"/>
</svg>
