<svg width="20" height="20" viewBox="0 0 20 20" fill="none" xmlns="http://www.w3.org/2000/svg">
<path d="M12.5002 9.99992C14.3418 9.99992 15.8335 8.50825 15.8335 6.66659C15.8335 4.82492 14.3418 3.33325 12.5002 3.33325C10.6585 3.33325 9.16683 4.82492 9.16683 6.66659C9.16683 8.50825 10.6585 9.99992 12.5002 9.99992ZM12.5002 4.99992C13.4168 4.99992 14.1668 5.74992 14.1668 6.66659C14.1668 7.58325 13.4168 8.33325 12.5002 8.33325C11.5835 8.33325 10.8335 7.58325 10.8335 6.66659C10.8335 5.74992 11.5835 4.99992 12.5002 4.99992ZM12.5002 11.6666C10.2752 11.6666 5.8335 12.7833 5.8335 14.9999V16.6666H19.1668V14.9999C19.1668 12.7833 14.7252 11.6666 12.5002 11.6666ZM7.50016 14.9999C7.6835 14.3999 10.2585 13.3333 12.5002 13.3333C14.7502 13.3333 17.3335 14.4083 17.5002 14.9999H7.50016ZM5.00016 12.4999V9.99992H7.50016V8.33325H5.00016V5.83325H3.3335V8.33325H0.833496V9.99992H3.3335V12.4999H5.00016Z" fill="currentColor"/>
</svg>
