<svg width="20" height="20" viewBox="0 0 20 20" fill="none" xmlns="http://www.w3.org/2000/svg">
<path d="M12.1168 11.6666C14.3418 11.6666 18.7835 12.7749 18.7835 14.9999V16.6666H5.45016V14.9999C5.45016 12.7749 9.89183 11.6666 12.1168 11.6666ZM12.1168 9.99992C11.2328 9.99992 10.3849 9.64873 9.75981 9.02361C9.13469 8.39849 8.7835 7.55064 8.7835 6.66659C8.7835 5.78253 9.13469 4.93468 9.75981 4.30956C10.3849 3.68444 11.2328 3.33325 12.1168 3.33325C13.0009 3.33325 13.8487 3.68444 14.4739 4.30956C15.099 4.93468 15.4502 5.78253 15.4502 6.66659C15.4502 7.55064 15.099 8.39849 14.4739 9.02361C13.8487 9.64873 13.0009 9.99992 12.1168 9.99992ZM3.7835 7.99159L5.55016 6.21659L6.7335 7.39992L4.9585 9.16659L6.7335 10.9333L5.55016 12.1166L3.7835 10.3416L2.01683 12.1166L0.833496 10.9333L2.6085 9.16659L0.833496 7.39992L2.01683 6.21659L3.7835 7.99159Z" fill="currentColor"/>
</svg>
