<svg width="20" height="20" viewBox="0 0 20 20" fill="none" xmlns="http://www.w3.org/2000/svg">
<path d="M9.1665 7.49992C9.1665 8.88325 8.04984 9.99992 6.6665 9.99992C5.28317 9.99992 4.1665 8.88325 4.1665 7.49992C4.1665 6.11659 5.28317 4.99992 6.6665 4.99992C8.04984 4.99992 9.1665 6.11659 9.1665 7.49992ZM11.6665 16.6666H1.6665V14.9999C1.6665 13.1583 3.90817 11.6666 6.6665 11.6666C9.42484 11.6666 11.6665 13.1583 11.6665 14.9999M18.3332 9.99992V11.6666H10.8332V9.99992M18.3332 6.66659V8.33325H10.8332V6.66659M18.3332 3.33325V4.99992H10.8332V3.33325H18.3332Z" fill="currentColor"/>
</svg>
