<svg width="20" height="20" viewBox="0 0 20 20" fill="none" xmlns="http://www.w3.org/2000/svg">
<path d="M9.16667 8.33325V9.99992H8.33333V11.6666H6.66667V9.99992H4.85833C4.51667 10.9749 3.59167 11.6666 2.5 11.6666C1.83696 11.6666 1.20107 11.4032 0.732233 10.9344C0.263392 10.4655 0 9.82963 0 9.16659C0 8.50354 0.263392 7.86766 0.732233 7.39882C1.20107 6.92998 1.83696 6.66659 2.5 6.66659C3.59167 6.66659 4.51667 7.35825 4.85833 8.33325H9.16667ZM2.5 8.33325C2.27899 8.33325 2.06702 8.42105 1.91074 8.57733C1.75446 8.73361 1.66667 8.94557 1.66667 9.16659C1.66667 9.3876 1.75446 9.59956 1.91074 9.75584C2.06702 9.91212 2.27899 9.99992 2.5 9.99992C2.72101 9.99992 2.93298 9.91212 3.08926 9.75584C3.24554 9.59956 3.33333 9.3876 3.33333 9.16659C3.33333 8.94557 3.24554 8.73361 3.08926 8.57733C2.93298 8.42105 2.72101 8.33325 2.5 8.33325ZM13.3333 11.6666C15.5583 11.6666 20 12.7833 20 14.9999V16.6666H6.66667V14.9999C6.66667 12.7833 11.1083 11.6666 13.3333 11.6666ZM13.3333 9.99992C12.4493 9.99992 11.6014 9.64873 10.9763 9.02361C10.3512 8.39849 10 7.55064 10 6.66659C10 5.78253 10.3512 4.93468 10.9763 4.30956C11.6014 3.68444 12.4493 3.33325 13.3333 3.33325C14.2174 3.33325 15.0652 3.68444 15.6904 4.30956C16.3155 4.93468 16.6667 5.78253 16.6667 6.66659C16.6667 7.55064 16.3155 8.39849 15.6904 9.02361C15.0652 9.64873 14.2174 9.99992 13.3333 9.99992Z" fill="currentColor"/>
</svg>
