<svg width="20" height="20" viewBox="0 0 20 20" fill="none" xmlns="http://www.w3.org/2000/svg">
<path d="M10.8333 10.8334C9.16667 10.8334 5.83333 11.6667 5.83333 13.3334V15.0001H15.8333V13.3334C15.8333 11.6667 12.5 10.8334 10.8333 10.8334ZM16.35 10.9667C17.0417 11.5667 17.5 12.3501 17.5 13.3334V15.0001H20V13.3334C20 12.0501 18.025 11.2501 16.35 10.9667ZM10.8333 9.16675C11.4964 9.16675 12.1323 8.90336 12.6011 8.43452C13.0699 7.96567 13.3333 7.32979 13.3333 6.66675C13.3333 6.00371 13.0699 5.36782 12.6011 4.89898C12.1323 4.43014 11.4964 4.16675 10.8333 4.16675C10.1703 4.16675 9.53441 4.43014 9.06557 4.89898C8.59672 5.36782 8.33333 6.00371 8.33333 6.66675C8.33333 7.32979 8.59672 7.96567 9.06557 8.43452C9.53441 8.90336 10.1703 9.16675 10.8333 9.16675ZM15 9.16675C15.663 9.16675 16.2989 8.90336 16.7678 8.43452C17.2366 7.96567 17.5 7.32979 17.5 6.66675C17.5 6.00371 17.2366 5.36782 16.7678 4.89898C16.2989 4.43014 15.663 4.16675 15 4.16675C14.7333 4.16675 14.475 4.20841 14.2333 4.28341C14.7083 4.95841 15 5.78341 15 6.66675C15 7.55008 14.7083 8.36675 14.2333 9.04175C14.475 9.12508 14.7333 9.16675 15 9.16675ZM6.66667 8.33341H4.16667V5.83341H2.5V8.33341H0V10.0001H2.5V12.5001H4.16667V10.0001H6.66667V8.33341Z" fill="currentColor"/>
</svg>
