<svg width="20" height="20" viewBox="0 0 20 20" fill="none" xmlns="http://www.w3.org/2000/svg">
<path d="M9.16668 19.1667C8.72465 19.1667 8.30073 18.9911 7.98817 18.6786C7.67561 18.366 7.50001 17.9421 7.50001 17.5V15.8334H12.5V17.5C12.5 17.9421 12.3244 18.366 12.0119 18.6786C11.6993 18.9911 11.2754 19.1667 10.8333 19.1667H9.16668ZM10 0.833374C10.5917 0.833374 11.1583 0.908374 11.7083 1.05004C12.6833 2.35837 13.3333 4.75837 13.3333 7.50004C13.3333 9.40004 13.0167 11.1417 12.5 13.3334C12.5 13.7754 12.3244 14.1993 12.0119 14.5119C11.6993 14.8244 11.2754 15 10.8333 15H9.16668C8.72465 15 8.30073 14.8244 7.98817 14.5119C7.67561 14.1993 7.50001 13.7754 7.50001 13.3334C6.98334 11.1417 6.66668 9.40004 6.66668 7.50004C6.66668 4.75837 7.31668 2.35837 8.29168 1.05004C8.84168 0.908374 9.40834 0.833374 10 0.833374ZM16.6667 6.66671C16.6667 9.31671 15.125 13.2667 12.8833 14.3417C13.675 12.825 14.1667 9.85837 14.1667 7.50004C14.1667 5.14171 13.675 3.00837 12.8833 1.49171C15.125 2.56671 16.6667 4.01671 16.6667 6.66671ZM3.33334 6.66671C3.33334 4.01671 4.87501 2.56671 7.11668 1.49171C6.32501 3.00837 5.83334 5.14171 5.83334 7.50004C5.83334 9.85837 6.32501 12.825 7.11668 14.3417C4.87501 13.2667 3.33334 9.31671 3.33334 6.66671Z" fill="currentColor"/>
</svg>
