<svg width="20" height="20" viewBox="0 0 20 20" fill="none" xmlns="http://www.w3.org/2000/svg">
<path d="M17.3667 18.9416L15 16.5833L14.4833 17.1083L13.3333 14.9083L10.2917 11.8667L7.99999 14.1667L8.29999 16.225L7.40832 17.1083L5.94165 14.4583L3.28332 12.9833L4.16665 12.0833L6.24999 12.3916L8.52499 10.1L5.49165 7.08332L3.28332 5.90832L3.80832 5.38332L0.924988 2.49998L1.99165 1.44165L18.425 17.8833L17.3667 18.9416ZM13.8917 8.26665L17.1333 5.02498C17.625 4.54165 17.625 3.74998 17.1333 3.25832C16.6417 2.76665 15.8333 2.77498 15.3667 3.25832L12.125 6.49998L8.28332 5.61665L14.7833 12.1166L13.8917 8.26665Z" fill="currentColor"/>
</svg>
