<svg width="20" height="20" viewBox="0 0 20 20" fill="none" xmlns="http://www.w3.org/2000/svg">
<path d="M5.4165 6.58341L3.6415 4.81675L4.8165 3.64175L6.58317 5.41675L5.4165 6.58341ZM11.2498 1.66675V4.16675H9.58317V1.66675H11.2498ZM17.1915 4.81675L15.4165 6.58341L14.2498 5.41675L16.0165 3.64175L17.1915 4.81675ZM4.1665 9.58341V11.2501H1.6665V9.58341H4.1665ZM16.6665 9.58341H19.1665V11.2501H16.6665V9.58341ZM5.4165 17.5001H15.4165C15.8585 17.5001 16.2825 17.6757 16.595 17.9882C16.9076 18.3008 17.0832 18.7247 17.0832 19.1667H3.74984C3.74984 18.7247 3.92543 18.3008 4.23799 17.9882C4.55055 17.6757 4.97448 17.5001 5.4165 17.5001V17.5001ZM10.4165 5.00008C11.7426 5.00008 13.0144 5.52687 13.952 6.46455C14.8897 7.40223 15.4165 8.674 15.4165 10.0001V16.6667H5.4165V10.0001C5.4165 8.674 5.94329 7.40223 6.88097 6.46455C7.81865 5.52687 9.09042 5.00008 10.4165 5.00008V5.00008Z" fill="currentColor"/>
</svg>
