<svg width="20" height="20" viewBox="0 0 20 20" fill="none" xmlns="http://www.w3.org/2000/svg">
<path d="M6.5665 2.82505L5.49984 1.55005L1.6665 4.75838L2.7415 6.03338L6.5665 2.82505ZM18.3332 4.76672L14.4998 1.55005L13.4248 2.82505L17.2582 6.04172L18.3332 4.76672ZM9.99984 3.33338C5.85817 3.33338 2.49984 6.69172 2.49984 10.8334C2.49984 14.975 5.84984 18.3334 9.99984 18.3334C14.1415 18.3334 17.4998 14.975 17.4998 10.8334C17.4998 6.69172 14.1415 3.33338 9.99984 3.33338ZM9.99984 16.6667C6.77484 16.6667 4.1665 14.0584 4.1665 10.8334C4.1665 7.60838 6.77484 5.00005 9.99984 5.00005C13.2248 5.00005 15.8332 7.60838 15.8332 10.8334C15.8332 14.0584 13.2248 16.6667 9.99984 16.6667ZM10.8332 7.50005H9.1665V10H6.6665V11.6667H9.1665V14.1667H10.8332V11.6667H13.3332V10H10.8332V7.50005Z" fill="currentColor"/>
</svg>
