<svg width="20" height="20" viewBox="0 0 20 20" fill="none" xmlns="http://www.w3.org/2000/svg">
<path d="M18.3334 4.76672L14.5001 1.55005L13.4251 2.82505L17.2584 6.04172L18.3334 4.76672ZM6.56675 2.82505L5.50008 1.55005L1.66675 4.75838L2.74175 6.03338L6.56675 2.82505ZM10.4167 6.66672H9.16675V11.6667L13.1251 14.0417L13.7501 13.0167L10.4167 11.0417V6.66672ZM10.0001 3.33338C5.85841 3.33338 2.50008 6.69172 2.50008 10.8334C2.50008 14.975 5.85008 18.3334 10.0001 18.3334C14.1417 18.3334 17.5001 14.975 17.5001 10.8334C17.5001 6.69172 14.1417 3.33338 10.0001 3.33338ZM10.0001 16.6667C6.77508 16.6667 4.16675 14.0584 4.16675 10.8334C4.16675 7.60838 6.77508 5.00005 10.0001 5.00005C13.2251 5.00005 15.8334 7.60838 15.8334 10.8334C15.8334 14.0584 13.2251 16.6667 10.0001 16.6667Z" fill="currentColor"/>
</svg>
