<svg width="20" height="20" viewBox="0 0 20 20" fill="none" xmlns="http://www.w3.org/2000/svg">
<path d="M10.0001 1.66675C5.40008 1.66675 1.66675 5.40008 1.66675 10.0001C1.66675 14.6001 5.40008 18.3334 10.0001 18.3334C14.6001 18.3334 18.3334 14.6001 18.3334 10.0001C18.3334 5.40008 14.6001 1.66675 10.0001 1.66675ZM10.0001 16.6667C6.32508 16.6667 3.33341 13.6751 3.33341 10.0001C3.33341 6.32508 6.32508 3.33341 10.0001 3.33341C13.6751 3.33341 16.6667 6.32508 16.6667 10.0001C16.6667 13.6751 13.6751 16.6667 10.0001 16.6667ZM10.0001 6.25008C7.92508 6.25008 6.25008 7.92508 6.25008 10.0001C6.25008 12.0751 7.92508 13.7501 10.0001 13.7501C12.0751 13.7501 13.7501 12.0751 13.7501 10.0001C13.7501 7.92508 12.0751 6.25008 10.0001 6.25008ZM10.0001 10.8334C9.54175 10.8334 9.16675 10.4584 9.16675 10.0001C9.16675 9.54175 9.54175 9.16675 10.0001 9.16675C10.4584 9.16675 10.8334 9.54175 10.8334 10.0001C10.8334 10.4584 10.4584 10.8334 10.0001 10.8334Z" fill="currentColor"/>
</svg>
