<svg width="20" height="20" viewBox="0 0 20 20" fill="none" xmlns="http://www.w3.org/2000/svg">
<path d="M17.5 6.8916V13.1084L13.1084 17.5H6.8916L2.5 13.1084V6.8916L6.8916 2.5H13.1084L17.5 6.8916ZM4.16699 7.58301V12.417L7.58301 15.833H12.417L15.833 12.417V7.58301L12.417 4.16699H7.58301L4.16699 7.58301ZM10 12.5C10.4601 12.5 10.8328 12.8729 10.833 13.333C10.833 13.7932 10.4602 14.167 10 14.167C9.53976 14.167 9.16699 13.7932 9.16699 13.333C9.16717 12.8729 9.53987 12.5 10 12.5ZM10.833 11.667H9.16699V5.83301H10.833V11.667Z" fill="currentColor"/>
</svg>
