<svg width="20" height="20" viewBox="0 0 20 20" fill="none" xmlns="http://www.w3.org/2000/svg">
<path d="M9.1665 12.5H10.8332V14.1666H9.1665V12.5ZM9.1665 5.83329H10.8332V10.8333H9.1665V5.83329ZM9.99984 1.66663C5.3915 1.66663 1.6665 5.41663 1.6665 9.99996C1.6665 12.2101 2.54448 14.3297 4.10728 15.8925C4.8811 16.6663 5.79976 17.2802 6.81081 17.699C7.82185 18.1177 8.90549 18.3333 9.99984 18.3333C12.21 18.3333 14.3296 17.4553 15.8924 15.8925C17.4552 14.3297 18.3332 12.2101 18.3332 9.99996C18.3332 8.90561 18.1176 7.82198 17.6988 6.81093C17.28 5.79988 16.6662 4.88122 15.8924 4.1074C15.1186 3.33358 14.1999 2.71975 13.1889 2.30096C12.1778 1.88217 11.0942 1.66663 9.99984 1.66663ZM9.99984 16.6666C8.23173 16.6666 6.53603 15.9642 5.28579 14.714C4.03555 13.4638 3.33317 11.7681 3.33317 9.99996C3.33317 8.23185 4.03555 6.53616 5.28579 5.28591C6.53603 4.03567 8.23173 3.33329 9.99984 3.33329C11.7679 3.33329 13.4636 4.03567 14.7139 5.28591C15.9641 6.53616 16.6665 8.23185 16.6665 9.99996C16.6665 11.7681 15.9641 13.4638 14.7139 14.714C13.4636 15.9642 11.7679 16.6666 9.99984 16.6666Z" fill="currentColor"/>
</svg>
