<svg width="20" height="20" viewBox="0 0 20 20" fill="none" xmlns="http://www.w3.org/2000/svg">
<path d="M10.8333 10.8333H9.16667V5.83333H10.8333V10.8333ZM10 14.4167C9.71268 14.4167 9.43713 14.3025 9.23397 14.0994C9.0308 13.8962 8.91667 13.6207 8.91667 13.3333C8.91667 13.046 9.0308 12.7705 9.23397 12.5673C9.43713 12.3641 9.71268 12.25 10 12.25C10.2873 12.25 10.5629 12.3641 10.766 12.5673C10.9692 12.7705 11.0833 13.046 11.0833 13.3333C11.0833 13.6207 10.9692 13.8962 10.766 14.0994C10.5629 14.3025 10.2873 14.4167 10 14.4167ZM13.1083 2.5H6.89167L2.5 6.89167V13.1083L6.89167 17.5H13.1083L17.5 13.1083V6.89167L13.1083 2.5Z" fill="currentColor"/>
</svg>
