<svg width="20" height="20" viewBox="0 0 20 20" fill="none" xmlns="http://www.w3.org/2000/svg">
<path d="M15.5 5.83325C14.3 5.83325 13.1667 6.29992 12.3583 7.10825L6.5 12.3083C5.96667 12.8416 5.25833 13.1333 4.5 13.1333C2.94167 13.1333 1.66667 11.8749 1.66667 10.3166C1.66667 8.75825 2.94167 7.49992 4.5 7.49992C5.25833 7.49992 5.96667 7.79159 6.53333 8.35825L7.475 9.19159L8.75 8.07492L7.68333 7.14992C6.83333 6.29992 5.7 5.83325 4.5 5.83325C2.01667 5.83325 0 7.84992 0 10.3166C0 12.7833 2.01667 14.7999 4.5 14.7999C5.7 14.7999 6.83333 14.3333 7.64167 13.5249L13.5 8.32492C14.0333 7.79159 14.7417 7.49992 15.5 7.49992C17.0583 7.49992 18.3333 8.75825 18.3333 10.3166C18.3333 11.8749 17.0583 13.1333 15.5 13.1333C14.75 13.1333 14.0333 12.8416 13.4667 12.2749L12.5 11.4333L11.25 12.5499L12.3167 13.4833C13.1667 14.3249 14.2917 14.7916 15.5 14.7916C17.9833 14.7916 20 12.7833 20 10.3166C20 7.81659 17.9833 5.83325 15.5 5.83325Z" fill="currentColor"/>
</svg>
