<svg width="20" height="20" viewBox="0 0 20 20" fill="none" xmlns="http://www.w3.org/2000/svg">
<path d="M15 15.4166C15.3315 15.4166 15.6495 15.2849 15.8839 15.0505C16.1183 14.816 16.25 14.4981 16.25 14.1666C16.25 13.8351 16.1183 13.5171 15.8839 13.2827C15.6495 13.0483 15.3315 12.9166 15 12.9166C14.6685 12.9166 14.3505 13.0483 14.1161 13.2827C13.8817 13.5171 13.75 13.8351 13.75 14.1666C13.75 14.4981 13.8817 14.816 14.1161 15.0505C14.3505 15.2849 14.6685 15.4166 15 15.4166ZM16.25 7.91659H14.1667V9.99992H17.8833L16.25 7.91659ZM5.00001 15.4166C5.33153 15.4166 5.64947 15.2849 5.88389 15.0505C6.11831 14.816 6.25001 14.4981 6.25001 14.1666C6.25001 13.8351 6.11831 13.5171 5.88389 13.2827C5.64947 13.0483 5.33153 12.9166 5.00001 12.9166C4.66849 12.9166 4.35055 13.0483 4.11613 13.2827C3.88171 13.5171 3.75001 13.8351 3.75001 14.1666C3.75001 14.4981 3.88171 14.816 4.11613 15.0505C4.35055 15.2849 4.66849 15.4166 5.00001 15.4166ZM16.6667 6.66659L19.1667 9.99992V14.1666H17.5C17.5 14.8296 17.2366 15.4655 16.7678 15.9344C16.2989 16.4032 15.6631 16.6666 15 16.6666C14.337 16.6666 13.7011 16.4032 13.2322 15.9344C12.7634 15.4655 12.5 14.8296 12.5 14.1666H7.50001C7.50001 14.8296 7.23662 15.4655 6.76778 15.9344C6.29894 16.4032 5.66305 16.6666 5.00001 16.6666C4.33697 16.6666 3.70108 16.4032 3.23224 15.9344C2.7634 15.4655 2.50001 14.8296 2.50001 14.1666H0.833344V4.99992C0.833344 4.07492 1.57501 3.33325 2.50001 3.33325H14.1667V6.66659H16.6667ZM6.66668 4.99992V7.49992H4.16668V9.16659H6.66668V11.6666H8.33334V9.16659H10.8333V7.49992H8.33334V4.99992H6.66668Z" fill="currentColor"/>
</svg>
