<svg width="20" height="20" viewBox="0 0 20 20" fill="none" xmlns="http://www.w3.org/2000/svg">
<path d="M10 1.66675C9.33696 1.66675 8.70107 1.93014 8.23223 2.39898C7.76339 2.86782 7.5 3.50371 7.5 4.16675C7.5 5.22508 8.16667 6.16675 9.16667 6.52508V8.33341H6.66667V10.0001H9.16667V15.7667C7.63333 15.5251 6.275 14.6417 5.44167 13.3334H6.66667V11.6667H2.5V15.8334H4.16667V14.4167C5.48333 16.3417 7.66667 17.5001 10 17.5001C12.3333 17.5001 14.5167 16.3417 15.8333 14.4251V15.8334H17.5V11.6667H13.3333V13.3334H14.55C13.7167 14.6334 12.3583 15.5251 10.8333 15.7667V10.0001H13.3333V8.33341H10.8333V6.51675C11.8333 6.16675 12.5 5.22508 12.5 4.16675C12.5 3.50371 12.2366 2.86782 11.7678 2.39898C11.2989 1.93014 10.663 1.66675 10 1.66675ZM10 3.33341C10.221 3.33341 10.433 3.42121 10.5893 3.57749C10.7455 3.73377 10.8333 3.94573 10.8333 4.16675C10.8333 4.38776 10.7455 4.59972 10.5893 4.756C10.433 4.91228 10.221 5.00008 10 5.00008C9.77899 5.00008 9.56702 4.91228 9.41074 4.756C9.25446 4.59972 9.16667 4.38776 9.16667 4.16675C9.16667 3.94573 9.25446 3.73377 9.41074 3.57749C9.56702 3.42121 9.77899 3.33341 10 3.33341V3.33341Z" fill="currentColor"/>
</svg>
