<svg width="20" height="20" viewBox="0 0 20 20" fill="none" xmlns="http://www.w3.org/2000/svg">
<path d="M6.66675 10.0354C6.39048 10.0354 6.12553 10.1452 5.93018 10.3405C5.73483 10.5359 5.62508 10.8008 5.62508 11.0771C5.62508 11.3534 5.73483 11.6183 5.93018 11.8137C6.12553 12.009 6.39048 12.1187 6.66675 12.1187C6.94302 12.1187 7.20797 12.009 7.40332 11.8137C7.59867 11.6183 7.70841 11.3534 7.70841 11.0771C7.70841 10.8008 7.59867 10.5359 7.40332 10.3405C7.20797 10.1452 6.94302 10.0354 6.66675 10.0354V10.0354ZM13.3334 10.0354C13.0571 10.0354 12.7922 10.1452 12.5968 10.3405C12.4015 10.5359 12.2917 10.8008 12.2917 11.0771C12.2917 11.3534 12.4015 11.6183 12.5968 11.8137C12.7922 12.009 13.0571 12.1187 13.3334 12.1187C13.6097 12.1187 13.8746 12.009 14.07 11.8137C14.2653 11.6183 14.3751 11.3534 14.3751 11.0771C14.3751 10.8008 14.2653 10.5359 14.07 10.3405C13.8746 10.1452 13.6097 10.0354 13.3334 10.0354V10.0354ZM10.0001 6.28542C11.2501 6.28542 12.4167 6.56042 13.4834 7.04375L15.2834 5.24375C15.6084 4.91875 16.1334 4.91875 16.4584 5.24375C16.7834 5.56875 16.7834 6.09375 16.4584 6.41875L14.9584 7.91875C17.0084 9.44375 18.3334 11.8771 18.3334 14.6187H1.66675C1.66675 11.8771 2.99175 9.44375 5.04175 7.91875L3.54175 6.41875C3.21675 6.09375 3.21675 5.56875 3.54175 5.24375C3.86675 4.91875 4.39175 4.91875 4.71675 5.24375L6.51675 7.04375C7.58341 6.56042 8.75008 6.28542 10.0001 6.28542Z" fill="currentColor"/>
</svg>
