<svg width="20" height="20" viewBox="0 0 20 20" fill="none" xmlns="http://www.w3.org/2000/svg">
<path d="M2.50004 1.66663C1.57504 1.66663 0.833374 2.40829 0.833374 3.33329V11.6666H2.50004V3.33329H10.8334V1.66663H2.50004ZM5.83337 4.99996C4.90837 4.99996 4.16671 5.74163 4.16671 6.66663V15H5.83337V6.66663H14.1667V4.99996H5.83337ZM9.16671 8.33329C8.24171 8.33329 7.50004 9.07496 7.50004 9.99996V16.6666C7.50004 17.5916 8.24171 18.3333 9.16671 18.3333H15.8334C16.7584 18.3333 17.5 17.5916 17.5 16.6666V9.99996C17.5 9.07496 16.7584 8.33329 15.8334 8.33329H9.16671Z" fill="currentColor"/>
</svg>
