<svg width="20" height="20" viewBox="0 0 20 20" fill="none" xmlns="http://www.w3.org/2000/svg">
<path d="M16.667 1.66699C17.5001 1.66719 18.3328 2.41661 18.333 3.33301V5.8418C18.333 6.44174 17.975 6.95835 17.5 7.25V16.667C17.4998 17.5835 16.5829 18.333 15.833 18.333H4.16699C3.41708 18.333 2.50022 17.5835 2.5 16.667V7.25C2.02503 6.95835 1.66704 6.44174 1.66699 5.8418V3.33301C1.66719 2.41661 2.49988 1.66719 3.33301 1.66699H16.667ZM4.16699 7.5V16.667H15.833V7.5H4.16699ZM12.5 10V11.667H7.5V10H12.5ZM3.33301 3.33301V5.83301H16.667V3.33301H3.33301Z" fill="currentColor"/>
</svg>
