<svg width="20" height="20" viewBox="0 0 20 20" fill="none" xmlns="http://www.w3.org/2000/svg">
<path d="M10.8467 9.1532H15.0811L13.8108 7.88287L15.0134 6.6803L18.3332 10.0001L15.0134 13.3199L13.8108 12.1173L15.0811 10.847H10.8467V15.0814L12.117 13.8111L13.3196 15.0136L9.99984 18.3334L6.68005 15.0136L7.88263 13.8111L9.15295 15.0814V10.847H4.91854L6.18886 12.1173L4.98629 13.3199L1.6665 10.0001L4.98629 6.6803L6.18886 7.88287L4.91854 9.1532H9.15295V4.91878L7.88263 6.18911L6.68005 4.98653L9.99984 1.66675L13.3196 4.98653L12.117 6.18911L10.8467 4.91878V9.1532Z" fill="currentColor"/>
</svg>
