<svg width="20" height="20" viewBox="0 0 20 20" fill="none" xmlns="http://www.w3.org/2000/svg">
<path d="M10 1.66675C10.175 1.66675 10.3413 1.71717 10.4746 1.81714L17.0586 5.51636C17.3251 5.65798 17.4999 5.93324 17.5 6.24976V13.7498C17.5 14.0663 17.3251 14.3414 17.0586 14.4832L10.4746 18.1833C10.3413 18.2832 10.1749 18.3337 10 18.3337C9.8251 18.3337 9.65869 18.2832 9.52539 18.1833L2.94141 14.4832C2.67491 14.3414 2.5 14.0663 2.5 13.7498V6.24976C2.50012 5.93324 2.67485 5.65798 2.94141 5.51636L9.52539 1.81714C9.65871 1.71717 9.82503 1.66675 10 1.66675ZM4.16699 6.74194V13.2585L10 16.5417L15.833 13.2585V6.74194L10 3.45874L4.16699 6.74194ZM14.167 9.99976L10 14.1667V11.6667H6.66699V8.33374H10V5.83374L14.167 9.99976Z" fill="currentColor"/>
</svg>
