<svg width="20" height="20" viewBox="0 0 20 20" fill="none" xmlns="http://www.w3.org/2000/svg">
<path d="M10.0001 12.5001C10.6751 12.5001 11.2501 12.2501 11.7584 11.7584C12.2501 11.2501 12.5001 10.6751 12.5001 10.0001C12.5001 9.32508 12.2501 8.75008 11.7584 8.24175C11.2501 7.75008 10.6751 7.50008 10.0001 7.50008C9.32508 7.50008 8.75008 7.75008 8.24175 8.24175C7.75008 8.75008 7.50008 9.32508 7.50008 10.0001C7.50008 10.6751 7.75008 11.2501 8.24175 11.7584C8.75008 12.2501 9.32508 12.5001 10.0001 12.5001ZM10.0001 1.66675C12.2917 1.66675 14.2501 2.50008 15.8751 4.12508C17.5001 5.75008 18.3334 7.70841 18.3334 10.0001V11.2084C18.3334 12.0417 18.0417 12.7501 17.5001 13.3334C16.9167 13.8917 16.2501 14.1667 15.4167 14.1667C14.4167 14.1667 13.5917 13.7501 12.9667 12.9167C12.1334 13.7501 11.1501 14.1667 10.0001 14.1667C8.85841 14.1667 7.87508 13.7501 7.05008 12.9501C6.25008 12.1251 5.83341 11.1501 5.83341 10.0001C5.83341 8.85841 6.25008 7.87508 7.05008 7.05008C7.87508 6.25008 8.85841 5.83341 10.0001 5.83341C11.1501 5.83341 12.1251 6.25008 12.9501 7.05008C13.7501 7.87508 14.1667 8.85841 14.1667 10.0001V11.2084C14.1667 11.5501 14.3001 11.8501 14.5501 12.1084C14.8001 12.3667 15.0917 12.5001 15.4167 12.5001C15.7667 12.5001 16.0584 12.3667 16.3084 12.1084C16.5584 11.8501 16.6667 11.5501 16.6667 11.2084V10.0001C16.6667 8.17508 16.0251 6.60841 14.7084 5.29175C13.3917 3.97508 11.8251 3.33341 10.0001 3.33341C8.17508 3.33341 6.60841 3.97508 5.29175 5.29175C3.97508 6.60841 3.33341 8.17508 3.33341 10.0001C3.33341 11.8251 3.97508 13.3917 5.29175 14.7084C6.60841 16.0251 8.17508 16.6667 10.0001 16.6667H14.1667V18.3334H10.0001C7.70841 18.3334 5.75008 17.5001 4.12508 15.8751C2.50008 14.2501 1.66675 12.2917 1.66675 10.0001C1.66675 7.70841 2.50008 5.75008 4.12508 4.12508C5.75008 2.50008 7.70841 1.66675 10.0001 1.66675Z" fill="currentColor"/>
</svg>
