<svg width="20" height="20" viewBox="0 0 20 20" fill="none" xmlns="http://www.w3.org/2000/svg">
<path d="M6.25008 14.1667C5.03451 14.1667 3.86872 13.6838 3.00918 12.8242C2.14963 11.9647 1.66675 10.7989 1.66675 9.58333C1.66675 8.36776 2.14963 7.20197 3.00918 6.34243C3.86872 5.48289 5.03451 5 6.25008 5H15.0001C15.8841 5 16.732 5.35119 17.3571 5.97631C17.9822 6.60143 18.3334 7.44928 18.3334 8.33333C18.3334 9.21739 17.9822 10.0652 17.3571 10.6904C16.732 11.3155 15.8841 11.6667 15.0001 11.6667H7.91675C7.36421 11.6667 6.83431 11.4472 6.44361 11.0565C6.05291 10.6658 5.83341 10.1359 5.83341 9.58333C5.83341 9.0308 6.05291 8.5009 6.44361 8.11019C6.83431 7.71949 7.36421 7.5 7.91675 7.5H14.1667V8.75H7.91675C7.69573 8.75 7.48377 8.8378 7.32749 8.99408C7.17121 9.15036 7.08341 9.36232 7.08341 9.58333C7.08341 9.80435 7.17121 10.0163 7.32749 10.1726C7.48377 10.3289 7.69573 10.4167 7.91675 10.4167H15.0001C15.2737 10.4167 15.5446 10.3628 15.7973 10.2581C16.0501 10.1534 16.2798 9.99993 16.4732 9.80647C16.6667 9.61302 16.8201 9.38335 16.9248 9.13059C17.0295 8.87783 17.0834 8.60692 17.0834 8.33333C17.0834 8.05975 17.0295 7.78884 16.9248 7.53608C16.8201 7.28331 16.6667 7.05365 16.4732 6.86019C16.2798 6.66674 16.0501 6.51328 15.7973 6.40858C15.5446 6.30389 15.2737 6.25 15.0001 6.25H6.25008C5.36603 6.25 4.51818 6.60119 3.89306 7.22631C3.26794 7.85143 2.91675 8.69928 2.91675 9.58333C2.91675 10.4674 3.26794 11.3152 3.89306 11.9404C4.51818 12.5655 5.36603 12.9167 6.25008 12.9167H14.1667V14.1667H6.25008Z" fill="currentColor"/>
</svg>
