<svg width="20" height="20" viewBox="0 0 20 20" fill="none" xmlns="http://www.w3.org/2000/svg">
<path d="M14.9998 9.99992C14.9998 9.16659 14.7831 8.36659 14.4165 7.66659L15.6331 6.44992C16.2831 7.47492 16.6665 8.69159 16.6665 9.99992C16.6665 11.1583 16.3665 12.2333 15.8331 13.1833L14.5831 11.9333C14.8498 11.3333 14.9998 10.6916 14.9998 9.99992ZM1.99147 1.44159L0.924805 2.49992L4.58314 6.14159C3.79147 7.23325 3.33314 8.55825 3.33314 9.99992C3.33314 11.3083 3.71647 12.5249 4.36647 13.5499L5.58314 12.3333C5.20814 11.6416 4.9998 10.8333 4.9998 9.99992C4.9998 9.02492 5.28314 8.11659 5.76647 7.34159L12.6581 14.2333C11.8831 14.7166 10.9748 14.9999 9.9998 14.9999V12.4999L6.66647 15.8333L9.9998 19.1666V16.6666C11.4415 16.6666 12.7665 16.2083 13.8581 15.4166L17.3665 18.9416L18.4248 17.8833L1.99147 1.44159ZM9.9998 4.99992V7.33325L10.0831 7.41659L13.3331 4.16659L9.9998 0.833252V3.33325C8.8498 3.33325 7.76647 3.63325 6.81647 4.16659L8.06647 5.41659C8.66647 5.14992 9.31647 4.99992 9.9998 4.99992Z" fill="currentColor"/>
</svg>
