<svg width="20" height="20" viewBox="0 0 20 20" fill="none" xmlns="http://www.w3.org/2000/svg">
<path d="M10.0002 5.00004V7.50004L13.3335 4.16671L10.0002 0.833374V3.33337C6.31683 3.33337 3.3335 6.31671 3.3335 10C3.3335 11.3084 3.71683 12.525 4.36683 13.55L5.5835 12.3334C5.2085 11.6417 5.00016 10.8417 5.00016 10C5.00016 7.24171 7.24183 5.00004 10.0002 5.00004ZM15.6335 6.45004L14.4168 7.66671C14.7835 8.36671 15.0002 9.15837 15.0002 10C15.0002 12.7584 12.7585 15 10.0002 15V12.5L6.66683 15.8334L10.0002 19.1667V16.6667C13.6835 16.6667 16.6668 13.6834 16.6668 10C16.6668 8.69171 16.2835 7.47504 15.6335 6.45004V6.45004Z" fill="currentColor"/>
</svg>
