<svg width="20" height="20" viewBox="0 0 20 20" fill="none" xmlns="http://www.w3.org/2000/svg">
<path d="M6.25209 3.83337L4.16876 5.00004L5.33543 2.91671L4.16876 0.833374L6.25209 2.00004L8.33543 0.833374L7.16876 2.91671L8.33543 5.00004L6.25209 3.83337ZM16.2521 12L18.3354 10.8334L17.1688 12.9167L18.3354 15L16.2521 13.8334L14.1688 15L15.3354 12.9167L14.1688 10.8334L16.2521 12ZM18.3354 0.833374L17.1688 2.91671L18.3354 5.00004L16.2521 3.83337L14.1688 5.00004L15.3354 2.91671L14.1688 0.833374L16.2521 2.00004L18.3354 0.833374ZM11.1188 9.81671L13.1521 7.78337L11.3854 6.01671L9.35209 8.05004L11.1188 9.81671ZM11.9771 5.24171L13.9271 7.19171C14.2521 7.50004 14.2521 8.04171 13.9271 8.36671L4.20209 18.0917C3.87709 18.4167 3.33543 18.4167 3.02709 18.0917L1.07709 16.1417C0.752093 15.8334 0.752093 15.2917 1.07709 14.9667L10.8021 5.24171C11.1271 4.91671 11.6688 4.91671 11.9771 5.24171Z" fill="currentColor"/>
</svg>
