<svg width="20" height="20" viewBox="0 0 20 20" fill="none" xmlns="http://www.w3.org/2000/svg">
<path d="M3.33333 5.00008H5V15.0001H3.33333V5.00008ZM5.83333 5.00008H6.66667V15.0001H5.83333V5.00008ZM7.5 5.00008H10V15.0001H7.5V5.00008ZM10.8333 5.00008H11.6667V15.0001H10.8333V5.00008ZM13.3333 5.00008H15V15.0001H13.3333V5.00008ZM15.8333 5.00008H16.6667V15.0001H15.8333V5.00008ZM1.66667 3.33341V6.66675H0V3.33341C0 2.89139 0.175595 2.46746 0.488155 2.1549C0.800716 1.84234 1.22464 1.66675 1.66667 1.66675H5V3.33341H1.66667ZM18.3333 1.66675C18.7754 1.66675 19.1993 1.84234 19.5118 2.1549C19.8244 2.46746 20 2.89139 20 3.33341V6.66675H18.3333V3.33341H15V1.66675H18.3333ZM1.66667 13.3334V16.6667H5V18.3334H1.66667C1.22464 18.3334 0.800716 18.1578 0.488155 17.8453C0.175595 17.5327 0 17.1088 0 16.6667V13.3334H1.66667ZM18.3333 16.6667V13.3334H20V16.6667C20 17.1088 19.8244 17.5327 19.5118 17.8453C19.1993 18.1578 18.7754 18.3334 18.3333 18.3334H15V16.6667H18.3333Z" fill="currentColor"/>
</svg>
