<svg width="20" height="20" viewBox="0 0 20 20" fill="none" xmlns="http://www.w3.org/2000/svg">
<path d="M1.66663 1.66675H4.16663V4.16675H1.66663V1.66675ZM4.16663 5.83341H6.66663V8.33341H4.16663V5.83341ZM5.83329 1.66675H8.33329V4.16675H5.83329V1.66675ZM13.3333 9.16675L9.16663 5.00008H11.6666V1.66675H15V5.00008H17.5L13.3333 9.16675ZM5.41663 18.3334C4.76663 18.3334 4.19996 17.9584 3.92496 17.4167L1.74996 11.2001L1.66663 10.8334C1.66663 10.6124 1.75442 10.4004 1.9107 10.2442C2.06698 10.0879 2.27895 10.0001 2.49996 10.0001H15.8333C16.0543 10.0001 16.2663 10.0879 16.4225 10.2442C16.5788 10.4004 16.6666 10.6124 16.6666 10.8334L16.6333 11.0751L14.4083 17.4167C14.1333 17.9584 13.5666 18.3334 12.9166 18.3334H5.41663ZM5.50829 16.6667H12.825L14.6416 11.6667H3.68329L5.50829 16.6667Z" fill="currentColor"/>
</svg>
