<svg width="20" height="20" viewBox="0 0 20 20" fill="none" xmlns="http://www.w3.org/2000/svg">
<path d="M18.4248 17.8833L1.99147 1.44165L0.924805 2.49998L4.85814 6.43332C4.40814 7.27498 4.16647 8.21665 4.16647 9.16665V14.1667L2.4998 15.8333V16.6667H15.0915L17.3665 18.9416L18.4248 17.8833ZM5.83314 15V9.16665C5.83314 8.65832 5.9248 8.15832 6.11647 7.69165L13.4248 15H5.83314ZM8.33314 17.5H11.6665C11.6665 17.942 11.4909 18.3659 11.1783 18.6785C10.8658 18.9911 10.4418 19.1667 9.9998 19.1667C9.55778 19.1667 9.13385 18.9911 8.82129 18.6785C8.50873 18.3659 8.33314 17.942 8.33314 17.5ZM6.90814 4.24165C7.3498 3.95832 7.83314 3.74998 8.33314 3.57498C8.33314 3.49165 8.33314 3.41665 8.33314 3.33332C8.33314 2.89129 8.50873 2.46737 8.82129 2.15481C9.13385 1.84225 9.55778 1.66665 9.9998 1.66665C10.4418 1.66665 10.8658 1.84225 11.1783 2.15481C11.4909 2.46737 11.6665 2.89129 11.6665 3.33332C11.6665 3.41665 11.6665 3.49165 11.6665 3.57498C14.1415 4.30832 15.8331 6.58332 15.8331 9.16665V13.1666L14.1665 11.5V9.16665C14.1665 8.06158 13.7275 7.00177 12.9461 6.22037C12.1647 5.43897 11.1049 4.99998 9.9998 4.99998C9.3498 4.99998 8.70814 5.16665 8.13314 5.46665L6.90814 4.24165Z" fill="currentColor"/>
</svg>
