<svg width="20" height="20" viewBox="0 0 20 20" fill="none" xmlns="http://www.w3.org/2000/svg">
<path d="M14.1667 11.6667V14.1667H11.6667V15.8334H14.1667V18.3334H15.8333V15.8334H18.3333V14.1667H15.8333V11.6667M10 1.66675C9.55797 1.66675 9.13405 1.84234 8.82149 2.1549C8.50893 2.46746 8.33333 2.89139 8.33333 3.33341C8.32749 3.41386 8.32749 3.49463 8.33333 3.57508C5.93333 4.28341 4.16667 6.51675 4.16667 9.16675V14.1667L2.5 15.8334V16.6667H10.2917C10.1005 16.1318 10.0018 15.5682 10 15.0001C10 13.674 10.5268 12.4022 11.4645 11.4645C12.4021 10.5269 13.6739 10.0001 15 10.0001C15.2794 10.0018 15.5581 10.0268 15.8333 10.0751V9.16675C15.8333 6.51675 14.0667 4.28341 11.6667 3.57508C11.6725 3.49463 11.6725 3.41386 11.6667 3.33341C11.6667 2.89139 11.4911 2.46746 11.1785 2.1549C10.866 1.84234 10.442 1.66675 10 1.66675ZM8.33333 17.5001C8.33333 17.9421 8.50893 18.366 8.82149 18.6786C9.13405 18.9912 9.55797 19.1667 10 19.1667C10.2708 19.1667 10.5376 19.1007 10.7772 18.9744C11.0168 18.848 11.222 18.6652 11.375 18.4417C11.1055 18.1564 10.8706 17.8404 10.675 17.5001H8.33333Z" fill="currentColor"/>
</svg>
