<svg width="20" height="20" viewBox="0 0 20 20" fill="none" xmlns="http://www.w3.org/2000/svg">
<path d="M13.3333 14.1667H5.83333V8.75008C5.83333 6.66675 7.5 5.00008 9.58333 5.00008C11.6667 5.00008 13.3333 6.66675 13.3333 8.75008V14.1667ZM15 13.3334V8.75008C15 6.19175 13.2167 4.05008 10.8333 3.48341V2.91675C10.8333 2.58523 10.7016 2.26729 10.4672 2.03286C10.2328 1.79844 9.91485 1.66675 9.58333 1.66675C9.25181 1.66675 8.93387 1.79844 8.69945 2.03286C8.46503 2.26729 8.33333 2.58523 8.33333 2.91675V3.48341C5.94167 4.05008 4.16667 6.19175 4.16667 8.75008V13.3334L2.5 15.0001V15.8334H16.6667V15.0001L15 13.3334ZM9.58333 18.3334C10.0254 18.3334 10.4493 18.1578 10.7618 17.8453C11.0744 17.5327 11.25 17.1088 11.25 16.6667H7.91667C7.91667 17.1088 8.09226 17.5327 8.40482 17.8453C8.71738 18.1578 9.14131 18.3334 9.58333 18.3334Z" fill="currentColor"/>
</svg>
