<svg width="20" height="20" viewBox="0 0 20 20" fill="none" xmlns="http://www.w3.org/2000/svg">
<path d="M16.7667 12.0501L15 13.8251L13.2333 12.0501L12.05 13.2334L13.825 15.0001L12.05 16.7667L13.2333 17.9501L15 16.1751L16.7667 17.9501L17.95 16.7667L16.175 15.0001L17.95 13.2334M10 1.66675C9.08333 1.66675 8.33333 2.41675 8.33333 3.33341C8.33333 3.41675 8.33333 3.49175 8.33333 3.57508C5.93333 4.28341 4.16667 6.51675 4.16667 9.16675V14.1667L2.5 15.8334V16.6667H10.2917C10.1 16.1334 10 15.5667 10 15.0001H5.83333V9.16675C5.83333 8.06168 6.27232 7.00187 7.05372 6.22047C7.83512 5.43907 8.89493 5.00008 10 5.00008C11.1051 5.00008 12.1649 5.43907 12.9463 6.22047C13.7277 7.00187 14.1667 8.06168 14.1667 9.16675V10.0751C14.4417 10.0334 14.7167 10.0001 15 10.0001C15.2833 10.0001 15.5583 10.0251 15.8333 10.0751V9.16675C15.8333 6.51675 14.0667 4.28341 11.6667 3.57508C11.6667 3.49175 11.6667 3.41675 11.6667 3.33341C11.6667 2.41675 10.925 1.66675 10 1.66675ZM8.33333 17.5001C8.33333 18.4251 9.08333 19.1667 10 19.1667C10.55 19.1667 11.0667 18.8917 11.375 18.4417C11.1083 18.1584 10.875 17.8417 10.675 17.5001H8.33333Z" fill="currentColor"/>
</svg>
