<svg width="20" height="20" viewBox="0 0 20 20" fill="none" xmlns="http://www.w3.org/2000/svg">
<path d="M11.6667 16.6667C11.6667 17.1088 11.4911 17.5327 11.1785 17.8453C10.866 18.1578 10.442 18.3334 10 18.3334C9.55797 18.3334 9.13405 18.1578 8.82149 17.8453C8.50893 17.5327 8.33333 17.1088 8.33333 16.6667H11.6667ZM10 1.66675C10.221 1.66675 10.433 1.75455 10.5893 1.91083C10.7455 2.06711 10.8333 2.27907 10.8333 2.50008V3.40008C13.2 3.80008 15 5.85841 15 8.33341V13.3334L17.5 15.8334H2.5L5 13.3334V8.33341C5 5.85841 6.8 3.80008 9.16667 3.40008V2.50008C9.16667 2.27907 9.25446 2.06711 9.41074 1.91083C9.56702 1.75455 9.77899 1.66675 10 1.66675V1.66675Z" fill="currentColor"/>
</svg>
