<svg width="20" height="20" viewBox="0 0 20 20" fill="none" xmlns="http://www.w3.org/2000/svg">
<path d="M4.16667 17.75C3.39312 17.75 2.65125 17.4427 2.10427 16.8957C1.55729 16.3487 1.25 15.6068 1.25 14.8333C1.25 14.0597 1.55729 13.3179 2.10427 12.7709C2.65125 12.2239 3.39312 11.9166 4.16667 11.9166C4.94021 11.9166 5.68208 12.2239 6.22906 12.7709C6.77604 13.3179 7.08333 14.0597 7.08333 14.8333C7.08333 15.6068 6.77604 16.3487 6.22906 16.8957C5.68208 17.4427 4.94021 17.75 4.16667 17.75ZM4.16667 10.6666C3.0616 10.6666 2.00179 11.1056 1.22039 11.887C0.438987 12.6684 0 13.7282 0 14.8333C0 15.9384 0.438987 16.9982 1.22039 17.7796C2.00179 18.561 3.0616 19 4.16667 19C5.27174 19 6.33154 18.561 7.11294 17.7796C7.89435 16.9982 8.33333 15.9384 8.33333 14.8333C8.33333 13.7282 7.89435 12.6684 7.11294 11.887C6.33154 11.1056 5.27174 10.6666 4.16667 10.6666ZM12.3333 8.99996H15.8333V7.49996H13.1667L11.55 4.77496C11.3083 4.35829 10.8333 4.08329 10.3333 4.08329C9.94167 4.08329 9.58333 4.24163 9.33333 4.49996L6.25 7.57496C5.99167 7.83329 5.83333 8.16663 5.83333 8.58329C5.83333 9.10829 6.10833 9.54996 6.54167 9.80829L9.33333 11.5V15.6666H10.8333V10.25L8.95833 8.87496L10.8917 6.91663L12.3333 8.99996ZM15.8333 17.75C15.0598 17.75 14.3179 17.4427 13.7709 16.8957C13.224 16.3487 12.9167 15.6068 12.9167 14.8333C12.9167 14.0597 13.224 13.3179 13.7709 12.7709C14.3179 12.2239 15.0598 11.9166 15.8333 11.9166C16.6069 11.9166 17.3487 12.2239 17.8957 12.7709C18.4427 13.3179 18.75 14.0597 18.75 14.8333C18.75 15.6068 18.4427 16.3487 17.8957 16.8957C17.3487 17.4427 16.6069 17.75 15.8333 17.75ZM15.8333 10.6666C14.7283 10.6666 13.6685 11.1056 12.8871 11.887C12.1057 12.6684 11.6667 13.7282 11.6667 14.8333C11.6667 15.9384 12.1057 16.9982 12.8871 17.7796C13.6685 18.561 14.7283 19 15.8333 19C16.3805 19 16.9223 18.8922 17.4278 18.6828C17.9334 18.4734 18.3927 18.1665 18.7796 17.7796C19.1665 17.3927 19.4734 16.9333 19.6828 16.4278C19.8922 15.9223 20 15.3805 20 14.8333C20 14.2861 19.8922 13.7443 19.6828 13.2388C19.4734 12.7333 19.1665 12.2739 18.7796 11.887C18.3927 11.5001 17.9334 11.1932 17.4278 10.9838C16.9223 10.7744 16.3805 10.6666 15.8333 10.6666V10.6666ZM13.3333 4.66663C14.1667 4.66663 14.8333 3.99996 14.8333 3.16663C14.8333 2.33329 14.1667 1.66663 13.3333 1.66663C12.5 1.66663 11.8333 2.33329 11.8333 3.16663C11.8333 3.99996 12.5 4.66663 13.3333 4.66663Z" fill="currentColor"/>
</svg>
