<svg width="20" height="20" viewBox="0 0 20 20" fill="none" xmlns="http://www.w3.org/2000/svg">
<path d="M11.8667 8.80005C11.6084 9.83339 10.0001 9.30839 9.50008 9.16672L9.95842 7.35005C10.4751 7.50005 12.1334 7.71672 11.8667 8.80005ZM9.27508 10.1001L8.77508 12.1084C9.39175 12.2667 11.3001 12.8751 11.5834 11.7417C11.8834 10.5584 9.89175 10.2501 9.27508 10.1001ZM18.0834 12.0167C16.9667 16.4834 12.4501 19.2001 7.98342 18.0834C3.51675 16.9667 0.802582 12.4501 1.91675 7.98339C3.03342 3.51672 7.55008 0.803387 12.0167 1.91672C16.4751 3.03339 19.1917 7.55005 18.0834 12.0167ZM11.8417 6.70839L12.2167 5.20839L11.3001 5.00005L10.9334 6.44172C10.6917 6.38339 10.4501 6.32505 10.2001 6.27505L10.5667 4.80005L9.65842 4.58339L9.28342 6.07505C9.08342 6.02505 8.88341 5.98339 8.70008 5.93339L7.44175 5.61672L7.19175 6.59172C7.19175 6.59172 7.87508 6.75005 7.85842 6.75839C8.23342 6.85005 8.30008 7.08339 8.28342 7.29172L7.25842 11.4001C7.21675 11.5167 7.08342 11.6667 6.84175 11.6251C6.85008 11.6334 6.17508 11.4584 6.17508 11.4584L5.72508 12.5001L6.90842 12.8001C7.13342 12.8584 7.35008 12.9167 7.56675 12.9667L7.18342 14.4834L8.10008 14.7167L8.47508 13.2084C8.72508 13.2751 8.96675 13.3334 9.20008 13.4001L8.82508 14.8917L9.74175 15.1251L10.1251 13.6084C11.6667 13.9001 12.8501 13.7834 13.3334 12.3751C13.7501 11.2501 13.3334 10.5834 12.5001 10.1584C13.1001 10.0001 13.5501 9.62505 13.6751 8.80839C13.8417 7.70005 12.9917 7.10839 11.8417 6.70839Z" fill="currentColor"/>
</svg>
