<svg width="20" height="20" viewBox="0 0 20 20" fill="none" xmlns="http://www.w3.org/2000/svg">
<path d="M17.5002 3.74992C16.5752 3.45825 15.5585 3.33325 14.5835 3.33325C12.9585 3.33325 11.2085 3.66659 10.0002 4.58325C8.79183 3.66659 7.04183 3.33325 5.41683 3.33325C3.79183 3.33325 2.04183 3.66659 0.833496 4.58325V16.7916C0.833496 16.9999 1.04183 17.2083 1.25016 17.2083C1.3335 17.2083 1.37516 17.1666 1.4585 17.1666C2.5835 16.6249 4.2085 16.2499 5.41683 16.2499C7.04183 16.2499 8.79183 16.5833 10.0002 17.4999C11.1252 16.7916 13.1668 16.2499 14.5835 16.2499C15.9585 16.2499 17.3752 16.4999 18.5418 17.1249C18.6252 17.1666 18.6668 17.1666 18.7502 17.1666C18.9585 17.1666 19.1668 16.9583 19.1668 16.7499V4.58325C18.6668 4.20825 18.1252 3.95825 17.5002 3.74992ZM17.5002 14.9999C16.5835 14.7083 15.5835 14.5833 14.5835 14.5833C13.1668 14.5833 11.1252 15.1249 10.0002 15.8333V6.24992C11.1252 5.54159 13.1668 4.99992 14.5835 4.99992C15.5835 4.99992 16.5835 5.12492 17.5002 5.41659V14.9999Z" fill="currentColor"/>
</svg>
