<svg width="20" height="20" viewBox="0 0 20 20" fill="none" xmlns="http://www.w3.org/2000/svg">
<path d="M15.0002 1.66663C15.4422 1.66663 15.8661 1.84222 16.1787 2.15478C16.4912 2.46734 16.6668 2.89127 16.6668 3.33329V16.6666C16.6668 17.1087 16.4912 17.5326 16.1787 17.8451C15.8661 18.1577 15.4422 18.3333 15.0002 18.3333H5.00016C4.55814 18.3333 4.13421 18.1577 3.82165 17.8451C3.50909 17.5326 3.3335 17.1087 3.3335 16.6666V3.33329C3.3335 2.89127 3.50909 2.46734 3.82165 2.15478C4.13421 1.84222 4.55814 1.66663 5.00016 1.66663H15.0002ZM15.0002 3.33329H10.8335V9.99996L8.75016 8.12496L6.66683 9.99996V3.33329H5.00016V16.6666H15.0002V3.33329Z" fill="currentColor"/>
</svg>
