<svg width="20" height="20" viewBox="0 0 20 20" fill="none" xmlns="http://www.w3.org/2000/svg">
<path d="M10.8335 9.99992H16.6668V11.2499H10.8335V9.99992ZM10.8335 7.91659H16.6668V9.16659H10.8335V7.91659ZM10.8335 12.0833H16.6668V13.3333H10.8335V12.0833ZM17.5002 3.33325H2.50016C2.05814 3.33325 1.63421 3.50885 1.32165 3.82141C1.00909 4.13397 0.833496 4.55789 0.833496 4.99992V15.8333C0.833496 16.2753 1.00909 16.6992 1.32165 17.0118C1.63421 17.3243 2.05814 17.4999 2.50016 17.4999H17.5002C17.9422 17.4999 18.3661 17.3243 18.6787 17.0118C18.9912 16.6992 19.1668 16.2753 19.1668 15.8333V4.99992C19.1668 4.55789 18.9912 4.13397 18.6787 3.82141C18.3661 3.50885 17.9422 3.33325 17.5002 3.33325V3.33325ZM17.5002 15.8333H10.0002V4.99992H17.5002" fill="currentColor"/>
</svg>
