<svg width="20" height="20" viewBox="0 0 20 20" fill="none" xmlns="http://www.w3.org/2000/svg">
<path d="M11.8335 11.2501V12.2834C11.2502 12.7834 10.8335 13.5334 10.8335 14.3334V17.2501C10.8335 17.6334 10.9168 18.0001 11.0585 18.3334H5.00016C4.07516 18.3334 3.3335 17.5917 3.3335 16.6667V3.33341C3.3335 2.41675 4.07516 1.66675 5.00016 1.66675H5.8335V7.50008L7.91683 6.25008L10.0002 7.50008V1.66675H15.0002C15.9168 1.66675 16.6668 2.40841 16.6668 3.33341V7.59175C16.4002 7.53341 16.1168 7.50008 15.8335 7.50008C13.6668 7.50008 11.8335 9.21675 11.8335 11.2501ZM18.1668 13.3334H14.5835V11.2501C14.5835 10.5834 15.1668 10.1667 15.8335 10.1667C16.5002 10.1667 17.0835 10.5834 17.0835 11.2501V11.6667H18.1668V11.2501C18.1668 10.0834 17.0002 9.16675 15.8335 9.16675C14.6668 9.16675 13.5002 10.0834 13.5002 11.2501V13.3334C13.0002 13.3334 12.5002 13.8334 12.5002 14.3334V17.2501C12.5002 17.8334 13.0002 18.3334 13.5002 18.3334H18.0835C18.6668 18.3334 19.1668 17.8334 19.1668 17.3334V14.4167C19.1668 13.8334 18.6668 13.3334 18.1668 13.3334Z" fill="currentColor"/>
</svg>
