<svg width="20" height="20" viewBox="0 0 20 20" fill="none" xmlns="http://www.w3.org/2000/svg">
<path fill-rule="evenodd" clip-rule="evenodd" d="M18.4344 17.3762L17.3765 18.4342L15.6089 16.6666H2.50016C2.05814 16.6666 1.63434 16.4909 1.32178 16.1783C1.00922 15.8657 0.833496 15.4419 0.833496 14.9999V4.16659C0.833496 3.72456 1.00922 3.30076 1.32178 2.9882C1.42551 2.88447 1.542 2.79669 1.66683 2.72453L0.833496 1.89119L1.89144 0.833252L18.4344 17.3762ZM10.8335 14.9999H13.9422L10.8335 11.8912V14.9999ZM2.50016 4.16659V14.9999H9.16683V10.2245L3.10889 4.16659H2.50016Z" fill="currentColor"/>
<path d="M17.5002 2.49992C17.9422 2.49992 18.366 2.67564 18.6785 2.9882C18.9911 3.30076 19.1668 3.72456 19.1668 4.16659V14.9999C19.1668 15.3887 19.0305 15.763 18.7852 16.0603L17.5002 14.7753V4.16659H10.8335V8.10864L9.16683 6.44198V4.16659H6.89144L5.22477 2.49992H17.5002Z" fill="currentColor"/>
<path d="M16.6668 12.4999H15.2248L13.9748 11.2499H16.6668V12.4999Z" fill="currentColor"/>
<path d="M16.6668 10.4166H13.1414L11.8914 9.16659H16.6668V10.4166Z" fill="currentColor"/>
<path d="M16.6668 8.33325H11.6668V7.08325H16.6668V8.33325Z" fill="currentColor"/>
</svg>
