<svg width="20" height="20" viewBox="0 0 20 20" fill="none" xmlns="http://www.w3.org/2000/svg">
<path d="M15.8335 1.66663L11.6668 5.41663V14.5833L15.8335 10.8333V1.66663ZM5.41683 4.16663C3.79183 4.16663 2.04183 4.49996 0.833496 5.41663V17.6333C0.833496 17.8416 1.04183 18.05 1.25016 18.05C1.3335 18.05 1.37516 17.9916 1.4585 17.9916C2.5835 17.45 4.2085 17.0833 5.41683 17.0833C7.04183 17.0833 8.79183 17.4166 10.0002 18.3333C11.1252 17.625 13.1668 17.0833 14.5835 17.0833C15.9585 17.0833 17.3752 17.3416 18.5418 17.9666C18.6252 18.0083 18.6668 17.9916 18.7502 17.9916C18.9585 17.9916 19.1668 17.7833 19.1668 17.575V5.41663C18.6668 5.04163 18.1252 4.79163 17.5002 4.58329V6.24996V10.8333V15.8333C16.5835 15.5416 15.5835 15.4166 14.5835 15.4166C13.1668 15.4166 11.1252 15.9583 10.0002 16.6666V10.8333V7.08329V5.41663C8.79183 4.49996 7.04183 4.16663 5.41683 4.16663Z" fill="currentColor"/>
</svg>
