<svg width="20" height="20" viewBox="0 0 20 20" fill="none" xmlns="http://www.w3.org/2000/svg">
<path d="M11.8335 12.0834V12.2834C11.2502 12.7834 10.8335 13.5334 10.8335 14.3334V17.2501C10.8335 17.6334 10.9168 18.0001 11.0585 18.3334H5.00016C4.07516 18.3334 3.3335 17.5917 3.3335 16.6667V3.33341C3.3335 2.41675 4.07516 1.66675 5.00016 1.66675H5.8335V7.50008L7.91683 6.25008L10.0002 7.50008V1.66675H15.0002C15.9168 1.66675 16.6668 2.40841 16.6668 3.33341V8.42508C16.4002 8.36675 16.1168 8.33341 15.8335 8.33341C13.6668 8.33341 11.8335 10.0501 11.8335 12.0834ZM19.1668 14.4167V17.3334C19.1668 17.8334 18.6668 18.3334 18.0835 18.3334H13.5002C13.0002 18.3334 12.5002 17.8334 12.5002 17.2501V14.3334C12.5002 13.8334 13.0002 13.3334 13.5002 13.3334V12.0834C13.5002 10.9167 14.6668 10.0001 15.8335 10.0001C17.0002 10.0001 18.1668 10.9167 18.1668 12.0834V13.3334C18.6668 13.3334 19.1668 13.8334 19.1668 14.4167ZM17.0835 12.0834C17.0835 11.4167 16.5002 11.0001 15.8335 11.0001C15.1668 11.0001 14.5835 11.4167 14.5835 12.0834V13.3334H17.0835V12.0834Z" fill="currentColor"/>
</svg>
