<svg width="20" height="20" viewBox="0 0 20 20" fill="none" xmlns="http://www.w3.org/2000/svg">
<path d="M10.8335 15.8333C10.8335 16.75 11.0835 17.6 11.5085 18.3333H5.00016C4.07516 18.3333 3.3335 17.5916 3.3335 16.6666V3.33329C3.3335 2.41663 4.07516 1.66663 5.00016 1.66663H5.8335V7.49996L7.91683 6.24996L10.0002 7.49996V1.66663H15.0002C15.9168 1.66663 16.6668 2.40829 16.6668 3.33329V10.9083C16.3918 10.8666 16.1168 10.8333 15.8335 10.8333C13.0752 10.8333 10.8335 13.075 10.8335 15.8333ZM16.6668 15V12.5H15.0002V15H12.5002V16.6666H15.0002V19.1666H16.6668V16.6666H19.1668V15H16.6668Z" fill="currentColor"/>
</svg>
