<svg width="20" height="20" viewBox="0 0 20 20" fill="none" xmlns="http://www.w3.org/2000/svg">
<path d="M17.5002 2.5H2.50016C2.05814 2.5 1.63421 2.67559 1.32165 2.98816C1.00909 3.30072 0.833496 3.72464 0.833496 4.16667V15C0.833496 15.442 1.00909 15.866 1.32165 16.1785C1.63421 16.4911 2.05814 16.6667 2.50016 16.6667H17.5002C17.9422 16.6667 18.3661 16.4911 18.6787 16.1785C18.9912 15.866 19.1668 15.442 19.1668 15V4.16667C19.1668 3.72464 18.9912 3.30072 18.6787 2.98816C18.3661 2.67559 17.9422 2.5 17.5002 2.5ZM2.50016 15V4.16667H9.16683V15H2.50016ZM17.5002 15H10.8335V4.16667H17.5002V15ZM11.6668 7.08333H16.6668V8.33333H11.6668V7.08333ZM11.6668 9.16667H16.6668V10.4167H11.6668V9.16667ZM11.6668 11.25H16.6668V12.5H11.6668V11.25Z" fill="currentColor"/>
</svg>
