<svg width="20" height="20" viewBox="0 0 20 20" fill="none" xmlns="http://www.w3.org/2000/svg">
<path d="M2.5 2.5H15V15H2.5V2.5ZM15.8333 15.8333H17.5V17.5H15.8333V15.8333ZM15.8333 13.3333H17.5V15H15.8333V13.3333ZM15.8333 10.8333H17.5V12.5H15.8333V10.8333ZM15.8333 8.33333H17.5V10H15.8333V8.33333ZM15.8333 5.83333H17.5V7.5H15.8333V5.83333ZM13.3333 15.8333H15V17.5H13.3333V15.8333ZM10.8333 15.8333H12.5V17.5H10.8333V15.8333ZM8.33333 15.8333H10V17.5H8.33333V15.8333ZM5.83333 15.8333H7.5V17.5H5.83333V15.8333Z" fill="currentColor"/>
</svg>
