<svg width="20" height="20" viewBox="0 0 20 20" fill="none" xmlns="http://www.w3.org/2000/svg">
<path d="M16.6667 5.83333C17.1501 5.83333 17.5417 6 17.8501 6.325C18.1667 6.66667 18.3334 7.04167 18.3334 7.5V16.6667C18.3334 17.125 18.1667 17.5 17.8501 17.8417C17.5417 18.1667 17.1501 18.3333 16.6667 18.3333H3.33341C2.85008 18.3333 2.45841 18.1667 2.15008 17.8417C1.83341 17.5 1.66675 17.125 1.66675 16.6667V7.5C1.66675 7.04167 1.83341 6.66667 2.15008 6.325C2.45841 6 2.85008 5.83333 3.33341 5.83333H6.66675V4.16667C6.66675 3.68333 6.83341 3.29167 7.15008 2.98333C7.45841 2.66667 7.85008 2.5 8.33341 2.5H11.6667C12.1501 2.5 12.5417 2.66667 12.8501 2.98333C13.1667 3.29167 13.3334 3.68333 13.3334 4.16667V5.83333H16.6667ZM3.33341 7.5V16.6667H16.6667V7.5H3.33341ZM11.6667 5.83333V4.16667H8.33341V5.83333H11.6667Z" fill="currentColor"/>
</svg>
