<svg width="20" height="20" viewBox="0 0 20 20" fill="none" xmlns="http://www.w3.org/2000/svg">
<path d="M8.33341 2.5H11.6667C12.1088 2.5 12.5327 2.67559 12.8453 2.98816C13.1578 3.30072 13.3334 3.72464 13.3334 4.16667V5.83333H16.6667C17.1088 5.83333 17.5327 6.00893 17.8453 6.32149C18.1578 6.63405 18.3334 7.05797 18.3334 7.5V16.6667C18.3334 17.1087 18.1578 17.5326 17.8453 17.8452C17.5327 18.1577 17.1088 18.3333 16.6667 18.3333H3.33341C2.40841 18.3333 1.66675 17.5833 1.66675 16.6667V7.5C1.66675 6.575 2.40841 5.83333 3.33341 5.83333H6.66675V4.16667C6.66675 3.24167 7.40841 2.5 8.33341 2.5ZM11.6667 5.83333V4.16667H8.33341V5.83333H11.6667ZM10.0001 16.6667L14.1667 12.5H11.6667V9.16667H8.33341V12.5H5.83341L10.0001 16.6667Z" fill="currentColor"/>
</svg>
