<svg width="20" height="20" viewBox="0 0 20 20" fill="none" xmlns="http://www.w3.org/2000/svg">
<path d="M16.6667 5.00008H13.3334V3.33341C13.3334 2.89139 13.1578 2.46746 12.8453 2.1549C12.5327 1.84234 12.1088 1.66675 11.6667 1.66675H8.33341C7.40841 1.66675 6.66675 2.40841 6.66675 3.33341V5.00008H3.33341C2.40841 5.00008 1.66675 5.74175 1.66675 6.66675V15.8334C1.66675 16.2754 1.84234 16.6994 2.1549 17.0119C2.46746 17.3245 2.89139 17.5001 3.33341 17.5001H16.6667C17.1088 17.5001 17.5327 17.3245 17.8453 17.0119C18.1578 16.6994 18.3334 16.2754 18.3334 15.8334V6.66675C18.3334 6.22472 18.1578 5.8008 17.8453 5.48824C17.5327 5.17568 17.1088 5.00008 16.6667 5.00008ZM8.33341 3.33341H11.6667V5.00008H8.33341V3.33341ZM10.0001 7.50008C10.5526 7.50008 11.0825 7.71957 11.4732 8.11028C11.8639 8.50098 12.0834 9.03088 12.0834 9.58341C12.0834 10.1359 11.8639 10.6659 11.4732 11.0566C11.0825 11.4473 10.5526 11.6667 10.0001 11.6667C9.44755 11.6667 8.91764 11.4473 8.52694 11.0566C8.13624 10.6659 7.91675 10.1359 7.91675 9.58341C7.91675 9.03088 8.13624 8.50098 8.52694 8.11028C8.91764 7.71957 9.44755 7.50008 10.0001 7.50008ZM14.1667 15.8334H5.83341V14.7917C5.83341 13.6417 7.70008 12.7084 10.0001 12.7084C12.3001 12.7084 14.1667 13.6417 14.1667 14.7917V15.8334Z" fill="currentColor"/>
</svg>
