<svg width="20" height="20" viewBox="0 0 20 20" fill="none" xmlns="http://www.w3.org/2000/svg">
<path d="M8.33341 2.5H11.6667C12.1088 2.5 12.5327 2.67559 12.8453 2.98816C13.1578 3.30072 13.3334 3.72464 13.3334 4.16667V5.83333H16.6667C17.1088 5.83333 17.5327 6.00893 17.8453 6.32149C18.1578 6.63405 18.3334 7.05797 18.3334 7.5V16.6667C18.3334 17.1087 18.1578 17.5326 17.8453 17.8452C17.5327 18.1577 17.1088 18.3333 16.6667 18.3333H3.33341C2.89139 18.3333 2.46746 18.1577 2.1549 17.8452C1.84234 17.5326 1.66675 17.1087 1.66675 16.6667V7.5C1.66675 7.05797 1.84234 6.63405 2.1549 6.32149C2.46746 6.00893 2.89139 5.83333 3.33341 5.83333H6.66675V4.16667C6.66675 3.72464 6.84234 3.30072 7.1549 2.98816C7.46746 2.67559 7.89139 2.5 8.33341 2.5ZM11.6667 5.83333V4.16667H8.33341V5.83333H11.6667ZM8.75008 15.4167L14.2417 9.925L13.0667 8.75L8.75008 13.0583L7.00841 11.325L5.83341 12.5L8.75008 15.4167Z" fill="currentColor"/>
</svg>
