<svg width="20" height="20" viewBox="0 0 20 20" fill="none" xmlns="http://www.w3.org/2000/svg">
<path d="M17.2583 3.86042L16.1417 2.74375C15.8333 2.41875 15.2917 2.41875 14.9667 2.74375L7.49999 10.2104L9.79166 12.5021L17.2583 5.03542C17.5833 4.71042 17.5833 4.16875 17.2583 3.86042ZM5.83332 11.6687C5.17028 11.6687 4.5344 11.9321 4.06556 12.401C3.59672 12.8698 3.33332 13.5057 3.33332 14.1687C3.33332 15.2604 2.36666 15.8354 1.66666 15.8354C2.43332 16.8521 3.74999 17.5021 4.99999 17.5021C5.88404 17.5021 6.73189 17.1509 7.35701 16.5258C7.98213 15.9007 8.33332 15.0528 8.33332 14.1687C8.33332 13.5057 8.06993 12.8698 7.60109 12.401C7.13225 11.9321 6.49636 11.6687 5.83332 11.6687Z" fill="currentColor"/>
</svg>
