<svg width="20" height="20" viewBox="0 0 20 20" fill="none" xmlns="http://www.w3.org/2000/svg">
<path d="M13.3333 10.0001V13.3334C13.3333 13.5544 13.2455 13.7664 13.0892 13.9227C12.933 14.079 12.721 14.1667 12.5 14.1667C12.3583 14.1667 12.225 14.1667 11.7167 13.7501C11.2 13.3334 10.325 12.5001 9.42499 12.0834C8.59166 11.7001 7.73332 11.6667 6.88332 11.6667L7.89166 14.4334L7.91666 14.5834C7.91666 14.6939 7.87276 14.7999 7.79462 14.878C7.71648 14.9562 7.6105 15.0001 7.49999 15.0001H5.83332C5.64999 15.0001 5.49166 14.8834 5.44166 14.7167L4.32499 11.6667H4.16666C3.94564 11.6667 3.73368 11.579 3.5774 11.4227C3.42112 11.2664 3.33332 11.0544 3.33332 10.8334C2.8913 10.8334 2.46737 10.6578 2.15481 10.3453C1.84225 10.0327 1.66666 9.60878 1.66666 9.16675C1.66666 8.72472 1.84225 8.3008 2.15481 7.98824C2.46737 7.67568 2.8913 7.50008 3.33332 7.50008C3.33332 7.27907 3.42112 7.06711 3.5774 6.91083C3.73368 6.75455 3.94564 6.66675 4.16666 6.66675H6.66666C7.59166 6.66675 8.51666 6.66675 9.42499 6.25008C10.325 5.83341 11.2 5.00008 11.7167 4.58341C12.225 4.16675 12.3583 4.16675 12.5 4.16675C12.721 4.16675 12.933 4.25455 13.0892 4.41083C13.2455 4.56711 13.3333 4.77907 13.3333 5.00008V8.33341C13.5543 8.33341 13.7663 8.42121 13.9226 8.57749C14.0789 8.73377 14.1667 8.94573 14.1667 9.16675C14.1667 9.38776 14.0789 9.59972 13.9226 9.756C13.7663 9.91228 13.5543 10.0001 13.3333 10.0001ZM17.5 9.16675C17.5 10.3167 17.0333 11.3584 16.2833 12.1167L15.1 10.9334C15.55 10.4834 15.8333 9.85841 15.8333 9.16675C15.8333 8.47508 15.55 7.85008 15.1 7.40008L16.2833 6.21675C17.0333 6.97508 17.5 8.01675 17.5 9.16675Z" fill="currentColor"/>
</svg>
