<svg width="20" height="20" viewBox="0 0 20 20" fill="none" xmlns="http://www.w3.org/2000/svg">
<path d="M10.0334 2.91659L7.94175 4.99992H12.1084L10.0334 2.91659ZM3.33341 6.66659V17.4999H16.6667V6.66659H3.33341ZM10.0001 0.833252L14.1667 4.99992H16.6667C17.1088 4.99992 17.5327 5.17551 17.8453 5.48807C18.1578 5.80063 18.3334 6.22456 18.3334 6.66659V17.4999C18.3334 17.9419 18.1578 18.3659 17.8453 18.6784C17.5327 18.991 17.1088 19.1666 16.6667 19.1666H3.33341C2.89139 19.1666 2.46746 18.991 2.1549 18.6784C1.84234 18.3659 1.66675 17.9419 1.66675 17.4999V6.66659C1.66675 6.22456 1.84234 5.80063 2.1549 5.48807C2.46746 5.17551 2.89139 4.99992 3.33341 4.99992H5.83341L10.0001 0.833252ZM5.83341 15.8333V12.4999H10.0001V15.8333H5.83341ZM11.6667 14.9999V9.16659H15.0001V14.9999H11.6667ZM5.00008 10.8333V8.33325H9.16675V10.8333H5.00008Z" fill="currentColor"/>
</svg>
