<svg width="20" height="20" viewBox="0 0 20 20" fill="none" xmlns="http://www.w3.org/2000/svg">
<path d="M2.50001 5C1.57501 5 0.833344 5.74167 0.833344 6.66667V12.5H2.50001C2.50001 13.163 2.7634 13.7989 3.23224 14.2678C3.70108 14.7366 4.33697 15 5.00001 15C5.66305 15 6.29894 14.7366 6.76778 14.2678C7.23662 13.7989 7.50001 13.163 7.50001 12.5H12.5C12.5 13.163 12.7634 13.7989 13.2322 14.2678C13.7011 14.7366 14.337 15 15 15C15.6631 15 16.2989 14.7366 16.7678 14.2678C17.2366 13.7989 17.5 13.163 17.5 12.5H19.1667V6.66667C19.1667 5.74167 18.425 5 17.5 5H2.50001ZM2.08334 6.25H5.41668V8.33333H2.08334V6.25ZM6.66668 6.25H10V8.33333H6.66668V6.25ZM11.25 6.25H14.5833V8.33333H11.25V6.25ZM15.8333 6.25H17.9167V10.8333L15.8333 9.16667V6.25ZM5.00001 11.25C5.33153 11.25 5.64947 11.3817 5.88389 11.6161C6.11831 11.8505 6.25001 12.1685 6.25001 12.5C6.25001 12.8315 6.11831 13.1495 5.88389 13.3839C5.64947 13.6183 5.33153 13.75 5.00001 13.75C4.66849 13.75 4.35055 13.6183 4.11613 13.3839C3.88171 13.1495 3.75001 12.8315 3.75001 12.5C3.75001 12.1685 3.88171 11.8505 4.11613 11.6161C4.35055 11.3817 4.66849 11.25 5.00001 11.25V11.25ZM15 11.25C15.3315 11.25 15.6495 11.3817 15.8839 11.6161C16.1183 11.8505 16.25 12.1685 16.25 12.5C16.25 12.8315 16.1183 13.1495 15.8839 13.3839C15.6495 13.6183 15.3315 13.75 15 13.75C14.6685 13.75 14.3505 13.6183 14.1161 13.3839C13.8817 13.1495 13.75 12.8315 13.75 12.5C13.75 12.1685 13.8817 11.8505 14.1161 11.6161C14.3505 11.3817 14.6685 11.25 15 11.25Z" fill="currentColor"/>
</svg>
