<svg width="20" height="20" viewBox="0 0 20 20" fill="none" xmlns="http://www.w3.org/2000/svg">
<path d="M15 9.16675H5.00001V5.00008H15V9.16675ZM13.75 14.1667C13.4185 14.1667 13.1005 14.0351 12.8661 13.8006C12.6317 13.5662 12.5 13.2483 12.5 12.9167C12.5 12.5852 12.6317 12.2673 12.8661 12.0329C13.1005 11.7984 13.4185 11.6667 13.75 11.6667C14.0815 11.6667 14.3995 11.7984 14.6339 12.0329C14.8683 12.2673 15 12.5852 15 12.9167C15 13.2483 14.8683 13.5662 14.6339 13.8006C14.3995 14.0351 14.0815 14.1667 13.75 14.1667V14.1667ZM6.25001 14.1667C5.91849 14.1667 5.60055 14.0351 5.36613 13.8006C5.13171 13.5662 5.00001 13.2483 5.00001 12.9167C5.00001 12.5852 5.13171 12.2673 5.36613 12.0329C5.60055 11.7984 5.91849 11.6667 6.25001 11.6667C6.58153 11.6667 6.89947 11.7984 7.13389 12.0329C7.36831 12.2673 7.50001 12.5852 7.50001 12.9167C7.50001 13.2483 7.36831 13.5662 7.13389 13.8006C6.89947 14.0351 6.58153 14.1667 6.25001 14.1667V14.1667ZM3.33334 13.3334C3.33334 14.0667 3.65834 14.7251 4.16668 15.1834V16.6667C4.16668 16.8878 4.25447 17.0997 4.41075 17.256C4.56703 17.4123 4.779 17.5001 5.00001 17.5001H5.83334C6.05436 17.5001 6.26632 17.4123 6.4226 17.256C6.57888 17.0997 6.66668 16.8878 6.66668 16.6667V15.8334H13.3333V16.6667C13.3333 16.8878 13.4211 17.0997 13.5774 17.256C13.7337 17.4123 13.9457 17.5001 14.1667 17.5001H15C15.221 17.5001 15.433 17.4123 15.5893 17.256C15.7455 17.0997 15.8333 16.8878 15.8333 16.6667V15.1834C16.3417 14.7251 16.6667 14.0667 16.6667 13.3334V5.00008C16.6667 2.08341 13.6833 1.66675 10 1.66675C6.31668 1.66675 3.33334 2.08341 3.33334 5.00008V13.3334Z" fill="currentColor"/>
</svg>
