<svg width="20" height="20" viewBox="0 0 20 20" fill="none" xmlns="http://www.w3.org/2000/svg">
<path d="M15.8335 6.66671L12.5002 10H15.0002C15.0002 11.3261 14.4734 12.5979 13.5357 13.5356C12.598 14.4733 11.3262 15 10.0002 15C9.16683 15 8.3585 14.7917 7.66683 14.4167L6.45016 15.6334C7.47516 16.2834 8.69183 16.6667 10.0002 16.6667C11.7683 16.6667 13.464 15.9643 14.7142 14.7141C15.9645 13.4638 16.6668 11.7682 16.6668 10H19.1668L15.8335 6.66671ZM5.00016 10C5.00016 8.67396 5.52695 7.40219 6.46463 6.46451C7.40231 5.52682 8.67408 5.00004 10.0002 5.00004C10.8335 5.00004 11.6418 5.20837 12.3335 5.58337L13.5502 4.36671C12.5252 3.71671 11.3085 3.33337 10.0002 3.33337C8.23205 3.33337 6.53636 4.03575 5.28612 5.286C4.03588 6.53624 3.3335 8.23193 3.3335 10H0.833496L4.16683 13.3334L7.50016 10" fill="currentColor"/>
</svg>
