<svg width="20" height="20" viewBox="0 0 20 20" fill="none" xmlns="http://www.w3.org/2000/svg">
<path d="M15.8333 16.6667V6.66675H4.16667V16.6667H15.8333ZM13.3333 1.66675H15V3.33341H15.8333C16.2754 3.33341 16.6993 3.50901 17.0118 3.82157C17.3244 4.13413 17.5 4.55805 17.5 5.00008V16.6667C17.5 17.1088 17.3244 17.5327 17.0118 17.8453C16.6993 18.1578 16.2754 18.3334 15.8333 18.3334H4.16667C3.24167 18.3334 2.5 17.5834 2.5 16.6667V5.00008C2.5 4.07508 3.24167 3.33341 4.16667 3.33341H5V1.66675H6.66667V3.33341H13.3333V1.66675ZM9.16667 8.33341H10.8333V10.8334H13.3333V12.5001H10.8333V15.0001H9.16667V12.5001H6.66667V10.8334H9.16667V8.33341Z" fill="currentColor"/>
</svg>
