<svg width="20" height="20" viewBox="0 0 20 20" fill="none" xmlns="http://www.w3.org/2000/svg">
<path d="M15.8333 16.6667H4.16667V7.50008H15.8333V16.6667ZM13.3333 1.66675V3.33341H6.66667V1.66675H5V3.33341H4.16667C3.24167 3.33341 2.5 4.07508 2.5 5.00008V16.6667C2.5 17.1088 2.67559 17.5327 2.98816 17.8453C3.30072 18.1578 3.72464 18.3334 4.16667 18.3334H15.8333C16.2754 18.3334 16.6993 18.1578 17.0118 17.8453C17.3244 17.5327 17.5 17.1088 17.5 16.6667V5.00008C17.5 4.07508 16.75 3.33341 15.8333 3.33341H15V1.66675H13.3333ZM14.1667 10.8334H10V15.0001H14.1667V10.8334Z" fill="currentColor"/>
</svg>
