<svg width="20" height="20" viewBox="0 0 20 20" fill="none" xmlns="http://www.w3.org/2000/svg">
<path d="M7.5 8.33325V9.99992H5.83333V8.33325H7.5ZM10.8333 8.33325V9.99992H9.16667V8.33325H10.8333ZM14.1667 8.33325V9.99992H12.5V8.33325H14.1667ZM15.8333 2.49992C16.2754 2.49992 16.6993 2.67551 17.0118 2.98807C17.3244 3.30063 17.5 3.72456 17.5 4.16659V15.8333C17.5 16.2753 17.3244 16.6992 17.0118 17.0118C16.6993 17.3243 16.2754 17.4999 15.8333 17.4999H4.16667C3.24167 17.4999 2.5 16.7499 2.5 15.8333V4.16659C2.5 3.72456 2.67559 3.30063 2.98816 2.98807C3.30072 2.67551 3.72464 2.49992 4.16667 2.49992H5V0.833252H6.66667V2.49992H13.3333V0.833252H15V2.49992H15.8333ZM15.8333 15.8333V6.66659H4.16667V15.8333H15.8333ZM7.5 11.6666V13.3333H5.83333V11.6666H7.5ZM10.8333 11.6666V13.3333H9.16667V11.6666H10.8333ZM14.1667 11.6666V13.3333H12.5V11.6666H14.1667Z" fill="currentColor"/>
</svg>
