<svg width="20" height="20" viewBox="0 0 20 20" fill="none" xmlns="http://www.w3.org/2000/svg">
<path d="M15.8333 16.6667H4.16667V7.50008H15.8333V16.6667ZM15.8333 3.33341H15V1.66675H13.3333V3.33341H6.66667V1.66675H5V3.33341H4.16667C3.24167 3.33341 2.5 4.08341 2.5 5.00008V16.6667C2.5 17.1088 2.67559 17.5327 2.98816 17.8453C3.30072 18.1578 3.72464 18.3334 4.16667 18.3334H15.8333C16.2754 18.3334 16.6993 18.1578 17.0118 17.8453C17.3244 17.5327 17.5 17.1088 17.5 16.6667V5.00008C17.5 4.55805 17.3244 4.13413 17.0118 3.82157C16.6993 3.50901 16.2754 3.33341 15.8333 3.33341ZM7.75833 15.0001L9.79167 12.9667L11.825 15.0001L12.7083 14.1167L10.675 12.0834L12.7083 10.0501L11.825 9.16675L9.79167 11.2001L7.75833 9.16675L6.875 10.0501L8.90833 12.0834L6.875 14.1167L7.75833 15.0001Z" fill="currentColor"/>
</svg>
