<svg width="20" height="20" viewBox="0 0 20 20" fill="none" xmlns="http://www.w3.org/2000/svg">
<path d="M5 1.66675V3.33341H4.16667C3.24167 3.33341 2.5 4.08341 2.5 5.00008V16.6667C2.5 17.1088 2.67559 17.5327 2.98816 17.8453C3.30072 18.1578 3.72464 18.3334 4.16667 18.3334H15.8333C16.2754 18.3334 16.6993 18.1578 17.0118 17.8453C17.3244 17.5327 17.5 17.1088 17.5 16.6667V5.00008C17.5 4.55805 17.3244 4.13413 17.0118 3.82157C16.6993 3.50901 16.2754 3.33341 15.8333 3.33341H15V1.66675H13.3333V3.33341H6.66667V1.66675H5ZM4.16667 7.50008H15.8333V16.6667H4.16667V7.50008ZM10.1583 8.33341C9.43333 8.33341 8.85 8.50008 8.4 8.82508C7.96667 9.16675 7.75 9.64175 7.75833 10.3001L7.76667 10.3251H9.375C9.38333 10.0751 9.45833 9.88341 9.60833 9.75008C9.75833 9.62508 9.94167 9.55841 10.1583 9.55841C10.4167 9.55841 10.6333 9.64175 10.7833 9.79175C10.9333 9.95008 11 10.1667 11 10.4167C11 10.6834 10.9417 10.9084 10.8083 11.1001C10.6917 11.2917 10.5167 11.4584 10.3 11.5917C9.875 11.8751 9.58333 12.1251 9.425 12.3501C9.25833 12.5667 9.16667 12.9167 9.16667 13.3334H10.8333C10.8333 13.0751 10.8667 12.8667 10.9417 12.7167C11.0167 12.5667 11.1583 12.4167 11.3667 12.2834C11.7417 12.0834 12.05 11.8417 12.2917 11.5084C12.5333 11.1751 12.6583 10.8334 12.6583 10.4167C12.6583 9.78341 12.4333 9.27508 11.9833 8.90008C11.5417 8.52508 10.9333 8.33341 10.1583 8.33341ZM9.16667 14.1667V15.8334H10.8333V14.1667H9.16667Z" fill="currentColor"/>
</svg>
