<svg width="20" height="20" viewBox="0 0 20 20" fill="none" xmlns="http://www.w3.org/2000/svg">
<path d="M11.6667 10.8333H12.9167V13.1833L14.9501 14.3583L14.3251 15.4416L11.6667 13.9083V10.8333ZM15.0001 6.66659H3.33341V15.8333H7.22508C6.86675 15.0749 6.66675 14.2249 6.66675 13.3333C6.66675 11.7862 7.28133 10.3024 8.37529 9.20846C9.46925 8.1145 10.953 7.49992 12.5001 7.49992C13.3917 7.49992 14.2417 7.69992 15.0001 8.05825V6.66659ZM3.33341 17.4999C2.40841 17.4999 1.66675 16.7499 1.66675 15.8333V4.16659C1.66675 3.24159 2.40841 2.49992 3.33341 2.49992H4.16675V0.833252H5.83341V2.49992H12.5001V0.833252H14.1667V2.49992H15.0001C15.4421 2.49992 15.866 2.67551 16.1786 2.98807C16.4912 3.30063 16.6667 3.72456 16.6667 4.16659V9.24992C17.7001 10.2999 18.3334 11.7416 18.3334 13.3333C18.3334 14.8803 17.7188 16.3641 16.6249 17.458C15.5309 18.552 14.0472 19.1666 12.5001 19.1666C10.9084 19.1666 9.46675 18.5333 8.41675 17.4999H3.33341ZM12.5001 9.29159C11.4282 9.29159 10.4002 9.7174 9.64219 10.4754C8.88423 11.2333 8.45841 12.2613 8.45841 13.3333C8.45841 15.5666 10.2667 17.3749 12.5001 17.3749C13.0308 17.3749 13.5564 17.2704 14.0468 17.0673C14.5371 16.8642 14.9827 16.5664 15.358 16.1911C15.7333 15.8158 16.031 15.3703 16.2341 14.8799C16.4372 14.3896 16.5417 13.864 16.5417 13.3333C16.5417 11.0999 14.7334 9.29159 12.5001 9.29159Z" fill="currentColor"/>
</svg>
