<svg width="20" height="20" viewBox="0 0 20 20" fill="none" xmlns="http://www.w3.org/2000/svg">
<path d="M5.83333 9.16659H7.5V10.8333H5.83333V9.16659ZM17.5 4.16659V15.8333C17.5 16.7583 16.7583 17.4999 15.8333 17.4999H4.16667C3.24167 17.4999 2.5 16.7499 2.5 15.8333V4.16659C2.5 3.24992 3.25 2.49992 4.16667 2.49992H5V0.833252H6.66667V2.49992H13.3333V0.833252H15V2.49992H15.8333C16.7583 2.49992 17.5 3.24992 17.5 4.16659ZM4.16667 5.83325H15.8333V4.16659H4.16667V5.83325ZM15.8333 15.8333V7.49992H4.16667V15.8333H15.8333ZM12.5 10.8333V9.16659H14.1667V10.8333H12.5ZM9.16667 10.8333V9.16659H10.8333V10.8333H9.16667ZM5.83333 12.4999H7.5V14.1666H5.83333V12.4999ZM12.5 14.1666V12.4999H14.1667V14.1666H12.5ZM9.16667 14.1666V12.4999H10.8333V14.1666H9.16667Z" fill="currentColor"/>
</svg>
