<svg width="20" height="20" viewBox="0 0 20 20" fill="none" xmlns="http://www.w3.org/2000/svg">
<path d="M5.83341 1.66667H14.1667V10.4167C14.1667 9.025 11.3917 8.33333 10.0001 8.33333C8.60841 8.33333 5.83341 9.025 5.83341 10.4167V1.66667ZM14.1667 0H5.83341C5.39139 0 4.96746 0.175595 4.6549 0.488155C4.34234 0.800716 4.16675 1.22464 4.16675 1.66667V13.3333C4.16675 13.7754 4.34234 14.1993 4.6549 14.5118C4.96746 14.8244 5.39139 15 5.83341 15H14.1667C14.6088 15 15.0327 14.8244 15.3453 14.5118C15.6578 14.1993 15.8334 13.7754 15.8334 13.3333V1.66667C15.8334 1.22464 15.6578 0.800716 15.3453 0.488155C15.0327 0.175595 14.6088 0 14.1667 0V0ZM10.0001 6.66667C10.4421 6.66667 10.866 6.49107 11.1786 6.17851C11.4912 5.86595 11.6667 5.44203 11.6667 5C11.6667 4.55797 11.4912 4.13405 11.1786 3.82149C10.866 3.50893 10.4421 3.33333 10.0001 3.33333C9.55805 3.33333 9.13413 3.50893 8.82157 3.82149C8.50901 4.13405 8.33341 4.55797 8.33341 5C8.33341 5.44203 8.50901 5.86595 8.82157 6.17851C9.13413 6.49107 9.55805 6.66667 10.0001 6.66667ZM11.6667 16.6667V18.3333H15.8334V16.6667H11.6667ZM8.33341 16.6667H4.16675V18.3333H8.33341V20L10.8334 17.5L8.33341 15V16.6667Z" fill="currentColor"/>
</svg>
