<svg width="20" height="20" viewBox="0 0 20 20" fill="none" xmlns="http://www.w3.org/2000/svg">
<path d="M3.33341 4.16667H5.83341L7.50008 2.5H12.5001L14.1667 4.16667H16.6667C17.1088 4.16667 17.5327 4.34226 17.8453 4.65482C18.1578 4.96738 18.3334 5.39131 18.3334 5.83333V15.8333C18.3334 16.2754 18.1578 16.6993 17.8453 17.0118C17.5327 17.3244 17.1088 17.5 16.6667 17.5H3.33341C2.89139 17.5 2.46746 17.3244 2.1549 17.0118C1.84234 16.6993 1.66675 16.2754 1.66675 15.8333V5.83333C1.66675 5.39131 1.84234 4.96738 2.1549 4.65482C2.46746 4.34226 2.89139 4.16667 3.33341 4.16667V4.16667ZM10.0001 6.66667C8.89501 6.66667 7.8352 7.10565 7.0538 7.88705C6.2724 8.66846 5.83341 9.72826 5.83341 10.8333C5.83341 11.9384 6.2724 12.9982 7.0538 13.7796C7.8352 14.561 8.89501 15 10.0001 15C11.1051 15 12.165 14.561 12.9464 13.7796C13.7278 12.9982 14.1667 11.9384 14.1667 10.8333C14.1667 9.72826 13.7278 8.66846 12.9464 7.88705C12.165 7.10565 11.1051 6.66667 10.0001 6.66667V6.66667ZM10.0001 8.33333C10.6631 8.33333 11.299 8.59672 11.7678 9.06557C12.2367 9.53441 12.5001 10.1703 12.5001 10.8333C12.5001 11.4964 12.2367 12.1323 11.7678 12.6011C11.299 13.0699 10.6631 13.3333 10.0001 13.3333C9.33704 13.3333 8.70115 13.0699 8.23231 12.6011C7.76347 12.1323 7.50008 11.4964 7.50008 10.8333C7.50008 10.1703 7.76347 9.53441 8.23231 9.06557C8.70115 8.59672 9.33704 8.33333 10.0001 8.33333V8.33333Z" fill="currentColor"/>
</svg>
