<svg width="20" height="20" viewBox="0 0 20 20" fill="none" xmlns="http://www.w3.org/2000/svg">
<path d="M4.99992 0H14.9999C15.4419 0 15.8659 0.175595 16.1784 0.488155C16.491 0.800716 16.6666 1.22464 16.6666 1.66667V18.3333C16.6666 18.7754 16.491 19.1993 16.1784 19.5118C15.8659 19.8244 15.4419 20 14.9999 20H4.99992C4.55789 20 4.13397 19.8244 3.82141 19.5118C3.50885 19.1993 3.33325 18.7754 3.33325 18.3333V1.66667C3.33325 1.22464 3.50885 0.800716 3.82141 0.488155C4.13397 0.175595 4.55789 0 4.99992 0V0ZM9.99992 5C10.663 5 11.2988 5.26339 11.7677 5.73223C12.2365 6.20107 12.4999 6.83696 12.4999 7.5C12.4999 8.16304 12.2365 8.79893 11.7677 9.26777C11.2988 9.73661 10.663 10 9.99992 10C9.33688 10 8.70099 9.73661 8.23215 9.26777C7.76331 8.79893 7.49992 8.16304 7.49992 7.5C7.49992 6.83696 7.76331 6.20107 8.23215 5.73223C8.70099 5.26339 9.33688 5 9.99992 5V5ZM9.16659 0.833333V2.5H10.8333V0.833333H9.16659ZM4.99992 3.33333V13.75C4.99992 12.6 7.24159 11.6667 9.99992 11.6667C12.7583 11.6667 14.9999 12.6 14.9999 13.75V3.33333H4.99992ZM10.8333 15H7.49992V16.6667H10.8333V18.3333L13.3333 15.8333L10.8333 13.3333V15Z" fill="currentColor"/>
</svg>
