<svg width="20" height="20" viewBox="0 0 20 20" fill="none" xmlns="http://www.w3.org/2000/svg">
<path d="M4.99992 0H14.9999C15.4419 0 15.8659 0.175595 16.1784 0.488155C16.491 0.800716 16.6666 1.22464 16.6666 1.66667V18.3333C16.6666 18.7754 16.491 19.1993 16.1784 19.5118C15.8659 19.8244 15.4419 20 14.9999 20H4.99992C4.55789 20 4.13397 19.8244 3.82141 19.5118C3.50885 19.1993 3.33325 18.7754 3.33325 18.3333V1.66667C3.33325 1.22464 3.50885 0.800716 3.82141 0.488155C4.13397 0.175595 4.55789 0 4.99992 0V0ZM9.99992 1.66667C9.55789 1.66667 9.13397 1.84226 8.82141 2.15482C8.50885 2.46738 8.33325 2.89131 8.33325 3.33333C8.33325 3.77536 8.50885 4.19928 8.82141 4.51184C9.13397 4.82441 9.55789 5 9.99992 5C10.4419 5 10.8659 4.82441 11.1784 4.51184C11.491 4.19928 11.6666 3.77536 11.6666 3.33333C11.6666 2.89131 11.491 2.46738 11.1784 2.15482C10.8659 1.84226 10.4419 1.66667 9.99992 1.66667ZM10.8333 15H7.49992V16.6667H10.8333V18.3333L13.3333 15.8333L10.8333 13.3333V15Z" fill="currentColor"/>
</svg>
