<svg width="20" height="20" viewBox="0 0 20 20" fill="none" xmlns="http://www.w3.org/2000/svg">
<path d="M3.33332 3.33325C2.8913 3.33325 2.46737 3.50885 2.15481 3.82141C1.84225 4.13397 1.66666 4.55789 1.66666 4.99992V14.1666H3.33332C3.33332 14.8296 3.59672 15.4655 4.06556 15.9344C4.5344 16.4032 5.17028 16.6666 5.83332 16.6666C6.49636 16.6666 7.13225 16.4032 7.60109 15.9344C8.06993 15.4655 8.33332 14.8296 8.33332 14.1666H18.3333V12.4999H15.8333V4.99992C15.8333 4.55789 15.6577 4.13397 15.3452 3.82141C15.0326 3.50885 14.6087 3.33325 14.1667 3.33325H3.33332ZM4.16666 7.49992H7.49999V9.99992H4.16666V7.49992ZM9.99999 7.49992H13.3333V12.4999H9.99999V7.49992ZM5.83332 13.3333C6.05434 13.3333 6.2663 13.421 6.42258 13.5773C6.57886 13.7336 6.66666 13.9456 6.66666 14.1666C6.66666 14.3876 6.57886 14.5996 6.42258 14.7558C6.2663 14.9121 6.05434 14.9999 5.83332 14.9999C5.61231 14.9999 5.40035 14.9121 5.24407 14.7558C5.08779 14.5996 4.99999 14.3876 4.99999 14.1666C4.99999 13.9456 5.08779 13.7336 5.24407 13.5773C5.40035 13.421 5.61231 13.3333 5.83332 13.3333Z" fill="currentColor"/>
</svg>
