<svg width="20" height="20" viewBox="0 0 20 20" fill="none" xmlns="http://www.w3.org/2000/svg">
<path d="M9.47519 2.5C10.1252 2.50833 10.7419 2.9 10.9835 3.54167L15.1502 13.5C15.2252 13.7167 15.2669 13.9583 15.2585 14.1667C15.2419 14.7917 14.8585 15.4083 14.2335 15.6667L8.09186 18.2083C7.87519 18.3083 7.65019 18.3333 7.43353 18.3333C6.79186 18.3167 6.18353 17.9333 5.92519 17.2917L1.79186 7.33333C1.44186 6.49167 1.85019 5.51667 2.70019 5.16667L8.83353 2.625C9.04186 2.55 9.25853 2.5 9.47519 2.5ZM12.3752 2.5H13.5835C14.0256 2.5 14.4495 2.67559 14.762 2.98816C15.0746 3.30072 15.2502 3.72464 15.2502 4.16667V9.45833L12.3752 2.5ZM16.9252 3.78333L18.0419 4.25833C18.9002 4.60833 19.2919 5.575 18.9502 6.425L16.9252 11.3083V3.78333ZM9.47519 4.14167L3.31686 6.7L7.45853 16.7083L13.6252 14.1583L9.47519 4.14167ZM7.35853 7.74167L10.0502 9.75L9.68353 13.0917L6.99186 11.075L7.35853 7.74167Z" fill="currentColor"/>
</svg>
