<svg width="20" height="20" viewBox="0 0 20 20" fill="none" xmlns="http://www.w3.org/2000/svg">
<path d="M17.5 6.66667V5.83333L15 7.5L12.5 5.83333V6.66667L15 8.33333L17.5 6.66667ZM18.3333 2.5H1.66667C1.22464 2.5 0.800716 2.67559 0.488155 2.98816C0.175595 3.30072 0 3.72464 0 4.16667L0 15.8333C0 16.2754 0.175595 16.6993 0.488155 17.0118C0.800716 17.3244 1.22464 17.5 1.66667 17.5H18.3333C18.7754 17.5 19.1993 17.3244 19.5118 17.0118C19.8244 16.6993 20 16.2754 20 15.8333V4.16667C20 3.72464 19.8244 3.30072 19.5118 2.98816C19.1993 2.67559 18.7754 2.5 18.3333 2.5ZM6.66667 5C7.32971 5 7.96559 5.26339 8.43443 5.73223C8.90327 6.20107 9.16667 6.83696 9.16667 7.5C9.16667 8.16304 8.90327 8.79893 8.43443 9.26777C7.96559 9.73661 7.32971 10 6.66667 10C6.00363 10 5.36774 9.73661 4.8989 9.26777C4.43006 8.79893 4.16667 8.16304 4.16667 7.5C4.16667 6.83696 4.43006 6.20107 4.8989 5.73223C5.36774 5.26339 6.00363 5 6.66667 5V5ZM11.6667 15H1.66667V14.1667C1.66667 12.5 5 11.5833 6.66667 11.5833C8.33333 11.5833 11.6667 12.5 11.6667 14.1667V15ZM18.3333 10H11.6667V5H18.3333" fill="currentColor"/>
</svg>
