<svg width="20" height="20" viewBox="0 0 20 20" fill="none" xmlns="http://www.w3.org/2000/svg">
<path d="M9.99996 7.50004H11.6666V5.00004H14.1666V3.33337H11.6666V0.833374H9.99996V3.33337H7.49996V5.00004H9.99996V7.50004ZM6.66663 15C6.2246 15 5.80068 15.1756 5.48811 15.4882C5.17555 15.8008 4.99996 16.2247 4.99996 16.6667C4.99996 17.1087 5.17555 17.5327 5.48811 17.8452C5.80068 18.1578 6.2246 18.3334 6.66663 18.3334C7.10865 18.3334 7.53258 18.1578 7.84514 17.8452C8.1577 17.5327 8.33329 17.1087 8.33329 16.6667C8.33329 16.2247 8.1577 15.8008 7.84514 15.4882C7.53258 15.1756 7.10865 15 6.66663 15ZM15 15C14.5579 15 14.134 15.1756 13.8214 15.4882C13.5089 15.8008 13.3333 16.2247 13.3333 16.6667C13.3333 17.1087 13.5089 17.5327 13.8214 17.8452C14.134 18.1578 14.5579 18.3334 15 18.3334C15.442 18.3334 15.8659 18.1578 16.1785 17.8452C16.491 17.5327 16.6666 17.1087 16.6666 16.6667C16.6666 16.2247 16.491 15.8008 16.1785 15.4882C15.8659 15.1756 15.442 15 15 15ZM6.80829 12.2917L6.83329 12.1917L7.58329 10.8334H13.7916C14.4166 10.8334 14.9666 10.4917 15.25 9.97504L18.4666 4.13337L17.0166 3.33337H17.0083L16.0916 5.00004L13.7916 9.16671H7.94163L7.83329 8.94171L5.96663 5.00004L5.17496 3.33337L4.39163 1.66671H1.66663V3.33337H3.33329L6.33329 9.65837L5.20829 11.7C5.07496 11.9334 4.99996 12.2084 4.99996 12.5C4.99996 12.9421 5.17555 13.366 5.48811 13.6786C5.80068 13.9911 6.2246 14.1667 6.66663 14.1667H16.6666V12.5H7.01663C6.90829 12.5 6.80829 12.4084 6.80829 12.2917Z" fill="currentColor"/>
</svg>
