<svg width="20" height="20" viewBox="0 0 20 20" fill="none" xmlns="http://www.w3.org/2000/svg">
<path d="M19.775 18.7167L1.89171 0.833374L0.833374 1.89171L4.49171 5.55004L6.33337 9.43337L5.20837 11.475C5.07504 11.7084 5.00004 11.9834 5.00004 12.275C5.00004 12.7171 5.17564 13.141 5.4882 13.4536C5.80076 13.7661 6.22468 13.9417 6.66671 13.9417H12.8834L14.0334 15.0917C13.6167 15.3917 13.3334 15.8834 13.3334 16.4417C13.3334 16.8837 13.509 17.3077 13.8215 17.6202C14.1341 17.9328 14.558 18.1084 15 18.1084C15.5584 18.1084 16.05 17.8334 16.35 17.4084L18.7167 19.775L19.775 18.7167ZM7.01671 12.275C6.96145 12.275 6.90846 12.2531 6.86939 12.214C6.83032 12.175 6.80837 12.122 6.80837 12.0667L6.83337 11.9667L7.58337 10.6084H9.55004L11.2167 12.275H7.01671ZM13.7917 10.6084C14.4167 10.6084 14.9667 10.2667 15.25 9.75004L18.2334 4.35837C18.3 4.22504 18.3334 4.08337 18.3334 3.94171C18.3334 3.72069 18.2456 3.50873 18.0893 3.35245C17.933 3.19617 17.7211 3.10837 17.5 3.10837H6.28337L13.7917 10.6084ZM6.66671 14.775C6.22468 14.775 5.80076 14.9506 5.4882 15.2632C5.17564 15.5758 5.00004 15.9997 5.00004 16.4417C5.00004 16.8837 5.17564 17.3077 5.4882 17.6202C5.80076 17.9328 6.22468 18.1084 6.66671 18.1084C7.10873 18.1084 7.53266 17.9328 7.84522 17.6202C8.15778 17.3077 8.33337 16.8837 8.33337 16.4417C8.33337 15.9997 8.15778 15.5758 7.84522 15.2632C7.53266 14.9506 7.10873 14.775 6.66671 14.775Z" fill="currentColor"/>
</svg>
