<svg width="20" height="20" viewBox="0 0 20 20" fill="none" xmlns="http://www.w3.org/2000/svg">
<path d="M15 15C14.075 15 13.3333 15.7416 13.3333 16.6666C13.3333 17.1087 13.5089 17.5326 13.8214 17.8451C14.134 18.1577 14.5579 18.3333 15 18.3333C15.442 18.3333 15.8659 18.1577 16.1785 17.8451C16.491 17.5326 16.6666 17.1087 16.6666 16.6666C16.6666 15.7416 15.9166 15 15 15ZM1.66663 1.66663V3.33329H3.33329L6.33329 9.65829L5.19996 11.7C5.07496 11.9333 4.99996 12.2083 4.99996 12.5C4.99996 12.942 5.17555 13.3659 5.48811 13.6785C5.80068 13.991 6.2246 14.1666 6.66663 14.1666H16.6666V12.5H7.01663C6.96137 12.5 6.90838 12.478 6.86931 12.4389C6.83024 12.3999 6.80829 12.3469 6.80829 12.2916C6.80829 12.25 6.81663 12.2166 6.83329 12.1916L7.58329 10.8333H13.7916C14.4166 10.8333 14.9666 10.4833 15.25 9.97496L18.2333 4.58329C18.2916 4.44996 18.3333 4.30829 18.3333 4.16663C18.3333 3.94561 18.2455 3.73365 18.0892 3.57737C17.9329 3.42109 17.721 3.33329 17.5 3.33329H5.17496L4.39163 1.66663H1.66663ZM6.66663 15C5.74163 15 4.99996 15.7416 4.99996 16.6666C4.99996 17.1087 5.17555 17.5326 5.48811 17.8451C5.80068 18.1577 6.2246 18.3333 6.66663 18.3333C7.10865 18.3333 7.53258 18.1577 7.84514 17.8451C8.1577 17.5326 8.33329 17.1087 8.33329 16.6666C8.33329 15.7416 7.58329 15 6.66663 15Z" fill="currentColor"/>
</svg>
