<svg width="20" height="20" viewBox="0 0 20 20" fill="none" xmlns="http://www.w3.org/2000/svg">
<path d="M1.66675 3.33337H18.3334V15.8334H1.66675V3.33337ZM16.6667 14.1667V5.00004H3.33341V14.1667H16.6667ZM14.1667 5.83337C14.1667 6.2754 14.3423 6.69932 14.6549 7.01188C14.9675 7.32445 15.3914 7.50004 15.8334 7.50004V11.6667C15.3914 11.6667 14.9675 11.8423 14.6549 12.1549C14.3423 12.4674 14.1667 12.8913 14.1667 13.3334H5.83341C5.83341 12.8913 5.65782 12.4674 5.34526 12.1549C5.0327 11.8423 4.60878 11.6667 4.16675 11.6667V7.50004C4.60878 7.50004 5.0327 7.32445 5.34526 7.01188C5.65782 6.69932 5.83341 6.2754 5.83341 5.83337H14.1667ZM14.1667 10V9.16671C14.1667 8.25004 13.6084 7.50004 12.9167 7.50004C12.2251 7.50004 11.6667 8.25004 11.6667 9.16671V10C11.6667 10.9167 12.2251 11.6667 12.9167 11.6667C13.6084 11.6667 14.1667 10.9167 14.1667 10ZM12.9167 8.33337C13.0273 8.33337 13.1332 8.37727 13.2114 8.45541C13.2895 8.53355 13.3334 8.63953 13.3334 8.75004V10.4167C13.3334 10.5272 13.2895 10.6332 13.2114 10.7113C13.1332 10.7895 13.0273 10.8334 12.9167 10.8334C12.8062 10.8334 12.7003 10.7895 12.6221 10.7113C12.544 10.6332 12.5001 10.5272 12.5001 10.4167V8.75004C12.5001 8.63953 12.544 8.53355 12.6221 8.45541C12.7003 8.37727 12.8062 8.33337 12.9167 8.33337ZM10.8334 10V9.16671C10.8334 8.25004 10.2751 7.50004 9.58341 7.50004C8.89175 7.50004 8.33341 8.25004 8.33341 9.16671V10C8.33341 10.9167 8.89175 11.6667 9.58341 11.6667C10.2751 11.6667 10.8334 10.9167 10.8334 10ZM9.58341 8.33337C9.69392 8.33337 9.7999 8.37727 9.87804 8.45541C9.95618 8.53355 10.0001 8.63953 10.0001 8.75004V10.4167C10.0001 10.5272 9.95618 10.6332 9.87804 10.7113C9.7999 10.7895 9.69392 10.8334 9.58341 10.8334C9.47291 10.8334 9.36693 10.7895 9.28879 10.7113C9.21065 10.6332 9.16675 10.5272 9.16675 10.4167V8.75004C9.16675 8.63953 9.21065 8.53355 9.28879 8.45541C9.36693 8.37727 9.47291 8.33337 9.58341 8.33337ZM6.66675 11.6667H7.50008V7.50004H6.66675L5.83341 7.91671V8.75004L6.66675 8.33337V11.6667Z" fill="currentColor"/>
</svg>
