<svg width="20" height="20" viewBox="0 0 20 20" fill="none" xmlns="http://www.w3.org/2000/svg">
<path d="M4.99992 17.5H14.9999L9.99992 12.5L4.99992 17.5ZM17.4999 1.66663H2.49992C2.05789 1.66663 1.63397 1.84222 1.32141 2.15478C1.00885 2.46734 0.833252 2.89127 0.833252 3.33329V13.3333C0.833252 13.7753 1.00885 14.1992 1.32141 14.5118C1.63397 14.8244 2.05789 15 2.49992 15H5.83325V13.3333H2.49992V3.33329H17.4999V13.3333H14.1666V15H17.4999C17.9419 15 18.3659 14.8244 18.6784 14.5118C18.991 14.1992 19.1666 13.7753 19.1666 13.3333V3.33329C19.1666 2.89127 18.991 2.46734 18.6784 2.15478C18.3659 1.84222 17.9419 1.66663 17.4999 1.66663Z" fill="currentColor"/>
</svg>
