<svg width="20" height="20" viewBox="0 0 20 20" fill="none" xmlns="http://www.w3.org/2000/svg">
<path d="M0.833374 8.33333V10C1.81829 10 2.79356 10.194 3.7035 10.5709C4.61344 10.9478 5.44024 11.5003 6.13668 12.1967C6.83311 12.8931 7.38556 13.7199 7.76247 14.6299C8.13938 15.5398 8.33337 16.5151 8.33337 17.5H10C10 12.4333 5.89171 8.33333 0.833374 8.33333ZM0.833374 11.6667V13.3333C1.38055 13.3333 1.92237 13.4411 2.42789 13.6505C2.93341 13.8599 3.39274 14.1668 3.77965 14.5537C4.16656 14.9406 4.47348 15.4 4.68287 15.9055C4.89227 16.411 5.00004 16.9528 5.00004 17.5H6.66671C6.66671 15.9529 6.05213 14.4692 4.95816 13.3752C3.8642 12.2812 2.38047 11.6667 0.833374 11.6667V11.6667ZM0.833374 15V17.5H3.33337C3.33337 16.837 3.06998 16.2011 2.60114 15.7322C2.1323 15.2634 1.49642 15 0.833374 15V15ZM17.5 2.5H2.50004C1.57504 2.5 0.833374 3.24167 0.833374 4.16667V6.66667H2.50004V4.16667H17.5V15.8333H11.6667V17.5H17.5C17.9421 17.5 18.366 17.3244 18.6786 17.0118C18.9911 16.6993 19.1667 16.2754 19.1667 15.8333V4.16667C19.1667 3.24167 18.4167 2.5 17.5 2.5Z" fill="currentColor"/>
</svg>
