<svg width="20" height="20" viewBox="0 0 20 20" fill="none" xmlns="http://www.w3.org/2000/svg">
<path d="M16.725 4.10825C18.2334 5.61659 19.1667 7.69992 19.1667 9.99992C19.1667 12.2999 18.2334 14.3833 16.725 15.8916L15.55 14.7166C16.7584 13.5166 17.5 11.8499 17.5 9.99992C17.5 8.15825 16.7584 6.48325 15.55 5.28325L16.725 4.10825ZM14.3667 6.46659C15.275 7.37492 15.8334 8.62492 15.8334 9.99992C15.8334 11.3749 15.275 12.6249 14.3667 13.5333L13.1917 12.3583C13.7917 11.7583 14.1667 10.9249 14.1667 9.99992C14.1667 9.07492 13.7917 8.24159 13.1917 7.64159L14.3667 6.46659ZM10.8334 8.33325C11.2754 8.33325 11.6993 8.50885 12.0119 8.82141C12.3244 9.13397 12.5 9.55789 12.5 9.99992C12.5 10.4419 12.3244 10.8659 12.0119 11.1784C11.6993 11.491 11.2754 11.6666 10.8334 11.6666C10.3913 11.6666 9.96742 11.491 9.65486 11.1784C9.3423 10.8659 9.16671 10.4419 9.16671 9.99992C9.16671 9.55789 9.3423 9.13397 9.65486 8.82141C9.96742 8.50885 10.3913 8.33325 10.8334 8.33325V8.33325ZM9.58337 0.833252C10.1359 0.833252 10.6658 1.05275 11.0565 1.44345C11.4472 1.83415 11.6667 2.36405 11.6667 2.91659V6.66659H10V3.33325H2.50004V15.8333H10V13.3333H11.6667V17.0833C11.6667 17.6358 11.4472 18.1657 11.0565 18.5564C10.6658 18.9471 10.1359 19.1666 9.58337 19.1666H2.91671C2.36417 19.1666 1.83427 18.9471 1.44357 18.5564C1.05287 18.1657 0.833374 17.6358 0.833374 17.0833V2.91659C0.833374 2.36405 1.05287 1.83415 1.44357 1.44345C1.83427 1.05275 2.36417 0.833252 2.91671 0.833252H9.58337Z" fill="currentColor"/>
</svg>
