<svg width="20" height="20" viewBox="0 0 20 20" fill="none" xmlns="http://www.w3.org/2000/svg">
<path d="M11.6666 1.66675C11.4456 1.66675 11.2336 1.75455 11.0773 1.91083C10.921 2.06711 10.8333 2.27907 10.8333 2.50008V5.00008H7.49992C6.57492 5.00008 5.83325 5.74175 5.83325 6.66675V16.6667C5.83325 17.5917 6.57492 18.3334 7.49992 18.3334H11.6666C12.5916 18.3334 13.3333 17.5917 13.3333 16.6667V6.66675C13.3333 6.05008 12.9999 5.51675 12.4999 5.23341V2.50008C12.4999 2.27907 12.4121 2.06711 12.2558 1.91083C12.0996 1.75455 11.8876 1.66675 11.6666 1.66675V1.66675ZM7.49992 6.66675H11.6666V10.8334H7.49992V6.66675ZM7.49992 12.5001H8.33325V13.3334H7.49992V12.5001ZM9.16659 12.5001H9.99992V13.3334H9.16659V12.5001ZM10.8333 12.5001H11.6666V13.3334H10.8333V12.5001ZM7.49992 14.1667H8.33325V15.0001H7.49992V14.1667ZM9.16659 14.1667H9.99992V15.0001H9.16659V14.1667ZM10.8333 14.1667H11.6666V15.0001H10.8333V14.1667ZM7.49992 15.8334H8.33325V16.6667H7.49992V15.8334ZM9.16659 15.8334H9.99992V16.6667H9.16659V15.8334ZM10.8333 15.8334H11.6666V16.6667H10.8333V15.8334Z" fill="currentColor"/>
</svg>
