<svg width="20" height="20" viewBox="0 0 20 20" fill="none" xmlns="http://www.w3.org/2000/svg">
<path d="M16.7249 4.10825C18.2333 5.61659 19.1666 7.69992 19.1666 9.99992C19.1666 12.2999 18.2333 14.3833 16.7249 15.8916L15.5499 14.7166C16.7583 13.5166 17.4999 11.8499 17.4999 9.99992C17.4999 8.15825 16.7583 6.48325 15.5499 5.28325L16.7249 4.10825ZM14.3666 6.46659C15.2749 7.37492 15.8333 8.62492 15.8333 9.99992C15.8333 11.3749 15.2749 12.6249 14.3666 13.5333L13.1916 12.3583C13.7916 11.7583 14.1666 10.9249 14.1666 9.99992C14.1666 9.07492 13.7916 8.24159 13.1916 7.64159L14.3666 6.46659ZM10.8333 8.33325C11.2753 8.33325 11.6992 8.50885 12.0118 8.82141C12.3243 9.13397 12.4999 9.55789 12.4999 9.99992C12.4999 10.4419 12.3243 10.8659 12.0118 11.1784C11.6992 11.491 11.2753 11.6666 10.8333 11.6666C10.3912 11.6666 9.9673 11.491 9.65474 11.1784C9.34218 10.8659 9.16659 10.4419 9.16659 9.99992C9.16659 9.55789 9.34218 9.13397 9.65474 8.82141C9.9673 8.50885 10.3912 8.33325 10.8333 8.33325V8.33325ZM9.58325 0.833252C10.1358 0.833252 10.6657 1.05275 11.0564 1.44345C11.4471 1.83415 11.6666 2.36405 11.6666 2.91659V6.66659H9.99992V3.33325H2.49992V15.8333H9.99992V13.3333H11.6666V17.0833C11.6666 17.6358 11.4471 18.1657 11.0564 18.5564C10.6657 18.9471 10.1358 19.1666 9.58325 19.1666H2.91659C2.36405 19.1666 1.83415 18.9471 1.44345 18.5564C1.05275 18.1657 0.833252 17.6358 0.833252 17.0833V2.91659C0.833252 2.36405 1.05275 1.83415 1.44345 1.44345C1.83415 1.05275 2.36405 0.833252 2.91659 0.833252H9.58325Z" fill="currentColor"/>
</svg>
