<svg width="20" height="20" viewBox="0 0 20 20" fill="none" xmlns="http://www.w3.org/2000/svg">
<path d="M13.4833 16.3333L11.8083 13.4333C12.625 12.8333 13.1917 11.9 13.3083 10.8333H16.6667C16.525 13.1333 15.2917 15.1333 13.4833 16.3333ZM10.8333 5.85833V2.5C14.4167 2.71667 17.2833 5.58333 17.5 9.16667H14.1417C13.95 7.425 12.575 6.05 10.8333 5.85833ZM5.83333 10.4167C5.83333 10.95 5.94167 11.4583 6.15 11.9167L3.25 13.5917C2.76667 12.6333 2.5 11.5583 2.5 10.4167C2.5 6.64167 5.45 3.55833 9.16667 3.33333V6.69167C7.29167 6.9 5.83333 8.48333 5.83333 10.4167ZM9.58333 17.5C7.10833 17.5 4.93333 16.25 3.66667 14.3167L6.56667 12.6417C7.25 13.5667 8.33333 14.1667 9.58333 14.1667C10.1167 14.1667 10.625 14.0583 11.0833 13.85L12.7583 16.75C11.8 17.2333 10.725 17.5 9.58333 17.5Z" fill="currentColor"/>
</svg>
