<svg width="20" height="20" viewBox="0 0 20 20" fill="none" xmlns="http://www.w3.org/2000/svg">
<path d="M10.8334 1.66675V4.19175C13.6584 4.60008 15.8334 7.01675 15.8334 9.95841C15.8334 10.7084 15.6834 11.4167 15.4167 12.0751L17.6001 13.3501C18.0667 12.3167 18.3334 11.1667 18.3334 9.95841C18.3334 5.64175 15.0417 2.08341 10.8334 1.66675ZM10.0001 15.7917C8.45299 15.7917 6.96925 15.1772 5.87529 14.0832C4.78133 12.9892 4.16675 11.5055 4.16675 9.95841C4.16675 7.01675 6.34175 4.60008 9.16675 4.19175V1.66675C4.95008 2.08341 1.66675 5.63341 1.66675 9.95841C1.66675 12.1686 2.54472 14.2882 4.10752 15.851C4.88135 16.6248 5.80001 17.2386 6.81105 17.6574C7.8221 18.0762 8.90573 18.2917 10.0001 18.2917C12.7501 18.2917 15.1917 16.9501 16.7084 14.8834L14.5417 13.6084C13.4751 14.9584 11.8417 15.7917 10.0001 15.7917Z" fill="currentColor"/>
</svg>
