<svg width="20" height="20" viewBox="0 0 20 20" fill="none" xmlns="http://www.w3.org/2000/svg">
<path d="M10.8334 1.66675C15.0417 2.08341 18.3334 5.64175 18.3334 9.95841C18.3334 11.1667 18.0667 12.3167 17.6001 13.3501L15.4167 12.0751C15.6834 11.4167 15.8334 10.7084 15.8334 9.95841C15.8334 7.01675 13.6584 4.60008 10.8334 4.19175V1.66675ZM10.0001 15.7917C11.8417 15.7917 13.4751 14.9584 14.5417 13.6084L16.7084 14.8834C15.1917 16.9501 12.7501 18.2917 10.0001 18.2917C5.39175 18.2917 1.66675 14.5417 1.66675 9.95841C1.66675 5.63341 4.95008 2.08341 9.16675 1.66675V4.19175C6.34175 4.60008 4.16675 7.01675 4.16675 9.95841C4.16675 11.5055 4.78133 12.9892 5.87529 14.0832C6.96925 15.1772 8.45299 15.7917 10.0001 15.7917ZM10.0001 4.95841C11.3262 4.95841 12.5979 5.4852 13.5356 6.42288C14.4733 7.36056 15.0001 8.63233 15.0001 9.95841C15.0001 12.4334 13.2001 14.4917 10.8334 14.8917V12.3167C11.8084 11.9751 12.5001 11.0501 12.5001 9.95841C12.5001 9.29537 12.2367 8.65949 11.7678 8.19065C11.299 7.72181 10.6631 7.45841 10.0001 7.45841L9.54175 7.50008L8.25841 5.27508C8.80008 5.06675 9.38341 4.95841 10.0001 4.95841ZM5.00008 9.95841C5.00008 8.40841 5.70841 7.04175 6.81675 6.10841L8.10008 8.33341C7.72508 8.76675 7.50008 9.34175 7.50008 9.95841C7.50008 11.0501 8.19175 11.9751 9.16675 12.3167V14.8917C6.80008 14.4917 5.00008 12.4334 5.00008 9.95841Z" fill="currentColor"/>
</svg>
