<svg width="20" height="20" viewBox="0 0 20 20" fill="none" xmlns="http://www.w3.org/2000/svg">
<path d="M16.6666 10.0001C16.6666 11.7682 15.9642 13.4639 14.714 14.7141C13.4638 15.9644 11.7681 16.6667 9.99996 16.6667C8.23185 16.6667 6.53616 15.9644 5.28591 14.7141C4.03567 13.4639 3.33329 11.7682 3.33329 10.0001C3.33329 8.23197 4.03567 6.53628 5.28591 5.28604C6.53616 4.03579 8.23185 3.33341 9.99996 3.33341C10.6333 3.33341 11.25 3.42508 11.8333 3.59175L13.1416 2.28341C12.175 1.88341 11.1166 1.66675 9.99996 1.66675C8.90561 1.66675 7.82198 1.8823 6.81093 2.30109C5.79988 2.71987 4.88122 3.3337 4.1074 4.10752C2.5446 5.67033 1.66663 7.78994 1.66663 10.0001C1.66663 12.2102 2.5446 14.3298 4.1074 15.8926C4.88122 16.6665 5.79988 17.2803 6.81093 17.6991C7.82198 18.1179 8.90561 18.3334 9.99996 18.3334C12.2101 18.3334 14.3297 17.4554 15.8925 15.8926C17.4553 14.3298 18.3333 12.2102 18.3333 10.0001H16.6666ZM6.59163 8.40008L5.41663 9.58341L9.16663 13.3334L17.5 5.00008L16.325 3.81675L9.16663 10.9751L6.59163 8.40008Z" fill="currentColor"/>
</svg>
