<svg width="20" height="20" viewBox="0 0 20 20" fill="none" xmlns="http://www.w3.org/2000/svg">
<path d="M11.6667 1.66675C9.89864 1.66675 8.20294 2.36913 6.9527 3.61937C5.70246 4.86961 5.00008 6.5653 5.00008 8.33341C5.00008 10.1015 5.70246 11.7972 6.9527 13.0475C8.20294 14.2977 9.89864 15.0001 11.6667 15.0001C13.4349 15.0001 15.1306 14.2977 16.3808 13.0475C17.631 11.7972 18.3334 10.1015 18.3334 8.33341H16.6667C16.6667 11.1001 14.4334 13.3334 11.6667 13.3334C10.3407 13.3334 9.0689 12.8066 8.13121 11.8689C7.19353 10.9313 6.66675 9.6595 6.66675 8.33341C6.66675 7.00733 7.19353 5.73556 8.13121 4.79788C9.0689 3.8602 10.3407 3.33341 11.6667 3.33341C12.0251 3.33341 12.3834 3.37508 12.7251 3.45008L14.0667 2.11675C13.3001 1.81675 12.5001 1.66675 11.6667 1.66675ZM17.1584 2.98341L11.6667 8.47508L9.68341 6.49175L8.50841 7.67508L11.6667 10.8334L18.3334 4.16675M4.10841 4.85008C2.56675 6.11675 1.66675 8.00841 1.66675 10.0001C1.66675 11.7682 2.36913 13.4639 3.61937 14.7141C4.86961 15.9644 6.5653 16.6667 8.33341 16.6667C8.86675 16.6667 9.39175 16.6001 9.90008 16.4751C8.43341 16.1501 7.08341 15.4167 5.97508 14.4084C4.35008 13.5417 3.33341 11.8417 3.33341 10.0001C3.33341 9.75008 3.35841 9.50841 3.39175 9.25841C3.35841 8.95008 3.33341 8.64175 3.33341 8.33341C3.33341 7.13341 3.60008 5.94175 4.10841 4.85008Z" fill="currentColor"/>
</svg>
