<svg width="20" height="20" viewBox="0 0 20 20" fill="none" xmlns="http://www.w3.org/2000/svg">
<path d="M15.8333 2.49992H12.35C12 1.53325 11.0833 0.833252 10 0.833252C8.91667 0.833252 8 1.53325 7.65 2.49992H4.16667C3.25 2.49992 2.5 3.24992 2.5 4.16659V15.8333C2.5 16.7583 3.25 17.4999 4.16667 17.4999H15.8333C16.7583 17.4999 17.5 16.7583 17.5 15.8333V4.16659C17.5 3.24992 16.7583 2.49992 15.8333 2.49992ZM10 2.49992C10.4583 2.49992 10.8333 2.87492 10.8333 3.33325C10.8333 3.79159 10.4583 4.16659 10 4.16659C9.54167 4.16659 9.16667 3.79159 9.16667 3.33325C9.16667 2.87492 9.54167 2.49992 10 2.49992ZM12.95 12.5999L11.7667 13.7833L10 12.0083L8.23333 13.7833L7.05833 12.5999L8.825 10.8333L7.05833 9.06659L8.23333 7.89159L10 9.65825L11.7667 7.89159L12.95 9.06659L11.175 10.8333L12.95 12.5999Z" fill="currentColor"/>
</svg>
