<svg width="20" height="20" viewBox="0 0 20 20" fill="none" xmlns="http://www.w3.org/2000/svg">
<path d="M16.6665 2.49992H13.9998C13.6665 1.49992 12.7498 0.833252 11.6665 0.833252C10.5832 0.833252 9.6665 1.49992 9.33317 2.49992H6.6665C5.74984 2.49992 4.99984 3.24992 4.99984 4.16659V14.1666C4.99984 15.0833 5.74984 15.8333 6.6665 15.8333H16.6665C17.5832 15.8333 18.3332 15.0833 18.3332 14.1666V4.16659C18.3332 3.24992 17.5832 2.49992 16.6665 2.49992ZM11.6665 2.49992C12.1665 2.49992 12.4998 2.91659 12.4998 3.33325C12.4998 3.74992 12.0832 4.16659 11.6665 4.16659C11.2498 4.16659 10.8332 3.74992 10.8332 3.33325C10.8332 2.91659 11.1665 2.49992 11.6665 2.49992ZM13.3332 11.6666H7.49984V9.99992H13.3332M15.8332 8.33325H7.49984V6.66659H15.8332M3.33317 17.4999H14.9998V19.1666H3.33317C2.4165 19.1666 1.6665 18.4166 1.6665 17.4999V5.83325H3.33317" fill="currentColor"/>
</svg>
