<svg width="20" height="20" viewBox="0 0 20 20" fill="none" xmlns="http://www.w3.org/2000/svg">
<path d="M10 4.16659C9.77899 4.16659 9.56702 4.07879 9.41074 3.92251C9.25446 3.76623 9.16667 3.55427 9.16667 3.33325C9.16667 3.11224 9.25446 2.90028 9.41074 2.744C9.56702 2.58772 9.77899 2.49992 10 2.49992C10.221 2.49992 10.433 2.58772 10.5893 2.744C10.7455 2.90028 10.8333 3.11224 10.8333 3.33325C10.8333 3.55427 10.7455 3.76623 10.5893 3.92251C10.433 4.07879 10.221 4.16659 10 4.16659ZM10.8333 11.6666H9.16667V6.66659H10.8333M10.8333 14.9999H9.16667V13.3333H10.8333M15.8333 2.49992H12.35C12 1.53325 11.0833 0.833252 10 0.833252C8.91667 0.833252 8 1.53325 7.65 2.49992H4.16667C3.72464 2.49992 3.30072 2.67551 2.98816 2.98807C2.67559 3.30063 2.5 3.72456 2.5 4.16659V15.8333C2.5 16.2753 2.67559 16.6992 2.98816 17.0118C3.30072 17.3243 3.72464 17.4999 4.16667 17.4999H15.8333C16.2754 17.4999 16.6993 17.3243 17.0118 17.0118C17.3244 16.6992 17.5 16.2753 17.5 15.8333V4.16659C17.5 3.72456 17.3244 3.30063 17.0118 2.98807C16.6993 2.67551 16.2754 2.49992 15.8333 2.49992Z" fill="currentColor"/>
</svg>
