<svg width="20" height="20" viewBox="0 0 20 20" fill="none" xmlns="http://www.w3.org/2000/svg">
<path d="M7.5 4.16675C7.5 3.50371 7.76339 2.86782 8.23223 2.39898C8.70107 1.93014 9.33696 1.66675 10 1.66675C10.663 1.66675 11.2989 1.93014 11.7678 2.39898C12.2366 2.86782 12.5 3.50371 12.5 4.16675H15.8333C16.2754 4.16675 16.6993 4.34234 17.0118 4.6549C17.3244 4.96746 17.5 5.39139 17.5 5.83341V16.6667C17.5 17.1088 17.3244 17.5327 17.0118 17.8453C16.6993 18.1578 16.2754 18.3334 15.8333 18.3334H4.16667C3.72464 18.3334 3.30072 18.1578 2.98816 17.8453C2.67559 17.5327 2.5 17.1088 2.5 16.6667V5.83341C2.5 5.39139 2.67559 4.96746 2.98816 4.6549C3.30072 4.34234 3.72464 4.16675 4.16667 4.16675H7.5ZM10 3.33341C9.77899 3.33341 9.56702 3.42121 9.41074 3.57749C9.25446 3.73377 9.16667 3.94573 9.16667 4.16675C9.16667 4.38776 9.25446 4.59972 9.41074 4.756C9.56702 4.91228 9.77899 5.00008 10 5.00008C10.221 5.00008 10.433 4.91228 10.5893 4.756C10.7455 4.59972 10.8333 4.38776 10.8333 4.16675C10.8333 3.94573 10.7455 3.73377 10.5893 3.57749C10.433 3.42121 10.221 3.33341 10 3.33341V3.33341ZM10.8333 10.8334V8.33341H9.16667V10.8334H6.66667V12.5001H9.16667V15.0001H10.8333V12.5001H13.3333V10.8334H10.8333Z" fill="currentColor"/>
</svg>
