<svg width="20" height="20" viewBox="0 0 20 20" fill="none" xmlns="http://www.w3.org/2000/svg">
<path d="M15 16.6667H5V15.5001C5 13.8334 8.33333 12.9167 10 12.9167C11.6667 12.9167 15 13.8334 15 15.5001V16.6667ZM10 6.66675C10.663 6.66675 11.2989 6.93014 11.7678 7.39898C12.2366 7.86782 12.5 8.50371 12.5 9.16675C12.5 9.82979 12.2366 10.4657 11.7678 10.9345C11.2989 11.4034 10.663 11.6667 10 11.6667C9.33696 11.6667 8.70107 11.4034 8.23223 10.9345C7.76339 10.4657 7.5 9.82979 7.5 9.16675C7.5 8.50371 7.76339 7.86782 8.23223 7.39898C8.70107 6.93014 9.33696 6.66675 10 6.66675V6.66675ZM10 3.33341C10.221 3.33341 10.433 3.42121 10.5893 3.57749C10.7455 3.73377 10.8333 3.94573 10.8333 4.16675C10.8333 4.38776 10.7455 4.59972 10.5893 4.756C10.433 4.91228 10.221 5.00008 10 5.00008C9.77899 5.00008 9.56702 4.91228 9.41074 4.756C9.25446 4.59972 9.16667 4.38776 9.16667 4.16675C9.16667 3.94573 9.25446 3.73377 9.41074 3.57749C9.56702 3.42121 9.77899 3.33341 10 3.33341V3.33341ZM15.8333 3.33341H12.35C12 2.36675 11.0833 1.66675 10 1.66675C8.91667 1.66675 8 2.36675 7.65 3.33341H4.16667C3.72464 3.33341 3.30072 3.50901 2.98816 3.82157C2.67559 4.13413 2.5 4.55805 2.5 5.00008V16.6667C2.5 17.1088 2.67559 17.5327 2.98816 17.8453C3.30072 18.1578 3.72464 18.3334 4.16667 18.3334H15.8333C16.2754 18.3334 16.6993 18.1578 17.0118 17.8453C17.3244 17.5327 17.5 17.1088 17.5 16.6667V5.00008C17.5 4.55805 17.3244 4.13413 17.0118 3.82157C16.6993 3.50901 16.2754 3.33341 15.8333 3.33341Z" fill="currentColor"/>
</svg>
