<svg width="20" height="20" viewBox="0 0 20 20" fill="none" xmlns="http://www.w3.org/2000/svg">
<path d="M13.75 13.5416L16.1333 14.9499L15.5083 15.9666L12.5 14.1666V9.99992H13.75V13.5416ZM19.1667 13.3333C19.1667 16.5583 16.5583 19.1666 13.3333 19.1666C11.7417 19.1666 10.3083 18.5333 9.25833 17.4999H4.16667C3.25 17.4999 2.5 16.7583 2.5 15.8333V4.16659C2.5 3.24992 3.25 2.49992 4.16667 2.49992H7.65C8 1.53325 8.91667 0.833252 10 0.833252C11.0833 0.833252 12 1.53325 12.35 2.49992H15.8333C16.7583 2.49992 17.5 3.24992 17.5 4.16659V9.25825C18.5333 10.3083 19.1667 11.7416 19.1667 13.3333ZM9.16667 3.33325C9.16667 3.79159 9.54167 4.16659 10 4.16659C10.4583 4.16659 10.8333 3.79159 10.8333 3.33325C10.8333 2.87492 10.4583 2.49992 10 2.49992C9.54167 2.49992 9.16667 2.87492 9.16667 3.33325ZM17.5 13.3333C17.5 11.0333 15.6333 9.16659 13.3333 9.16659C11.0333 9.16659 9.16667 11.0333 9.16667 13.3333C9.16667 15.6333 11.0333 17.4999 13.3333 17.4999C15.6333 17.4999 17.5 15.6333 17.5 13.3333Z" fill="currentColor"/>
</svg>
