<svg width="20" height="20" viewBox="0 0 20 20" fill="none" xmlns="http://www.w3.org/2000/svg">
<path d="M15.8333 3.31556H12.35C11.875 2.01556 10.4417 1.34889 9.16667 1.81556C8.45 2.06556 7.91667 2.61556 7.65 3.31556H4.16667C3.72464 3.31556 3.30072 3.49115 2.98816 3.80371C2.67559 4.11627 2.5 4.5402 2.5 4.98222V16.6489C2.5 17.0909 2.67559 17.5148 2.98816 17.8274C3.30072 18.14 3.72464 18.3156 4.16667 18.3156H15.8333C16.2754 18.3156 16.6993 18.14 17.0118 17.8274C17.3244 17.5148 17.5 17.0909 17.5 16.6489V4.98222C17.5 4.5402 17.3244 4.11627 17.0118 3.80371C16.6993 3.49115 16.2754 3.31556 15.8333 3.31556V3.31556ZM10 3.31556C10.221 3.31556 10.433 3.40335 10.5893 3.55963C10.7455 3.71591 10.8333 3.92788 10.8333 4.14889C10.8333 4.3699 10.7455 4.58187 10.5893 4.73815C10.433 4.89443 10.221 4.98222 10 4.98222C9.77899 4.98222 9.56702 4.89443 9.41074 4.73815C9.25446 4.58187 9.16667 4.3699 9.16667 4.14889C9.16667 3.92788 9.25446 3.71591 9.41074 3.55963C9.56702 3.40335 9.77899 3.31556 10 3.31556V3.31556ZM8.33333 14.1489H6.66667V8.31556H4.16667L7.5 4.98222L10.8333 8.31556H8.33333V14.1489ZM12.5 16.6489L9.16667 13.3156H11.6667V7.48222H13.3333V13.3156H15.8333L12.5 16.6489Z" fill="currentColor"/>
</svg>
