<svg width="20" height="20" viewBox="0 0 20 20" fill="none" xmlns="http://www.w3.org/2000/svg">
<path d="M15.8333 2.49988H12.35C11.875 1.19988 10.4417 0.533216 9.16667 0.999883C8.45 1.24988 7.91667 1.79988 7.65 2.49988H4.16667C3.72464 2.49988 3.30072 2.67548 2.98816 2.98804C2.67559 3.3006 2.5 3.72452 2.5 4.16655V15.8332C2.5 16.2752 2.67559 16.6992 2.98816 17.0117C3.30072 17.3243 3.72464 17.4999 4.16667 17.4999H15.8333C16.2754 17.4999 16.6993 17.3243 17.0118 17.0117C17.3244 16.6992 17.5 16.2752 17.5 15.8332V4.16655C17.5 3.72452 17.3244 3.3006 17.0118 2.98804C16.6993 2.67548 16.2754 2.49988 15.8333 2.49988ZM10 2.49988C10.221 2.49988 10.433 2.58768 10.5893 2.74396C10.7455 2.90024 10.8333 3.1122 10.8333 3.33322C10.8333 3.55423 10.7455 3.76619 10.5893 3.92247C10.433 4.07875 10.221 4.16655 10 4.16655C9.77899 4.16655 9.56702 4.07875 9.41074 3.92247C9.25446 3.76619 9.16667 3.55423 9.16667 3.33322C9.16667 3.1122 9.25446 2.90024 9.41074 2.74396C9.56702 2.58768 9.77899 2.49988 10 2.49988ZM5.83333 5.83322H14.1667V4.16655H15.8333V15.8332H4.16667V4.16655H5.83333V5.83322ZM14.1667 9.16655H5.83333V7.49988H14.1667V9.16655ZM12.5 12.4999H5.83333V10.8332H12.5V12.4999Z" fill="currentColor"/>
</svg>
