<svg width="20" height="20" viewBox="0 0 20 20" fill="none" xmlns="http://www.w3.org/2000/svg">
<path d="M3.33317 5.83325V17.4999H14.9998V19.1666H3.33317C2.4165 19.1666 1.6665 18.4166 1.6665 17.4999V5.83325H3.33317ZM16.6665 2.49992C17.5832 2.49992 18.3332 3.24992 18.3332 4.16659V14.1666C18.3332 15.0833 17.5832 15.8333 16.6665 15.8333H6.6665C5.74984 15.8333 4.99984 15.0833 4.99984 14.1666V4.16659C4.99984 3.24992 5.74984 2.49992 6.6665 2.49992H9.3165C9.6665 1.53325 10.5832 0.833252 11.6665 0.833252C12.7498 0.833252 13.6665 1.53325 14.0165 2.49992H16.6665ZM11.6665 2.49992C11.2082 2.49992 10.8332 2.87492 10.8332 3.33325C10.8332 3.79159 11.2082 4.16659 11.6665 4.16659C12.1248 4.16659 12.4998 3.79159 12.4998 3.33325C12.4998 2.87492 12.1248 2.49992 11.6665 2.49992ZM8.33317 5.83325V4.16659H6.6665V14.1666H16.6665V4.16659H14.9998V5.83325H8.33317Z" fill="currentColor"/>
</svg>
