<svg width="20" height="20" viewBox="0 0 20 20" fill="none" xmlns="http://www.w3.org/2000/svg">
<path d="M10 0.833252C6.78333 0.833252 4.16667 3.44992 4.16667 6.66659C4.16667 8.21368 4.78125 9.69741 5.87521 10.7914C6.96917 11.8853 8.4529 12.4999 10 12.4999C13.2167 12.4999 15.8333 9.89158 15.8333 6.66659C15.8333 3.44992 13.2167 0.833252 10 0.833252ZM10 2.62492C12.225 2.62492 14.0417 4.43325 14.0417 6.66659C14.0417 8.89992 12.225 10.7083 10 10.7083C8.92808 10.7083 7.90007 10.2824 7.14211 9.52448C6.38415 8.76652 5.95833 7.7385 5.95833 6.66659C5.95833 5.59467 6.38415 4.56666 7.14211 3.8087C7.90007 3.05074 8.92808 2.62492 10 2.62492V2.62492ZM9.16667 4.16659V7.24158L11.825 8.77492L12.45 7.69158L10.4167 6.51659V4.16659H9.16667ZM12.5 13.3333V15.8333H2.5V17.4999H12.5V19.9999L15.8333 16.6666L12.5 13.3333ZM15.8333 16.6666V19.9999H17.5V13.3333H15.8333" fill="currentColor"/>
</svg>
