<svg width="20" height="20" viewBox="0 0 20 20" fill="none" xmlns="http://www.w3.org/2000/svg">
<path d="M3.68333 0.833252L2.5 2.01659L5.84167 5.34992L4.34167 6.84159H8.50833V2.67492L7.01667 4.17492L3.68333 0.833252ZM11.8417 6.84159C8.625 6.84159 6.00833 9.44992 6.00833 12.6749C6.00833 14.222 6.62291 15.7057 7.71688 16.7997C8.81084 17.8937 10.2946 18.5083 11.8417 18.5083C15.0583 18.5083 17.675 15.8999 17.675 12.6749C17.675 11.1278 17.0604 9.64409 15.9665 8.55013C14.8725 7.45617 13.3888 6.84159 11.8417 6.84159V6.84159ZM11.8417 8.63325C14.0667 8.63325 15.8833 10.4416 15.8833 12.6749C15.8833 13.2057 15.7788 13.7312 15.5757 14.2216C15.3726 14.712 15.0749 15.1575 14.6996 15.5328C14.3243 15.9081 13.8787 16.2058 13.3883 16.4089C12.898 16.612 12.3724 16.7166 11.8417 16.7166C9.60833 16.7166 7.8 14.9083 7.8 12.6749C7.8 11.603 8.22582 10.575 8.98378 9.81703C9.74174 9.05907 10.7697 8.63325 11.8417 8.63325V8.63325ZM11.0083 10.1749V13.2499L13.6667 14.7833L14.2917 13.6999L12.2583 12.5249V10.1749" fill="currentColor"/>
</svg>
