<svg width="20" height="20" viewBox="0 0 20 20" fill="none" xmlns="http://www.w3.org/2000/svg">
<path d="M10.0001 16.6666C11.7682 16.6666 13.4639 15.9642 14.7141 14.714C15.9644 13.4638 16.6667 11.7681 16.6667 9.99996C16.6667 8.23185 15.9644 6.53616 14.7141 5.28591C13.4639 4.03567 11.7682 3.33329 10.0001 3.33329C8.23197 3.33329 6.53628 4.03567 5.28604 5.28591C4.03579 6.53616 3.33341 8.23185 3.33341 9.99996C3.33341 11.7681 4.03579 13.4638 5.28604 14.714C6.53628 15.9642 8.23197 16.6666 10.0001 16.6666ZM10.0001 1.66663C11.0944 1.66663 12.1781 1.88217 13.1891 2.30096C14.2002 2.71975 15.1188 3.33358 15.8926 4.1074C16.6665 4.88122 17.2803 5.79988 17.6991 6.81093C18.1179 7.82198 18.3334 8.90561 18.3334 9.99996C18.3334 12.2101 17.4554 14.3297 15.8926 15.8925C14.3298 17.4553 12.2102 18.3333 10.0001 18.3333C5.39175 18.3333 1.66675 14.5833 1.66675 9.99996C1.66675 7.78982 2.54472 5.67021 4.10752 4.1074C5.67033 2.5446 7.78994 1.66663 10.0001 1.66663V1.66663ZM10.4167 5.83329V10.2083L14.1667 12.4333L13.5417 13.4583L9.16675 10.8333V5.83329H10.4167Z" fill="currentColor"/>
</svg>
