<svg width="20" height="20" viewBox="0 0 20 20" fill="none" xmlns="http://www.w3.org/2000/svg">
<path d="M13.3333 1.66675L14.8333 3.15841L11.4917 6.49175L12.675 7.67508L16.0083 4.34175L17.5 5.83341V1.66675H13.3333ZM8.33333 7.50008C5.11667 7.50008 2.5 10.1084 2.5 13.3334C2.5 14.8805 3.11458 16.3642 4.20854 17.4582C5.30251 18.5522 6.78624 19.1667 8.33333 19.1667C11.55 19.1667 14.1667 16.5584 14.1667 13.3334C14.1667 11.7863 13.5521 10.3026 12.4581 9.20863C11.3642 8.11466 9.88043 7.50008 8.33333 7.50008V7.50008ZM8.33333 9.29175C10.5583 9.29175 12.375 11.1001 12.375 13.3334C12.375 13.8642 12.2705 14.3897 12.0673 14.8801C11.8642 15.3705 11.5665 15.816 11.1912 16.1913C10.8159 16.5666 10.3704 16.8643 9.88001 17.0674C9.38965 17.2705 8.86409 17.3751 8.33333 17.3751C6.1 17.3751 4.29167 15.5667 4.29167 13.3334C4.29167 12.2615 4.71748 11.2335 5.47544 10.4755C6.2334 9.71756 7.26142 9.29175 8.33333 9.29175V9.29175ZM7.5 10.8334V13.9084L10.1583 15.4417L10.7833 14.3584L8.75 13.1834V10.8334" fill="currentColor"/>
</svg>
