<svg width="20" height="20" viewBox="0 0 20 20" fill="none" xmlns="http://www.w3.org/2000/svg">
<path d="M12.4999 3.33325C14.268 3.33325 15.9637 4.03563 17.214 5.28587C18.4642 6.53612 19.1666 8.23181 19.1666 9.99992C19.1666 11.768 18.4642 13.4637 17.214 14.714C15.9637 15.9642 14.268 16.6666 12.4999 16.6666C10.7318 16.6666 9.03612 15.9642 7.78587 14.714C6.53563 13.4637 5.83325 11.768 5.83325 9.99992C5.83325 8.23181 6.53563 6.53612 7.78587 5.28587C9.03612 4.03563 10.7318 3.33325 12.4999 3.33325V3.33325ZM12.4999 4.99992C11.1738 4.99992 9.90207 5.5267 8.96439 6.46438C8.0267 7.40207 7.49992 8.67384 7.49992 9.99992C7.49992 11.326 8.0267 12.5978 8.96439 13.5355C9.90207 14.4731 11.1738 14.9999 12.4999 14.9999C13.826 14.9999 15.0978 14.4731 16.0355 13.5355C16.9731 12.5978 17.4999 11.326 17.4999 9.99992C17.4999 8.67384 16.9731 7.40207 16.0355 6.46438C15.0978 5.5267 13.826 4.99992 12.4999 4.99992ZM11.6666 6.66659H12.9166V9.81658L14.8583 11.7583L13.9749 12.6416L11.6666 10.3333V6.66659ZM1.66659 14.9999C1.44557 14.9999 1.23361 14.9121 1.07733 14.7558C0.921049 14.5996 0.833252 14.3876 0.833252 14.1666C0.833252 13.9456 0.921049 13.7336 1.07733 13.5773C1.23361 13.421 1.44557 13.3333 1.66659 13.3333H4.85825C5.11659 13.9249 5.44992 14.4833 5.83325 14.9999H1.66659ZM2.49992 10.8333C2.2789 10.8333 2.06694 10.7455 1.91066 10.5892C1.75438 10.4329 1.66659 10.2209 1.66659 9.99992C1.66659 9.7789 1.75438 9.56694 1.91066 9.41066C2.06694 9.25438 2.2789 9.16659 2.49992 9.16659H4.20825L4.16659 9.99992L4.20825 10.8333H2.49992ZM3.33325 6.66659C3.11224 6.66659 2.90028 6.57879 2.744 6.42251C2.58772 6.26623 2.49992 6.05427 2.49992 5.83325C2.49992 5.61224 2.58772 5.40028 2.744 5.244C2.90028 5.08772 3.11224 4.99992 3.33325 4.99992H5.83325C5.44992 5.51659 5.11659 6.07492 4.85825 6.66659H3.33325Z" fill="currentColor"/>
</svg>
