<svg width="20" height="20" viewBox="0 0 20 20" fill="none" xmlns="http://www.w3.org/2000/svg">
<path d="M10.0001 16.6667C6.32508 16.6667 3.33341 13.6751 3.33341 10.0001C3.33341 6.32508 6.32508 3.33341 10.0001 3.33341C13.6751 3.33341 16.6667 6.32508 16.6667 10.0001C16.6667 13.6751 13.6751 16.6667 10.0001 16.6667ZM10.0001 1.66675C5.39175 1.66675 1.66675 5.39175 1.66675 10.0001C1.66675 14.6084 5.39175 18.3334 10.0001 18.3334C14.6084 18.3334 18.3334 14.6084 18.3334 10.0001C18.3334 5.39175 14.6084 1.66675 10.0001 1.66675ZM12.1584 6.66675L10.0001 8.82508L7.84175 6.66675L6.66675 7.84175L8.82508 10.0001L6.66675 12.1584L7.84175 13.3334L10.0001 11.1751L12.1584 13.3334L13.3334 12.1584L11.1751 10.0001L13.3334 7.84175L12.1584 6.66675Z" fill="currentColor"/>
</svg>
