<svg width="20" height="20" viewBox="0 0 20 20" fill="none" xmlns="http://www.w3.org/2000/svg">
<path d="M5.41659 16.6666C4.14992 16.6666 3.06936 16.2305 2.17492 15.3583C1.28047 14.4805 0.833252 13.411 0.833252 12.1499C0.833252 11.0666 1.15825 10.0999 1.80825 9.24992C2.46381 8.39992 3.31936 7.85825 4.37492 7.62492C4.72492 6.34714 5.41936 5.31381 6.45825 4.52492C7.5027 3.73047 8.68325 3.33325 9.99992 3.33325C11.6277 3.33325 13.0055 3.89992 14.1333 5.03325C15.2666 6.16103 15.8333 7.53881 15.8333 9.16659C16.7944 9.2777 17.5888 9.69436 18.2166 10.4166C18.8499 11.1277 19.1666 11.961 19.1666 12.9166C19.1666 13.961 18.8027 14.8471 18.0749 15.5749C17.3471 16.3027 16.461 16.6666 15.4166 16.6666H10.8333C10.3777 16.6666 9.98603 16.5027 9.65825 16.1749C9.33047 15.8527 9.16659 15.461 9.16659 14.9999V10.7083L7.83325 11.9999L6.66659 10.8333L9.99992 7.49992L13.3333 10.8333L12.1666 11.9999L10.8333 10.7083V14.9999H15.4166C15.9999 14.9999 16.4916 14.7971 16.8916 14.3916C17.2971 13.9916 17.4999 13.4999 17.4999 12.9166C17.4999 12.3333 17.2971 11.8416 16.8916 11.4416C16.4916 11.036 15.9999 10.8333 15.4166 10.8333H14.1666V9.16659C14.1666 8.01659 13.761 7.03325 12.9499 6.21659C12.1388 5.40547 11.1555 4.99992 9.99992 4.99992C8.84992 4.99992 7.86659 5.40547 7.04992 6.21659C6.23881 7.03325 5.83325 8.01659 5.83325 9.16659H5.41659C4.61103 9.16659 3.92492 9.4527 3.35825 10.0249C2.78603 10.5916 2.49992 11.2777 2.49992 12.0833C2.49992 12.8888 2.78603 13.5833 3.35825 14.1666C3.92492 14.7221 4.61103 14.9999 5.41659 14.9999H7.49992V16.6666" fill="currentColor"/>
</svg>
