<svg width="20" height="20" viewBox="0 0 20 20" fill="none" xmlns="http://www.w3.org/2000/svg">
<path d="M8.33333 14.1666L5.41667 11.2499L6.59167 10.0666L8.33333 11.8083L12.65 7.49992L13.825 8.67492L8.33333 14.1666ZM16.125 8.35825C15.5583 5.49158 13.0333 3.33325 10 3.33325C7.59167 3.33325 5.5 4.69992 4.45833 6.69158C1.95 6.96658 0 9.08325 0 11.6666C0 12.9927 0.526784 14.2644 1.46447 15.2021C2.40215 16.1398 3.67392 16.6666 5 16.6666H15.8333C16.3805 16.6666 16.9223 16.5588 17.4278 16.3494C17.9334 16.14 18.3927 15.8331 18.7796 15.4462C19.1665 15.0593 19.4734 14.6 19.6828 14.0944C19.8922 13.5889 20 13.0471 20 12.4999C20 10.2999 18.2917 8.51658 16.125 8.35825Z" fill="currentColor"/>
</svg>
