<svg width="20" height="20" viewBox="0 0 20 20" fill="none" xmlns="http://www.w3.org/2000/svg">
<g clip-path="url(#clip0_18832_5261)">
<path d="M9.99992 19.1666C9.77891 19.1666 9.56694 19.0788 9.41066 18.9225C9.25438 18.7662 9.16659 18.5543 9.16659 18.3333V15.8333H5.83325C5.39122 15.8333 4.9673 15.6577 4.65474 15.3451C4.34218 15.0325 4.16659 14.6086 4.16659 14.1666V5.83325C4.16659 5.39122 4.34218 4.9673 4.65474 4.65474C4.9673 4.34218 5.39122 4.16659 5.83325 4.16659H17.4999C17.9419 4.16659 18.3659 4.34218 18.6784 4.65474C18.991 4.9673 19.1666 5.39122 19.1666 5.83325V14.1666C19.1666 14.6086 18.991 15.0325 18.6784 15.3451C18.3659 15.6577 17.9419 15.8333 17.4999 15.8333H14.0833L10.9999 18.9249C10.8333 19.0749 10.6333 19.1666 10.4166 19.1666H9.99992ZM10.8333 14.1666V16.7333L13.3999 14.1666H17.4999V5.83325H5.83325V14.1666H10.8333ZM2.49992 12.4999H0.833252V2.49992C0.833252 2.05789 1.00885 1.63397 1.32141 1.32141C1.63397 1.00885 2.05789 0.833252 2.49992 0.833252H15.8333V2.49992H2.49992V12.4999ZM7.49992 7.49992H15.8333V9.16659H7.49992V7.49992ZM7.49992 10.8333H14.1666V12.4999H7.49992V10.8333Z" fill="currentColor"/>
</g>
<defs>
<clipPath id="clip0_18832_5261">
<rect width="20" height="20" fill="currentColor"/>
</clipPath>
</defs>
</svg>
