<svg width="20" height="20" viewBox="0 0 20 20" fill="none" xmlns="http://www.w3.org/2000/svg">
<path d="M11.8251 11.8251L5.00008 15.0001L8.17508 8.17508L15.0001 5.00008L11.8251 11.8251ZM10.0001 1.66675C8.90573 1.66675 7.8221 1.8823 6.81105 2.30109C5.80001 2.71987 4.88135 3.3337 4.10752 4.10752C2.54472 5.67033 1.66675 7.78994 1.66675 10.0001C1.66675 12.2102 2.54472 14.3298 4.10752 15.8926C4.88135 16.6665 5.80001 17.2803 6.81105 17.6991C7.8221 18.1179 8.90573 18.3334 10.0001 18.3334C12.2102 18.3334 14.3298 17.4554 15.8926 15.8926C17.4554 14.3298 18.3334 12.2102 18.3334 10.0001C18.3334 8.90573 18.1179 7.8221 17.6991 6.81105C17.2803 5.80001 16.6665 4.88135 15.8926 4.10752C15.1188 3.3337 14.2002 2.71987 13.1891 2.30109C12.1781 1.8823 11.0944 1.66675 10.0001 1.66675V1.66675ZM10.0001 9.08341C9.75697 9.08341 9.52381 9.17999 9.3519 9.3519C9.17999 9.52381 9.08341 9.75697 9.08341 10.0001C9.08341 10.2432 9.17999 10.4764 9.3519 10.6483C9.52381 10.8202 9.75697 10.9167 10.0001 10.9167C10.2432 10.9167 10.4764 10.8202 10.6483 10.6483C10.8202 10.4764 10.9167 10.2432 10.9167 10.0001C10.9167 9.75697 10.8202 9.52381 10.6483 9.3519C10.4764 9.17999 10.2432 9.08341 10.0001 9.08341Z" fill="currentColor"/>
</svg>
