<svg width="20" height="20" viewBox="0 0 20 20" fill="none" xmlns="http://www.w3.org/2000/svg">
<path d="M8.03332 6.36663C8.22499 5.94996 8.33332 5.49163 8.33332 4.99996C8.33332 3.15829 6.84166 1.66663 4.99999 1.66663C3.15832 1.66663 1.66666 3.15829 1.66666 4.99996C1.66666 6.84163 3.15832 8.33329 4.99999 8.33329C5.49166 8.33329 5.94999 8.22496 6.36666 8.03329L8.33332 9.99996L6.36666 11.9666C5.94999 11.775 5.49166 11.6666 4.99999 11.6666C3.15832 11.6666 1.66666 13.1583 1.66666 15C1.66666 16.8416 3.15832 18.3333 4.99999 18.3333C6.84166 18.3333 8.33332 16.8416 8.33332 15C8.33332 14.5083 8.22499 14.05 8.03332 13.6333L9.99999 11.6666L15.8333 17.5H18.3333V16.6666L8.03332 6.36663ZM4.99999 6.66663C4.08332 6.66663 3.33332 5.92496 3.33332 4.99996C3.33332 4.07496 4.08332 3.33329 4.99999 3.33329C5.91666 3.33329 6.66666 4.07496 6.66666 4.99996C6.66666 5.92496 5.91666 6.66663 4.99999 6.66663ZM4.99999 16.6666C4.08332 16.6666 3.33332 15.925 3.33332 15C3.33332 14.075 4.08332 13.3333 4.99999 13.3333C5.91666 13.3333 6.66666 14.075 6.66666 15C6.66666 15.925 5.91666 16.6666 4.99999 16.6666ZM9.99999 10.4166C9.76666 10.4166 9.58332 10.2333 9.58332 9.99996C9.58332 9.76663 9.76666 9.58329 9.99999 9.58329C10.2333 9.58329 10.4167 9.76663 10.4167 9.99996C10.4167 10.2333 10.2333 10.4166 9.99999 10.4166ZM15.8333 2.49996L10.8333 7.49996L12.5 9.16663L18.3333 3.33329V2.49996H15.8333Z" fill="currentColor"/>
</svg>
