<svg width="20" height="20" viewBox="0 0 20 20" fill="none" xmlns="http://www.w3.org/2000/svg">
<path d="M15.8333 17.4999H4.16667V4.16659H5.83333V6.66659H14.1667V4.16659H15.8333V17.4999ZM10 2.49992C10.221 2.49992 10.433 2.58772 10.5893 2.744C10.7455 2.90028 10.8333 3.11224 10.8333 3.33325C10.8333 3.55427 10.7455 3.76623 10.5893 3.92251C10.433 4.07879 10.221 4.16659 10 4.16659C9.77899 4.16659 9.56702 4.07879 9.41074 3.92251C9.25446 3.76623 9.16667 3.55427 9.16667 3.33325C9.16667 3.11224 9.25446 2.90028 9.41074 2.744C9.56702 2.58772 9.77899 2.49992 10 2.49992V2.49992ZM15.8333 2.49992H12.35C12 1.53325 11.0833 0.833252 10 0.833252C8.91667 0.833252 8 1.53325 7.65 2.49992H4.16667C3.72464 2.49992 3.30072 2.67551 2.98816 2.98807C2.67559 3.30063 2.5 3.72456 2.5 4.16659V17.4999C2.5 17.9419 2.67559 18.3659 2.98816 18.6784C3.30072 18.991 3.72464 19.1666 4.16667 19.1666H15.8333C16.2754 19.1666 16.6993 18.991 17.0118 18.6784C17.3244 18.3659 17.5 17.9419 17.5 17.4999V4.16659C17.5 3.72456 17.3244 3.30063 17.0118 2.98807C16.6993 2.67551 16.2754 2.49992 15.8333 2.49992Z" fill="currentColor"/>
</svg>
