<svg width="20" height="20" viewBox="0 0 20 20" fill="none" xmlns="http://www.w3.org/2000/svg">
<path d="M16.6667 0H3.33341V1.66667H16.6667V0ZM3.33341 20H16.6667V18.3333H3.33341V20ZM16.6667 3.33333H3.33341C2.89139 3.33333 2.46746 3.50893 2.1549 3.82149C1.84234 4.13405 1.66675 4.55797 1.66675 5V15C1.66675 15.442 1.84234 15.8659 2.1549 16.1785C2.46746 16.4911 2.89139 16.6667 3.33341 16.6667H16.6667C17.1088 16.6667 17.5327 16.4911 17.8453 16.1785C18.1578 15.8659 18.3334 15.442 18.3334 15V5C18.3334 4.55797 18.1578 4.13405 17.8453 3.82149C17.5327 3.50893 17.1088 3.33333 16.6667 3.33333V3.33333ZM10.0001 5.625C10.4974 5.625 10.9743 5.82254 11.3259 6.17417C11.6775 6.52581 11.8751 7.00272 11.8751 7.5C11.8751 7.99728 11.6775 8.47419 11.3259 8.82582C10.9743 9.17746 10.4974 9.375 10.0001 9.375C9.5028 9.375 9.02589 9.17746 8.67426 8.82582C8.32263 8.47419 8.12508 7.99728 8.12508 7.5C8.12508 7.00272 8.32263 6.52581 8.67426 6.17417C9.02589 5.82254 9.5028 5.625 10.0001 5.625V5.625ZM14.1667 14.1667H5.83341V12.9167C5.83341 11.525 8.60841 10.8333 10.0001 10.8333C11.3917 10.8333 14.1667 11.525 14.1667 12.9167V14.1667Z" fill="currentColor"/>
</svg>
