<svg width="20" height="20" viewBox="0 0 20 20" fill="none" xmlns="http://www.w3.org/2000/svg">
<path d="M0.833252 2.72508L1.89992 1.66675L16.7249 16.4917L15.6666 17.5584L13.9999 15.8917H3.39159C2.46659 15.8917 1.72492 15.1417 1.72492 14.2251V4.22508C1.72492 4.04175 1.75825 3.86675 1.81659 3.70841L0.833252 2.72508ZM16.7249 5.89175V4.22508H6.57492L4.90825 2.55841H16.7249C17.1669 2.55841 17.5909 2.73401 17.9034 3.04657C18.216 3.35913 18.3916 3.78305 18.3916 4.22508V14.2251C18.3916 14.7251 18.1749 15.1667 17.8249 15.4751L16.5749 14.2251H16.7249V9.22508H11.5749L8.24158 5.89175H16.7249ZM3.39159 5.89175H3.99992L3.39159 5.28341V5.89175ZM3.39159 9.22508V14.2251H12.3333L7.33325 9.22508H3.39159Z" fill="currentColor"/>
</svg>
