<svg width="20" height="20" viewBox="0 0 20 20" fill="none" xmlns="http://www.w3.org/2000/svg">
<path d="M9.99992 6.66659C10.884 6.66659 11.7318 7.01777 12.3569 7.6429C12.9821 8.26802 13.3333 9.11586 13.3333 9.99992C13.3333 10.884 12.9821 11.7318 12.3569 12.3569C11.7318 12.9821 10.884 13.3333 9.99992 13.3333C9.11586 13.3333 8.26802 12.9821 7.6429 12.3569C7.01777 11.7318 6.66659 10.884 6.66659 9.99992C6.66659 9.11586 7.01777 8.26802 7.6429 7.6429C8.26802 7.01777 9.11586 6.66659 9.99992 6.66659V6.66659ZM2.54159 10.8333H0.833252V9.16659H2.54159C2.91659 5.69159 5.69159 2.91659 9.16659 2.54159V0.833252H10.8333V2.54159C14.3083 2.91659 17.0833 5.69159 17.4583 9.16659H19.1666V10.8333H17.4583C17.0833 14.3083 14.3083 17.0833 10.8333 17.4583V19.1666H9.16659V17.4583C5.69159 17.0833 2.91659 14.3083 2.54159 10.8333ZM9.99992 4.16659C8.45282 4.16659 6.96909 4.78117 5.87513 5.87513C4.78117 6.96909 4.16659 8.45282 4.16659 9.99992C4.16659 11.547 4.78117 13.0307 5.87513 14.1247C6.96909 15.2187 8.45282 15.8333 9.99992 15.8333C11.547 15.8333 13.0307 15.2187 14.1247 14.1247C15.2187 13.0307 15.8333 11.547 15.8333 9.99992C15.8333 8.45282 15.2187 6.96909 14.1247 5.87513C13.0307 4.78117 11.547 4.16659 9.99992 4.16659V4.16659Z" fill="currentColor"/>
</svg>
