<svg width="20" height="20" viewBox="0 0 20 20" fill="none" xmlns="http://www.w3.org/2000/svg">
<path d="M2.54159 10.8333H0.833252V9.16659H2.54159C2.91659 5.69159 5.69159 2.91659 9.16659 2.54159V0.833252H10.8333V2.54159C14.3083 2.91659 17.0833 5.69159 17.4583 9.16659H19.1666V10.8333H17.4583C17.0833 14.3083 14.3083 17.0833 10.8333 17.4583V19.1666H9.16659V17.4583C5.69159 17.0833 2.91659 14.3083 2.54159 10.8333ZM9.99992 4.16659C8.45282 4.16659 6.96909 4.78117 5.87513 5.87513C4.78117 6.96909 4.16659 8.45282 4.16659 9.99992C4.16659 11.547 4.78117 13.0307 5.87513 14.1247C6.96909 15.2187 8.45282 15.8333 9.99992 15.8333C11.547 15.8333 13.0307 15.2187 14.1247 14.1247C15.2187 13.0307 15.8333 11.547 15.8333 9.99992C15.8333 8.45282 15.2187 6.96909 14.1247 5.87513C13.0307 4.78117 11.547 4.16659 9.99992 4.16659V4.16659Z" fill="currentColor"/>
</svg>
