<svg width="20" height="20" viewBox="0 0 20 20" fill="none" xmlns="http://www.w3.org/2000/svg">
<path d="M17.5 13.7501C17.5 14.0667 17.325 14.3417 17.0583 14.4834L10.475 18.1834C10.3417 18.2834 10.175 18.3334 10 18.3334C9.825 18.3334 9.65833 18.2834 9.525 18.1834L2.94167 14.4834C2.675 14.3417 2.5 14.0667 2.5 13.7501V6.25008C2.5 5.93341 2.675 5.65841 2.94167 5.51675L9.525 1.81675C9.65833 1.71675 9.825 1.66675 10 1.66675C10.175 1.66675 10.3417 1.71675 10.475 1.81675L17.0583 5.51675C17.325 5.65841 17.5 5.93341 17.5 6.25008V13.7501ZM10 3.45841L5.03333 6.25008L10 9.04175L14.9667 6.25008L10 3.45841Z" fill="currentColor"/>
</svg>
