<svg width="20" height="20" viewBox="0 0 20 20" fill="none" xmlns="http://www.w3.org/2000/svg">
<path d="M10.3666 5.75C11.8499 5.75 12.3999 6.45833 12.4499 7.5H14.2916C14.2333 6.06667 13.3583 4.75 11.6166 4.325V2.5H9.11659V4.3C8.67492 4.4 8.25825 4.55 7.86659 4.75L9.11659 5.975C9.44992 5.83333 9.86659 5.75 10.3666 5.75ZM4.39159 3.38333L3.33325 4.44167L6.19992 7.30833C6.19992 9.04167 7.49992 10 9.45825 10.5667L12.3833 13.4917C12.0999 13.8917 11.5083 14.25 10.3666 14.25C8.64992 14.25 7.97492 13.4833 7.86659 12.5H6.04992C6.14992 14.325 7.51659 15.35 9.11659 15.6917V17.5H11.6166V15.7083C12.4166 15.5583 13.1333 15.25 13.6583 14.775L15.5083 16.625L16.5666 15.5667L4.39159 3.38333Z" fill="currentColor"/>
</svg>
