<svg width="20" height="20" viewBox="0 0 20 20" fill="none" xmlns="http://www.w3.org/2000/svg">
<path d="M5 3.33341H6.66667V1.66675H8.33333V3.33341H10V1.66675H11.6667V3.35841C13.5417 3.56675 15 5.15008 15 7.08341C15 8.16675 14.5417 9.16675 13.8 9.83341C14.775 10.5084 15.4167 11.6417 15.4167 12.9167C15.4167 15.0001 13.75 16.6667 11.6667 16.6667V18.3334H10V16.6667H8.33333V18.3334H6.66667V16.6667H5L5.41667 15.0001H6.66667V5.00008H5V3.33341ZM8.33333 10.8334V15.0001H11.6667C12.2192 15.0001 12.7491 14.7806 13.1398 14.3899C13.5305 13.9992 13.75 13.4693 13.75 12.9167C13.75 12.3642 13.5305 11.8343 13.1398 11.4436C12.7491 11.0529 12.2192 10.8334 11.6667 10.8334H8.33333ZM8.33333 5.00008V9.16675H11.25C11.8025 9.16675 12.3324 8.94725 12.7231 8.55655C13.1138 8.16585 13.3333 7.63595 13.3333 7.08341C13.3333 6.53088 13.1138 6.00098 12.7231 5.61028C12.3324 5.21957 11.8025 5.00008 11.25 5.00008H8.33333Z" fill="currentColor"/>
</svg>
