<svg width="20" height="20" viewBox="0 0 20 20" fill="none" xmlns="http://www.w3.org/2000/svg">
<path d="M9.99992 2.5C6.31659 2.5 3.33325 3.99167 3.33325 5.83333V14.1667C3.33325 16.0083 6.32492 17.5 9.99992 17.5C13.6749 17.5 16.6666 16.0083 16.6666 14.1667V5.83333C16.6666 3.99167 13.6833 2.5 9.99992 2.5ZM14.9999 14.1667C14.9999 14.5833 13.2249 15.8333 9.99992 15.8333C6.77492 15.8333 4.99992 14.5833 4.99992 14.1667V12.3083C6.34159 12.9583 8.09992 13.3333 9.99992 13.3333C11.8999 13.3333 13.6583 12.9583 14.9999 12.3083V14.1667ZM14.9999 10.375C13.9166 11.1667 12.0166 11.6667 9.99992 11.6667C7.98325 11.6667 6.08325 11.1667 4.99992 10.375V8.03333C6.22492 8.725 8.00825 9.16667 9.99992 9.16667C11.9916 9.16667 13.7749 8.725 14.9999 8.03333V10.375ZM9.99992 7.5C6.77492 7.5 4.99992 6.25 4.99992 5.83333C4.99992 5.41667 6.77492 4.16667 9.99992 4.16667C13.2249 4.16667 14.9999 5.41667 14.9999 5.83333C14.9999 6.25 13.2249 7.5 9.99992 7.5Z" fill="currentColor"/>
</svg>
