<svg width="20" height="20" viewBox="0 0 20 20" fill="none" xmlns="http://www.w3.org/2000/svg">
<path d="M8.33342 0.833374C4.65008 0.833374 1.66675 2.32504 1.66675 4.16671C1.66675 5.88337 4.27508 7.28337 7.62508 7.46671C8.70841 6.41671 10.1584 5.83337 11.6667 5.83337C12.3334 5.83337 12.9917 5.95004 13.6167 6.17504C14.4751 5.61671 15.0001 4.92504 15.0001 4.16671C15.0001 2.32504 12.0167 0.833374 8.33342 0.833374ZM1.66675 5.83337V8.33337C1.66675 9.73337 3.40008 10.925 5.83341 11.425C5.88341 10.5834 6.10008 9.76671 6.47508 9.01671C3.70008 8.61671 1.66675 7.35004 1.66675 5.83337ZM11.6084 7.45004C10.6251 7.45837 9.60842 7.83337 8.71675 8.71671C5.17508 12.2584 9.75842 17.9167 13.9584 15.1417L17.7417 18.925L18.9251 17.7417L15.1417 13.9584C17.2167 10.8084 14.5584 7.44171 11.6084 7.45004ZM11.5834 9.16671C12.8917 9.12504 14.1667 10.1334 14.1667 11.6667C14.1667 12.3297 13.9034 12.9656 13.4345 13.4345C12.9657 13.9033 12.3298 14.1667 11.6667 14.1667C9.44175 14.1667 8.33342 11.475 9.90008 9.90004C10.3917 9.40837 10.9917 9.16671 11.5834 9.16671ZM1.66675 10V12.5C1.66675 14.2084 4.24175 15.6 7.55008 15.7917C6.80842 15.0584 6.28341 14.125 6.01675 13.1167C3.48341 12.6417 1.66675 11.4334 1.66675 10Z" fill="currentColor"/>
</svg>
