<svg width="20" height="20" viewBox="0 0 20 20" fill="none" xmlns="http://www.w3.org/2000/svg">
<path d="M7.49992 2.5C3.81659 2.5 0.833252 3.99167 0.833252 5.83333C0.833252 7.675 3.81659 9.16667 7.49992 9.16667C11.1833 9.16667 14.1666 7.675 14.1666 5.83333C14.1666 3.99167 11.1833 2.5 7.49992 2.5ZM0.833252 7.5V10C0.833252 11.8417 3.81659 13.3333 7.49992 13.3333C11.1833 13.3333 14.1666 11.8417 14.1666 10V7.5C14.1666 9.34167 11.1833 10.8333 7.49992 10.8333C3.81659 10.8333 0.833252 9.34167 0.833252 7.5ZM0.833252 11.6667V14.1667C0.833252 16.0083 3.81659 17.5 7.49992 17.5C8.67492 17.5 9.82492 17.3417 10.8333 17.05V14.55C9.82492 14.8417 8.67492 15 7.49992 15C3.81659 15 0.833252 13.5083 0.833252 11.6667ZM12.4999 14.1667V15.8333H19.1666V14.1667" fill="currentColor"/>
</svg>
