<svg width="20" height="20" viewBox="0 0 20 20" fill="none" xmlns="http://www.w3.org/2000/svg">
<path d="M12.5001 10.8333H13.7501V13.1833L15.7834 14.3583L15.1584 15.4417L12.5001 13.9083V10.8333ZM19.1667 13.3333C19.1667 16.5583 16.5584 19.1667 13.3334 19.1667C11.7417 19.1667 10.3001 18.5333 9.25008 17.5H6.66675C5.75008 17.5 5.00008 16.75 5.00008 15.8333V5.83333H15.0001V7.74167C17.4084 8.45833 19.1667 10.6917 19.1667 13.3333ZM7.50008 13.3333C7.50008 10.1083 10.1084 7.5 13.3334 7.5H6.66675V15.8333H8.05841C7.70008 15.075 7.50008 14.225 7.50008 13.3333ZM13.3334 9.16667C11.0334 9.16667 9.16675 11.0333 9.16675 13.3333C9.16675 15.6333 11.0334 17.5 13.3334 17.5C15.6334 17.5 17.5001 15.6333 17.5001 13.3333C17.5001 11.0333 15.6334 9.16667 13.3334 9.16667ZM12.9167 3.33333H15.8334V5H4.16675V3.33333H7.08341L7.91675 2.5H12.0834L12.9167 3.33333Z" fill="currentColor"/>
</svg>
