<svg width="20" height="20" viewBox="0 0 20 20" fill="none" xmlns="http://www.w3.org/2000/svg">
<path d="M10.0001 1.66675C14.6084 1.66675 18.3334 5.39175 18.3334 10.0001C18.3334 14.6084 14.6084 18.3334 10.0001 18.3334C5.39175 18.3334 1.66675 14.6084 1.66675 10.0001C1.66675 5.39175 5.39175 1.66675 10.0001 1.66675ZM14.1667 5.83341H12.0834L11.2501 5.00008H8.75008L7.91675 5.83341H5.83341V7.50008H14.1667V5.83341ZM7.50008 15.0001H12.5001C12.7211 15.0001 12.9331 14.9123 13.0893 14.756C13.2456 14.5997 13.3334 14.3878 13.3334 14.1667V8.33341H6.66675V14.1667C6.66675 14.3878 6.75455 14.5997 6.91083 14.756C7.06711 14.9123 7.27907 15.0001 7.50008 15.0001Z" fill="currentColor"/>
</svg>
