<svg width="20" height="20" viewBox="0 0 20 20" fill="none" xmlns="http://www.w3.org/2000/svg">
<path d="M15.3584 2.63337L15.8667 5.85004L18.7917 7.34171L17.3167 10.2584L18.8 13.175L15.85 14.6667L15.3417 17.8834L12.1 17.375L9.79171 19.675L7.47504 17.3417L4.25837 17.875L3.74171 14.6334L0.833374 13.15L2.31671 10.2334L0.841707 7.34171L3.76671 5.83337L4.27504 2.64171L7.50004 3.17504L9.81671 0.833374L12.125 3.14171L15.3584 2.63337ZM7.73337 6.09171C7.40185 6.09171 7.08391 6.2234 6.84949 6.45782C6.61507 6.69224 6.48337 7.01019 6.48337 7.34171C6.48337 7.67323 6.61507 7.99117 6.84949 8.22559C7.08391 8.46001 7.40185 8.59171 7.73337 8.59171C8.06489 8.59171 8.38284 8.46001 8.61726 8.22559C8.85168 7.99117 8.98337 7.67323 8.98337 7.34171C8.98337 7.01019 8.85168 6.69224 8.61726 6.45782C8.38284 6.2234 8.06489 6.09171 7.73337 6.09171ZM11.9 11.925C11.5685 11.925 11.2506 12.0567 11.0162 12.2912C10.7817 12.5256 10.65 12.8435 10.65 13.175C10.65 13.5066 10.7817 13.8245 11.0162 14.0589C11.2506 14.2933 11.5685 14.425 11.9 14.425C12.2316 14.425 12.5495 14.2933 12.7839 14.0589C13.0183 13.8245 13.15 13.5066 13.15 13.175C13.15 12.8435 13.0183 12.5256 12.7839 12.2912C12.5495 12.0567 12.2316 11.925 11.9 11.925ZM6.82504 14.425L13.9834 7.26671L12.8084 6.09171L5.65004 13.25L6.82504 14.425Z" fill="currentColor"/>
</svg>
