<svg width="20" height="20" viewBox="0 0 20 20" fill="none" xmlns="http://www.w3.org/2000/svg">
<path d="M5.83333 7.5C5.39131 7.5 4.96738 7.3244 4.65482 7.01184C4.34226 6.69928 4.16667 6.27536 4.16667 5.83333C4.16667 5.39131 4.34226 4.96738 4.65482 4.65482C4.96738 4.34226 5.39131 4.16667 5.83333 4.16667C6.27536 4.16667 6.69928 4.34226 7.01184 4.65482C7.3244 4.96738 7.5 5.39131 7.5 5.83333C7.5 6.27536 7.3244 6.69928 7.01184 7.01184C6.69928 7.3244 6.27536 7.5 5.83333 7.5ZM16.6667 2.5H3.33333C3.11232 2.5 2.90036 2.5878 2.74408 2.74408C2.5878 2.90036 2.5 3.11232 2.5 3.33333V8.33333C2.5 8.55435 2.5878 8.76631 2.74408 8.92259C2.90036 9.07887 3.11232 9.16667 3.33333 9.16667H16.6667C16.8877 9.16667 17.0996 9.07887 17.2559 8.92259C17.4122 8.76631 17.5 8.55435 17.5 8.33333V3.33333C17.5 3.11232 17.4122 2.90036 17.2559 2.74408C17.0996 2.5878 16.8877 2.5 16.6667 2.5V2.5ZM5.83333 15.8333C5.39131 15.8333 4.96738 15.6577 4.65482 15.3452C4.34226 15.0326 4.16667 14.6087 4.16667 14.1667C4.16667 13.7246 4.34226 13.3007 4.65482 12.9882C4.96738 12.6756 5.39131 12.5 5.83333 12.5C6.27536 12.5 6.69928 12.6756 7.01184 12.9882C7.3244 13.3007 7.5 13.7246 7.5 14.1667C7.5 14.6087 7.3244 15.0326 7.01184 15.3452C6.69928 15.6577 6.27536 15.8333 5.83333 15.8333ZM16.6667 10.8333H3.33333C3.11232 10.8333 2.90036 10.9211 2.74408 11.0774C2.5878 11.2337 2.5 11.4457 2.5 11.6667V16.6667C2.5 16.8877 2.5878 17.0996 2.74408 17.2559C2.90036 17.4122 3.11232 17.5 3.33333 17.5H16.6667C16.8877 17.5 17.0996 17.4122 17.2559 17.2559C17.4122 17.0996 17.5 16.8877 17.5 16.6667V11.6667C17.5 11.4457 17.4122 11.2337 17.2559 11.0774C17.0996 10.9211 16.8877 10.8333 16.6667 10.8333Z" fill="currentColor"/>
</svg>
