<svg width="20" height="20" viewBox="0 0 20 20" fill="none" xmlns="http://www.w3.org/2000/svg">
<path d="M10.0001 1.66675C11.0944 1.66675 12.1781 1.8823 13.1891 2.30109C14.2002 2.71987 15.1188 3.3337 15.8926 4.10752C16.6665 4.88135 17.2803 5.80001 17.6991 6.81105C18.1179 7.8221 18.3334 8.90573 18.3334 10.0001C18.3334 12.2102 17.4554 14.3298 15.8926 15.8926C14.3298 17.4554 12.2102 18.3334 10.0001 18.3334C8.90573 18.3334 7.8221 18.1179 6.81105 17.6991C5.80001 17.2803 4.88135 16.6665 4.10752 15.8926C2.54472 14.3298 1.66675 12.2102 1.66675 10.0001C1.66675 7.78994 2.54472 5.67033 4.10752 4.10752C5.67033 2.54472 7.78994 1.66675 10.0001 1.66675ZM10.0001 3.33341C8.23197 3.33341 6.53628 4.03579 5.28604 5.28604C4.03579 6.53628 3.33341 8.23197 3.33341 10.0001C3.33341 11.7682 4.03579 13.4639 5.28604 14.7141C6.53628 15.9644 8.23197 16.6667 10.0001 16.6667C11.7682 16.6667 13.4639 15.9644 14.7141 14.7141C15.9644 13.4639 16.6667 11.7682 16.6667 10.0001C16.6667 8.23197 15.9644 6.53628 14.7141 5.28604C13.4639 4.03579 11.7682 3.33341 10.0001 3.33341ZM10.0001 8.75008C10.3316 8.75008 10.6495 8.88178 10.884 9.1162C11.1184 9.35062 11.2501 9.66856 11.2501 10.0001C11.2501 10.3316 11.1184 10.6495 10.884 10.884C10.6495 11.1184 10.3316 11.2501 10.0001 11.2501C9.66856 11.2501 9.35062 11.1184 9.1162 10.884C8.88178 10.6495 8.75008 10.3316 8.75008 10.0001C8.75008 9.66856 8.88178 9.35062 9.1162 9.1162C9.35062 8.88178 9.66856 8.75008 10.0001 8.75008ZM6.25008 8.75008C6.5816 8.75008 6.89954 8.88178 7.13396 9.1162C7.36839 9.35062 7.50008 9.66856 7.50008 10.0001C7.50008 10.3316 7.36839 10.6495 7.13396 10.884C6.89954 11.1184 6.5816 11.2501 6.25008 11.2501C5.91856 11.2501 5.60062 11.1184 5.3662 10.884C5.13178 10.6495 5.00008 10.3316 5.00008 10.0001C5.00008 9.66856 5.13178 9.35062 5.3662 9.1162C5.60062 8.88178 5.91856 8.75008 6.25008 8.75008ZM13.7501 8.75008C14.0816 8.75008 14.3995 8.88178 14.634 9.1162C14.8684 9.35062 15.0001 9.66856 15.0001 10.0001C15.0001 10.3316 14.8684 10.6495 14.634 10.884C14.3995 11.1184 14.0816 11.2501 13.7501 11.2501C13.4186 11.2501 13.1006 11.1184 12.8662 10.884C12.6318 10.6495 12.5001 10.3316 12.5001 10.0001C12.5001 9.66856 12.6318 9.35062 12.8662 9.1162C13.1006 8.88178 13.4186 8.75008 13.7501 8.75008Z" fill="currentColor"/>
</svg>
