<svg width="20" height="20" viewBox="0 0 20 20" fill="none" xmlns="http://www.w3.org/2000/svg">
<path d="M14.1667 1.66675C14.6088 1.66675 15.0327 1.84234 15.3453 2.1549C15.6578 2.46746 15.8334 2.89139 15.8334 3.33341V11.6667C15.8334 12.1088 15.6578 12.5327 15.3453 12.8453C15.0327 13.1578 14.6088 13.3334 14.1667 13.3334H10.8334V15.0001H11.6667C11.8878 15.0001 12.0997 15.0879 12.256 15.2442C12.4123 15.4004 12.5001 15.6124 12.5001 15.8334H18.3334V17.5001H12.5001C12.5001 17.7211 12.4123 17.9331 12.256 18.0893C12.0997 18.2456 11.8878 18.3334 11.6667 18.3334H8.33341C8.1124 18.3334 7.90044 18.2456 7.74416 18.0893C7.58788 17.9331 7.50008 17.7211 7.50008 17.5001H1.66675V15.8334H7.50008C7.50008 15.6124 7.58788 15.4004 7.74416 15.2442C7.90044 15.0879 8.1124 15.0001 8.33341 15.0001H9.16675V13.3334H5.83341C4.90841 13.3334 4.16675 12.5834 4.16675 11.6667V3.33341C4.16675 2.89139 4.34234 2.46746 4.6549 2.1549C4.96746 1.84234 5.39139 1.66675 5.83341 1.66675H14.1667ZM10.0001 11.2501L13.7501 7.50008H10.8334V4.16675H9.16675V7.50008H6.25008L10.0001 11.2501Z" fill="currentColor"/>
</svg>
