<svg width="20" height="20" viewBox="0 0 20 20" fill="none" xmlns="http://www.w3.org/2000/svg">
<path d="M8.01014 18.21C9.46731 17.6266 9.14804 16.0181 8.41127 15.0013C7.68268 13.9596 6.67576 13.2428 5.66066 12.5511C4.94026 12.0844 4.27716 11.501 3.74505 10.8342C3.51583 10.5592 3.04921 10.0508 3.52402 9.9508C4.00701 9.85078 4.84202 10.3342 5.26771 10.5175C6.01267 10.8342 6.74944 11.2009 7.43709 11.6343L8.26391 10.2175C6.98684 9.35907 5.34958 8.60065 3.82692 8.37563C2.95916 8.24228 2.04229 8.42563 1.74758 9.38407C1.48562 10.2092 1.90312 11.0426 2.37793 11.6926C3.49946 13.2178 5.24315 13.9512 6.54478 15.268C6.82312 15.5431 7.15876 15.8681 7.32248 16.2515C7.4944 16.6182 7.45347 16.6432 7.06871 16.6432C6.0536 16.6432 4.78472 15.8348 3.9579 15.3014L3.13108 16.7182C4.38359 17.5016 6.47929 18.7267 8.01014 18.21ZM15.5498 6.94214L10.9081 11.6676H9.03343V9.75911L13.6751 5.02527L15.5498 6.94214ZM18.3331 6.29207C18.3249 6.5421 18.0712 6.80046 17.8092 7.05882L15.7462 9.16738L15.034 8.4423L17.1625 6.28374L16.6795 5.79202L16.131 6.35041L14.2563 4.44187L16.0164 2.65002C16.2129 2.44999 16.5321 2.44999 16.7204 2.65002L17.8911 3.84181C18.0875 4.02516 18.0875 4.35853 17.8911 4.55855C17.7191 4.73357 17.5554 4.90026 17.5554 5.06694C17.539 5.23363 17.7028 5.41698 17.8665 5.55866C18.1039 5.80869 18.3413 6.04205 18.3331 6.29207Z" fill="currentColor"/>
</svg>
