<svg width="20" height="20" viewBox="0 0 20 20" fill="none" xmlns="http://www.w3.org/2000/svg">
<path d="M9.99996 1.66675C5.39163 1.66675 1.66663 5.39175 1.66663 10.0001C1.66663 14.6084 5.39163 18.3334 9.99996 18.3334C12.2101 18.3334 14.3297 17.4554 15.8925 15.8926C17.4553 14.3298 18.3333 12.2102 18.3333 10.0001C18.3333 5.39175 14.5833 1.66675 9.99996 1.66675ZM9.99996 16.6667C8.23185 16.6667 6.53616 15.9644 5.28591 14.7141C4.03567 13.4639 3.33329 11.7682 3.33329 10.0001C3.33329 8.23197 4.03567 6.53628 5.28591 5.28604C6.53616 4.03579 8.23185 3.33341 9.99996 3.33341C11.7681 3.33341 13.4638 4.03579 14.714 5.28604C15.9642 6.53628 16.6666 8.23197 16.6666 10.0001C16.6666 11.7682 15.9642 13.4639 14.714 14.7141C13.4638 15.9644 11.7681 16.6667 9.99996 16.6667V16.6667ZM10.8333 8.28341L11.7166 9.16675L12.6 8.28341L13.4833 9.16675L14.3666 8.28341L12.6 6.51675L10.8333 8.28341ZM7.39996 8.28341L8.28329 9.16675L9.16663 8.28341L7.39996 6.51675L5.63329 8.28341L6.51663 9.16675L7.39996 8.28341ZM9.99996 14.5834C11.9416 14.5834 13.5916 13.3667 14.2583 11.6667H5.74163C6.40829 13.3667 8.05829 14.5834 9.99996 14.5834Z" fill="currentColor"/>
</svg>
