<svg width="20" height="20" viewBox="0 0 20 20" fill="none" xmlns="http://www.w3.org/2000/svg">
<path d="M0.833374 1.74163C1.58337 2.49996 2.80837 3.10829 4.32504 3.54163C5.75837 2.36663 7.59171 1.66663 9.58337 1.66663C11.575 1.66663 13.4084 2.36663 14.8417 3.54163C16.3584 3.10829 17.5834 2.49996 18.3334 1.74163C18.3084 3.09996 17.625 4.34163 16.4834 5.33329C17.3917 6.66663 17.9167 8.26663 17.9167 9.99996C17.9167 12.2101 17.0387 14.3297 15.4759 15.8925C13.9131 17.4553 11.7935 18.3333 9.58337 18.3333C8.48902 18.3333 7.40539 18.1177 6.39434 17.699C5.3833 17.2802 4.46464 16.6663 3.69082 15.8925C2.12801 14.3297 1.25004 12.2101 1.25004 9.99996C1.25004 8.26663 1.77504 6.66663 2.68337 5.33329C1.54171 4.34163 0.858374 3.09996 0.833374 1.74163ZM16.25 9.99996C16.25 8.23185 15.5477 6.53616 14.2974 5.28591C13.0472 4.03567 11.3515 3.33329 9.58337 3.33329C7.81526 3.33329 6.11957 4.03567 4.86933 5.28591C3.61909 6.53616 2.91671 8.23185 2.91671 9.99996C2.91671 11.7681 3.61909 13.4638 4.86933 14.714C6.11957 15.9642 7.81526 16.6666 9.58337 16.6666C11.3515 16.6666 13.0472 15.9642 14.2974 14.714C15.5477 13.4638 16.25 11.7681 16.25 9.99996ZM8.33337 8.33329C8.33337 8.99996 7.75004 9.58329 7.08337 9.58329C6.41671 9.58329 5.83337 8.99996 5.83337 8.33329V7.08329L8.33337 8.33329ZM13.3334 8.33329C13.3334 8.99996 12.75 9.58329 12.0834 9.58329C11.4167 9.58329 10.8334 8.99996 10.8334 8.33329L13.3334 7.08329V8.33329ZM9.58337 14.3583C8.12504 14.3583 6.84171 13.75 6.09171 12.85L7.27504 11.6666C7.65004 12.2666 8.54171 12.6916 9.58337 12.6916C10.625 12.6916 11.5167 12.2666 11.8917 11.6666L13.075 12.85C12.325 13.75 11.0417 14.3583 9.58337 14.3583Z" fill="currentColor"/>
</svg>
