<svg width="20" height="20" viewBox="0 0 20 20" fill="none" xmlns="http://www.w3.org/2000/svg">
<path d="M9.99996 1.66663C5.39163 1.66663 1.66663 5.39163 1.66663 9.99996C1.66663 14.6083 5.39163 18.3333 9.99996 18.3333C12.2101 18.3333 14.3297 17.4553 15.8925 15.8925C17.4553 14.3297 18.3333 12.2101 18.3333 9.99996C18.3333 5.39163 14.5833 1.66663 9.99996 1.66663ZM9.99996 16.6666C8.23185 16.6666 6.53616 15.9642 5.28591 14.714C4.03567 13.4638 3.33329 11.7681 3.33329 9.99996C3.33329 8.23185 4.03567 6.53616 5.28591 5.28591C6.53616 4.03567 8.23185 3.33329 9.99996 3.33329C11.7681 3.33329 13.4638 4.03567 14.714 5.28591C15.9642 6.53616 16.6666 8.23185 16.6666 9.99996C16.6666 11.7681 15.9642 13.4638 14.714 14.714C13.4638 15.9642 11.7681 16.6666 9.99996 16.6666V16.6666ZM13.4833 6.46663L12.6 7.34996L11.7166 6.46663L10.8333 7.34996L11.7166 8.23329L10.8333 9.11663L11.7166 9.99996L12.6 9.11663L13.4833 9.99996L14.3666 9.11663L13.4833 8.23329L14.3666 7.34996L13.4833 6.46663ZM6.51663 9.99996L7.39996 9.11663L8.28329 9.99996L9.16663 9.11663L8.28329 8.23329L9.16663 7.34996L8.28329 6.46663L7.39996 7.34996L6.51663 6.46663L5.63329 7.34996L6.51663 8.23329L5.63329 9.11663L6.51663 9.99996ZM9.99996 11.6666C8.05829 11.6666 6.40829 12.8833 5.74163 14.5833H14.2583C13.5916 12.8833 11.9416 11.6666 9.99996 11.6666Z" fill="currentColor"/>
</svg>
