<svg width="20" height="20" viewBox="0 0 20 20" fill="none" xmlns="http://www.w3.org/2000/svg">
<path d="M9.99998 7.91675C10.663 7.91675 11.2989 8.18014 11.7677 8.64898C12.2366 9.11782 12.5 9.75371 12.5 10.4167C12.5 11.0798 12.2366 11.7157 11.7677 12.1845C11.2989 12.6534 10.663 12.9167 9.99998 12.9167C9.33694 12.9167 8.70105 12.6534 8.23221 12.1845C7.76337 11.7157 7.49998 11.0798 7.49998 10.4167C7.49998 9.75371 7.76337 9.11782 8.23221 8.64898C8.70105 8.18014 9.33694 7.91675 9.99998 7.91675V7.91675ZM9.99998 4.16675C14.1666 4.16675 17.725 6.75841 19.1666 10.4167C17.725 14.0751 14.1666 16.6667 9.99998 16.6667C5.83331 16.6667 2.27498 14.0751 0.833313 10.4167C2.27498 6.75841 5.83331 4.16675 9.99998 4.16675ZM2.64998 10.4167C4.02498 13.2167 6.86665 15.0001 9.99998 15.0001C13.1333 15.0001 15.975 13.2167 17.35 10.4167C15.975 7.61675 13.1333 5.83341 9.99998 5.83341C6.86665 5.83341 4.02498 7.61675 2.64998 10.4167Z" fill="currentColor"/>
</svg>
