<svg width="20" height="20" viewBox="0 0 20 20" fill="none" xmlns="http://www.w3.org/2000/svg">
<path d="M9.99998 2.5C5.83331 2.5 2.27498 5.09167 0.833313 8.75C2.27498 12.4083 5.83331 15 9.99998 15C10.3 15 10.6 15 10.9 14.9583C10.8583 14.6917 10.8333 14.4333 10.8333 14.1667C10.8333 13.8667 10.8666 13.5667 10.9166 13.2667C10.6166 13.3 10.3083 13.3333 9.99998 13.3333C6.86665 13.3333 4.02498 11.55 2.64998 8.75C4.02498 5.95 6.86665 4.16667 9.99998 4.16667C13.1333 4.16667 15.975 5.95 17.35 8.75C17.25 8.95 17.1333 9.125 17.025 9.31667C17.575 9.45 18.1 9.675 18.575 10C18.8 9.58333 19 9.16667 19.1666 8.75C17.725 5.09167 14.1666 2.5 9.99998 2.5ZM9.99998 6.25C9.33694 6.25 8.70105 6.51339 8.23221 6.98223C7.76337 7.45107 7.49998 8.08696 7.49998 8.75C7.49998 9.41304 7.76337 10.0489 8.23221 10.5178C8.70105 10.9866 9.33694 11.25 9.99998 11.25C10.663 11.25 11.2989 10.9866 11.7677 10.5178C12.2366 10.0489 12.5 9.41304 12.5 8.75C12.5 8.08696 12.2366 7.45107 11.7677 6.98223C11.2989 6.51339 10.663 6.25 9.99998 6.25ZM15 10.8333V13.3333H12.5V15H15V17.5H16.6666V15H19.1666V13.3333H16.6666V10.8333H15Z" fill="currentColor"/>
</svg>
