<svg width="20" height="20" viewBox="0 0 20 20" fill="none" xmlns="http://www.w3.org/2000/svg">
<path d="M9.99998 2.5C5.83331 2.5 2.27498 5.09167 0.833313 8.75C2.27498 12.4083 5.83331 15 9.99998 15C10.3 15 10.6 15 10.9 14.9583C10.8583 14.6917 10.8333 14.4333 10.8333 14.1667C10.8333 13.7 10.9 13.2333 11.0333 12.7833C10.6916 12.8667 10.35 12.9167 9.99998 12.9167C8.89491 12.9167 7.8351 12.4777 7.0537 11.6963C6.2723 10.9149 5.83331 9.85507 5.83331 8.75C5.83331 7.64493 6.2723 6.58512 7.0537 5.80372C7.8351 5.02232 8.89491 4.58333 9.99998 4.58333C11.105 4.58333 12.1649 5.02232 12.9463 5.80372C13.7277 6.58512 14.1666 7.64493 14.1666 8.75C14.1666 8.99167 14.1416 9.24167 14.1 9.48333C14.65 9.275 15.2416 9.16667 15.8333 9.16667C16.8083 9.16667 17.7583 9.45 18.575 10C18.8 9.58333 19 9.16667 19.1666 8.75C17.725 5.09167 14.1666 2.5 9.99998 2.5ZM9.99998 6.25C9.33694 6.25 8.70105 6.51339 8.23221 6.98223C7.76337 7.45107 7.49998 8.08696 7.49998 8.75C7.49998 9.41304 7.76337 10.0489 8.23221 10.5178C8.70105 10.9866 9.33694 11.25 9.99998 11.25C10.663 11.25 11.2989 10.9866 11.7677 10.5178C12.2366 10.0489 12.5 9.41304 12.5 8.75C12.5 8.08696 12.2366 7.45107 11.7677 6.98223C11.2989 6.51339 10.663 6.25 9.99998 6.25ZM15 10.8333V13.3333H12.5V15H15V17.5H16.6666V15H19.1666V13.3333H16.6666V10.8333H15Z" fill="currentColor"/>
</svg>
