<svg width="20" height="20" viewBox="0 0 20 20" fill="none" xmlns="http://www.w3.org/2000/svg">
<path d="M9.85831 6.66675L12.5 9.30008C12.5 9.25841 12.5 9.20841 12.5 9.16675C12.5 8.50371 12.2366 7.86782 11.7677 7.39898C11.2989 6.93014 10.663 6.66675 9.99998 6.66675C9.94998 6.66675 9.90831 6.66675 9.85831 6.66675ZM6.27498 7.33341L7.56665 8.62508C7.52498 8.80008 7.49998 8.97508 7.49998 9.16675C7.49998 9.82979 7.76337 10.4657 8.23221 10.9345C8.70105 11.4034 9.33694 11.6667 9.99998 11.6667C10.1833 11.6667 10.3666 11.6417 10.5416 11.6001L11.8333 12.8917C11.275 13.1667 10.6583 13.3334 9.99998 13.3334C8.89491 13.3334 7.8351 12.8944 7.0537 12.113C6.2723 11.3316 5.83331 10.2718 5.83331 9.16675C5.83331 8.50841 5.99998 7.89175 6.27498 7.33341ZM1.66665 2.72508L3.56665 4.62508L3.94165 5.00008C2.56665 6.08341 1.48331 7.50008 0.833313 9.16675C2.27498 12.8251 5.83331 15.4167 9.99998 15.4167C11.2916 15.4167 12.525 15.1667 13.65 14.7167L14.0083 15.0667L16.4416 17.5001L17.5 16.4417L2.72498 1.66675L1.66665 2.72508ZM9.99998 5.00008C11.105 5.00008 12.1649 5.43907 12.9463 6.22047C13.7277 7.00187 14.1666 8.06168 14.1666 9.16675C14.1666 9.70008 14.0583 10.2167 13.8666 10.6834L16.3083 13.1251C17.5583 12.0834 18.5583 10.7167 19.1666 9.16675C17.725 5.50841 14.1666 2.91675 9.99998 2.91675C8.83331 2.91675 7.71665 3.12508 6.66665 3.50008L8.47498 5.29175C8.94998 5.10841 9.45831 5.00008 9.99998 5.00008Z" fill="currentColor"/>
</svg>
