<svg width="20" height="20" viewBox="0 0 20 20" fill="none" xmlns="http://www.w3.org/2000/svg">
<path d="M9.99998 5.41675C10.663 5.41675 11.2989 5.68014 11.7677 6.14898C12.2366 6.61782 12.5 7.25371 12.5 7.91675C12.5 8.57979 12.2366 9.21567 11.7677 9.68452C11.2989 10.1534 10.663 10.4167 9.99998 10.4167C9.33694 10.4167 8.70105 10.1534 8.23221 9.68452C7.76337 9.21567 7.49998 8.57979 7.49998 7.91675C7.49998 7.25371 7.76337 6.61782 8.23221 6.14898C8.70105 5.68014 9.33694 5.41675 9.99998 5.41675V5.41675ZM9.99998 1.66675C14.05 1.66675 17.6833 4.16675 19.1666 7.91675C17.175 12.9834 11.4583 15.4667 6.39165 13.4751C3.84998 12.4751 1.83331 10.4667 0.833313 7.91675C2.31665 4.16675 5.94998 1.66675 9.99998 1.66675ZM2.64998 7.91675C4.63331 11.9751 9.54165 13.6584 13.6 11.6667C15.2333 10.8667 16.55 9.55008 17.35 7.91675C15.3666 3.85841 10.4583 2.17508 6.39998 4.16675C4.76665 4.96675 3.44998 6.28341 2.64998 7.91675ZM7.49998 16.2501H5.83331V17.9167H7.49998V16.2501ZM10.8333 16.2501H9.16665V17.9167H10.8333V16.2501ZM14.1666 16.2501H12.5V17.9167H14.1666V16.2501Z" fill="currentColor"/>
</svg>
