<svg width="20" height="20" viewBox="0 0 20 20" fill="none" xmlns="http://www.w3.org/2000/svg">
<path d="M9.99998 7.08325C9.33694 7.08325 8.70105 7.34664 8.23221 7.81548C7.76337 8.28433 7.49998 8.92021 7.49998 9.58325C7.49998 10.2463 7.76337 10.8822 8.23221 11.351C8.70105 11.8199 9.33694 12.0833 9.99998 12.0833C10.663 12.0833 11.2989 11.8199 11.7677 11.351C12.2366 10.8822 12.5 10.2463 12.5 9.58325C12.5 8.92021 12.2366 8.28433 11.7677 7.81548C11.2989 7.34664 10.663 7.08325 9.99998 7.08325ZM9.99998 13.7499C8.89491 13.7499 7.8351 13.3109 7.0537 12.5295C6.2723 11.7481 5.83331 10.6883 5.83331 9.58325C5.83331 8.47818 6.2723 7.41838 7.0537 6.63697C7.8351 5.85557 8.89491 5.41659 9.99998 5.41659C11.105 5.41659 12.1649 5.85557 12.9463 6.63697C13.7277 7.41838 14.1666 8.47818 14.1666 9.58325C14.1666 10.6883 13.7277 11.7481 12.9463 12.5295C12.1649 13.3109 11.105 13.7499 9.99998 13.7499V13.7499ZM9.99998 3.33325C5.83331 3.33325 2.27498 5.92492 0.833313 9.58325C2.27498 13.2416 5.83331 15.8333 9.99998 15.8333C14.1666 15.8333 17.725 13.2416 19.1666 9.58325C17.725 5.92492 14.1666 3.33325 9.99998 3.33325Z" fill="currentColor"/>
</svg>
