<svg width="20" height="20" viewBox="0 0 20 20" fill="none" xmlns="http://www.w3.org/2000/svg">
<path d="M10.8335 7.50008H15.4168L10.8335 2.91675V7.50008ZM5.00016 1.66675H11.6668L16.6668 6.66675V16.6667C16.6668 17.1088 16.4912 17.5327 16.1787 17.8453C15.8661 18.1578 15.4422 18.3334 15.0002 18.3334H5.00016C4.07516 18.3334 3.3335 17.5834 3.3335 16.6667V3.33341C3.3335 2.40841 4.07516 1.66675 5.00016 1.66675ZM7.50016 13.3334C7.05814 13.3334 6.63421 13.509 6.32165 13.8216C6.00909 14.1341 5.8335 14.5581 5.8335 15.0001C5.8335 15.4421 6.00909 15.866 6.32165 16.1786C6.63421 16.4912 7.05814 16.6667 7.50016 16.6667C7.94219 16.6667 8.36611 16.4912 8.67867 16.1786C8.99123 15.866 9.16683 15.4421 9.16683 15.0001V10.8334H11.6668V9.16675H8.3335V13.5584C8.09183 13.4167 7.80016 13.3334 7.50016 13.3334Z" fill="currentColor"/>
</svg>
