<svg width="20" height="20" viewBox="0 0 20 20" fill="none" xmlns="http://www.w3.org/2000/svg">
<path d="M11.6666 1.66675H4.99992C4.08325 1.66675 3.33325 2.41675 3.33325 3.33341V16.6667C3.33325 17.0084 3.43325 17.3334 3.61659 17.6001C3.67492 17.6917 3.74992 17.7751 3.82492 17.8417C4.12492 18.1501 4.54159 18.3334 4.99992 18.3334H11.2749C10.8333 17.8501 10.5083 17.2917 10.2916 16.6667H4.99992V3.33341H10.8333V7.50008H14.9999V10.0001C15.5833 10.0001 16.1416 10.1001 16.6666 10.2834V6.66675L11.6666 1.66675ZM14.9999 19.1667L19.1666 15.4167L16.6666 13.1667L14.9999 11.6667V14.1667H11.6666V16.6667H14.9999V19.1667Z" fill="currentColor"/>
</svg>
