<svg width="20" height="20" viewBox="0 0 20 20" fill="none" xmlns="http://www.w3.org/2000/svg">
<path d="M19.1666 15.0001H16.6666V12.5001H14.9999V15.0001H12.4999V16.6667H14.9999V19.1667H16.6666V16.6667H19.1666M4.99992 1.66675C4.07492 1.66675 3.33325 2.41675 3.33325 3.33341V16.6667C3.33325 17.5917 4.07492 18.3334 4.99992 18.3334H11.5083C11.2083 17.8167 10.9999 17.2501 10.8999 16.6667H4.99992V3.33341H10.8333V7.50008H14.9999V10.9001C15.2749 10.8584 15.5583 10.8334 15.8333 10.8334C16.1166 10.8334 16.3916 10.8584 16.6666 10.9001V6.66675L11.6666 1.66675M6.66659 10.0001V11.6667H13.3333V10.0001M6.66659 13.3334V15.0001H10.8333V13.3334H6.66659Z" fill="currentColor"/>
</svg>
