<svg width="20" height="20" viewBox="0 0 20 20" fill="none" xmlns="http://www.w3.org/2000/svg">
<path d="M10.8333 7.50008H15.4166L10.8333 2.91675V7.50008ZM4.99992 1.66675H11.6666L16.6666 6.66675V16.6667C16.6666 17.1088 16.491 17.5327 16.1784 17.8453C15.8659 18.1578 15.4419 18.3334 14.9999 18.3334H4.99992C4.07492 18.3334 3.33325 17.5834 3.33325 16.6667V3.33341C3.33325 2.40841 4.07492 1.66675 4.99992 1.66675ZM4.99992 16.6667H12.4999H14.9999V10.0001L11.6666 13.3334L9.99992 11.6667L4.99992 16.6667ZM6.66659 7.50008C6.22456 7.50008 5.80063 7.67568 5.48807 7.98824C5.17551 8.3008 4.99992 8.72472 4.99992 9.16675C4.99992 9.60878 5.17551 10.0327 5.48807 10.3453C5.80063 10.6578 6.22456 10.8334 6.66659 10.8334C7.10861 10.8334 7.53254 10.6578 7.8451 10.3453C8.15766 10.0327 8.33325 9.60878 8.33325 9.16675C8.33325 8.72472 8.15766 8.3008 7.8451 7.98824C7.53254 7.67568 7.10861 7.50008 6.66659 7.50008Z" fill="currentColor"/>
</svg>
