<svg width="20" height="20" viewBox="0 0 20 20" fill="none" xmlns="http://www.w3.org/2000/svg">
<path d="M11.6666 1.66675H4.99992C4.55789 1.66675 4.13397 1.84234 3.82141 2.1549C3.50885 2.46746 3.33325 2.89139 3.33325 3.33341V16.6667C3.33325 17.1088 3.50885 17.5327 3.82141 17.8453C4.13397 18.1578 4.55789 18.3334 4.99992 18.3334H14.9999C15.4419 18.3334 15.8659 18.1578 16.1784 17.8453C16.491 17.5327 16.6666 17.1088 16.6666 16.6667V6.66675L11.6666 1.66675ZM9.99992 15.0001C8.29159 15.0001 6.82492 13.9667 6.18325 12.5001H7.60825C8.13325 13.2501 9.00825 13.7501 9.99992 13.7501C10.7735 13.7501 11.5153 13.4428 12.0623 12.8958C12.6093 12.3488 12.9166 11.607 12.9166 10.8334C12.9166 10.0599 12.6093 9.318 12.0623 8.77102C11.5153 8.22404 10.7735 7.91675 9.99992 7.91675C8.87492 7.91675 7.91658 8.56675 7.41658 9.50008L8.74992 10.8334H5.41659V7.50008L6.49992 8.58341C7.24159 7.43341 8.52492 6.66675 9.99992 6.66675C11.105 6.66675 12.1648 7.10573 12.9462 7.88714C13.7276 8.66854 14.1666 9.72835 14.1666 10.8334C14.1666 11.9385 13.7276 12.9983 12.9462 13.7797C12.1648 14.5611 11.105 15.0001 9.99992 15.0001V15.0001Z" fill="currentColor"/>
</svg>
