<svg width="20" height="20" viewBox="0 0 20 20" fill="none" xmlns="http://www.w3.org/2000/svg">
<path d="M4.99992 1.66675C4.07492 1.66675 3.33325 2.40841 3.33325 3.33341V16.6667C3.33325 17.1088 3.50885 17.5327 3.82141 17.8453C4.13397 18.1578 4.55789 18.3334 4.99992 18.3334H8.33325V16.7417L10.0749 15.0001H4.99992V13.3334H11.7416L13.4083 11.6667H4.99992V10.0001H15.0749L16.6666 8.40841V6.66675L11.6666 1.66675H4.99992ZM10.8333 2.91675L15.4166 7.50008H10.8333V2.91675ZM16.7916 10.8334C16.6666 10.8334 16.5499 10.8751 16.4583 10.9667L15.6083 11.8167L17.3499 13.5501L18.1999 12.7084C18.3749 12.5251 18.3749 12.2251 18.1999 12.0501L17.1166 10.9667C17.0249 10.8751 16.9083 10.8334 16.7916 10.8334ZM15.1166 12.3084L9.99992 17.4334V19.1667H11.7333L16.8583 14.0417L15.1166 12.3084Z" fill="currentColor"/>
</svg>
