<svg width="20" height="20" viewBox="0 0 20 20" fill="none" xmlns="http://www.w3.org/2000/svg">
<path d="M15.8333 2.5H4.16667C3.25 2.5 2.5 3.25 2.5 4.16667V15.8333C2.5 16.75 3.25 17.5 4.16667 17.5H15.8333C16.75 17.5 17.5 16.75 17.5 15.8333V4.16667C17.5 3.25 16.75 2.5 15.8333 2.5ZM7.91667 9.58333C7.91667 10.25 7.33333 10.8333 6.66667 10.8333H5.83333V12.5H4.58333V7.5H6.66667C7.33333 7.5 7.91667 8.08333 7.91667 8.75V9.58333ZM12.0833 11.25C12.0833 11.9167 11.5 12.5 10.8333 12.5H8.75V7.5H10.8333C11.5 7.5 12.0833 8.08333 12.0833 8.75V11.25ZM15.4167 8.75H14.1667V9.58333H15.4167V10.8333H14.1667V12.5H12.9167V7.5H15.4167V8.75ZM10 8.75H10.8333V11.25H10V8.75ZM5.83333 8.75H6.66667V9.58333H5.83333V8.75Z" fill="currentColor"/>
</svg>
