<svg width="20" height="20" viewBox="0 0 20 20" fill="none" xmlns="http://www.w3.org/2000/svg">
<path d="M3.33341 3.33333V18.3333H16.6667V20H3.33341C2.41675 20 1.66675 19.25 1.66675 18.3333V3.33333H3.33341ZM12.5001 5.83333H17.0834L12.5001 1.25V5.83333ZM6.66675 0H13.3334L18.3334 5V15C18.3334 15.925 17.5917 16.6667 16.6667 16.6667H6.66675C5.74175 16.6667 5.00008 15.9167 5.00008 15V1.66667C5.00008 0.741667 5.74175 0 6.66675 0ZM14.1667 13.3333V11.6667H6.66675V13.3333H14.1667ZM16.6667 10V8.33333H6.66675V10H16.6667Z" fill="currentColor"/>
</svg>
