<svg width="20" height="20" viewBox="0 0 20 20" fill="none" xmlns="http://www.w3.org/2000/svg">
<path d="M8.16667 11.1667H10.25C11.5 11.1667 12.05 10.9333 12.5833 10.4833C13.1167 10.025 13.3333 9.375 13.3333 8.525C13.3333 7.71667 13.125 7.08333 12.5833 6.56667C12.0417 6.075 11.525 5.83333 10.25 5.83333H6.66667V14.1667H8.16667V11.1667ZM15.8333 2.5C16.2754 2.5 16.6993 2.67559 17.0118 2.98816C17.3244 3.30072 17.5 3.72464 17.5 4.16667V15.8333C17.5 16.2754 17.3244 16.6993 17.0118 17.0118C16.6993 17.3244 16.2754 17.5 15.8333 17.5H4.16667C3.72464 17.5 3.30072 17.3244 2.98816 17.0118C2.67559 16.6993 2.5 16.2754 2.5 15.8333V4.16667C2.5 3.24167 3.25 2.5 4.16667 2.5H15.8333ZM8.16667 10V7H10.0833C10.6333 7 11.0583 7.20833 11.3333 7.5C11.6083 7.79167 11.75 8.1 11.75 8.53333C11.75 9 11.6 9.325 11.3333 9.58333C11.0667 9.84167 10.75 10 10.1833 10H8.16667Z" fill="currentColor"/>
</svg>
