<svg width="20" height="20" viewBox="0 0 20 20" fill="none" xmlns="http://www.w3.org/2000/svg">
<path d="M2.91675 2.49992H4.16675V1.49992C4.16675 1.13325 4.46675 0.833252 4.83341 0.833252H8.50008C8.86675 0.833252 9.16675 1.13325 9.16675 1.49992V2.49992H10.4167C10.7483 2.49992 11.0662 2.63161 11.3006 2.86604C11.5351 3.10046 11.6667 3.4184 11.6667 3.74992V4.16659H18.3334V16.6666H11.6667V17.0833C11.6667 17.4148 11.5351 17.7327 11.3006 17.9671C11.0662 18.2016 10.7483 18.3333 10.4167 18.3333H2.91675C2.58523 18.3333 2.26729 18.2016 2.03286 17.9671C1.79844 17.7327 1.66675 17.4148 1.66675 17.0833V3.74992C1.66675 3.4184 1.79844 3.10046 2.03286 2.86604C2.26729 2.63161 2.58523 2.49992 2.91675 2.49992V2.49992ZM15.0001 5.83325V7.49992H16.6667V5.83325H15.0001ZM11.6667 5.83325V7.49992H13.3334V5.83325H11.6667ZM8.33341 5.83325V7.49992H10.0001V5.83325H8.33341ZM11.6667 13.3333V14.9999H13.3334V13.3333H11.6667ZM15.0001 13.3333V14.9999H16.6667V13.3333H15.0001ZM8.33341 13.3333V14.9999H10.0001V13.3333H8.33341Z" fill="currentColor"/>
</svg>
