<svg width="20" height="20" viewBox="0 0 20 20" fill="none" xmlns="http://www.w3.org/2000/svg">
<path d="M12.3 17.3583L14.6666 15L12.3 12.6417L13.475 11.4667L15.8333 13.8083L18.1916 11.4667L19.3666 12.6417L17.025 15L19.3666 17.3583L18.1916 18.5333L15.8333 16.1667L13.475 18.5333L12.3 17.3583ZM9.99996 10V16.5667C10.0333 16.8167 9.94996 17.0833 9.7583 17.2583C9.4333 17.5833 8.9083 17.5833 8.5833 17.2583L6.9083 15.5833C6.71663 15.3917 6.6333 15.1333 6.66663 14.8917V10H6.64163L1.84163 3.85C1.5583 3.49167 1.62496 2.96667 1.9833 2.68333C2.14163 2.56667 2.31663 2.5 2.49996 2.5H14.1666C14.35 2.5 14.525 2.56667 14.6833 2.68333C15.0416 2.96667 15.1083 3.49167 14.825 3.85L10.025 10H9.99996Z" fill="currentColor"/>
</svg>
