<svg width="20" height="20" viewBox="0 0 20 20" fill="none" xmlns="http://www.w3.org/2000/svg">
<path d="M1.99172 1.44165L0.925049 2.49998L7.91672 9.47498L8.30838 9.99998H8.33338V14.8917C8.30005 15.1333 8.38338 15.3917 8.57505 15.5833L10.25 17.2583C10.575 17.5833 11.1 17.5833 11.425 17.2583C11.6167 17.0833 11.7 16.8166 11.6667 16.5666V13.2416L17.3667 18.9416L18.425 17.8833L11.6667 11.125L7.84172 7.29998L3.45838 2.91665L1.99172 1.44165ZM5.17505 2.49998L12.1167 9.44998L16.4917 3.84998C16.775 3.49165 16.7084 2.96665 16.35 2.68332C16.1917 2.56665 16.0167 2.49998 15.8334 2.49998H5.17505Z" fill="currentColor"/>
</svg>
