<svg width="20" height="20" viewBox="0 0 20 20" fill="none" xmlns="http://www.w3.org/2000/svg">
<path d="M1.25 3.97508L2.31667 2.91675L17.0833 17.6834L16.025 18.7501L13.8917 16.6167C12.9833 16.5834 12.1833 16.3334 11.5167 15.8751C10.2833 15.0417 9.55 13.6917 9.53333 12.2584L8.55833 11.2751C8.35833 11.5417 8.24167 11.8584 8.24167 12.2084C8.24167 13.6334 8.79167 14.9667 9.8 15.9667C10.5917 16.7501 11.35 17.1834 12.525 17.5001C12.75 17.5667 12.875 17.8001 12.8167 18.0167C12.775 18.2084 12.6 18.3334 12.425 18.3334H12.3167C10.9917 17.9501 10.125 17.4584 9.21667 16.5667C8.05 15.4167 7.40833 13.8667 7.40833 12.2167C7.40833 11.6417 7.61667 11.1084 7.96667 10.6917L7.08333 9.80842C6.48333 10.4501 6.11667 11.2917 6.11667 12.2167C6.11667 13.4167 6.38333 14.5251 6.89167 15.4167C7.425 16.3834 7.79167 16.7917 8.43333 17.4417C8.59167 17.6084 8.59167 17.8667 8.43333 18.0334C8.33333 18.1167 8.23333 18.1584 8.125 18.1584C8.01667 18.1584 7.91667 18.1167 7.83333 18.0334C7.10833 17.3084 6.71667 16.8417 6.15833 15.8334C5.58333 14.8084 5.28333 13.5584 5.28333 12.2167C5.28333 11.0667 5.74167 10.0001 6.49167 9.21675L5.58333 8.30842C5.125 8.75008 4.74167 9.29175 4.45833 9.88341C4.13333 10.5584 3.96667 11.3501 3.96667 12.2167C3.96667 12.8667 4.025 13.8917 4.525 15.2251C4.60833 15.4417 4.5 15.6834 4.28333 15.7584C4.06667 15.8334 3.825 15.7251 3.75 15.5167C3.33333 14.4251 3.14167 13.3334 3.14167 12.2167C3.14167 11.2167 3.33333 10.3084 3.70833 9.51675C4.03333 8.84175 4.46667 8.23342 5 7.71675L4.14167 6.86675C3.81667 7.19175 3.51667 7.54175 3.24167 7.91675C3.175 8.04175 3.05 8.10008 2.91667 8.10008L2.675 8.02508C2.5 7.89175 2.44167 7.63342 2.575 7.44175C2.875 7.02508 3.2 6.63342 3.55833 6.27508L1.25 3.97508ZM14.8417 3.72508L14.65 3.67508C13.05 2.85008 11.6667 2.50008 10 2.50008C8.35833 2.50008 6.79167 2.89175 5.36667 3.67508L5.24167 3.71675L4.75833 3.24175C4.775 3.11675 4.85 3.00841 4.96667 2.94175C6.51667 2.08341 8.21667 1.66675 10 1.66675C11.7833 1.66675 13.3333 2.05841 15.0333 2.91675C15.2417 3.04175 15.3167 3.29175 15.2083 3.49175C15.1333 3.64175 15 3.72508 14.8417 3.72508ZM14.2917 4.70841C15.5417 5.35008 16.5917 6.25008 17.4167 7.41675C17.55 7.60008 17.5 7.86675 17.3167 8.00008C17.125 8.13342 16.8667 8.09175 16.7333 7.91675C15.9833 6.85008 15.0333 6.02508 13.9083 5.45008C11.7167 4.32508 8.96667 4.23341 6.69167 5.17508L6.05833 4.54175C8.61667 3.36675 11.7833 3.41675 14.2917 4.70841ZM10 7.72508C12.6 7.72508 14.7167 9.74175 14.7167 12.2167C14.7167 12.3273 14.6728 12.4332 14.5946 12.5114C14.5165 12.5895 14.4105 12.6334 14.3 12.6334L14.1083 12.5917L13.9333 12.4084L13.8833 12.2167C13.8833 10.2251 12.1833 8.60008 10.075 8.55842L9.29167 7.77508L10 7.72508ZM11.9833 15.1834C12.2583 15.3751 12.5583 15.5167 12.8917 15.6084L10.525 13.2501C10.7667 14.0167 11.275 14.7084 11.9833 15.1834ZM16.0083 12.2167C16.0083 9.07508 13.3 6.52508 9.96667 6.52508C9.38333 6.52508 8.81667 6.60841 8.275 6.75841L7.6 6.08342C8.33333 5.83342 9.14167 5.68342 9.96667 5.68342C13.75 5.68342 16.8417 8.60841 16.8417 12.2084C16.8417 13.0417 16.4083 13.7751 15.7417 14.2167L15.1417 13.6167C15.6583 13.3334 16.0083 12.8167 16.0083 12.2167Z" fill="currentColor"/>
</svg>
