<svg width="20" height="20" viewBox="0 0 20 20" fill="none" xmlns="http://www.w3.org/2000/svg">
<path d="M7.5 8.33341L5 4.16675H15L12.5 8.33341H7.5ZM15 3.33341H5V1.66675H15V3.33341ZM7.5 18.3334V9.16675H12.5V18.3334H7.5ZM10 10.8334C9.77899 10.8334 9.56702 10.9212 9.41074 11.0775C9.25446 11.2338 9.16667 11.4457 9.16667 11.6667C9.16667 11.8878 9.25446 12.0997 9.41074 12.256C9.56702 12.4123 9.77899 12.5001 10 12.5001C10.221 12.5001 10.433 12.4123 10.5893 12.256C10.7455 12.0997 10.8333 11.8878 10.8333 11.6667C10.8333 11.4457 10.7455 11.2338 10.5893 11.0775C10.433 10.9212 10.221 10.8334 10 10.8334Z" fill="currentColor"/>
</svg>
