<svg width="20" height="20" viewBox="0 0 20 20" fill="none" xmlns="http://www.w3.org/2000/svg">
<path d="M12.4998 11.6666C13.6082 11.6666 15.8332 12.2249 15.8332 13.3333V14.1666H9.1665V13.3333C9.1665 12.2249 11.3915 11.6666 12.4998 11.6666ZM12.4998 10.8333C13.4248 10.8333 14.1665 10.0916 14.1665 9.16659C14.1665 8.24159 13.4248 7.49992 12.4998 7.49992C11.5832 7.49992 10.8332 8.24159 10.8332 9.16659C10.8332 10.0916 11.5832 10.8333 12.4998 10.8333ZM18.3332 6.66659V14.9999C18.3332 15.9249 17.5915 16.6666 16.6665 16.6666H3.33317C2.4165 16.6666 1.6665 15.9249 1.6665 14.9999V4.99992C1.6665 4.07492 2.4165 3.33325 3.33317 3.33325H8.33317L9.99984 4.99992H16.6665C17.5915 4.99992 18.3332 5.74992 18.3332 6.66659ZM16.6665 6.66659H3.33317V14.9999H16.6665V6.66659Z" fill="currentColor"/>
</svg>
