<svg width="20" height="20" viewBox="0 0 20 20" fill="none" xmlns="http://www.w3.org/2000/svg">
<path d="M16.6667 5.00004H10.0001L8.33341 3.33337H3.33341C2.89139 3.33337 2.46746 3.50897 2.1549 3.82153C1.84234 4.13409 1.66675 4.55801 1.66675 5.00004V15C1.66675 15.4421 1.84234 15.866 2.1549 16.1786C2.46746 16.4911 2.89139 16.6667 3.33341 16.6667H16.6667C17.1088 16.6667 17.5327 16.4911 17.8453 16.1786C18.1578 15.866 18.3334 15.4421 18.3334 15V6.66671C18.3334 6.22468 18.1578 5.80076 17.8453 5.4882C17.5327 5.17564 17.1088 5.00004 16.6667 5.00004V5.00004ZM14.9501 14.1667L12.5001 12.7334L10.0501 14.1667L10.7001 11.3917L8.54175 9.52504L11.3834 9.28337L12.5001 6.66671L13.6167 9.28337L16.4584 9.52504L14.3001 11.3917L14.9501 14.1667Z" fill="currentColor"/>
</svg>
