<svg width="20" height="20" viewBox="0 0 20 20" fill="none" xmlns="http://www.w3.org/2000/svg">
<path d="M15.8334 14.1666H9.16675V13.3333C9.16675 12.2249 11.3917 11.6666 12.5001 11.6666C13.6084 11.6666 15.8334 12.2249 15.8334 13.3333V14.1666ZM12.5001 7.49992C12.9421 7.49992 13.366 7.67551 13.6786 7.98807C13.9912 8.30063 14.1667 8.72456 14.1667 9.16659C14.1667 9.60861 13.9912 10.0325 13.6786 10.3451C13.366 10.6577 12.9421 10.8333 12.5001 10.8333C12.0581 10.8333 11.6341 10.6577 11.3216 10.3451C11.009 10.0325 10.8334 9.60861 10.8334 9.16659C10.8334 8.24159 11.5834 7.49992 12.5001 7.49992ZM16.6667 4.99992H10.0001L8.33341 3.33325H3.33341C2.40841 3.33325 1.66675 4.07492 1.66675 4.99992V14.9999C1.66675 15.4419 1.84234 15.8659 2.1549 16.1784C2.46746 16.491 2.89139 16.6666 3.33341 16.6666H16.6667C17.1088 16.6666 17.5327 16.491 17.8453 16.1784C18.1578 15.8659 18.3334 15.4419 18.3334 14.9999V6.66659C18.3334 5.74159 17.5834 4.99992 16.6667 4.99992Z" fill="currentColor"/>
</svg>
