<svg width="20" height="20" viewBox="0 0 20 20" fill="none" xmlns="http://www.w3.org/2000/svg">
<path d="M13.3333 6.175L9.50825 10L13.3333 13.825L12.1583 15L8.33325 11.175L4.50825 15L3.33325 13.825L7.15825 10L3.33325 6.175L4.50825 5L8.33325 8.825L12.1583 5L13.3333 6.175ZM18.2083 17.525H14.1416V16.6917L14.8833 16.025C15.5166 15.4833 15.9833 15.0333 16.2999 14.6667C16.6083 14.3 16.7666 13.9583 16.7749 13.6333C16.7833 13.4 16.7083 13.2083 16.5499 13.05C16.3999 12.9167 16.1583 12.8167 15.8333 12.8167C15.5749 12.8167 15.3499 12.8667 15.1333 12.9667L14.5833 13.2833L14.2083 12.3083C14.4333 12.1333 14.6999 11.9833 15.0249 11.8667C15.3499 11.75 15.7083 11.6667 16.0999 11.6667C16.7499 11.7 17.2499 11.875 17.5833 12.2167C17.9166 12.5583 18.0999 12.9917 18.0999 13.525C18.0916 13.9917 17.9416 14.425 17.6499 14.8167C17.3666 15.2083 17.0166 15.5833 16.5916 15.95L16.0583 16.3833V16.4H18.2083V17.525Z" fill="currentColor"/>
</svg>
