<svg width="20" height="20" viewBox="0 0 20 20" fill="none" xmlns="http://www.w3.org/2000/svg">
<path d="M2.5 3.33325H4.16667V8.33325H7.5V3.33325H9.16667V14.9999H7.5V9.99992H4.16667V14.9999H2.5V3.33325ZM17.5 14.9999H12.5C12.058 14.9999 11.634 14.8243 11.3215 14.5118C11.0089 14.1992 10.8333 13.7753 10.8333 13.3333C10.8333 12.8916 11 12.4999 11.2833 12.1999L15.3417 7.84159C15.65 7.54159 15.8333 7.12492 15.8333 6.66659C15.8333 6.22456 15.6577 5.80063 15.3452 5.48807C15.0326 5.17551 14.6087 4.99992 14.1667 4.99992C13.7246 4.99992 13.3007 5.17551 12.9882 5.48807C12.6756 5.80063 12.5 6.22456 12.5 6.66659H10.8333C10.8333 5.78253 11.1845 4.93468 11.8096 4.30956C12.4348 3.68444 13.2826 3.33325 14.1667 3.33325C15.0507 3.33325 15.8986 3.68444 16.5237 4.30956C17.1488 4.93468 17.5 5.78253 17.5 6.66659C17.5 7.58325 17.125 8.41659 16.525 9.02492L12.5 13.3333H17.5V14.9999Z" fill="currentColor"/>
</svg>
