<svg width="20" height="20" viewBox="0 0 20 20" fill="none" xmlns="http://www.w3.org/2000/svg">
<path d="M14.1667 3.33341V2.50008C14.1667 2.27907 14.0789 2.06711 13.9226 1.91083C13.7663 1.75455 13.5543 1.66675 13.3333 1.66675H3.33333C3.11232 1.66675 2.90036 1.75455 2.74408 1.91083C2.5878 2.06711 2.5 2.27907 2.5 2.50008V5.83341C2.5 6.05443 2.5878 6.26639 2.74408 6.42267C2.90036 6.57895 3.11232 6.66675 3.33333 6.66675H13.3333C13.5543 6.66675 13.7663 6.57895 13.9226 6.42267C14.0789 6.26639 14.1667 6.05443 14.1667 5.83341V5.00008H15V8.33341H6.66667V17.5001C6.66667 17.7211 6.75446 17.9331 6.91074 18.0893C7.06703 18.2456 7.27899 18.3334 7.5 18.3334H9.16667C9.38768 18.3334 9.59964 18.2456 9.75592 18.0893C9.9122 17.9331 10 17.7211 10 17.5001V10.0001H16.6667V3.33341H14.1667Z" fill="currentColor"/>
</svg>
