<svg width="20" height="20" viewBox="0 0 20 20" fill="none" xmlns="http://www.w3.org/2000/svg">
<path d="M11.2499 12.9167H8.33325V10.4167H11.2499C11.5814 10.4167 11.8994 10.5484 12.1338 10.7828C12.3682 11.0172 12.4999 11.3352 12.4999 11.6667C12.4999 11.9982 12.3682 12.3162 12.1338 12.5506C11.8994 12.785 11.5814 12.9167 11.2499 12.9167ZM8.33325 5.41671H10.8333C11.1648 5.41671 11.4827 5.5484 11.7171 5.78282C11.9516 6.01724 12.0833 6.33519 12.0833 6.66671C12.0833 6.99823 11.9516 7.31617 11.7171 7.55059C11.4827 7.78501 11.1648 7.91671 10.8333 7.91671H8.33325M12.9999 8.99171C13.8083 8.42504 14.3749 7.50004 14.3749 6.66671C14.3749 4.78337 12.9166 3.33337 11.0416 3.33337H5.83325V15H11.6999C13.4499 15 14.7916 13.5834 14.7916 11.8417C14.7916 10.575 14.0749 9.49171 12.9999 8.99171Z" fill="currentColor"/>
</svg>
