<svg width="20" height="20" viewBox="0 0 20 20" fill="none" xmlns="http://www.w3.org/2000/svg">
<path d="M5.83341 10.8333V9.16659H17.5001V10.8333H5.83341ZM5.83341 15.8333V14.1666H17.5001V15.8333H5.83341ZM5.83341 5.83325V4.16659H17.5001V5.83325H5.83341ZM2.50008 6.66659V4.16659H1.66675V3.33325H3.33341V6.66659H2.50008ZM1.66675 14.1666V13.3333H4.16675V16.6666H1.66675V15.8333H3.33341V15.4166H2.50008V14.5833H3.33341V14.1666H1.66675ZM3.54175 8.33325C3.70751 8.33325 3.86648 8.3991 3.98369 8.51631C4.1009 8.63352 4.16675 8.79249 4.16675 8.95825C4.16675 9.12492 4.10008 9.28325 3.99175 9.39159L2.60008 10.8333H4.16675V11.6666H1.66675V10.8999L3.33341 9.16659H1.66675V8.33325H3.54175Z" fill="currentColor"/>
</svg>
