<svg width="20" height="20" viewBox="0 0 20 20" fill="none" xmlns="http://www.w3.org/2000/svg">
<path d="M14.1667 10.0001V2.50008C14.1667 2.27907 14.079 2.06711 13.9227 1.91083C13.7664 1.75455 13.5544 1.66675 13.3334 1.66675H2.50008C2.27907 1.66675 2.06711 1.75455 1.91083 1.91083C1.75455 2.06711 1.66675 2.27907 1.66675 2.50008V14.1667L5.00008 10.8334H13.3334C13.5544 10.8334 13.7664 10.7456 13.9227 10.5893C14.079 10.4331 14.1667 10.2211 14.1667 10.0001ZM17.5001 5.00008H15.8334V12.5001H5.00008V14.1667C5.00008 14.3878 5.08788 14.5997 5.24416 14.756C5.40044 14.9123 5.6124 15.0001 5.83341 15.0001H15.0001L18.3334 18.3334V5.83341C18.3334 5.6124 18.2456 5.40044 18.0893 5.24416C17.9331 5.08788 17.7211 5.00008 17.5001 5.00008Z" fill="currentColor"/>
</svg>
