<svg width="20" height="20" viewBox="0 0 20 20" fill="none" xmlns="http://www.w3.org/2000/svg">
<path d="M16.8333 4.91667L17.5 4.25C16.3333 3.08333 14.8333 2.5 13.3333 2.5C11.8333 2.5 10.3333 3.08333 9.16667 4.25L9.83333 4.91667C10.8333 4 12.0833 3.5 13.3333 3.5C14.5833 3.5 15.8333 4 16.8333 4.91667ZM16.0833 5.58333C15.3333 4.83333 14.3333 4.41667 13.3333 4.41667C12.3333 4.41667 11.3333 4.83333 10.5833 5.58333L11.25 6.25C11.8333 5.66667 12.5833 5.41667 13.3333 5.41667C14.0833 5.41667 14.8333 5.66667 15.4167 6.25L16.0833 5.58333ZM15.8333 10.8333H14.1667V7.5H12.5V10.8333H4.16667C3.72464 10.8333 3.30072 11.0089 2.98816 11.3215C2.67559 11.634 2.5 12.058 2.5 12.5V15.8333C2.5 16.2754 2.67559 16.6993 2.98816 17.0118C3.30072 17.3244 3.72464 17.5 4.16667 17.5H15.8333C16.2754 17.5 16.6993 17.3244 17.0118 17.0118C17.3244 16.6993 17.5 16.2754 17.5 15.8333V12.5C17.5 12.058 17.3244 11.634 17.0118 11.3215C16.6993 11.0089 16.2754 10.8333 15.8333 10.8333ZM6.66667 15H5V13.3333H6.66667V15ZM9.58333 15H7.91667V13.3333H9.58333V15ZM12.5 15H10.8333V13.3333H12.5V15Z" fill="currentColor"/>
</svg>
