<svg width="20" height="20" viewBox="0 0 20 20" fill="none" xmlns="http://www.w3.org/2000/svg">
<path d="M1.91041 16.9855L9.91041 8.9855L8.74374 7.80217L8.14374 8.39383C7.81874 8.71883 7.29374 8.71883 6.96874 8.39383L6.37707 7.80217C6.05207 7.47717 6.05207 6.95216 6.37707 6.62716L11.0937 1.9105C11.4187 1.5855 11.9437 1.5855 12.2687 1.9105L12.8604 2.50216C13.1854 2.82716 13.1854 3.35216 12.8604 3.67716L12.2687 4.25216L13.4521 5.44383C13.7771 5.11883 14.3021 5.11883 14.6271 5.44383C14.9521 5.76883 14.9521 6.30216 14.6271 6.62716L15.8021 7.80217L16.3937 7.2105C16.7187 6.8855 17.2521 6.8855 17.5771 7.2105L18.1604 7.80217C18.4854 8.12717 18.4854 8.6605 18.1604 8.9855L13.4521 13.6938C13.1271 14.0188 12.5937 14.0188 12.2687 13.6938L11.6854 13.1105C11.3521 12.7855 11.3521 12.2522 11.6854 11.9272L12.2687 11.3355L11.0937 10.1605L3.08541 18.1688C2.76041 18.4938 2.23541 18.4938 1.91041 18.1688C1.58541 17.8438 1.58541 17.3105 1.91041 16.9855ZM16.6604 15.9188C17.1024 15.9188 17.5264 16.0944 17.8389 16.407C18.1515 16.7195 18.3271 17.1435 18.3271 17.5855V18.4188H9.99374V17.5855C9.99374 17.1435 10.1693 16.7195 10.4819 16.407C10.7945 16.0944 11.2184 15.9188 11.6604 15.9188H16.6604Z" fill="currentColor"/>
</svg>
