<svg width="20" height="20" viewBox="0 0 20 20" fill="none" xmlns="http://www.w3.org/2000/svg">
<path d="M18.3334 10.0001V16.6667C18.3334 17.1088 18.1578 17.5327 17.8452 17.8453C17.5327 18.1578 17.1087 18.3334 16.6667 18.3334H3.33337C2.89135 18.3334 2.46742 18.1578 2.15486 17.8453C1.8423 17.5327 1.66671 17.1088 1.66671 16.6667V10.0001C1.44569 10.0001 1.23373 9.91228 1.07745 9.756C0.921171 9.59972 0.833374 9.38776 0.833374 9.16675V6.66675C0.833374 6.22472 1.00897 5.8008 1.32153 5.48824C1.63409 5.17568 2.05801 5.00008 2.50004 5.00008H5.14171C5.05004 4.74175 5.00004 4.45841 5.00004 4.16675C5.00004 3.50371 5.26343 2.86782 5.73227 2.39898C6.20112 1.93014 6.837 1.66675 7.50004 1.66675C8.33337 1.66675 9.06671 2.08341 9.52504 2.70008V2.69175L10 3.33341L10.475 2.69175V2.70008C10.9334 2.08341 11.6667 1.66675 12.5 1.66675C13.1631 1.66675 13.799 1.93014 14.2678 2.39898C14.7366 2.86782 15 3.50371 15 4.16675C15 4.45841 14.95 4.74175 14.8584 5.00008H17.5C17.9421 5.00008 18.366 5.17568 18.6786 5.48824C18.9911 5.8008 19.1667 6.22472 19.1667 6.66675V9.16675C19.1667 9.38776 19.0789 9.59972 18.9226 9.756C18.7664 9.91228 18.5544 10.0001 18.3334 10.0001ZM3.33337 16.6667H9.16671V10.0001H3.33337V16.6667ZM16.6667 16.6667V10.0001H10.8334V16.6667H16.6667ZM7.50004 3.33341C7.27903 3.33341 7.06707 3.42121 6.91079 3.57749C6.75451 3.73377 6.66671 3.94573 6.66671 4.16675C6.66671 4.38776 6.75451 4.59972 6.91079 4.756C7.06707 4.91228 7.27903 5.00008 7.50004 5.00008C7.72105 5.00008 7.93302 4.91228 8.0893 4.756C8.24558 4.59972 8.33337 4.38776 8.33337 4.16675C8.33337 3.94573 8.24558 3.73377 8.0893 3.57749C7.93302 3.42121 7.72105 3.33341 7.50004 3.33341V3.33341ZM12.5 3.33341C12.279 3.33341 12.0671 3.42121 11.9108 3.57749C11.7545 3.73377 11.6667 3.94573 11.6667 4.16675C11.6667 4.38776 11.7545 4.59972 11.9108 4.756C12.0671 4.91228 12.279 5.00008 12.5 5.00008C12.7211 5.00008 12.933 4.91228 13.0893 4.756C13.2456 4.59972 13.3334 4.38776 13.3334 4.16675C13.3334 3.94573 13.2456 3.73377 13.0893 3.57749C12.933 3.42121 12.7211 3.33341 12.5 3.33341V3.33341ZM2.50004 6.66675V8.33341H9.16671V6.66675H2.50004ZM10.8334 6.66675V8.33341H17.5V6.66675H10.8334Z" fill="currentColor"/>
</svg>
