<svg width="20" height="20" viewBox="0 0 20 20" fill="none" xmlns="http://www.w3.org/2000/svg">
<path d="M6.66675 1.66675C7.99283 1.66675 9.2646 2.19353 10.2023 3.13121C11.14 4.0689 11.6667 5.34067 11.6667 6.66675C11.6667 7.99283 11.14 9.2646 10.2023 10.2023C9.2646 11.14 7.99283 11.6667 6.66675 11.6667C5.34067 11.6667 4.0689 11.14 3.13121 10.2023C2.19353 9.2646 1.66675 7.99283 1.66675 6.66675C1.66675 5.34067 2.19353 4.0689 3.13121 3.13121C4.0689 2.19353 5.34067 1.66675 6.66675 1.66675V1.66675ZM17.5001 5.83341C17.7211 5.83341 17.9331 5.92121 18.0893 6.07749C18.2456 6.23377 18.3334 6.44573 18.3334 6.66675C18.3334 6.88776 18.2456 7.09972 18.0893 7.256C17.9331 7.41228 17.7211 7.50008 17.5001 7.50008C17.2791 7.50008 17.0671 7.41228 16.9108 7.256C16.7545 7.09972 16.6667 6.88776 16.6667 6.66675C16.6667 6.44573 16.7545 6.23377 16.9108 6.07749C17.0671 5.92121 17.2791 5.83341 17.5001 5.83341ZM14.5834 7.50008C15.1359 7.50008 15.6659 7.71957 16.0566 8.11028C16.4473 8.50098 16.6667 9.03088 16.6667 9.58341C16.6667 10.1359 16.4473 10.6659 16.0566 11.0566C15.6659 11.4473 15.1359 11.6667 14.5834 11.6667C14.0309 11.6667 13.501 11.4473 13.1103 11.0566C12.7196 10.6659 12.5001 10.1359 12.5001 9.58341C12.5001 9.03088 12.7196 8.50098 13.1103 8.11028C13.501 7.71957 14.0309 7.50008 14.5834 7.50008ZM14.5834 12.5001C15.2465 12.5001 15.8823 12.7635 16.3512 13.2323C16.82 13.7012 17.0834 14.337 17.0834 15.0001C17.0834 15.6631 16.82 16.299 16.3512 16.7678C15.8823 17.2367 15.2465 17.5001 14.5834 17.5001C13.9204 17.5001 13.2845 17.2367 12.8156 16.7678C12.3468 16.299 12.0834 15.6631 12.0834 15.0001C12.0834 14.337 12.3468 13.7012 12.8156 13.2323C13.2845 12.7635 13.9204 12.5001 14.5834 12.5001Z" fill="currentColor"/>
</svg>
