<svg width="20" height="20" viewBox="0 0 20 20" fill="none" xmlns="http://www.w3.org/2000/svg">
<path d="M16.9792 14.7917C16.8567 14.7917 16.7517 14.7917 16.6379 14.8267L15.2292 11.9917C15.6229 11.598 15.8854 11.038 15.8854 10.4167C15.8854 9.20925 14.9054 8.22925 13.6979 8.22925C13.5754 8.22925 13.4792 8.22925 13.3479 8.26425L11.9392 5.42925C12.3504 5.02675 12.6042 4.4755 12.6042 3.85425C12.6042 2.64675 11.6242 1.66675 10.4167 1.66675C9.20919 1.66675 8.22919 2.64675 8.22919 3.85425C8.22919 4.46675 8.48294 5.02675 8.89419 5.4205L7.48544 8.26425C7.35419 8.22925 7.25794 8.22925 7.13544 8.22925C5.92794 8.22925 4.94794 9.20925 4.94794 10.4167C4.94794 11.038 5.20169 11.5892 5.60419 11.983L4.19544 14.8267C4.08169 14.7917 3.97669 14.7917 3.85419 14.7917C2.64669 14.7917 1.66669 15.7717 1.66669 16.9792C1.66669 18.1867 2.64669 19.1667 3.85419 19.1667C5.06169 19.1667 6.04169 18.1867 6.04169 16.9792C6.04169 16.3667 5.78794 15.8067 5.37669 15.413L6.79419 12.5692C6.91669 12.6042 7.02169 12.6042 7.13544 12.6042C7.24919 12.6042 7.35419 12.6042 7.46794 12.5692L8.89419 15.413C8.48294 15.8067 8.22919 16.3667 8.22919 16.9792C8.22919 18.1867 9.20919 19.1667 10.4167 19.1667C11.6242 19.1667 12.6042 18.1867 12.6042 16.9792C12.6042 15.7717 11.6242 14.7917 10.4167 14.7917C10.3029 14.7917 10.1892 14.7917 10.0754 14.8267L8.66669 11.9917C9.06044 11.598 9.32294 11.038 9.32294 10.4167C9.32294 9.80425 9.06919 9.253 8.66669 8.8505L10.0754 6.00675C10.1892 6.04175 10.3029 6.04175 10.4167 6.04175C10.5304 6.04175 10.6442 6.04175 10.7579 6.00675L12.1667 8.8505C11.7642 9.24425 11.5104 9.80425 11.5104 10.4167C11.5104 11.6242 12.4904 12.6042 13.6979 12.6042C13.8117 12.6042 13.9167 12.6042 14.0304 12.5692L15.4567 15.413C15.0454 15.8067 14.7917 16.3667 14.7917 16.9792C14.7917 18.1867 15.7717 19.1667 16.9792 19.1667C18.1867 19.1667 19.1667 18.1867 19.1667 16.9792C19.1667 15.7717 18.1867 14.7917 16.9792 14.7917ZM3.85419 17.8542C3.37294 17.8542 2.97919 17.4605 2.97919 16.9792C2.97919 16.498 3.37294 16.1042 3.85419 16.1042C4.33544 16.1042 4.72919 16.498 4.72919 16.9792C4.72919 17.4605 4.33544 17.8542 3.85419 17.8542ZM11.2917 16.9792C11.2917 17.4605 10.8979 17.8542 10.4167 17.8542C9.93544 17.8542 9.54169 17.4605 9.54169 16.9792C9.54169 16.498 9.93544 16.1042 10.4167 16.1042C10.8979 16.1042 11.2917 16.498 11.2917 16.9792ZM6.26044 10.4167C6.26044 9.9355 6.65419 9.54175 7.13544 9.54175C7.61669 9.54175 8.01044 9.9355 8.01044 10.4167C8.01044 10.898 7.61669 11.2917 7.13544 11.2917C6.65419 11.2917 6.26044 10.898 6.26044 10.4167ZM9.54169 3.85425C9.54169 3.373 9.93544 2.97925 10.4167 2.97925C10.8979 2.97925 11.2917 3.373 11.2917 3.85425C11.2917 4.3355 10.8979 4.72925 10.4167 4.72925C9.93544 4.72925 9.54169 4.3355 9.54169 3.85425ZM12.8229 10.4167C12.8229 9.9355 13.2167 9.54175 13.6979 9.54175C14.1792 9.54175 14.5729 9.9355 14.5729 10.4167C14.5729 10.898 14.1792 11.2917 13.6979 11.2917C13.2167 11.2917 12.8229 10.898 12.8229 10.4167ZM16.9792 17.8542C16.4979 17.8542 16.1042 17.4605 16.1042 16.9792C16.1042 16.498 16.4979 16.1042 16.9792 16.1042C17.4604 16.1042 17.8542 16.498 17.8542 16.9792C17.8542 17.4605 17.4604 17.8542 16.9792 17.8542Z" fill="currentColor"/>
</svg>
