<svg width="20" height="20" viewBox="0 0 20 20" fill="none" xmlns="http://www.w3.org/2000/svg">
<path d="M12.5582 9.37508L11.8082 10.1417C11.2082 10.7417 10.8332 11.2501 10.8332 12.5001H9.1665V12.0834C9.1665 11.1584 9.5415 10.3251 10.1415 9.72508L11.1748 8.67508C11.4832 8.37508 11.6665 7.95841 11.6665 7.50008C11.6665 6.57508 10.9165 5.83341 9.99984 5.83341C9.55781 5.83341 9.13389 6.00901 8.82133 6.32157C8.50877 6.63413 8.33317 7.05805 8.33317 7.50008H6.6665C6.6665 6.61603 7.01769 5.76818 7.64281 5.14306C8.26794 4.51794 9.11578 4.16675 9.99984 4.16675C10.8839 4.16675 11.7317 4.51794 12.3569 5.14306C12.982 5.76818 13.3332 6.61603 13.3332 7.50008C13.3332 8.23341 13.0332 8.89175 12.5582 9.37508ZM10.8332 15.8334H9.1665V14.1667H10.8332V15.8334ZM9.99984 1.66675C8.90549 1.66675 7.82185 1.8823 6.81081 2.30109C5.79976 2.71987 4.8811 3.3337 4.10728 4.10752C2.54448 5.67033 1.6665 7.78994 1.6665 10.0001C1.6665 12.2102 2.54448 14.3298 4.10728 15.8926C4.8811 16.6665 5.79976 17.2803 6.81081 17.6991C7.82185 18.1179 8.90549 18.3334 9.99984 18.3334C12.21 18.3334 14.3296 17.4554 15.8924 15.8926C17.4552 14.3298 18.3332 12.2102 18.3332 10.0001C18.3332 5.39175 14.5832 1.66675 9.99984 1.66675Z" fill="currentColor"/>
</svg>
