<svg width="20" height="20" viewBox="0 0 20 20" fill="none" xmlns="http://www.w3.org/2000/svg">
<path d="M7.70841 1.66675C7.86675 1.66675 8.00841 1.75841 8.07508 1.88341L9.92508 5.18341L10.0001 5.41675L9.92508 5.65008L8.07508 8.95008C8.00841 9.07508 7.86675 9.16675 7.70841 9.16675H3.95841C3.80008 9.16675 3.65841 9.07508 3.59175 8.95008L1.74175 5.65008L1.66675 5.41675L1.74175 5.18341L3.59175 1.88341C3.65841 1.75841 3.80008 1.66675 3.95841 1.66675H7.70841ZM7.70841 10.8334C7.86675 10.8334 8.00841 10.9251 8.07508 11.0501L9.92508 14.3501L10.0001 14.5834L9.92508 14.8167L8.07508 18.1167C8.00841 18.2417 7.86675 18.3334 7.70841 18.3334H3.95841C3.80008 18.3334 3.65841 18.2417 3.59175 18.1167L1.74175 14.8167L1.66675 14.5834L1.74175 14.3501L3.59175 11.0501C3.65841 10.9251 3.80008 10.8334 3.95841 10.8334H7.70841ZM15.4167 6.25008C15.5751 6.25008 15.7167 6.34175 15.7834 6.46675L17.6334 9.76675L17.7084 10.0001L17.6334 10.2334L15.7834 13.5334C15.7167 13.6584 15.5751 13.7501 15.4167 13.7501H11.6667C11.5084 13.7501 11.3667 13.6584 11.3001 13.5334L9.45008 10.2334L9.37508 10.0001L9.45008 9.76675L11.3001 6.46675C11.3667 6.34175 11.5084 6.25008 11.6667 6.25008H15.4167Z" fill="currentColor"/>
</svg>
