<svg width="20" height="20" viewBox="0 0 20 20" fill="none" xmlns="http://www.w3.org/2000/svg">
<path d="M9.16675 6.66667V10.925L13.0917 13.25L13.7501 12.1833L10.4167 10.2083V6.66667H9.16675ZM10.4167 2.5C7.47508 2.5 4.92508 4.1 3.55841 6.475L1.66675 4.58333V10H7.08341L4.79175 7.70833C5.80008 5.60833 7.91675 4.16667 10.4167 4.16667C12.0744 4.16667 13.6641 4.82515 14.8362 5.99725C16.0083 7.16935 16.6667 8.75906 16.6667 10.4167C16.6667 12.0743 16.0083 13.664 14.8362 14.8361C13.6641 16.0082 12.0744 16.6667 10.4167 16.6667C7.69175 16.6667 5.39175 14.925 4.53341 12.5H2.78341C3.70008 15.8583 6.75841 18.3333 10.4167 18.3333C14.7834 18.3333 18.3334 14.7917 18.3334 10.4167C18.3334 9.37704 18.1286 8.34758 17.7308 7.38709C17.3329 6.42659 16.7498 5.55387 16.0147 4.81874C15.2795 4.08361 14.4068 3.50047 13.4463 3.10262C12.4858 2.70477 11.4564 2.5 10.4167 2.5V2.5Z" fill="currentColor"/>
</svg>
