<svg width="20" height="20" viewBox="0 0 20 20" fill="none" xmlns="http://www.w3.org/2000/svg">
<path d="M15.8916 4.10836C14.35 2.50003 12.2166 1.63337 9.99997 1.6667C7.7833 1.63337 5.6583 2.50003 4.11664 4.10836C2.49997 5.65003 1.6333 7.78336 1.66664 10C1.6333 12.2167 2.49997 14.3417 4.1083 15.8834C5.64997 17.5 7.7833 18.3667 9.99997 18.3334C12.2166 18.3667 14.3416 17.5 15.8833 15.8917C17.5 14.35 18.3666 12.2167 18.3333 10C18.3666 7.78336 17.5 5.65003 15.8916 4.10836ZM14.1666 10V15H11.25V10.8334H8.74997V15H5.8333V10H4.16664L9.99997 4.1667L16.25 10H14.1666Z" fill="currentColor"/>
</svg>
