<svg width="20" height="20" viewBox="0 0 20 20" fill="none" xmlns="http://www.w3.org/2000/svg">
<path d="M10 16.6667C6.33335 16.6667 3.33335 13.6667 3.33335 10.0001C3.33335 6.33341 6.33335 3.33341 10 3.33341C13.6667 3.33341 16.6667 6.33341 16.6667 10.0001C16.6667 13.6667 13.6667 16.6667 10 16.6667ZM10 1.66675C5.41669 1.66675 1.66669 5.41675 1.66669 10.0001C1.66669 14.5834 5.41669 18.3334 10 18.3334C14.5834 18.3334 18.3334 14.5834 18.3334 10.0001C18.3334 5.41675 14.5834 1.66675 10 1.66675ZM9.16669 11.6667H10.8334V14.1667H13.3334V10.0001H15L10 5.83341L5.00002 10.0001H6.66669V14.1667H9.16669V11.6667Z" fill="currentColor"/>
</svg>
