<svg width="20" height="20" viewBox="0 0 20 20" fill="none" xmlns="http://www.w3.org/2000/svg">
<path d="M9.58317 1.66675C10.0252 1.66675 10.4491 1.84234 10.7617 2.1549C11.0742 2.46746 11.2498 2.89139 11.2498 3.33341C11.2498 3.77544 11.0742 4.19937 10.7617 4.51193C10.4491 4.82449 10.0252 5.00008 9.58317 5.00008C9.14114 5.00008 8.71722 4.82449 8.40466 4.51193C8.0921 4.19937 7.9165 3.77544 7.9165 3.33341C7.9165 2.89139 8.0921 2.46746 8.40466 2.1549C8.71722 1.84234 9.14114 1.66675 9.58317 1.66675ZM8.33317 5.83341H10.8332C11.2752 5.83341 11.6991 6.00901 12.0117 6.32157C12.3242 6.63413 12.4998 7.05805 12.4998 7.50008V12.0834H11.2498V18.3334H7.9165V12.0834H6.6665V7.50008C6.6665 7.05805 6.8421 6.63413 7.15466 6.32157C7.46722 6.00901 7.89114 5.83341 8.33317 5.83341Z" fill="currentColor"/>
</svg>
