<svg width="20" height="20" viewBox="0 0 20 20" fill="none" xmlns="http://www.w3.org/2000/svg">
<g clip-path="url(#clip0_18832_5221)">
<path d="M9.16675 11.6667H7.50008C7.50008 7.52508 10.8584 4.16675 15.0001 4.16675V5.83341C11.7751 5.83341 9.16675 8.44175 9.16675 11.6667ZM15.0001 9.16675V7.50008C12.7001 7.50008 10.8334 9.36675 10.8334 11.6667H12.5001C12.5001 10.2834 13.6167 9.16675 15.0001 9.16675ZM5.83341 3.33341C5.83341 2.40841 5.09175 1.66675 4.16675 1.66675C3.24175 1.66675 2.50008 2.40841 2.50008 3.33341C2.50008 4.25841 3.24175 5.00008 4.16675 5.00008C5.09175 5.00008 5.83341 4.25841 5.83341 3.33341ZM9.54175 3.75008H7.87508C7.67508 4.93341 6.65841 5.83341 5.41675 5.83341H2.91675C2.22508 5.83341 1.66675 6.39175 1.66675 7.08341V9.16675H6.66675V7.28341C8.21675 6.79175 9.37508 5.42508 9.54175 3.75008ZM15.8334 14.1667C16.7584 14.1667 17.5001 13.4251 17.5001 12.5001C17.5001 11.5751 16.7584 10.8334 15.8334 10.8334C14.9084 10.8334 14.1667 11.5751 14.1667 12.5001C14.1667 13.4251 14.9084 14.1667 15.8334 14.1667ZM17.0834 15.0001H14.5834C13.3417 15.0001 12.3251 14.1001 12.1251 12.9167H10.4584C10.6251 14.5917 11.7834 15.9584 13.3334 16.4501V18.3334H18.3334V16.2501C18.3334 15.5584 17.7751 15.0001 17.0834 15.0001Z" fill="currentColor"/>
</g>
<defs>
<clipPath id="clip0_18832_5221">
<rect width="20" height="20" fill="currentColor"/>
</clipPath>
</defs>
</svg>
