<svg width="20" height="20" viewBox="0 0 20 20" fill="none" xmlns="http://www.w3.org/2000/svg">
<path d="M4.99992 15.8333L7.49992 12.6166L9.28325 14.7666L11.7833 11.55L14.9999 15.8333H4.99992ZM4.99992 3.33329H9.16659V9.99996L7.08325 8.74996L4.99992 9.99996V3.33329ZM14.9999 1.66663H4.99992C4.55789 1.66663 4.13397 1.84222 3.82141 2.15478C3.50885 2.46734 3.33325 2.89127 3.33325 3.33329V16.6666C3.33325 17.1087 3.50885 17.5326 3.82141 17.8451C4.13397 18.1577 4.55789 18.3333 4.99992 18.3333H14.9999C15.4419 18.3333 15.8659 18.1577 16.1784 17.8451C16.491 17.5326 16.6666 17.1087 16.6666 16.6666V3.33329C16.6666 2.89127 16.491 2.46734 16.1784 2.15478C15.8659 1.84222 15.4419 1.66663 14.9999 1.66663Z" fill="currentColor"/>
</svg>
