<svg width="20" height="20" viewBox="0 0 20 20" fill="none" xmlns="http://www.w3.org/2000/svg">
<path d="M18.3334 13.3333V3.33329C18.3334 2.89127 18.1578 2.46734 17.8453 2.15478C17.5327 1.84222 17.1088 1.66663 16.6667 1.66663H6.66675C6.22472 1.66663 5.8008 1.84222 5.48824 2.15478C5.17568 2.46734 5.00008 2.89127 5.00008 3.33329V13.3333C5.00008 13.7753 5.17568 14.1992 5.48824 14.5118C5.8008 14.8244 6.22472 15 6.66675 15H16.6667C17.1088 15 17.5327 14.8244 17.8453 14.5118C18.1578 14.1992 18.3334 13.7753 18.3334 13.3333ZM9.16675 9.99996L10.8584 12.2583L13.3334 9.16663L16.6667 13.3333H6.66675L9.16675 9.99996ZM1.66675 4.99996V16.6666C1.66675 17.1087 1.84234 17.5326 2.1549 17.8451C2.46746 18.1577 2.89139 18.3333 3.33341 18.3333H15.0001V16.6666H3.33341V4.99996" fill="currentColor"/>
</svg>
