<svg width="20" height="20" viewBox="0 0 20 20" fill="none" xmlns="http://www.w3.org/2000/svg">
<path d="M13.3333 7.5H11.2083V5H8.79167V7.5H6.66667L10 10.8333L13.3333 7.5ZM15.8333 2.5H4.15833C3.23333 2.5 2.5 3.25 2.5 4.16667V15.8333C2.5 16.75 3.23333 17.5 4.15833 17.5H15.8333C16.75 17.5 17.5 16.75 17.5 15.8333V4.16667C17.5 3.25 16.75 2.5 15.8333 2.5ZM15.8333 15.8333H4.16667V13.3333H7.13333C7.70833 14.325 8.775 15 10.0083 15C11.2417 15 12.3 14.325 12.8833 13.3333H15.8333V15.8333ZM15.8333 11.6667H11.675C11.675 12.5833 10.925 13.3333 10.0083 13.3333C9.09167 13.3333 8.34167 12.5833 8.34167 11.6667H4.16667L4.15833 4.16667H15.8333V11.6667Z" fill="currentColor"/>
</svg>
