<svg width="20" height="20" viewBox="0 0 20 20" fill="none" xmlns="http://www.w3.org/2000/svg">
<path d="M15.8333 2.5H4.16667C3.25 2.5 2.5 3.25 2.5 4.16667V10C2.5 10.9167 3.25 11.6667 4.16667 11.6667H15.8333C16.75 11.6667 17.5 10.9167 17.5 10V4.16667C17.5 3.25 16.75 2.5 15.8333 2.5ZM4.16667 8.33333H6.775C6.95 8.98333 7.33333 9.55833 7.83333 10H4.16667V8.33333ZM15.8333 10H12.1667C12.6667 9.55833 13.05 8.98333 13.225 8.33333H15.8333V10ZM15.8333 6.66667H11.6667V7.5C11.6667 8.39167 10.8917 9.16667 10 9.16667C9.10833 9.16667 8.33333 8.39167 8.33333 7.5V6.66667H4.16667V4.16667H15.8333V6.66667ZM14.1667 12.5H11.6667V13.3333C11.6667 13.725 11.5083 14.0833 11.2667 14.375C10.9583 14.75 10.5 15 10 15C9.5 15 9.04167 14.75 8.73333 14.375C8.49167 14.0833 8.33333 13.725 8.33333 13.3333V12.5H2.5V15.8333C2.5 16.75 3.25 17.5 4.16667 17.5H15.8333C16.75 17.5 17.5 16.75 17.5 15.8333V12.5H14.1667ZM4.16667 14.1667H6.775C6.79167 14.2417 6.825 14.3083 6.85 14.375C7.05 14.9417 7.39167 15.4417 7.83333 15.8333H4.16667V14.1667ZM15.8333 15.8333H12.1667C12.6167 15.4417 12.9583 14.9417 13.15 14.375C13.175 14.3083 13.2083 14.2417 13.225 14.1667H15.8333V15.8333Z" fill="currentColor"/>
</svg>
