<svg width="20" height="20" viewBox="0 0 20 20" fill="none" xmlns="http://www.w3.org/2000/svg">
<path d="M11.6055 3.33325C11.274 3.33325 10.9561 3.46495 10.7217 3.69937C10.4872 3.93379 10.3555 4.25173 10.3555 4.58325C10.3555 4.91477 10.4872 5.23272 10.7217 5.46714C10.9561 5.70156 11.274 5.83325 11.6055 5.83325C11.9371 5.83325 12.255 5.70156 12.4894 5.46714C12.7238 5.23272 12.8555 4.91477 12.8555 4.58325C12.8555 4.25173 12.7238 3.93379 12.4894 3.69937C12.255 3.46495 11.9371 3.33325 11.6055 3.33325ZM11.3055 7.30825C10.3139 7.39159 7.60553 9.54992 7.60553 9.54992C7.43887 9.67492 7.48887 9.66659 7.6222 9.89992C7.75553 10.1249 7.73887 10.1416 7.8972 10.0333C8.06387 9.92492 8.33887 9.74992 8.7972 9.46659C10.5639 8.33325 9.08053 10.9499 8.3222 15.3583C8.0222 17.5416 9.98887 16.4166 10.4972 16.0833C10.9972 15.7583 12.3389 14.8333 12.4722 14.7416C12.6555 14.6166 12.5222 14.5166 12.3805 14.3083C12.2805 14.1666 12.1805 14.2666 12.1805 14.2666C11.6389 14.6249 10.6472 15.3749 10.5139 14.8999C10.3555 14.4249 11.3722 11.1666 11.9305 8.92492C12.0222 8.39159 12.2722 7.22492 11.3055 7.30825Z" fill="currentColor"/>
</svg>
