<svg width="20" height="20" viewBox="0 0 20 20" fill="none" xmlns="http://www.w3.org/2000/svg">
<path d="M11.0664 2.47453L11.8997 2.52453C14.2331 1.46619 16.2581 1.34119 17.3164 2.40786C18.1497 3.24953 18.2164 4.69953 17.6664 6.40786C18.2414 7.47453 18.5664 8.68286 18.5664 9.97453L18.5247 10.8079H7.79972C8.10806 12.7079 9.44972 14.1412 11.0664 14.1412C12.1581 14.1412 13.1247 13.4829 13.7331 12.4745H18.1497C17.1081 15.3912 14.3331 17.4745 11.0664 17.4745C9.99972 17.4745 8.98306 17.2495 8.07472 16.8495C5.64972 18.0412 3.47472 18.2245 2.37472 17.1079C1.06639 15.7745 1.63306 12.9495 3.56639 9.97453C4.34139 8.75786 5.34972 7.52453 6.54139 6.34953L7.21639 5.70786C6.24139 6.28286 4.99139 7.15786 3.72472 8.44953C4.42472 5.04119 7.44972 2.47453 11.0664 2.47453ZM11.0664 5.80786C9.57472 5.80786 8.30806 7.03286 7.88306 8.72453H14.2497C13.8247 7.03286 12.5581 5.80786 11.0664 5.80786ZM16.9497 3.35786C16.3997 2.79953 15.4164 2.76619 14.1831 3.14953C15.4164 3.72453 16.4831 4.60786 17.2414 5.71619C17.5081 4.68286 17.4331 3.84953 16.9497 3.35786ZM3.47472 16.6412C4.16639 17.3412 5.56639 17.2162 7.26639 16.4412C5.72472 15.5329 4.54139 14.0912 3.95806 12.3745C2.95806 14.2662 2.73306 15.8662 3.47472 16.6412Z" fill="currentColor"/>
</svg>
