<svg width="20" height="20" viewBox="0 0 20 20" fill="none" xmlns="http://www.w3.org/2000/svg">
<path d="M0.833344 2.72508L1.90001 1.66675L16.6667 16.4334L15.6083 17.5001L13.1083 15.0001H3.33334C2.40834 15.0001 1.66668 14.2501 1.66668 13.3334V5.00008C1.66668 4.58341 1.81668 4.22508 2.05001 3.94175L0.833344 2.72508ZM15.8333 7.50008V5.83341H14.1667V7.50008H15.8333ZM15.8333 10.0001V8.33341H14.1667V10.0001H15.8333ZM13.3333 7.50008V5.83341H11.6667V7.50008H13.3333ZM13.3333 10.0001V8.33341H11.6667V9.31675L9.85001 7.50008H10.8333V5.83341H9.16668V6.81675L8.18334 5.83341L5.68334 3.33341H16.6667C17.1087 3.33341 17.5326 3.50901 17.8452 3.82157C18.1577 4.13413 18.3333 4.55805 18.3333 5.00008V13.3334C18.3333 14.0501 17.8833 14.6584 17.25 14.8917L12.35 10.0001H13.3333ZM6.66668 11.6667V13.3334H11.4417L9.77501 11.6667H6.66668ZM4.16668 7.50008H5.60834L4.16668 6.05841V7.50008ZM5.83334 10.0001V8.33341H4.16668V10.0001H5.83334ZM6.66668 10.0001H8.10834L6.66668 8.55841V10.0001Z" fill="currentColor"/>
</svg>
