<svg width="20" height="20" viewBox="0 0 20 20" fill="none" xmlns="http://www.w3.org/2000/svg">
<path d="M4.99999 12.5H15V14.1667H4.99999V12.5ZM4.99999 10V11.6667H1.66666V10H4.99999ZM5.83332 11.6667V10H8.33332V11.6667H5.83332ZM9.16666 11.6667V10H10.8333V11.6667H9.16666ZM11.6667 11.6667V10H14.1667V11.6667H11.6667ZM15 11.6667V10H18.3333V11.6667H15ZM1.66666 7.5H4.16666V9.16667H1.66666V7.5ZM15.8333 9.16667V7.5H18.3333V9.16667H15.8333ZM15 9.16667H13.3333V7.5H15V9.16667ZM6.66666 9.16667H4.99999V7.5H6.66666V9.16667ZM9.99999 9.16667H7.49999V7.5H9.99999V9.16667ZM12.5 9.16667H10.8333V7.5H12.5V9.16667ZM1.66666 6.66667V5H3.33332V6.66667H1.66666ZM4.16666 6.66667V5H5.83332V6.66667H4.16666ZM6.66666 6.66667V5H8.33332V6.66667H6.66666ZM9.16666 6.66667V5H10.8333V6.66667H9.16666ZM11.6667 6.66667V5H13.3333V6.66667H11.6667ZM14.1667 6.66667V5H18.3333V6.66667H14.1667Z" fill="currentColor"/>
</svg>
