<svg width="20" height="20" viewBox="0 0 20 20" fill="none" xmlns="http://www.w3.org/2000/svg">
<path d="M8.33341 1.66675C7.40841 1.66675 6.66675 2.40841 6.66675 3.33341V5.83341C6.66675 6.75841 7.40841 7.50008 8.33341 7.50008H9.16675V9.16675H1.66675V10.8334H5.00008V12.5001H4.16675C3.24175 12.5001 2.50008 13.2417 2.50008 14.1667V16.6667C2.50008 17.5917 3.24175 18.3334 4.16675 18.3334H7.50008C8.42508 18.3334 9.16675 17.5917 9.16675 16.6667V14.1667C9.16675 13.2417 8.42508 12.5001 7.50008 12.5001H6.66675V10.8334H13.3334V12.5001H12.5001C11.5751 12.5001 10.8334 13.2417 10.8334 14.1667V16.6667C10.8334 17.5917 11.5751 18.3334 12.5001 18.3334H15.8334C16.7584 18.3334 17.5001 17.5917 17.5001 16.6667V14.1667C17.5001 13.2417 16.7584 12.5001 15.8334 12.5001H15.0001V10.8334H18.3334V9.16675H10.8334V7.50008H11.6667C12.5917 7.50008 13.3334 6.75841 13.3334 5.83341V3.33341C13.3334 2.40841 12.5917 1.66675 11.6667 1.66675H8.33341ZM8.33341 3.33341H11.6667V5.83341H8.33341V3.33341ZM4.16675 14.1667H7.50008V16.6667H4.16675V14.1667ZM12.5001 14.1667H15.8334V16.6667H12.5001V14.1667Z" fill="currentColor"/>
</svg>
