<svg width="20" height="20" viewBox="0 0 20 20" fill="none" xmlns="http://www.w3.org/2000/svg">
<path d="M9.99999 1.66675C11.5471 1.66675 13.0308 2.28133 14.1248 3.37529C15.2187 4.46925 15.8333 5.95299 15.8333 7.50008C15.8333 9.48341 14.8417 11.2251 13.3333 12.2834V14.1667C13.3333 14.3878 13.2455 14.5997 13.0892 14.756C12.933 14.9123 12.721 15.0001 12.5 15.0001H7.49999C7.27898 15.0001 7.06701 14.9123 6.91073 14.756C6.75445 14.5997 6.66666 14.3878 6.66666 14.1667V12.2834C5.15832 11.2251 4.16666 9.48341 4.16666 7.50008C4.16666 5.95299 4.78124 4.46925 5.8752 3.37529C6.96916 2.28133 8.45289 1.66675 9.99999 1.66675V1.66675ZM7.49999 17.5001V16.6667H12.5V17.5001C12.5 17.7211 12.4122 17.9331 12.2559 18.0893C12.0996 18.2456 11.8877 18.3334 11.6667 18.3334H8.33332C8.11231 18.3334 7.90035 18.2456 7.74407 18.0893C7.58779 17.9331 7.49999 17.7211 7.49999 17.5001ZM9.99999 3.33341C8.89492 3.33341 7.83511 3.7724 7.05371 4.5538C6.27231 5.3352 5.83332 6.39501 5.83332 7.50008C5.83332 9.20841 6.85832 10.6751 8.33332 11.3167V13.3334H11.6667V11.3167C13.1417 10.6751 14.1667 9.20841 14.1667 7.50008C14.1667 6.39501 13.7277 5.3352 12.9463 4.5538C12.1649 3.7724 11.1051 3.33341 9.99999 3.33341V3.33341Z" fill="currentColor"/>
</svg>
