<svg width="20" height="20" viewBox="0 0 20 20" fill="none" xmlns="http://www.w3.org/2000/svg">
<path d="M2.57498 9.99992C2.57498 8.57492 3.84915 7.41658 5.41665 7.41658H9.08331V5.83325H5.41665C4.20107 5.83325 3.03528 6.27224 2.17574 7.05364C1.3162 7.83504 0.833313 8.89485 0.833313 9.99992C0.833313 11.105 1.3162 12.1648 2.17574 12.9462C3.03528 13.7276 4.20107 14.1666 5.41665 14.1666H9.08331V12.5833H5.41665C3.84915 12.5833 2.57498 11.4249 2.57498 9.99992ZM6.33331 10.8333H13.6666V9.16659H6.33331V10.8333ZM14.5833 5.83325H10.9166V7.41658H14.5833C16.1508 7.41658 17.425 8.57492 17.425 9.99992C17.425 11.4249 16.1508 12.5833 14.5833 12.5833H10.9166V14.1666H14.5833C15.7989 14.1666 16.9647 13.7276 17.8242 12.9462C18.6838 12.1648 19.1666 11.105 19.1666 9.99992C19.1666 8.89485 18.6838 7.83504 17.8242 7.05364C16.9647 6.27224 15.7989 5.83325 14.5833 5.83325Z" fill="currentColor"/>
</svg>
