<svg width="20" height="20" viewBox="0 0 20 20" fill="none" xmlns="http://www.w3.org/2000/svg">
<path d="M15 7.50008C15.442 7.50008 15.8659 7.67568 16.1785 7.98824C16.4911 8.3008 16.6666 8.72472 16.6666 9.16675V17.5001C16.6666 17.9421 16.4911 18.366 16.1785 18.6786C15.8659 18.9912 15.442 19.1667 15 19.1667H4.99998C4.07498 19.1667 3.33331 18.4167 3.33331 17.5001V9.16675C3.33331 8.72472 3.50891 8.3008 3.82147 7.98824C4.13403 7.67568 4.55795 7.50008 4.99998 7.50008H12.5V5.83341C12.5 5.17037 12.2366 4.53449 11.7677 4.06565C11.2989 3.59681 10.663 3.33341 9.99998 3.33341C9.33694 3.33341 8.70105 3.59681 8.23221 4.06565C7.76337 4.53449 7.49998 5.17037 7.49998 5.83341H5.83331C5.83331 4.72835 6.2723 3.66854 7.0537 2.88714C7.8351 2.10573 8.89491 1.66675 9.99998 1.66675C10.5472 1.66675 11.089 1.77452 11.5945 1.98392C12.1 2.19331 12.5593 2.50023 12.9463 2.88714C13.3332 3.27405 13.6401 3.73338 13.8495 4.2389C14.0589 4.74442 14.1666 5.28624 14.1666 5.83341V7.50008H15ZM9.99998 15.0001C10.442 15.0001 10.8659 14.8245 11.1785 14.5119C11.4911 14.1994 11.6666 13.7754 11.6666 13.3334C11.6666 12.8914 11.4911 12.4675 11.1785 12.1549C10.8659 11.8423 10.442 11.6667 9.99998 11.6667C9.55795 11.6667 9.13403 11.8423 8.82147 12.1549C8.50891 12.4675 8.33331 12.8914 8.33331 13.3334C8.33331 13.7754 8.50891 14.1994 8.82147 14.5119C9.13403 14.8245 9.55795 15.0001 9.99998 15.0001Z" fill="currentColor"/>
</svg>
