<svg width="20" height="20" viewBox="0 0 20 20" fill="none" xmlns="http://www.w3.org/2000/svg">
<path d="M6.66659 9.58341C6.94017 9.58341 7.21108 9.52953 7.46384 9.42483C7.7166 9.32013 7.94627 9.16668 8.13972 8.97322C8.33318 8.77976 8.48664 8.5501 8.59133 8.29734C8.69603 8.04458 8.74992 7.77367 8.74992 7.50008C8.74992 7.22649 8.69603 6.95559 8.59133 6.70282C8.48664 6.45006 8.33318 6.2204 8.13972 6.02694C7.94627 5.83349 7.7166 5.68003 7.46384 5.57533C7.21108 5.47063 6.94017 5.41675 6.66659 5.41675C6.11405 5.41675 5.58415 5.63624 5.19345 6.02694C4.80275 6.41764 4.58325 6.94755 4.58325 7.50008C4.58325 7.77367 4.63714 8.04458 4.74184 8.29734C4.84653 8.5501 4.99999 8.77976 5.19345 8.97322C5.58415 9.36392 6.11405 9.58341 6.66659 9.58341V9.58341ZM6.66659 1.66675C9.88325 1.66675 12.4999 4.27508 12.4999 7.50008C12.4999 11.8751 6.66659 18.3334 6.66659 18.3334C6.66659 18.3334 0.833252 11.8751 0.833252 7.50008C0.833252 5.95299 1.44783 4.46925 2.5418 3.37529C3.63576 2.28133 5.11949 1.66675 6.66659 1.66675V1.66675ZM11.6666 14.1667H18.3333V15.8334H11.6666V14.1667Z" fill="currentColor"/>
</svg>
