<svg width="20" height="20" viewBox="0 0 20 20" fill="none" xmlns="http://www.w3.org/2000/svg">
<path d="M10.0001 16.6666C8.23197 16.6666 6.53628 15.9642 5.28604 14.714C4.03579 13.4638 3.33341 11.7681 3.33341 9.99996C3.33341 8.23185 4.03579 6.53616 5.28604 5.28591C6.53628 4.03567 8.23197 3.33329 10.0001 3.33329C11.7682 3.33329 13.4639 4.03567 14.7141 5.28591C15.9644 6.53616 16.6667 8.23185 16.6667 9.99996C16.6667 11.7681 15.9644 13.4638 14.7141 14.714C13.4639 15.9642 11.7682 16.6666 10.0001 16.6666V16.6666ZM10.0001 1.66663C8.90573 1.66663 7.8221 1.88217 6.81105 2.30096C5.80001 2.71975 4.88135 3.33358 4.10752 4.1074C2.54472 5.67021 1.66675 7.78982 1.66675 9.99996C1.66675 12.2101 2.54472 14.3297 4.10752 15.8925C4.88135 16.6663 5.80001 17.2802 6.81105 17.699C7.8221 18.1177 8.90573 18.3333 10.0001 18.3333C12.2102 18.3333 14.3298 17.4553 15.8926 15.8925C17.4554 14.3297 18.3334 12.2101 18.3334 9.99996C18.3334 8.90561 18.1179 7.82198 17.6991 6.81093C17.2803 5.79988 16.6665 4.88122 15.8926 4.1074C15.1188 3.33358 14.2002 2.71975 13.1891 2.30096C12.1781 1.88217 11.0944 1.66663 10.0001 1.66663V1.66663ZM10.0001 10.4166C9.66856 10.4166 9.35062 10.2849 9.1162 10.0505C8.88178 9.81609 8.75008 9.49815 8.75008 9.16663C8.75008 8.83511 8.88178 8.51716 9.1162 8.28274C9.35062 8.04832 9.66856 7.91663 10.0001 7.91663C10.3316 7.91663 10.6495 8.04832 10.884 8.28274C11.1184 8.51716 11.2501 8.83511 11.2501 9.16663C11.2501 9.49815 11.1184 9.81609 10.884 10.0505C10.6495 10.2849 10.3316 10.4166 10.0001 10.4166V10.4166ZM10.0001 5.99996C8.25008 5.99996 6.83341 7.41663 6.83341 9.16663C6.83341 11.6666 10.0001 14.5833 10.0001 14.5833C10.0001 14.5833 13.1667 11.6666 13.1667 9.16663C13.1667 7.41663 11.7501 5.99996 10.0001 5.99996Z" fill="currentColor"/>
</svg>
