<svg width="20" height="20" viewBox="0 0 20 20" fill="none" xmlns="http://www.w3.org/2000/svg">
<path d="M14.475 13.4167L10.625 9.55841L10.5333 9.46675L3.55833 2.50008L2.5 3.55841L5.15 6.20841C5.05 6.62508 5 7.05008 5 7.50008C5 11.8751 10.8333 18.3334 10.8333 18.3334C10.8333 18.3334 12.225 16.7917 13.6417 14.7084L16.4417 17.5001L17.5 16.4334L14.475 13.4167ZM10.8333 5.41675C11.3859 5.41675 11.9158 5.63624 12.3065 6.02694C12.6972 6.41764 12.9167 6.94755 12.9167 7.50008C12.9167 8.10841 12.6417 8.65841 12.225 9.04175L15.25 12.0834C16.0667 10.5167 16.6667 8.90008 16.6667 7.50008C16.6667 5.95299 16.0521 4.46925 14.9581 3.37529C13.8642 2.28133 12.3804 1.66675 10.8333 1.66675C9.16667 1.66675 7.7 2.35008 6.63333 3.45008L9.29167 6.10841C9.675 5.68341 10.2167 5.41675 10.8333 5.41675Z" fill="currentColor"/>
</svg>
