<svg width="20" height="20" viewBox="0 0 20 20" fill="none" xmlns="http://www.w3.org/2000/svg">
<path d="M6.66683 9.58341C6.94042 9.58341 7.21133 9.52953 7.46409 9.42483C7.71685 9.32013 7.94651 9.16668 8.13997 8.97322C8.33342 8.77976 8.48688 8.5501 8.59158 8.29734C8.69628 8.04458 8.75016 7.77367 8.75016 7.50008C8.75016 7.22649 8.69628 6.95559 8.59158 6.70282C8.48688 6.45006 8.33342 6.2204 8.13997 6.02694C7.94651 5.83349 7.71685 5.68003 7.46409 5.57533C7.21133 5.47063 6.94042 5.41675 6.66683 5.41675C6.11429 5.41675 5.58439 5.63624 5.19369 6.02694C4.80299 6.41764 4.5835 6.94755 4.5835 7.50008C4.5835 7.77367 4.63738 8.04458 4.74208 8.29734C4.84678 8.5501 5.00023 8.77976 5.19369 8.97322C5.58439 9.36392 6.11429 9.58341 6.66683 9.58341V9.58341ZM6.66683 1.66675C9.8835 1.66675 12.5002 4.27508 12.5002 7.50008C12.5002 11.8751 6.66683 18.3334 6.66683 18.3334C6.66683 18.3334 0.833496 11.8751 0.833496 7.50008C0.833496 5.95299 1.44808 4.46925 2.54204 3.37529C3.636 2.28133 5.11973 1.66675 6.66683 1.66675V1.66675ZM11.6668 14.1667H14.1668V11.6667H15.8335V14.1667H18.3335V15.8334H15.8335V18.3334H14.1668V15.8334H11.6668V14.1667Z" fill="currentColor"/>
</svg>
