<svg width="20" height="20" viewBox="0 0 20 20" fill="none" xmlns="http://www.w3.org/2000/svg">
<path d="M16.6667 1.66663H3.33341C2.89139 1.66663 2.46746 1.84222 2.1549 2.15478C1.84234 2.46734 1.66675 2.89127 1.66675 3.33329V18.3333L5.00008 15H16.6667C17.1088 15 17.5327 14.8244 17.8453 14.5118C18.1578 14.1992 18.3334 13.7753 18.3334 13.3333V3.33329C18.3334 2.89127 18.1578 2.46734 17.8453 2.15478C17.5327 1.84222 17.1088 1.66663 16.6667 1.66663ZM5.00008 7.49996H15.0001V9.16663H5.00008V7.49996ZM11.6667 11.6666H5.00008V9.99996H11.6667V11.6666ZM15.0001 6.66663H5.00008V4.99996H15.0001" fill="currentColor"/>
</svg>
