<svg width="20" height="20" viewBox="0 0 20 20" fill="none" xmlns="http://www.w3.org/2000/svg">
<path d="M15.0001 11.6667H8.75008L10.4167 10.0001H15.0001V11.6667ZM5.00008 11.6667V9.58341L10.7334 3.86675C10.8917 3.70841 11.1584 3.70841 11.3251 3.86675L12.7917 5.34175C12.9584 5.50841 12.9584 5.76675 12.7917 5.93341L7.05841 11.6667H5.00008ZM16.6667 1.66675H3.33341C2.89139 1.66675 2.46746 1.84234 2.1549 2.1549C1.84234 2.46746 1.66675 2.89139 1.66675 3.33341V18.3334L5.00008 15.0001H16.6667C17.1088 15.0001 17.5327 14.8245 17.8453 14.5119C18.1578 14.1994 18.3334 13.7754 18.3334 13.3334V3.33341C18.3334 2.40841 17.5834 1.66675 16.6667 1.66675Z" fill="currentColor"/>
</svg>
