<svg width="20" height="20" viewBox="0 0 20 20" fill="none" xmlns="http://www.w3.org/2000/svg">
<path d="M15.0001 6.66675H5.00008V5.00008H15.0001V6.66675ZM15.0001 9.16675H5.00008V7.50008H15.0001V9.16675ZM15.0001 11.6667H5.00008V10.0001H15.0001V11.6667ZM18.3334 3.33341C18.3334 2.89139 18.1578 2.46746 17.8453 2.1549C17.5327 1.84234 17.1088 1.66675 16.6667 1.66675H3.33341C2.89139 1.66675 2.46746 1.84234 2.1549 2.1549C1.84234 2.46746 1.66675 2.89139 1.66675 3.33341V13.3334C1.66675 13.7754 1.84234 14.1994 2.1549 14.5119C2.46746 14.8245 2.89139 15.0001 3.33341 15.0001H15.0001L18.3334 18.3334V3.33341Z" fill="currentColor"/>
</svg>
