<svg width="20" height="20" viewBox="0 0 20 20" fill="none" xmlns="http://www.w3.org/2000/svg">
<path d="M2.5 3.55841L3.56667 2.50008L17.5 16.4334L16.4417 17.5001L14.1667 15.2167C14.05 16.9584 12.6 18.3334 10.8333 18.3334C9.94928 18.3334 9.10143 17.9822 8.47631 17.3571C7.85119 16.732 7.5 15.8841 7.5 15.0001V14.1667H6.66667L5.96667 7.35008C5.68333 7.05841 5.44167 6.71675 5.275 6.33341L2.5 3.55841ZM8.33333 1.66675C9.21739 1.66675 10.0652 2.01794 10.6904 2.64306C11.3155 3.26818 11.6667 4.11603 11.6667 5.00008H8.18333L5.9 2.71675C6.50833 2.08341 7.375 1.66675 8.33333 1.66675ZM10.7 7.35008L10.6833 7.50008L9.01667 5.83341H11.5583C11.4083 6.41675 11.1083 6.93341 10.7 7.35008ZM10 14.1667H9.16667V15.0001C9.16667 15.4421 9.34226 15.866 9.65482 16.1786C9.96738 16.4912 10.3913 16.6667 10.8333 16.6667C11.2754 16.6667 11.6993 16.4912 12.0118 16.1786C12.3244 15.866 12.5 15.4421 12.5 15.0001V13.5584L10.2917 11.3501L10 14.1667ZM15.8333 7.50008H17.5L16.6667 8.33341L17.5 9.16675H15.8333C15.3913 9.16675 14.9674 9.34234 14.6548 9.6549C14.3423 9.96746 14.1667 10.3914 14.1667 10.8334V10.9834L12.75 9.58341C13.25 8.33341 14.4417 7.50008 15.8333 7.50008ZM7.5 9.16675C7.5 9.38776 7.5878 9.59972 7.74408 9.756C7.90036 9.91228 8.11232 10.0001 8.33333 10.0001C8.50833 10.0001 8.66667 9.95008 8.8 9.85841L7.64167 8.70008C7.55 8.83341 7.5 8.99175 7.5 9.16675Z" fill="currentColor"/>
</svg>
