<svg width="20" height="20" viewBox="0 0 20 20" fill="none" xmlns="http://www.w3.org/2000/svg">
<path d="M6.66683 1.66675C7.55088 1.66675 8.39873 2.01794 9.02385 2.64306C9.64897 3.26818 10.0002 4.11603 10.0002 5.00008H3.3335C3.3335 4.11603 3.68469 3.26818 4.30981 2.64306C4.93493 2.01794 5.78277 1.66675 6.66683 1.66675V1.66675ZM9.0335 7.35008L8.3335 14.1667H7.50016V15.0001C7.50016 15.4421 7.67576 15.866 7.98832 16.1786C8.30088 16.4912 8.7248 16.6667 9.16683 16.6667C9.60886 16.6667 10.0328 16.4912 10.3453 16.1786C10.6579 15.866 10.8335 15.4421 10.8335 15.0001V10.8334C10.8335 9.94936 11.1847 9.10151 11.8098 8.47639C12.4349 7.85127 13.2828 7.50008 14.1668 7.50008H15.8335L15.0002 8.33341L15.8335 9.16675H14.1668C13.7248 9.16675 13.3009 9.34234 12.9883 9.6549C12.6758 9.96746 12.5002 10.3914 12.5002 10.8334V15.0001C12.5002 15.8841 12.149 16.732 11.5239 17.3571C10.8987 17.9822 10.0509 18.3334 9.16683 18.3334C8.28277 18.3334 7.43493 17.9822 6.80981 17.3571C6.18469 16.732 5.8335 15.8841 5.8335 15.0001V14.1667H5.00016L4.30016 7.35008C3.89183 6.93341 3.59183 6.41675 3.44183 5.83341H9.89183C9.74183 6.41675 9.44183 6.93341 9.0335 7.35008ZM6.66683 8.33341C6.44582 8.33341 6.23385 8.42121 6.07757 8.57749C5.92129 8.73377 5.8335 8.94573 5.8335 9.16675C5.8335 9.38776 5.92129 9.59972 6.07757 9.756C6.23385 9.91228 6.44582 10.0001 6.66683 10.0001C6.88784 10.0001 7.0998 9.91228 7.25608 9.756C7.41237 9.59972 7.50016 9.38776 7.50016 9.16675C7.50016 8.94573 7.41237 8.73377 7.25608 8.57749C7.0998 8.42121 6.88784 8.33341 6.66683 8.33341Z" fill="currentColor"/>
</svg>
