<svg width="20" height="20" viewBox="0 0 20 20" fill="none" xmlns="http://www.w3.org/2000/svg">
<path d="M9.99999 1.66675C10.663 1.66675 11.2989 1.93014 11.7678 2.39898C12.2366 2.86782 12.5 3.50371 12.5 4.16675V9.16675C12.5 9.82979 12.2366 10.4657 11.7678 10.9345C11.2989 11.4034 10.663 11.6667 9.99999 11.6667C9.33695 11.6667 8.70106 11.4034 8.23222 10.9345C7.76338 10.4657 7.49999 9.82979 7.49999 9.16675V4.16675C7.49999 3.50371 7.76338 2.86782 8.23222 2.39898C8.70106 1.93014 9.33695 1.66675 9.99999 1.66675ZM15.8333 9.16675C15.8333 12.1084 13.6583 14.5334 10.8333 14.9417V17.5001H9.16666V14.9417C6.34166 14.5334 4.16666 12.1084 4.16666 9.16675H5.83332C5.83332 10.2718 6.27231 11.3316 7.05371 12.113C7.83511 12.8944 8.89492 13.3334 9.99999 13.3334C11.1051 13.3334 12.1649 12.8944 12.9463 12.113C13.7277 11.3316 14.1667 10.2718 14.1667 9.16675H15.8333Z" fill="currentColor"/>
</svg>
