<svg width="20" height="20" viewBox="0 0 20 20" fill="none" xmlns="http://www.w3.org/2000/svg">
<path d="M15.8333 9.16675C15.8333 10.1584 15.55 11.0834 15.0833 11.9001L14.0583 10.8751C14.2833 10.3584 14.4167 9.78341 14.4167 9.16675H15.8333ZM12.5 9.30008L7.5 4.31675V4.16675C7.5 3.50371 7.76339 2.86782 8.23223 2.39898C8.70107 1.93014 9.33696 1.66675 10 1.66675C10.663 1.66675 11.2989 1.93014 11.7678 2.39898C12.2366 2.86782 12.5 3.50371 12.5 4.16675V9.16675V9.30008ZM3.55833 2.50008L17.5 16.4417L16.4417 17.5001L12.95 14.0084C12.3083 14.3917 11.5917 14.6501 10.8333 14.7667V17.5001H9.16667V14.7667C6.43333 14.3584 4.16667 12.0084 4.16667 9.16675H5.58333C5.58333 11.6667 7.7 13.4167 10 13.4167C10.675 13.4167 11.3333 13.2584 11.925 12.9834L10.5417 11.6001L10 11.6667C9.33696 11.6667 8.70107 11.4034 8.23223 10.9345C7.76339 10.4657 7.5 9.82979 7.5 9.16675V8.56675L2.5 3.55841L3.55833 2.50008Z" fill="currentColor"/>
</svg>
