<svg width="20" height="20" viewBox="0 0 20 20" fill="none" xmlns="http://www.w3.org/2000/svg">
<path d="M14.4165 9.16675C14.4165 11.6667 12.2998 13.4167 9.99984 13.4167C7.69984 13.4167 5.58317 11.6667 5.58317 9.16675H4.1665C4.1665 12.0084 6.43317 14.3584 9.1665 14.7667V17.5001H10.8332V14.7667C13.5665 14.3584 15.8332 12.0084 15.8332 9.16675H14.4165ZM8.99984 4.08341C8.99984 3.53341 9.44984 3.08341 9.99984 3.08341C10.5498 3.08341 10.9998 3.53341 10.9998 4.08341L10.9915 9.25008C10.9915 9.80008 10.5498 10.2501 9.99984 10.2501C9.44984 10.2501 8.99984 9.80008 8.99984 9.25008V4.08341ZM9.99984 11.6667C10.6629 11.6667 11.2988 11.4034 11.7676 10.9345C12.2364 10.4657 12.4998 9.82979 12.4998 9.16675V4.16675C12.4998 3.50371 12.2364 2.86782 11.7676 2.39898C11.2988 1.93014 10.6629 1.66675 9.99984 1.66675C9.3368 1.66675 8.70091 1.93014 8.23207 2.39898C7.76323 2.86782 7.49984 3.50371 7.49984 4.16675V9.16675C7.49984 9.82979 7.76323 10.4657 8.23207 10.9345C8.70091 11.4034 9.3368 11.6667 9.99984 11.6667V11.6667Z" fill="currentColor"/>
</svg>
