<svg width="20" height="20" viewBox="0 0 20 20" fill="none" xmlns="http://www.w3.org/2000/svg">
<path d="M15.0001 9.16663V10.8333H13.7834L17.6834 14.7333C18.6167 13.3916 19.1667 11.7583 19.1667 9.99996C19.1667 8.90561 18.9512 7.82198 18.5324 6.81093C18.1136 5.79988 17.4998 4.88122 16.726 4.1074C15.9521 3.33358 15.0335 2.71975 14.0224 2.30096C13.0114 1.88217 11.9278 1.66663 10.8334 1.66663C9.07508 1.66663 7.44175 2.21663 6.10008 3.14996L12.1167 9.16663H15.0001ZM2.72508 1.89163L1.66675 2.94996L3.98341 5.26663C3.05008 6.60829 2.50008 8.24163 2.50008 9.99996C2.50008 12.2101 3.37805 14.3297 4.94086 15.8925C5.71468 16.6663 6.63334 17.2802 7.64439 17.699C8.65543 18.1177 9.73907 18.3333 10.8334 18.3333C12.5917 18.3333 14.2251 17.7833 15.5667 16.85L17.8834 19.1666L18.9417 18.1083L2.72508 1.89163ZM6.66675 10.8333V9.16663H7.88341L9.55008 10.8333H6.66675Z" fill="currentColor"/>
</svg>
