<svg width="20" height="20" viewBox="0 0 20 20" fill="none" xmlns="http://www.w3.org/2000/svg">
<path d="M1.66663 10.0001C1.66655 11.3086 1.97458 12.5987 2.5658 13.7659C3.15702 14.9332 4.01479 15.9449 5.06969 16.719C6.12458 17.4931 7.34694 18.008 8.63781 18.2219C9.92867 18.4357 11.2518 18.3426 12.5 17.9501C10.8079 17.4184 9.32972 16.3607 8.2803 14.9308C7.23088 13.501 6.66501 11.7737 6.66501 10.0001C6.66501 8.22651 7.23088 6.49917 8.2803 5.06935C9.32972 3.63954 10.8079 2.58184 12.5 2.0501C11.2518 1.65756 9.92867 1.56446 8.63781 1.77834C7.34694 1.99222 6.12458 2.50707 5.06969 3.2812C4.01479 4.05533 3.15702 5.06698 2.5658 6.23426C1.97458 7.40154 1.66655 8.69164 1.66663 10.0001Z" fill="currentColor"/>
</svg>
