<svg width="20" height="20" viewBox="0 0 20 20" fill="none" xmlns="http://www.w3.org/2000/svg">
<path d="M13.3333 7.5H10.8333V12.0833C10.8333 12.6359 10.6138 13.1658 10.2231 13.5565C9.83244 13.9472 9.30253 14.1667 8.75 14.1667C8.19747 14.1667 7.66756 13.9472 7.27686 13.5565C6.88616 13.1658 6.66667 12.6359 6.66667 12.0833C6.66667 11.5308 6.88616 11.0009 7.27686 10.6102C7.66756 10.2195 8.19747 10 8.75 10C9.225 10 9.65 10.1583 10 10.4167V5.83333H13.3333V7.5ZM15.8333 2.5C16.2754 2.5 16.6993 2.67559 17.0118 2.98816C17.3244 3.30072 17.5 3.72464 17.5 4.16667V15.8333C17.5 16.2754 17.3244 16.6993 17.0118 17.0118C16.6993 17.3244 16.2754 17.5 15.8333 17.5H4.16667C3.72464 17.5 3.30072 17.3244 2.98816 17.0118C2.67559 16.6993 2.5 16.2754 2.5 15.8333V4.16667C2.5 3.72464 2.67559 3.30072 2.98816 2.98816C3.30072 2.67559 3.72464 2.5 4.16667 2.5H15.8333ZM4.16667 4.16667V15.8333H15.8333V4.16667H4.16667Z" fill="currentColor"/>
</svg>
