<svg width="20" height="20" viewBox="0 0 20 20" fill="none" xmlns="http://www.w3.org/2000/svg">
<path d="M1.6665 3.55829L2.73317 2.49996L16.6665 16.4333L15.6082 17.5L7.49984 9.39163V13.75C7.49984 14.5235 7.19255 15.2654 6.64557 15.8124C6.09858 16.3593 5.35672 16.6666 4.58317 16.6666C3.80962 16.6666 3.06776 16.3593 2.52078 15.8124C1.97379 15.2654 1.6665 14.5235 1.6665 13.75C1.6665 12.9764 1.97379 12.2345 2.52078 11.6876C3.06776 11.1406 3.80962 10.8333 4.58317 10.8333C5.03317 10.8333 5.45817 10.9333 5.83317 11.1166V7.72496L1.6665 3.55829ZM17.4998 1.66663V12.0833C17.4998 12.9166 17.1415 13.6833 16.5665 14.2166L12.4498 10.1C12.9832 9.52496 13.7498 9.16663 14.5832 9.16663C15.0332 9.16663 15.4582 9.26663 15.8332 9.44996V4.55829L8.47484 6.12496L6.38317 4.03329L17.4998 1.66663Z" fill="currentColor"/>
</svg>
