<svg width="20" height="20" viewBox="0 0 20 20" fill="none" xmlns="http://www.w3.org/2000/svg">
<path d="M13.3332 7.50008V5.83341H9.99984V10.4167C9.64984 10.1584 9.22484 10.0001 8.74984 10.0001C8.1973 10.0001 7.6674 10.2196 7.2767 10.6103C6.886 11.001 6.6665 11.5309 6.6665 12.0834C6.6665 12.6359 6.886 13.1659 7.2767 13.5566C7.6674 13.9473 8.1973 14.1667 8.74984 14.1667C9.30237 14.1667 9.83228 13.9473 10.223 13.5566C10.6137 13.1659 10.8332 12.6359 10.8332 12.0834V7.50008H13.3332ZM9.99984 1.66675C11.0942 1.66675 12.1778 1.8823 13.1889 2.30109C14.1999 2.71987 15.1186 3.3337 15.8924 4.10752C16.6662 4.88135 17.28 5.80001 17.6988 6.81105C18.1176 7.8221 18.3332 8.90573 18.3332 10.0001C18.3332 12.2102 17.4552 14.3298 15.8924 15.8926C14.3296 17.4554 12.21 18.3334 9.99984 18.3334C8.90549 18.3334 7.82185 18.1179 6.81081 17.6991C5.79976 17.2803 4.8811 16.6665 4.10728 15.8926C2.54448 14.3298 1.6665 12.2102 1.6665 10.0001C1.6665 7.78994 2.54448 5.67033 4.10728 4.10752C5.67008 2.54472 7.7897 1.66675 9.99984 1.66675V1.66675Z" fill="currentColor"/>
</svg>
