<svg width="20" height="20" viewBox="0 0 20 20" fill="none" xmlns="http://www.w3.org/2000/svg">
<path d="M17.4998 2.5V12.9167C17.4998 13.6902 17.1925 14.4321 16.6456 14.9791C16.0986 15.526 15.3567 15.8333 14.5832 15.8333C13.8096 15.8333 13.0678 15.526 12.5208 14.9791C11.9738 14.4321 11.6665 13.6902 11.6665 12.9167C11.6665 12.1431 11.9738 11.4013 12.5208 10.8543C13.0678 10.3073 13.8096 10 14.5832 10C15.0332 10 15.4582 10.1 15.8332 10.2833V5.39167L7.49984 7.16667V14.5833C7.49984 15.3569 7.19255 16.0987 6.64557 16.6457C6.09858 17.1927 5.35672 17.5 4.58317 17.5C3.80962 17.5 3.06776 17.1927 2.52078 16.6457C1.97379 16.0987 1.6665 15.3569 1.6665 14.5833C1.6665 13.8098 1.97379 13.0679 2.52078 12.5209C3.06776 11.974 3.80962 11.6667 4.58317 11.6667C5.03317 11.6667 5.45817 11.7667 5.83317 11.95V5L17.4998 2.5Z" fill="currentColor"/>
</svg>
