<svg width="20" height="20" viewBox="0 0 20 20" fill="none" xmlns="http://www.w3.org/2000/svg">
<path d="M15.825 9.58333C16.1083 9.58333 16.3833 9.60833 16.6583 9.64167L16.6667 0L0 16.6667H9.63333C9.6 16.3917 9.575 16.1167 9.575 15.8333C9.575 12.3833 12.375 9.58333 15.825 9.58333V9.58333ZM18.9167 16.2417C18.9333 16.1083 18.95 15.975 18.95 15.8333C18.95 15.6917 18.9417 15.5583 18.9167 15.425L19.8 14.7333C19.875 14.6667 19.9 14.5583 19.85 14.4667L19.0167 13.025C18.9667 12.9333 18.8583 12.9 18.7583 12.9333L17.725 13.35C17.5083 13.1833 17.275 13.0417 17.0167 12.9417L16.8583 11.8417C16.85 11.7417 16.7583 11.6667 16.6583 11.6667H14.9917C14.8917 11.6667 14.8 11.7417 14.7833 11.8417L14.625 12.9417C14.375 13.05 14.1333 13.1833 13.9167 13.35L12.8833 12.9333C12.7917 12.9 12.6833 12.9333 12.625 13.025L11.7917 14.4667C11.7417 14.5583 11.7583 14.6667 11.8417 14.7333L12.725 15.425C12.7083 15.5583 12.7 15.6917 12.7 15.8333C12.7 15.975 12.7083 16.1083 12.725 16.2417L11.8417 16.9333C11.7667 17 11.7417 17.1083 11.7917 17.2L12.625 18.6417C12.675 18.7333 12.7833 18.7667 12.8833 18.7333L13.9167 18.3167C14.1333 18.4833 14.3667 18.625 14.625 18.725L14.7833 19.825C14.8 19.925 14.8833 20 14.9917 20H16.6583C16.7583 20 16.85 19.925 16.8667 19.825L17.025 18.725C17.275 18.6167 17.5167 18.4833 17.725 18.3167L18.7667 18.7333C18.8583 18.7667 18.9667 18.7333 19.025 18.6417L19.8583 17.2C19.9083 17.1083 19.8833 17 19.8083 16.9333L18.9167 16.2417ZM15.825 17.0833C15.1333 17.0833 14.575 16.525 14.575 15.8333C14.575 15.1417 15.1333 14.5833 15.825 14.5833C16.5167 14.5833 17.075 15.1417 17.075 15.8333C17.075 16.525 16.5167 17.0833 15.825 17.0833Z" fill="currentColor"/>
</svg>
