<svg width="20" height="20" viewBox="0 0 20 20" fill="none" xmlns="http://www.w3.org/2000/svg">
<path d="M17.4999 14.1666H5.83325V2.49992H17.4999M17.4999 0.833252H5.83325C5.39122 0.833252 4.9673 1.00885 4.65474 1.32141C4.34218 1.63397 4.16659 2.05789 4.16659 2.49992V14.1666C4.16659 14.6086 4.34218 15.0325 4.65474 15.3451C4.9673 15.6577 5.39122 15.8333 5.83325 15.8333H17.4999C17.9419 15.8333 18.3659 15.6577 18.6784 15.3451C18.991 15.0325 19.1666 14.6086 19.1666 14.1666V2.49992C19.1666 2.05789 18.991 1.63397 18.6784 1.32141C18.3659 1.00885 17.9419 0.833252 17.4999 0.833252ZM11.6666 12.4999H13.3333V4.16659H9.99992V5.83325H11.6666M2.49992 4.16659H0.833252V17.4999C0.833252 17.9419 1.00885 18.3659 1.32141 18.6784C1.63397 18.991 2.05789 19.1666 2.49992 19.1666H15.8333V17.4999H2.49992V4.16659Z" fill="currentColor"/>
</svg>
