<svg width="20" height="20" viewBox="0 0 20 20" fill="none" xmlns="http://www.w3.org/2000/svg">
<path d="M4.26667 4.16667L4.94167 3.33333H14.9417L15.725 4.16667M10 14.5833L5.41667 10H8.33333V8.33333H11.6667V10H14.5833L10 14.5833ZM17.1167 4.35833L15.9583 2.95833C15.7333 2.675 15.3917 2.5 15 2.5H5C4.60833 2.5 4.26667 2.675 4.03333 2.95833L2.88333 4.35833C2.64167 4.64167 2.5 5 2.5 5.41667V15.8333C2.5 16.2754 2.67559 16.6993 2.98816 17.0118C3.30072 17.3244 3.72464 17.5 4.16667 17.5H15.8333C16.2754 17.5 16.6993 17.3244 17.0118 17.0118C17.3244 16.6993 17.5 16.2754 17.5 15.8333V5.41667C17.5 5 17.3583 4.64167 17.1167 4.35833Z" fill="currentColor"/>
</svg>
