<svg width="20" height="20" viewBox="0 0 20 20" fill="none" xmlns="http://www.w3.org/2000/svg">
<path d="M10.8333 16.0834V10.5001L15.8333 7.66675V10.8334C16.4167 10.8334 17 10.9167 17.5 11.1667V6.25008C17.5 5.91675 17.3333 5.66675 17.0833 5.50008L10.5 1.83341C10.3333 1.75008 10.1667 1.66675 10 1.66675C9.83333 1.66675 9.66667 1.75008 9.5 1.83341L2.91667 5.50008C2.66667 5.66675 2.5 5.91675 2.5 6.25008V13.7501C2.5 14.0834 2.66667 14.3334 2.91667 14.5001L9.5 18.1667C9.66667 18.2501 9.83333 18.3334 10 18.3334C10.1667 18.3334 10.3333 18.2501 10.5 18.1667L11.25 17.7501C11 17.2501 10.9167 16.6667 10.8333 16.0834ZM10 3.50008L15 6.25008L13.3333 7.16675L8.41667 4.33341L10 3.50008ZM9.16667 16.0834L4.16667 13.2501V7.66675L9.16667 10.5001V16.0834ZM10 9.00008L5 6.25008L6.66667 5.25008L11.6667 8.16675L10 9.00008ZM16.6667 12.5001V15.0001H19.1667V16.6667H16.6667V19.1667H15V16.6667H12.5V15.0001H15V12.5001H16.6667Z" fill="currentColor"/>
</svg>
