<svg width="20" height="20" viewBox="0 0 20 20" fill="none" xmlns="http://www.w3.org/2000/svg">
<path d="M7.50008 13.3334H9.16675V6.66675H7.50008V13.3334ZM10.0001 1.66675C5.40008 1.66675 1.66675 5.40008 1.66675 10.0001C1.66675 14.6001 5.40008 18.3334 10.0001 18.3334C14.6001 18.3334 18.3334 14.6001 18.3334 10.0001C18.3334 5.40008 14.6001 1.66675 10.0001 1.66675ZM10.0001 16.6667C6.32508 16.6667 3.33341 13.6751 3.33341 10.0001C3.33341 6.32508 6.32508 3.33341 10.0001 3.33341C13.6751 3.33341 16.6667 6.32508 16.6667 10.0001C16.6667 13.6751 13.6751 16.6667 10.0001 16.6667ZM10.8334 13.3334H12.5001V6.66675H10.8334V13.3334Z" fill="currentColor"/>
</svg>
