<svg width="20" height="20" viewBox="0 0 20 20" fill="none" xmlns="http://www.w3.org/2000/svg">
<path d="M10 1.66663C5.39169 1.66663 1.66669 5.39163 1.66669 9.99996C1.66669 14.6083 5.39169 18.3333 10 18.3333C14.6084 18.3333 18.3334 14.6083 18.3334 9.99996C18.3334 5.39163 14.6084 1.66663 10 1.66663ZM12.5834 5.89163C12.7 5.89163 12.8167 5.93329 12.9167 6.02496L13.975 7.08329C14.1667 7.26663 14.1667 7.55829 13.975 7.73329L13.1417 8.56663L11.4334 6.85829L12.2667 6.02496C12.35 5.93329 12.4667 5.89163 12.5834 5.89163ZM10.9417 7.34163L12.6584 9.05829L7.60835 14.1083H5.89169V12.3916L10.9417 7.34163Z" fill="currentColor"/>
</svg>
