<svg width="20" height="20" viewBox="0 0 20 20" fill="none" xmlns="http://www.w3.org/2000/svg">
<path d="M11.7498 7.50008L12.4998 8.25008L4.9165 15.8334H4.1665V15.0834L11.7498 7.50008ZM14.7498 2.50008C14.5832 2.50008 14.3332 2.58341 14.1665 2.75008L12.6665 4.25008L15.7498 7.41675L17.2498 5.83341C17.5832 5.50008 17.5832 5.00008 17.2498 4.66675L15.3332 2.75008C15.1665 2.58341 14.9165 2.50008 14.7498 2.50008ZM11.7498 5.16675L2.49984 14.3334V17.5001H5.6665L14.8332 8.25008L11.7498 5.16675ZM5.83317 1.66675V4.16675H8.33317V5.83341H5.83317V8.33341H4.1665V5.83341H1.6665V4.16675H4.1665V1.66675H5.83317Z" fill="currentColor"/>
</svg>
