<svg width="20" height="20" viewBox="0 0 20 20" fill="none" xmlns="http://www.w3.org/2000/svg">
<path d="M5.83335 12.45L10.8834 7.39996L12.6 9.11663L7.55002 14.1666H5.83335V12.45ZM10 16.6666C11.7681 16.6666 13.4638 15.9642 14.7141 14.714C15.9643 13.4638 16.6667 11.7681 16.6667 9.99996C16.6667 8.23185 15.9643 6.53616 14.7141 5.28591C13.4638 4.03567 11.7681 3.33329 10 3.33329C8.23191 3.33329 6.53622 4.03567 5.28598 5.28591C4.03573 6.53616 3.33335 8.23185 3.33335 9.99996C3.33335 11.7681 4.03573 13.4638 5.28598 14.714C6.53622 15.9642 8.23191 16.6666 10 16.6666ZM13.9167 7.79163L13.0834 8.62496L11.375 6.91663L12.2084 6.08329C12.3834 5.89996 12.675 5.89996 12.85 6.08329L13.9167 7.14996C14.1 7.32496 14.1 7.61663 13.9167 7.79163ZM10 1.66663C11.0944 1.66663 12.178 1.88217 13.189 2.30096C14.2001 2.71975 15.1188 3.33358 15.8926 4.1074C16.6664 4.88122 17.2802 5.79988 17.699 6.81093C18.1178 7.82198 18.3334 8.90561 18.3334 9.99996C18.3334 12.2101 17.4554 14.3297 15.8926 15.8925C14.3298 17.4553 12.2102 18.3333 10 18.3333C8.90567 18.3333 7.82204 18.1177 6.81099 17.699C5.79994 17.2802 4.88129 16.6663 4.10746 15.8925C2.54466 14.3297 1.66669 12.2101 1.66669 9.99996C1.66669 7.78982 2.54466 5.67021 4.10746 4.1074C5.67027 2.5446 7.78988 1.66663 10 1.66663" fill="currentColor"/>
</svg>
