<svg width="20" height="20" viewBox="0 0 20 20" fill="none" xmlns="http://www.w3.org/2000/svg">
<path d="M3.33335 5.00008H1.66669V16.6667C1.66669 17.5917 2.41669 18.3334 3.33335 18.3334H15V16.6667H3.33335V5.00008ZM15.5834 6.12508L14.75 6.95841L13.0417 5.25008L13.875 4.41675C14.05 4.23341 14.3417 4.23341 14.5167 4.41675L15.5834 5.48341C15.7667 5.65841 15.7667 5.95008 15.5834 6.12508ZM7.50002 10.7834L12.55 5.73341L14.2667 7.45008L9.21669 12.5001H7.50002V10.7834ZM16.6667 3.33341V13.3334H6.66669V3.33341H16.6667ZM16.6667 1.66675H6.66669C5.75002 1.66675 5.00002 2.41675 5.00002 3.33341V13.3334C5.00002 14.2501 5.75002 15.0001 6.66669 15.0001H16.6667C17.5834 15.0001 18.3334 14.2501 18.3334 13.3334V3.33341C18.3334 2.41675 17.5834 1.66675 16.6667 1.66675Z" fill="currentColor"/>
</svg>
