<svg width="20" height="20" viewBox="0 0 20 20" fill="none" xmlns="http://www.w3.org/2000/svg">
<path d="M10 2.5C6.21667 2.5 2.78333 3.98333 0.241667 6.39167C0.0916667 6.54167 0 6.75 0 6.98333C0 7.21667 0.0916667 7.425 0.241667 7.575L2.30833 9.64167C2.45833 9.79167 2.66667 9.88333 2.91667 9.88333C3.125 9.88333 3.33333 9.79167 3.48333 9.65C4.14167 9.03333 4.89167 8.51667 5.7 8.10833C5.975 7.975 6.16667 7.69167 6.16667 7.35833V4.775C7.375 4.375 8.65833 4.16667 10 4.16667C11.325 4.16667 12.6167 4.375 13.825 4.76667V7.35C13.825 7.675 14.0167 7.96667 14.2917 8.1C15.1083 8.50833 15.8333 9.03333 16.5167 9.64167C16.6667 9.79167 16.875 9.875 17.0833 9.875C17.3333 9.875 17.5417 9.78333 17.6917 9.63333L19.7583 7.56667C19.9083 7.41667 20 7.20833 20 6.975C20 6.74167 19.9 6.54167 19.75 6.39167C17.2083 3.98333 13.775 2.5 10 2.5ZM7.5 5.83333V8.33333C7.5 8.33333 2.5 12.5 2.5 15V18.3333H17.5V15C17.5 12.5 12.5 8.33333 12.5 8.33333V5.83333H10.8333V7.5H9.16667V5.83333H7.5ZM10 10C10.8841 10 11.7319 10.3512 12.357 10.9763C12.9821 11.6014 13.3333 12.4493 13.3333 13.3333C13.3333 14.2174 12.9821 15.0652 12.357 15.6904C11.7319 16.3155 10.8841 16.6667 10 16.6667C9.11594 16.6667 8.2681 16.3155 7.64298 15.6904C7.01786 15.0652 6.66667 14.2174 6.66667 13.3333C6.66667 12.4493 7.01786 11.6014 7.64298 10.9763C8.2681 10.3512 9.11594 10 10 10V10ZM10 11.25C9.44747 11.25 8.91756 11.4695 8.52686 11.8602C8.13616 12.2509 7.91667 12.7808 7.91667 13.3333C7.91667 13.8859 8.13616 14.4158 8.52686 14.8065C8.91756 15.1972 9.44747 15.4167 10 15.4167C10.5525 15.4167 11.0824 15.1972 11.4731 14.8065C11.8638 14.4158 12.0833 13.8859 12.0833 13.3333C12.0833 12.7808 11.8638 12.2509 11.4731 11.8602C11.0824 11.4695 10.5525 11.25 10 11.25V11.25Z" fill="currentColor"/>
</svg>
