<svg width="20" height="20" viewBox="0 0 20 20" fill="none" xmlns="http://www.w3.org/2000/svg">
<path d="M10 8.33341C8.66667 8.33341 7.375 8.54175 6.16667 8.93342V11.5167C6.16667 11.8501 5.975 12.1334 5.7 12.2667C4.88333 12.6751 4.14167 13.2001 3.475 13.8084C3.33333 13.9584 3.125 14.0501 2.91667 14.0501C2.66667 14.0501 2.45833 13.9501 2.30833 13.8001L0.241667 11.7334C0.0916667 11.5834 0 11.3751 0 11.1501C0 10.9167 0.0916667 10.7084 0.241667 10.5584C2.78333 8.14175 6.21667 6.66675 10 6.66675C13.7833 6.66675 17.2167 8.14175 19.7583 10.5584C19.9083 10.7084 20 10.9167 20 11.1501C20 11.3751 19.9083 11.5834 19.7583 11.7334L17.6917 13.8001C17.5417 13.9501 17.3333 14.0501 17.0833 14.0501C16.875 14.0501 16.6667 13.9584 16.5167 13.8084C15.8583 13.2001 15.1167 12.6751 14.3 12.2667C14.025 12.1334 13.8333 11.8501 13.8333 11.5167V8.93342C12.625 8.54175 11.3333 8.33341 10 8.33341Z" fill="currentColor"/>
</svg>
