<svg width="20" height="20" viewBox="0 0 20 20" fill="none" xmlns="http://www.w3.org/2000/svg">
<path d="M17.5 5.41667V9.58333H16.25V6.66667H11.5583L13.5833 8.69167L12.7 9.58333L9.16667 6.04167L12.7 2.5L13.5833 3.39167L11.5583 5.41667H17.5ZM7.35 7.56667C7.56667 7.35 7.64167 7.025 7.55 6.73333C7.24167 5.76667 7.08333 4.76667 7.08333 3.75C7.08333 3.52899 6.99554 3.31702 6.83926 3.16074C6.68298 3.00446 6.47101 2.91667 6.25 2.91667H3.33333C3.11232 2.91667 2.90036 3.00446 2.74408 3.16074C2.5878 3.31702 2.5 3.52899 2.5 3.75C2.5 7.50723 3.99256 11.1106 6.64932 13.7673C9.30609 16.4241 12.9094 17.9167 16.6667 17.9167C16.8877 17.9167 17.0996 17.8289 17.2559 17.6726C17.4122 17.5163 17.5 17.3043 17.5 17.0833V14.1667C17.5 13.9457 17.4122 13.7337 17.2559 13.5774C17.0996 13.4211 16.8877 13.3333 16.6667 13.3333C15.6583 13.3333 14.65 13.175 13.6917 12.8583C13.4 12.7667 13.075 12.8417 12.8583 13.0583L11.025 14.8917C8.65833 13.6833 6.74167 11.7667 5.53333 9.4L7.35 7.56667Z" fill="currentColor"/>
</svg>
