<svg width="20" height="20" viewBox="0 0 20 20" fill="none" xmlns="http://www.w3.org/2000/svg">
<path d="M15.8334 13.7501C14.7917 13.7501 13.7917 13.5834 12.8584 13.2751C12.5667 13.1834 12.2417 13.2501 12.0084 13.4834L10.1751 15.3167C7.81675 14.1167 5.88341 12.1834 4.68341 9.82508L6.51675 7.99175C6.75008 7.75841 6.81675 7.43341 6.72508 7.14175C6.41675 6.20841 6.25008 5.20841 6.25008 4.16675C6.25008 3.94573 6.16228 3.73377 6.006 3.57749C5.84972 3.42121 5.63776 3.33341 5.41675 3.33341H2.50008C2.27907 3.33341 2.06711 3.42121 1.91083 3.57749C1.75455 3.73377 1.66675 3.94573 1.66675 4.16675C1.66675 7.92398 3.1593 11.5273 5.81607 14.1841C8.47283 16.8409 12.0762 18.3334 15.8334 18.3334C16.0544 18.3334 16.2664 18.2456 16.4227 18.0893C16.579 17.9331 16.6667 17.7211 16.6667 17.5001V14.5834C16.6667 14.3624 16.579 14.1504 16.4227 13.9942C16.2664 13.8379 16.0544 13.7501 15.8334 13.7501ZM14.1667 10.0001L18.3334 5.83341L14.1667 1.66675V4.16675H10.8334V7.50008H14.1667V10.0001Z" fill="currentColor"/>
</svg>
