<svg width="20" height="20" viewBox="0 0 20 20" fill="none" xmlns="http://www.w3.org/2000/svg">
<path d="M19.7583 13.8917C17.2167 11.475 13.7833 10 10 10C6.21667 10 2.78333 11.475 0.241667 13.8917C0.0916667 14.0417 0 14.25 0 14.4833C0 14.7083 0.0916667 14.9167 0.241667 15.0667L2.30833 17.1333C2.45833 17.2833 2.66667 17.3833 2.91667 17.3833C3.125 17.3833 3.33333 17.2917 3.48333 17.1417C4.14167 16.525 4.88333 16.0083 5.7 15.6C5.975 15.4667 6.16667 15.1833 6.16667 14.85V12.2667C7.375 11.875 8.65833 11.6667 10 11.6667C11.3333 11.6667 12.625 11.875 13.8333 12.2667V14.85C13.8333 15.1833 14.025 15.4667 14.3 15.6C15.1167 16.0083 15.8583 16.525 16.5167 17.1417C16.6667 17.2917 16.875 17.3833 17.0833 17.3833C17.3333 17.3833 17.5417 17.2833 17.6917 17.1333L19.7583 15.0667C19.9083 14.9167 20 14.7083 20 14.4833C20 14.25 19.9083 14.0417 19.7583 13.8917ZM5.41667 4.58333L10 9.16667L15.8333 3.33333L15 2.5L10 7.5L6.25 3.75H9.16667V2.5H4.16667V7.5H5.41667V4.58333Z" fill="currentColor"/>
</svg>
