<svg width="20" height="20" viewBox="0 0 20 20" fill="none" xmlns="http://www.w3.org/2000/svg">
<path d="M12.5 10H14.1667C14.1667 8.89493 13.7277 7.83512 12.9463 7.05372C12.1649 6.27232 11.1051 5.83333 10 5.83333V7.5C10.663 7.5 11.2989 7.76339 11.7678 8.23223C12.2366 8.70107 12.5 9.33696 12.5 10ZM15.8333 10H17.5C17.5 5.83333 14.1417 2.5 10 2.5V4.16667C13.2167 4.16667 15.8333 6.775 15.8333 10ZM16.6667 12.9167C15.625 12.9167 14.625 12.75 13.6917 12.4417C13.4 12.35 13.075 12.4167 12.8417 12.65L11.0083 14.4833C8.65 13.2833 6.71667 11.35 5.51667 8.99167L7.35 7.15833C7.58333 6.925 7.65 6.6 7.55833 6.30833C7.25 5.375 7.08333 4.375 7.08333 3.33333C7.08333 3.11232 6.99554 2.90036 6.83926 2.74408C6.68298 2.5878 6.47101 2.5 6.25 2.5H3.33333C3.11232 2.5 2.90036 2.5878 2.74408 2.74408C2.5878 2.90036 2.5 3.11232 2.5 3.33333C2.5 7.09057 3.99256 10.6939 6.64932 13.3507C9.30609 16.0074 12.9094 17.5 16.6667 17.5C16.8877 17.5 17.0996 17.4122 17.2559 17.2559C17.4122 17.0996 17.5 16.8877 17.5 16.6667V13.75C17.5 13.529 17.4122 13.317 17.2559 13.1607C17.0996 13.0045 16.8877 12.9167 16.6667 12.9167Z" fill="currentColor"/>
</svg>
