<svg width="20" height="20" viewBox="0 0 20 20" fill="none" xmlns="http://www.w3.org/2000/svg">
<path d="M16 4.16675H13.1667V3.75008C13.1667 2.96675 13.8 2.33341 14.5833 2.33341C15.3667 2.33341 16 2.96675 16 3.75008V4.16675ZM16.6667 4.16675V3.75008C16.6667 3.19755 16.4472 2.66764 16.0565 2.27694C15.6658 1.88624 15.1359 1.66675 14.5833 1.66675C14.0308 1.66675 13.5009 1.88624 13.1102 2.27694C12.7195 2.66764 12.5 3.19755 12.5 3.75008V4.16675C12.279 4.16675 12.067 4.25455 11.9107 4.41083C11.7545 4.56711 11.6667 4.77907 11.6667 5.00008V8.33341C11.6667 8.55443 11.7545 8.76639 11.9107 8.92267C12.067 9.07895 12.279 9.16675 12.5 9.16675H16.6667C16.8877 9.16675 17.0996 9.07895 17.2559 8.92267C17.4122 8.76639 17.5 8.55443 17.5 8.33341V5.00008C17.5 4.77907 17.4122 4.56711 17.2559 4.41083C17.0996 4.25455 16.8877 4.16675 16.6667 4.16675V4.16675ZM16.6667 13.7501C15.625 13.7501 14.625 13.5834 13.6917 13.2751C13.4 13.1834 13.075 13.2501 12.8417 13.4834L11.0083 15.3167C8.65 14.1167 6.71667 12.1834 5.51667 9.82508L7.35 7.99175C7.58333 7.75841 7.65 7.43341 7.55833 7.14175C7.25 6.20841 7.08333 5.20841 7.08333 4.16675C7.08333 3.94573 6.99554 3.73377 6.83926 3.57749C6.68298 3.42121 6.47101 3.33341 6.25 3.33341H3.33333C3.11232 3.33341 2.90036 3.42121 2.74408 3.57749C2.5878 3.73377 2.5 3.94573 2.5 4.16675C2.5 7.92398 3.99256 11.5273 6.64932 14.1841C9.30609 16.8409 12.9094 18.3334 16.6667 18.3334C16.8877 18.3334 17.0996 18.2456 17.2559 18.0893C17.4122 17.9331 17.5 17.7211 17.5 17.5001V14.5834C17.5 14.3624 17.4122 14.1504 17.2559 13.9942C17.0996 13.8379 16.8877 13.7501 16.6667 13.7501Z" fill="currentColor"/>
</svg>
