<svg width="20" height="20" viewBox="0 0 20 20" fill="none" xmlns="http://www.w3.org/2000/svg">
<path d="M10.8333 13.3334V15.0001H11.6667C11.8877 15.0001 12.0996 15.0879 12.2559 15.2442C12.4122 15.4004 12.5 15.6124 12.5 15.8334H18.3333V17.5001H12.5C12.5 17.7211 12.4122 17.9331 12.2559 18.0893C12.0996 18.2456 11.8877 18.3334 11.6667 18.3334H8.33333C8.11232 18.3334 7.90036 18.2456 7.74408 18.0893C7.5878 17.9331 7.5 17.7211 7.5 17.5001H1.66667V15.8334H7.5C7.5 15.6124 7.5878 15.4004 7.74408 15.2442C7.90036 15.0879 8.11232 15.0001 8.33333 15.0001H9.16667V13.3334H10.8333ZM19.75 5.55841C19.9 5.70841 20 5.90841 20 6.14175C20 6.37508 19.9083 6.58341 19.7583 6.73341L17.6917 8.80008C17.5417 8.95008 17.3333 9.04175 17.0833 9.04175C16.875 9.04175 16.6667 8.95841 16.5167 8.80841C15.8333 8.20008 15.1083 7.67508 14.2917 7.26675C14.0167 7.13341 13.825 6.84175 13.825 6.51675V3.93341C12.6167 3.54175 11.325 3.33341 10 3.33341C8.66667 3.33341 7.375 3.54175 6.16667 3.94175V6.52508C6.16667 6.85841 5.975 7.14175 5.7 7.27508C4.89167 7.68341 4.14167 8.20008 3.48333 8.81675C3.33333 8.95841 3.125 9.05008 2.91667 9.05008C2.66667 9.05008 2.45833 8.95841 2.30833 8.80841L0.241667 6.74175C0.0916667 6.59175 0 6.38341 0 6.15008C0 5.91675 0.0916667 5.70841 0.241667 5.55841C2.78333 3.15008 6.21667 1.66675 10 1.66675C13.775 1.66675 17.2083 3.15008 19.75 5.55841ZM9.16667 7.50008V11.6667H8.33333V7.50008H9.16667ZM10 7.50008H12.5V10.0001H10.8333V11.6667H10V7.50008ZM11.6667 9.16675V8.33341H10.8333V9.16675H11.6667Z" fill="currentColor"/>
</svg>
