<svg width="20" height="20" viewBox="0 0 20 20" fill="none" xmlns="http://www.w3.org/2000/svg">
<path d="M2 1C1.73478 1 1.48043 1.10536 1.29289 1.29289C1.10536 1.48043 1 1.73478 1 2C1 6.50868 2.79107 10.8327 5.97918 14.0208C9.1673 17.2089 13.4913 19 18 19C18.2652 19 18.5196 18.8946 18.7071 18.7071C18.8946 18.5196 19 18.2652 19 18V14.5C19 14.2348 18.8946 13.9804 18.7071 13.7929C18.5196 13.6054 18.2652 13.5 18 13.5C16.76 13.5 15.55 13.3 14.43 12.93C14.08 12.82 13.69 12.9 13.41 13.18L11.21 15.38C8.38 13.94 6.07 11.62 4.62 8.79L6.82 6.58C7.1 6.31 7.18 5.92 7.07 5.57C6.7 4.45 6.5 3.24 6.5 2C6.5 1.73478 6.39464 1.48043 6.20711 1.29289C6.01957 1.10536 5.76522 1 5.5 1H2ZM14 1V4H11V6H14V9H16V6H19V4H16V1" fill="currentColor"/>
</svg>
