<svg width="20" height="20" viewBox="0 0 20 20" fill="none" xmlns="http://www.w3.org/2000/svg">
<path d="M13.3333 6.66667H11.6667V9.16667H9.16667V10.8333H11.6667V13.3333H13.3333V10.8333H15.8333V9.16667H13.3333V6.66667ZM1.66667 10C1.66667 7.675 3.03333 5.66667 5 4.73333V2.91667C2.08333 3.96667 0 6.74167 0 10C0 13.2583 2.08333 16.0333 5 17.0833V15.2667C3.03333 14.3333 1.66667 12.325 1.66667 10ZM12.5 2.5C8.36667 2.5 5 5.86667 5 10C5 14.1333 8.36667 17.5 12.5 17.5C16.6333 17.5 20 14.1333 20 10C20 5.86667 16.6333 2.5 12.5 2.5ZM12.5 15.8333C9.28333 15.8333 6.66667 13.2167 6.66667 10C6.66667 6.78333 9.28333 4.16667 12.5 4.16667C15.7167 4.16667 18.3333 6.78333 18.3333 10C18.3333 13.2167 15.7167 15.8333 12.5 15.8333Z" fill="currentColor"/>
</svg>
