<svg width="20" height="20" viewBox="0 0 20 20" fill="none" xmlns="http://www.w3.org/2000/svg">
<path d="M15.8332 9.16675H12.4998V12.5001H10.8332V9.16675H7.49984V7.50008H10.8332V4.16675H12.4998V7.50008H15.8332V9.16675ZM16.6665 1.66675H6.6665C6.22448 1.66675 5.80055 1.84234 5.48799 2.1549C5.17543 2.46746 4.99984 2.89139 4.99984 3.33341V13.3334C4.99984 13.7754 5.17543 14.1994 5.48799 14.5119C5.80055 14.8245 6.22448 15.0001 6.6665 15.0001H16.6665C17.1085 15.0001 17.5325 14.8245 17.845 14.5119C18.1576 14.1994 18.3332 13.7754 18.3332 13.3334V3.33341C18.3332 2.89139 18.1576 2.46746 17.845 2.1549C17.5325 1.84234 17.1085 1.66675 16.6665 1.66675ZM3.33317 5.00008H1.6665V16.6667C1.6665 17.1088 1.8421 17.5327 2.15466 17.8453C2.46722 18.1578 2.89114 18.3334 3.33317 18.3334H14.9998V16.6667H3.33317V5.00008Z" fill="currentColor"/>
</svg>
