<svg width="20" height="20" viewBox="0 0 20 20" fill="none" xmlns="http://www.w3.org/2000/svg">
<path d="M15.8334 6.66667C17.2167 6.66667 18.3334 7.78333 18.3334 9.16667V14.1667H15V17.5H5.00002V14.1667H1.66669V9.16667C1.66669 7.78333 2.78335 6.66667 4.16669 6.66667H5.00002V2.5H15V6.66667H15.8334ZM6.66669 4.16667V6.66667H13.3334V4.16667H6.66669ZM13.3334 15.8333V12.5H6.66669V15.8333H13.3334ZM15 12.5H16.6667V9.16667C16.6667 8.70833 16.2917 8.33333 15.8334 8.33333H4.16669C3.70835 8.33333 3.33335 8.70833 3.33335 9.16667V12.5H5.00002V10.8333H15V12.5ZM15.8334 9.58333C15.8334 10.0417 15.4584 10.4167 15 10.4167C14.5417 10.4167 14.1667 10.0417 14.1667 9.58333C14.1667 9.125 14.5417 8.75 15 8.75C15.4584 8.75 15.8334 9.125 15.8334 9.58333Z" fill="currentColor"/>
</svg>
