<svg width="20" height="20" viewBox="0 0 20 20" fill="none" xmlns="http://www.w3.org/2000/svg">
<path d="M3.33333 1.66675C3.11232 1.66675 2.90036 1.75455 2.74408 1.91083C2.5878 2.06711 2.5 2.27907 2.5 2.50008V3.33341C2.5 3.55443 2.5878 3.76639 2.74408 3.92267C2.90036 4.07895 3.11232 4.16675 3.33333 4.16675H4.16667V11.6667H9.16667V13.8251L5.65833 17.3251L6.84167 18.5084L9.16667 16.1751V18.3334H10.8333V16.1751L13.1583 18.5084L14.3417 17.3251L10.8333 13.8251V11.6667H15.8333V4.16675H16.6667C16.8877 4.16675 17.0996 4.07895 17.2559 3.92267C17.4122 3.76639 17.5 3.55443 17.5 3.33341V2.50008C17.5 2.27907 17.4122 2.06711 17.2559 1.91083C17.0996 1.75455 16.8877 1.66675 16.6667 1.66675H3.33333Z" fill="currentColor"/>
</svg>
