<svg width="20" height="20" viewBox="0 0 20 20" fill="none" xmlns="http://www.w3.org/2000/svg">
<path d="M15.8916 4.10841L14.7166 5.28341C15.9166 6.49175 16.6666 8.15841 16.6666 10.0001C16.6666 11.7682 15.9642 13.4639 14.714 14.7141C13.4638 15.9644 11.7681 16.6667 9.99996 16.6667C8.23185 16.6667 6.53616 15.9644 5.28591 14.7141C4.03567 13.4639 3.33329 11.7682 3.33329 10.0001C3.33329 6.60008 5.87496 3.80008 9.16663 3.39175V5.07508C6.79996 5.47508 4.99996 7.52508 4.99996 10.0001C4.99996 11.3262 5.52674 12.5979 6.46443 13.5356C7.40211 14.4733 8.67388 15.0001 9.99996 15.0001C11.326 15.0001 12.5978 14.4733 13.5355 13.5356C14.4732 12.5979 15 11.3262 15 10.0001C15 8.61675 14.4416 7.36675 13.5333 6.46675L12.3583 7.64175C12.9583 8.25008 13.3333 9.08341 13.3333 10.0001C13.3333 10.8841 12.9821 11.732 12.357 12.3571C11.7319 12.9822 10.884 13.3334 9.99996 13.3334C9.1159 13.3334 8.26806 12.9822 7.64294 12.3571C7.01782 11.732 6.66663 10.8841 6.66663 10.0001C6.66663 8.45008 7.73329 7.15841 9.16663 6.78341V8.56675C8.66663 8.85841 8.33329 9.38341 8.33329 10.0001C8.33329 10.4421 8.50889 10.866 8.82145 11.1786C9.13401 11.4912 9.55793 11.6667 9.99996 11.6667C10.442 11.6667 10.8659 11.4912 11.1785 11.1786C11.491 10.866 11.6666 10.4421 11.6666 10.0001C11.6666 9.38341 11.3333 8.85008 10.8333 8.56675V1.66675H9.99996C8.90561 1.66675 7.82198 1.8823 6.81093 2.30109C5.79988 2.71987 4.88122 3.3337 4.1074 4.10752C2.5446 5.67033 1.66663 7.78994 1.66663 10.0001C1.66663 12.2102 2.5446 14.3298 4.1074 15.8926C4.88122 16.6665 5.79988 17.2803 6.81093 17.6991C7.82198 18.1179 8.90561 18.3334 9.99996 18.3334C12.2101 18.3334 14.3297 17.4554 15.8925 15.8926C17.4553 14.3298 18.3333 12.2102 18.3333 10.0001C18.3333 7.70008 17.4 5.61675 15.8916 4.10841Z" fill="currentColor"/>
</svg>
