<svg width="20" height="20" viewBox="0 0 20 20" fill="none" xmlns="http://www.w3.org/2000/svg">
<path fill-rule="evenodd" clip-rule="evenodd" d="M9.99996 5.83341C7.66663 5.83341 5.83329 7.66675 5.83329 10.0001C5.83329 12.3334 7.66663 14.1667 9.99996 14.1667C12.3333 14.1667 14.1666 12.3334 14.1666 10.0001C14.1666 7.66675 12.3333 5.83341 9.99996 5.83341V5.83341ZM9.99996 1.66675C5.41663 1.66675 1.66663 5.41675 1.66663 10.0001C1.66663 14.5834 5.41663 18.3334 9.99996 18.3334C14.5833 18.3334 18.3333 14.5834 18.3333 10.0001C18.3333 5.41675 14.5833 1.66675 9.99996 1.66675V1.66675ZM9.99996 16.6667C6.33329 16.6667 3.33329 13.6667 3.33329 10.0001C3.33329 6.33341 6.33329 3.33341 9.99996 3.33341C13.6666 3.33341 16.6666 6.33341 16.6666 10.0001C16.6666 13.6667 13.6666 16.6667 9.99996 16.6667V16.6667Z" fill="currentColor"/>
</svg>
