<svg width="20" height="20" viewBox="0 0 20 20" fill="none" xmlns="http://www.w3.org/2000/svg">
<path d="M9.99984 5.00008V1.66675L14.1665 5.83341L9.99984 10.0001V6.66675C8.67375 6.66675 7.40198 7.19353 6.4643 8.13121C5.52662 9.0689 4.99984 10.3407 4.99984 11.6667C4.99984 12.9928 5.52662 14.2646 6.4643 15.2023C7.40198 16.14 8.67375 16.6667 9.99984 16.6667C11.3259 16.6667 12.5977 16.14 13.5354 15.2023C14.4731 14.2646 14.9998 12.9928 14.9998 11.6667H16.6665C16.6665 13.4349 15.9641 15.1306 14.7139 16.3808C13.4636 17.631 11.7679 18.3334 9.99984 18.3334C8.23173 18.3334 6.53603 17.631 5.28579 16.3808C4.03555 15.1306 3.33317 13.4349 3.33317 11.6667C3.33317 9.89864 4.03555 8.20295 5.28579 6.9527C6.53603 5.70246 8.23173 5.00008 9.99984 5.00008V5.00008Z" fill="currentColor"/>
</svg>
