<svg width="20" height="20" viewBox="0 0 20 20" fill="none" xmlns="http://www.w3.org/2000/svg">
<path d="M14.7085 5.29159C13.5002 4.08325 11.8418 3.33325 10.0002 3.33325C8.23205 3.33325 6.53636 4.03563 5.28612 5.28587C4.03588 6.53612 3.3335 8.23181 3.3335 9.99992C3.3335 11.768 4.03588 13.4637 5.28612 14.714C6.53636 15.9642 8.23205 16.6666 10.0002 16.6666C13.1085 16.6666 15.7002 14.5416 16.4418 11.6666H14.7085C14.0252 13.6083 12.1752 14.9999 10.0002 14.9999C8.67408 14.9999 7.40231 14.4731 6.46463 13.5355C5.52695 12.5978 5.00016 11.326 5.00016 9.99992C5.00016 8.67384 5.52695 7.40207 6.46463 6.46438C7.40231 5.5267 8.67408 4.99992 10.0002 4.99992C11.3835 4.99992 12.6168 5.57492 13.5168 6.48325L10.8335 9.16659H16.6668V3.33325L14.7085 5.29159Z" fill="currentColor"/>
</svg>
