<svg width="20" height="20" viewBox="0 0 20 20" fill="none" xmlns="http://www.w3.org/2000/svg">
<path d="M3.33333 4.16667V12.5H7.5V9.16667C7.5 8.72464 7.67559 8.30072 7.98816 7.98816C8.30072 7.67559 8.72464 7.5 9.16667 7.5H13.3333C13.7754 7.5 14.1993 7.67559 14.5118 7.98816C14.8244 8.30072 15 8.72464 15 9.16667V12.5H16.6667V4.16667H3.33333ZM0 15.8333V14.1667H3.33333C2.89131 14.1667 2.46738 13.9911 2.15482 13.6785C1.84226 13.366 1.66667 12.942 1.66667 12.5V4.16667C1.66667 3.72464 1.84226 3.30072 2.15482 2.98816C2.46738 2.67559 2.89131 2.5 3.33333 2.5H16.6667C17.1087 2.5 17.5326 2.67559 17.8452 2.98816C18.1577 3.30072 18.3333 3.72464 18.3333 4.16667V12.5C18.3333 12.942 18.1577 13.366 17.8452 13.6785C17.5326 13.9911 17.1087 14.1667 16.6667 14.1667H20V15.8333H15C15 16.7583 14.25 17.5 13.3333 17.5H9.16667C8.72464 17.5 8.30072 17.3244 7.98816 17.0118C7.67559 16.6993 7.5 16.2754 7.5 15.8333H0ZM9.58333 15.8333C9.47283 15.8333 9.36685 15.8772 9.2887 15.9554C9.21056 16.0335 9.16667 16.1395 9.16667 16.25C9.16667 16.3605 9.21056 16.4665 9.2887 16.5446C9.36685 16.6228 9.47283 16.6667 9.58333 16.6667C9.69384 16.6667 9.79982 16.6228 9.87796 16.5446C9.9561 16.4665 10 16.3605 10 16.25C10 16.1395 9.9561 16.0335 9.87796 15.9554C9.79982 15.8772 9.69384 15.8333 9.58333 15.8333ZM12.9167 15.8333C12.8062 15.8333 12.7002 15.8772 12.622 15.9554C12.5439 16.0335 12.5 16.1395 12.5 16.25C12.5 16.3605 12.5439 16.4665 12.622 16.5446C12.7002 16.6228 12.8062 16.6667 12.9167 16.6667C13.0272 16.6667 13.1332 16.6228 13.2113 16.5446C13.2894 16.4665 13.3333 16.3605 13.3333 16.25C13.3333 16.1395 13.2894 16.0335 13.2113 15.9554C13.1332 15.8772 13.0272 15.8333 12.9167 15.8333ZM10.8333 15.8333V16.6667H11.6667V15.8333H10.8333ZM9.16667 9.16667V15H13.3333V9.16667H9.16667Z" fill="currentColor"/>
</svg>
