<svg width="20" height="20" viewBox="0 0 20 20" fill="none" xmlns="http://www.w3.org/2000/svg">
<path d="M0.833343 14.9749L2.30834 13.5083L3.49168 14.6749L4.37501 13.7999L3.19168 12.6249L4.37501 11.4416L6.43334 13.5083L7.31668 12.6249L5.25834 10.5583L6.43334 9.38325L7.61668 10.5583L8.50001 9.67492L7.31668 8.49992L8.50001 7.31659L10.5583 9.38325L11.4417 8.49992L9.38334 6.43325L10.5583 5.25825L11.7333 6.43325L12.625 5.54992L11.4417 4.37492L12.625 3.19158L14.675 5.25825L15.5667 4.37492L13.5083 2.30825L14.975 0.833252L18.5167 4.37492L4.37501 18.5166L0.833343 14.9749Z" fill="currentColor"/>
</svg>
