<svg width="20" height="20" viewBox="0 0 20 20" fill="none" xmlns="http://www.w3.org/2000/svg">
<path d="M15 1.66675C14.5834 1.66675 14.1667 1.80841 13.825 2.15008C11.4334 4.54175 6.66669 9.30842 6.66669 9.30842L7.91669 10.5584L5.00002 13.4751H3.33335L1.66669 16.8084L3.33335 18.4751L6.66669 16.8084V15.1417L9.58335 12.2251L10.8334 13.4751C10.8334 13.4751 15.6 8.70841 17.9917 6.31675C18.5084 5.55841 18.6417 4.61675 17.9917 3.96675L16.175 2.15008C15.8334 1.80841 15.4167 1.66675 15 1.66675ZM15 3.47508L16.6667 5.14175L10.8334 10.9751L9.16669 9.30842L15 3.47508Z" fill="currentColor"/>
</svg>
