<svg width="20" height="20" viewBox="0 0 20 20" fill="none" xmlns="http://www.w3.org/2000/svg">
<path d="M10.8334 15.0001H11.6667C11.8878 15.0001 12.0997 15.0879 12.256 15.2442C12.4123 15.4004 12.5001 15.6124 12.5001 15.8334H18.3334V17.5001H12.5001C12.5001 17.7211 12.4123 17.9331 12.256 18.0893C12.0997 18.2456 11.8878 18.3334 11.6667 18.3334H8.33341C8.1124 18.3334 7.90044 18.2456 7.74416 18.0893C7.58788 17.9331 7.50008 17.7211 7.50008 17.5001H1.66675V15.8334H7.50008C7.50008 15.6124 7.58788 15.4004 7.74416 15.2442C7.90044 15.0879 8.1124 15.0001 8.33341 15.0001H9.16675V13.6167C6.72508 12.6084 5.00008 10.0001 5.00008 7.22508V3.89175L10.0001 1.66675L15.0001 3.89175V7.22508C15.0001 10.0001 13.2751 12.6084 10.8334 13.6167V15.0001ZM10.0001 3.33341L6.66675 4.74175V7.50008H10.0001V3.33341ZM10.0001 7.50008V12.5001C11.5917 12.1084 13.3334 10.0501 13.3334 8.33341V7.50008H10.0001Z" fill="currentColor"/>
</svg>
