<svg width="20" height="20" viewBox="0 0 20 20" fill="none" xmlns="http://www.w3.org/2000/svg">
<path d="M3.33333 4.16675H16.6667C16.8877 4.16675 17.0996 4.25455 17.2559 4.41083C17.4122 4.56711 17.5 4.77907 17.5 5.00008V8.33341C17.5 8.55443 17.4122 8.76639 17.2559 8.92267C17.0996 9.07895 16.8877 9.16675 16.6667 9.16675H3.33333C3.11232 9.16675 2.90036 9.07895 2.74408 8.92267C2.5878 8.76639 2.5 8.55443 2.5 8.33341V5.00008C2.5 4.77907 2.5878 4.56711 2.74408 4.41083C2.90036 4.25455 3.11232 4.16675 3.33333 4.16675V4.16675ZM7.5 7.50008H8.33333V5.83341H7.5V7.50008ZM4.16667 5.83341V7.50008H5.83333V5.83341H4.16667ZM6.66667 14.1667H13.3333V15.8334H6.66667V14.1667Z" fill="currentColor"/>
</svg>
