<svg width="20" height="20" viewBox="0 0 20 20" fill="none" xmlns="http://www.w3.org/2000/svg">
<path d="M3.33325 0.833252H16.6666C16.8876 0.833252 17.0996 0.921049 17.2558 1.07733C17.4121 1.23361 17.4999 1.44557 17.4999 1.66659V4.99992C17.4999 5.22093 17.4121 5.43289 17.2558 5.58917C17.0996 5.74545 16.8876 5.83325 16.6666 5.83325H7.34992L5.68325 4.16659H5.83325V2.49992H4.16659V2.64992L2.67492 1.15825C2.82492 0.958252 3.06659 0.833252 3.33325 0.833252ZM18.3333 18.9333L17.2749 19.9999L16.4416 19.1666H3.33325C3.11224 19.1666 2.90028 19.0788 2.744 18.9225C2.58772 18.7662 2.49992 18.5543 2.49992 18.3333V14.9999C2.49992 14.7789 2.58772 14.5669 2.744 14.4107C2.90028 14.2544 3.11224 14.1666 3.33325 14.1666H11.4416L9.77492 12.4999H3.33325C3.11224 12.4999 2.90028 12.4121 2.744 12.2558C2.58772 12.0996 2.49992 11.8876 2.49992 11.6666V8.33325C2.49992 8.11224 2.58772 7.90028 2.744 7.744C2.90028 7.58772 3.11224 7.49992 3.33325 7.49992H4.77492L3.06659 5.79159C2.81659 5.70825 2.62492 5.51659 2.54159 5.26659L0.833252 3.55825L1.89992 2.49992L18.3333 18.9333ZM16.6666 7.49992C16.8876 7.49992 17.0996 7.58772 17.2558 7.744C17.4121 7.90028 17.4999 8.11224 17.4999 8.33325V11.6666C17.4999 11.8876 17.4121 12.0996 17.2558 12.2558C17.0996 12.4121 16.8876 12.4999 16.6666 12.4999H14.0166L9.01658 7.49992H16.6666ZM16.6666 14.1666C16.8876 14.1666 17.0996 14.2544 17.2558 14.4107C17.4121 14.5669 17.4999 14.7789 17.4999 14.9999V15.9833L15.6833 14.1666H16.6666ZM7.49992 4.16659H8.33325V2.49992H7.49992V4.16659ZM7.49992 10.8333H8.10825L7.49992 10.2249V10.8333ZM7.49992 17.4999H8.33325V15.8333H7.49992V17.4999ZM4.16659 9.16659V10.8333H5.83325V9.16659H4.16659ZM4.16659 15.8333V17.4999H5.83325V15.8333H4.16659Z" fill="currentColor"/>
</svg>
