<svg width="20" height="20" viewBox="0 0 20 20" fill="none" xmlns="http://www.w3.org/2000/svg">
<path d="M10.8334 15.0001H11.6667C11.8878 15.0001 12.0997 15.0879 12.256 15.2442C12.4123 15.4004 12.5001 15.6124 12.5001 15.8334H18.3334V17.5001H12.5001C12.5001 17.7211 12.4123 17.9331 12.256 18.0893C12.0997 18.2456 11.8878 18.3334 11.6667 18.3334H8.33341C8.1124 18.3334 7.90044 18.2456 7.74416 18.0893C7.58788 17.9331 7.50008 17.7211 7.50008 17.5001H1.66675V15.8334H7.50008C7.50008 15.6124 7.58788 15.4004 7.74416 15.2442C7.90044 15.0879 8.1124 15.0001 8.33341 15.0001H9.16675V13.3334H3.33341C3.1124 13.3334 2.90044 13.2456 2.74416 13.0893C2.58788 12.9331 2.50008 12.7211 2.50008 12.5001V9.16675C2.50008 8.94573 2.58788 8.73377 2.74416 8.57749C2.90044 8.42121 3.1124 8.33341 3.33341 8.33341H16.6667C16.8878 8.33341 17.0997 8.42121 17.256 8.57749C17.4123 8.73377 17.5001 8.94573 17.5001 9.16675V12.5001C17.5001 12.7211 17.4123 12.9331 17.256 13.0893C17.0997 13.2456 16.8878 13.3334 16.6667 13.3334H10.8334V15.0001ZM3.33341 1.66675H16.6667C16.8878 1.66675 17.0997 1.75455 17.256 1.91083C17.4123 2.06711 17.5001 2.27907 17.5001 2.50008V5.83341C17.5001 6.05443 17.4123 6.26639 17.256 6.42267C17.0997 6.57895 16.8878 6.66675 16.6667 6.66675H3.33341C3.1124 6.66675 2.90044 6.57895 2.74416 6.42267C2.58788 6.26639 2.50008 6.05443 2.50008 5.83341V2.50008C2.50008 2.27907 2.58788 2.06711 2.74416 1.91083C2.90044 1.75455 3.1124 1.66675 3.33341 1.66675V1.66675ZM7.50008 5.00008H8.33341V3.33341H7.50008V5.00008ZM7.50008 11.6667H8.33341V10.0001H7.50008V11.6667ZM4.16675 3.33341V5.00008H5.83341V3.33341H4.16675ZM4.16675 10.0001V11.6667H5.83341V10.0001H4.16675Z" fill="currentColor"/>
</svg>
