<svg width="20" height="20" viewBox="0 0 20 20" fill="none" xmlns="http://www.w3.org/2000/svg">
<path d="M10 8.33333C9.08333 8.33333 8.33333 9.08333 8.33333 10C8.33333 10.9167 9.08333 11.6667 10 11.6667C10.9167 11.6667 11.6667 10.9167 11.6667 10C11.6667 9.08333 10.9167 8.33333 10 8.33333ZM15.8333 2.5H4.16667C3.24167 2.5 2.5 3.25 2.5 4.16667V15.8333C2.5 16.75 3.24167 17.5 4.16667 17.5H15.8333C16.7583 17.5 17.5 16.75 17.5 15.8333V4.16667C17.5 3.25 16.7583 2.5 15.8333 2.5ZM14.375 10C14.375 10.1917 14.3583 10.3833 14.3333 10.5667L15.5667 11.5333C15.675 11.625 15.7083 11.7833 15.6333 11.9083L14.4667 13.925C14.3917 14.05 14.2417 14.1 14.1083 14.05L12.6583 13.4667C12.3583 13.7 12.025 13.8917 11.675 14.0417L11.4583 15.5833C11.4333 15.725 11.3083 15.8333 11.1667 15.8333H8.83333C8.69167 15.8333 8.56667 15.725 8.54167 15.5917L8.325 14.05C7.96667 13.9 7.64167 13.7083 7.34167 13.475L5.89167 14.0583C5.75833 14.1083 5.60833 14.0583 5.53333 13.9333L4.36667 11.9167C4.29167 11.7917 4.325 11.6333 4.43333 11.5417L5.66667 10.575C5.64167 10.3833 5.625 10.1917 5.625 10C5.625 9.80833 5.64167 9.61667 5.66667 9.43333L4.43333 8.46667C4.325 8.375 4.29167 8.21667 4.36667 8.09167L5.53333 6.075C5.60833 5.95 5.75833 5.9 5.89167 5.95L7.34167 6.53333C7.64167 6.3 7.975 6.10833 8.325 5.95833L8.54167 4.41667C8.56667 4.275 8.69167 4.16667 8.83333 4.16667H11.1667C11.3083 4.16667 11.4333 4.275 11.4583 4.40833L11.675 5.95C12.0333 6.1 12.3583 6.29167 12.6583 6.525L14.1083 5.94167C14.2417 5.89167 14.3917 5.94167 14.4667 6.06667L15.6333 8.08333C15.7083 8.20833 15.675 8.36667 15.5667 8.45833L14.3333 9.425C14.3583 9.61667 14.375 9.80833 14.375 10V10Z" fill="currentColor"/>
</svg>
