<svg width="20" height="20" viewBox="0 0 20 20" fill="none" xmlns="http://www.w3.org/2000/svg">
<path d="M8.33329 11.2501V17.9167H1.66663V11.2501H8.33329ZM6.66663 12.9167H3.33329V16.2501H6.66663V12.9167ZM9.16663 1.66675L13.75 9.16675H4.58329L9.16663 1.66675ZM9.16663 4.88341L7.56663 7.50008H10.7666L9.16663 4.88341ZM13.75 10.8334C15.8333 10.8334 17.5 12.5001 17.5 14.5834C17.5 16.6667 15.8333 18.3334 13.75 18.3334C11.6666 18.3334 9.99996 16.6667 9.99996 14.5834C9.99996 12.5001 11.6666 10.8334 13.75 10.8334ZM13.75 12.5001C13.1974 12.5001 12.6675 12.7196 12.2768 13.1103C11.8861 13.501 11.6666 14.0309 11.6666 14.5834C11.6666 15.1359 11.8861 15.6659 12.2768 16.0566C12.6675 16.4473 13.1974 16.6667 13.75 16.6667C14.3025 16.6667 14.8324 16.4473 15.2231 16.0566C15.6138 15.6659 15.8333 15.1359 15.8333 14.5834C15.8333 14.0309 15.6138 13.501 15.2231 13.1103C14.8324 12.7196 14.3025 12.5001 13.75 12.5001Z" fill="currentColor"/>
</svg>
