<svg width="20" height="20" viewBox="0 0 20 20" fill="none" xmlns="http://www.w3.org/2000/svg">
<path d="M17.5 9.16659C17.5 13.7916 14.3 18.1166 10 19.1666C5.7 18.1166 2.5 13.7916 2.5 9.16659V4.16659L10 0.833252L17.5 4.16659V9.16659ZM10 17.4999C13.125 16.6666 15.8333 12.9499 15.8333 9.34992V5.24992L10 2.64992L4.16667 5.24992V9.34992C4.16667 12.9499 6.875 16.6666 10 17.4999ZM10 4.99992C10.663 4.99992 11.2989 5.26331 11.7678 5.73215C12.2366 6.20099 12.5 6.83688 12.5 7.49992C12.5 8.59159 11.8083 9.51659 10.8333 9.85825V11.6666H12.5V13.3333H10.8333V14.9999H9.16667V9.85825C8.19167 9.51659 7.5 8.59159 7.5 7.49992C7.5 6.83688 7.76339 6.20099 8.23223 5.73215C8.70107 5.26331 9.33696 4.99992 10 4.99992ZM10 6.66659C9.77899 6.66659 9.56702 6.75438 9.41074 6.91066C9.25446 7.06694 9.16667 7.27891 9.16667 7.49992C9.16667 7.72093 9.25446 7.93289 9.41074 8.08917C9.56702 8.24545 9.77899 8.33325 10 8.33325C10.221 8.33325 10.433 8.24545 10.5893 8.08917C10.7455 7.93289 10.8333 7.72093 10.8333 7.49992C10.8333 7.27891 10.7455 7.06694 10.5893 6.91066C10.433 6.75438 10.221 6.66659 10 6.66659Z" fill="currentColor"/>
</svg>
