<svg width="20" height="20" viewBox="0 0 20 20" fill="none" xmlns="http://www.w3.org/2000/svg">
<path d="M10 3.33341C9.33696 3.33341 8.70107 3.59681 8.23223 4.06565C7.76339 4.53449 7.5 5.17037 7.5 5.83341H12.5C12.5 5.17037 12.2366 4.53449 11.7678 4.06565C11.2989 3.59681 10.663 3.33341 10 3.33341ZM15.8333 5.83341C16.2754 5.83341 16.6993 6.00901 17.0118 6.32157C17.3244 6.63413 17.5 7.05805 17.5 7.50008V17.5001C17.5 17.9421 17.3244 18.366 17.0118 18.6786C16.6993 18.9912 16.2754 19.1667 15.8333 19.1667H4.16667C3.24167 19.1667 2.5 18.4167 2.5 17.5001V7.50008C2.5 6.57508 3.24167 5.83341 4.16667 5.83341H5.83333C5.83333 4.72835 6.27232 3.66854 7.05372 2.88714C7.83512 2.10573 8.89493 1.66675 10 1.66675C10.5472 1.66675 11.089 1.77452 11.5945 1.98392C12.1 2.19331 12.5594 2.50023 12.9463 2.88714C13.3332 3.27405 13.6401 3.73338 13.8495 4.2389C14.0589 4.74442 14.1667 5.28624 14.1667 5.83341H15.8333ZM7.5 16.6667L13.75 12.5001L7.5 9.16675V16.6667Z" fill="currentColor"/>
</svg>
