<svg width="20" height="20" viewBox="0 0 20 20" fill="none" xmlns="http://www.w3.org/2000/svg">
<path d="M10 10.8333C8.89493 10.8333 7.83512 10.3943 7.05372 9.61286C6.27232 8.83146 5.83333 7.77165 5.83333 6.66659H7.5C7.5 7.32963 7.76339 7.96551 8.23223 8.43435C8.70107 8.90319 9.33696 9.16659 10 9.16659C10.663 9.16659 11.2989 8.90319 11.7678 8.43435C12.2366 7.96551 12.5 7.32963 12.5 6.66659H14.1667C14.1667 7.77165 13.7277 8.83146 12.9463 9.61286C12.1649 10.3943 11.1051 10.8333 10 10.8333V10.8333ZM10 2.49992C10.663 2.49992 11.2989 2.76331 11.7678 3.23215C12.2366 3.70099 12.5 4.33688 12.5 4.99992H7.5C7.5 4.33688 7.76339 3.70099 8.23223 3.23215C8.70107 2.76331 9.33696 2.49992 10 2.49992V2.49992ZM15.8333 4.99992H14.1667C14.1667 4.45274 14.0589 3.91093 13.8495 3.4054C13.6401 2.89988 13.3332 2.44055 12.9463 2.05364C12.5594 1.66673 12.1 1.35982 11.5945 1.15042C11.089 0.941026 10.5472 0.833252 10 0.833252C8.89493 0.833252 7.83512 1.27224 7.05372 2.05364C6.27232 2.83504 5.83333 3.89485 5.83333 4.99992H4.16667C3.24167 4.99992 2.5 5.74159 2.5 6.66659V16.6666C2.5 17.1086 2.67559 17.5325 2.98816 17.8451C3.30072 18.1577 3.72464 18.3333 4.16667 18.3333H15.8333C16.2754 18.3333 16.6993 18.1577 17.0118 17.8451C17.3244 17.5325 17.5 17.1086 17.5 16.6666V6.66659C17.5 5.74159 16.75 4.99992 15.8333 4.99992Z" fill="currentColor"/>
</svg>
