<svg width="20" height="20" viewBox="0 0 20 20" fill="none" xmlns="http://www.w3.org/2000/svg">
<path d="M10.0001 1.66675C11.0944 1.66675 12.1781 1.8823 13.1891 2.30109C14.2002 2.71987 15.1188 3.3337 15.8926 4.10752C16.6665 4.88135 17.2803 5.80001 17.6991 6.81105C18.1179 7.8221 18.3334 8.90573 18.3334 10.0001C18.3334 12.2102 17.4554 14.3298 15.8926 15.8926C14.3298 17.4554 12.2102 18.3334 10.0001 18.3334C8.90573 18.3334 7.8221 18.1179 6.81105 17.6991C5.80001 17.2803 4.88135 16.6665 4.10752 15.8926C2.54472 14.3298 1.66675 12.2102 1.66675 10.0001C1.66675 7.78994 2.54472 5.67033 4.10752 4.10752C5.67033 2.54472 7.78994 1.66675 10.0001 1.66675V1.66675ZM10.0001 3.33341C6.32508 3.33341 3.33341 6.32508 3.33341 10.0001C3.33341 13.6751 6.32508 16.6667 10.0001 16.6667C13.6751 16.6667 16.6667 13.6751 16.6667 10.0001C16.6667 6.32508 13.6751 3.33341 10.0001 3.33341ZM13.3334 6.66675V13.3334L9.16675 10.0001L13.3334 6.66675ZM8.33341 6.66675V13.3334H6.66675V6.66675" fill="currentColor"/>
</svg>
