<svg width="20" height="20" viewBox="0 0 20 20" fill="none" xmlns="http://www.w3.org/2000/svg">
<path d="M10 1.66675C8.01088 1.66675 6.10322 2.45692 4.6967 3.86345C3.29018 5.26997 2.5 7.17762 2.5 9.16675C2.5 11.6917 3.775 14.0167 5.83333 15.3917V18.3334H7.5V15.8334H9.16667V18.3334H10.8333V15.8334H12.5V18.3334H14.1667V15.3834C16.225 14.0084 17.5 11.6667 17.5 9.16675C17.5 7.17762 16.7098 5.26997 15.3033 3.86345C13.8968 2.45692 11.9891 1.66675 10 1.66675V1.66675ZM6.66667 9.16675C7.10869 9.16675 7.53262 9.34234 7.84518 9.6549C8.15774 9.96746 8.33333 10.3914 8.33333 10.8334C8.33333 11.2754 8.15774 11.6994 7.84518 12.0119C7.53262 12.3245 7.10869 12.5001 6.66667 12.5001C6.22464 12.5001 5.80072 12.3245 5.48816 12.0119C5.17559 11.6994 5 11.2754 5 10.8334C5 10.3914 5.17559 9.96746 5.48816 9.6549C5.80072 9.34234 6.22464 9.16675 6.66667 9.16675V9.16675ZM13.3333 9.16675C13.7754 9.16675 14.1993 9.34234 14.5118 9.6549C14.8244 9.96746 15 10.3914 15 10.8334C15 11.2754 14.8244 11.6994 14.5118 12.0119C14.1993 12.3245 13.7754 12.5001 13.3333 12.5001C12.8913 12.5001 12.4674 12.3245 12.1548 12.0119C11.8423 11.6994 11.6667 11.2754 11.6667 10.8334C11.6667 10.3914 11.8423 9.96746 12.1548 9.6549C12.4674 9.34234 12.8913 9.16675 13.3333 9.16675V9.16675ZM10 11.6667L11.25 14.1667H8.75L10 11.6667Z" fill="currentColor"/>
</svg>
