<svg width="20" height="20" viewBox="0 0 20 20" fill="none" xmlns="http://www.w3.org/2000/svg">
<path d="M7.78333 4.37508L10.4917 1.66675L13.2 4.37508H7.78333ZM13.2 16.0417L10.4917 18.7501L7.78333 16.0417H13.2ZM7.48333 12.1251H5.075L4.475 14.3751H2.5L5.075 6.04175H7.575L10.1833 14.3751H8.13333L7.48333 12.1251ZM5.35 10.7751H7.20833L6.68333 9.00842L6.46667 8.20008L6.25833 7.40008H6.23333L6.05 8.20842L5.85 9.02508L5.35 10.7751ZM10.95 14.3751V13.3251L14.9083 7.68342V7.63341H11.325V6.04175H17.35V7.15842L13.4833 12.7084V12.7751H17.4083V14.3751H10.95Z" fill="currentColor"/>
</svg>
