<svg width="20" height="20" viewBox="0 0 20 20" fill="none" xmlns="http://www.w3.org/2000/svg">
<path d="M4.83329 17.5001L6.16663 11.6667L1.66663 7.66675L7.66663 7.16675L9.99996 1.66675L12.3333 7.16675L18.3333 7.66675L15.6666 10.0001H15C14.4166 10.0001 13.8333 10.0834 13.25 10.3334L15.0833 8.75008L11.4166 8.41675L9.99996 5.08341L8.58329 8.41675L4.91663 8.75008L7.66663 11.1667L6.83329 14.7501L9.99996 12.8334L10.4166 13.0834C10.25 13.5001 10.0833 14.0001 10.0833 14.4167L4.83329 17.5001ZM14.1666 11.6667V14.1667H11.6666V15.8334H14.1666V18.3334H15.8333V15.8334H18.3333V14.1667H15.8333V11.6667H14.1666Z" fill="currentColor"/>
</svg>
