<svg width="20" height="20" viewBox="0 0 20 20" fill="none" xmlns="http://www.w3.org/2000/svg">
<path d="M3.33325 5.00008L6.66659 8.33341V5.83341H13.3333C13.7753 5.83341 14.1992 6.00901 14.5118 6.32157C14.8243 6.63413 14.9999 7.05805 14.9999 7.50008C14.9999 7.94211 14.8243 8.36603 14.5118 8.67859C14.1992 8.99115 13.7753 9.16675 13.3333 9.16675H6.66659C5.78253 9.16675 4.93468 9.51794 4.30956 10.1431C3.68444 10.7682 3.33325 11.616 3.33325 12.5001C3.33325 13.3841 3.68444 14.232 4.30956 14.8571C4.93468 15.4822 5.78253 15.8334 6.66659 15.8334H13.3333V18.3334L16.6666 15.0001L13.3333 11.6667V14.1667H6.66659C6.22456 14.1667 5.80063 13.9912 5.48807 13.6786C5.17551 13.366 4.99992 12.9421 4.99992 12.5001C4.99992 12.0581 5.17551 11.6341 5.48807 11.3216C5.80063 11.009 6.22456 10.8334 6.66659 10.8334H13.3333C14.2173 10.8334 15.0652 10.4822 15.6903 9.8571C16.3154 9.23198 16.6666 8.38414 16.6666 7.50008C16.6666 6.61603 16.3154 5.76818 15.6903 5.14306C15.0652 4.51794 14.2173 4.16675 13.3333 4.16675H6.66659V1.66675L3.33325 5.00008Z" fill="currentColor"/>
</svg>
