<svg width="20" height="20" viewBox="0 0 20 20" fill="none" xmlns="http://www.w3.org/2000/svg">
<path d="M10.0002 15C8.67408 15 7.40231 14.4733 6.46463 13.5356C5.52695 12.5979 5.00016 11.3261 5.00016 10C5.00016 9.16671 5.2085 8.35837 5.5835 7.66671L4.36683 6.45004C3.71683 7.47504 3.3335 8.69171 3.3335 10C3.3335 11.7682 4.03588 13.4638 5.28612 14.7141C6.53636 15.9643 8.23205 16.6667 10.0002 16.6667V19.1667L13.3335 15.8334L10.0002 12.5M10.0002 3.33337V0.833374L6.66683 4.16671L10.0002 7.50004V5.00004C11.3262 5.00004 12.598 5.52683 13.5357 6.46451C14.4734 7.40219 15.0002 8.67396 15.0002 10C15.0002 10.8334 14.7918 11.6417 14.4168 12.3334L15.6335 13.55C16.2835 12.525 16.6668 11.3084 16.6668 10C16.6668 8.23193 15.9645 6.53624 14.7142 5.286C13.464 4.03575 11.7683 3.33337 10.0002 3.33337Z" fill="currentColor"/>
</svg>
