<svg width="20" height="20" viewBox="0 0 20 20" fill="none" xmlns="http://www.w3.org/2000/svg">
<path d="M0.833252 4.19192V15.1894C0.833252 15.6381 1.01151 16.0685 1.3288 16.3858C1.6461 16.7031 2.07645 16.8813 2.52517 16.8813H7.60093V8.42172H17.7524V4.19192C17.7524 3.74319 17.5742 3.31285 17.2569 2.99555C16.9396 2.67826 16.5092 2.5 16.0605 2.5H2.52517C2.07645 2.5 1.6461 2.67826 1.3288 2.99555C1.01151 3.31285 0.833252 3.74319 0.833252 4.19192ZM2.52517 4.19192H5.90901V6.7298H2.52517M5.90901 15.1894H2.52517V12.6515H5.90901M5.90901 10.9596H2.52517V8.42172H5.90901M7.60093 6.7298V4.19192H10.9848V6.7298M16.0605 6.7298H12.6767V4.19192H16.0605M14.3686 12.6515C14.5359 12.6515 14.6995 12.7011 14.8386 12.7941C14.9777 12.887 15.0861 13.0192 15.1502 13.1737C15.2142 13.3283 15.231 13.4984 15.1983 13.6625C15.1657 13.8266 15.0851 13.9773 14.9668 14.0957C14.8485 14.214 14.6977 14.2945 14.5336 14.3272C14.3695 14.3598 14.1995 14.3431 14.0449 14.279C13.8903 14.215 13.7582 14.1066 13.6652 13.9675C13.5723 13.8283 13.5226 13.6648 13.5226 13.4975C13.5226 13.2731 13.6118 13.0579 13.7704 12.8993C13.9291 12.7406 14.1442 12.6515 14.3686 12.6515ZM14.3686 10.1136C15.4555 10.108 16.5192 10.4271 17.4235 11.03C18.3279 11.6329 19.0315 12.4921 19.4444 13.4975C19.0268 14.4996 18.322 15.3556 17.4188 15.9578C16.5155 16.56 15.4542 16.8813 14.3686 16.8813C13.283 16.8813 12.2217 16.56 11.3185 15.9578C10.4152 15.3556 9.71038 14.4996 9.29285 13.4975C9.70567 12.4921 10.4093 11.6329 11.3137 11.03C12.218 10.4271 13.2818 10.108 14.3686 10.1136ZM14.3686 11.3826C13.9503 11.3826 13.5414 11.5066 13.1936 11.739C12.8458 11.9714 12.5748 12.3017 12.4147 12.6881C12.2546 13.0746 12.2127 13.4998 12.2943 13.9101C12.3759 14.3203 12.5774 14.6972 12.8731 14.9929C13.1689 15.2887 13.5458 15.4901 13.956 15.5717C14.3663 15.6533 14.7915 15.6115 15.1779 15.4514C15.5644 15.2913 15.8947 15.0202 16.1271 14.6724C16.3595 14.3247 16.4835 13.9158 16.4835 13.4975C16.4835 12.9366 16.2607 12.3986 15.8641 12.002C15.4674 11.6054 14.9295 11.3826 14.3686 11.3826Z" fill="currentColor"/>
</svg>
