<svg width="20" height="20" viewBox="0 0 20 20" fill="none" xmlns="http://www.w3.org/2000/svg">
<path d="M14.1667 17.4999L15.6667 18.9749C16.0834 19.3916 16.6667 19.0583 16.6667 18.5666V14.9999L19.0001 12.1666C19.4167 11.5833 19.0001 10.8333 18.3334 10.8333H12.5001C11.8334 10.8333 11.4167 11.6666 11.8334 12.1666L14.1667 14.9999V17.4999ZM10.0001 9.16659H16.6667V2.49992C16.6667 1.58325 15.9251 0.833252 15.0001 0.833252H3.33341C2.41675 0.833252 1.66675 1.58325 1.66675 2.49992V12.4999C1.66675 13.4249 2.41675 14.1666 3.33341 14.1666H11.1834L10.0001 12.4999V9.16659ZM10.0001 4.16659H15.0001V7.49992H10.0001V4.16659ZM8.33341 12.4999H3.33341V9.16659H8.33341V12.4999ZM8.33341 7.49992H3.33341V4.16659H8.33341V7.49992Z" fill="currentColor"/>
</svg>
