<svg width="20" height="20" viewBox="0 0 20 20" fill="none" xmlns="http://www.w3.org/2000/svg">
<path d="M4.16667 3.33325H15.8333C16.2754 3.33325 16.6993 3.50885 17.0118 3.82141C17.3244 4.13397 17.5 4.55789 17.5 4.99992V14.9999C17.5 15.4419 17.3244 15.8659 17.0118 16.1784C16.6993 16.491 16.2754 16.6666 15.8333 16.6666H4.16667C3.72464 16.6666 3.30072 16.491 2.98816 16.1784C2.67559 15.8659 2.5 15.4419 2.5 14.9999V4.99992C2.5 4.55789 2.67559 4.13397 2.98816 3.82141C3.30072 3.50885 3.72464 3.33325 4.16667 3.33325ZM4.16667 6.66659V9.99992H9.16667V6.66659H4.16667ZM10.8333 6.66659V9.99992H15.8333V6.66659H10.8333ZM4.16667 11.6666V14.9999H9.16667V11.6666H4.16667ZM10.8333 11.6666V14.9999H15.8333V11.6666H10.8333Z" fill="currentColor"/>
</svg>
