<svg width="20" height="20" viewBox="0 0 20 20" fill="none" xmlns="http://www.w3.org/2000/svg">
<path d="M2.49992 2.5H14.1666C15.0916 2.5 15.8333 3.25 15.8333 4.16667V10.0667C14.5416 9.85 13.2666 10.15 12.2333 10.8333H9.16659V14.1667H10.0666C9.97492 14.7333 9.97492 15.2917 10.0666 15.8333H2.49992C1.58325 15.8333 0.833252 15.0917 0.833252 14.1667V4.16667C0.833252 3.25 1.58325 2.5 2.49992 2.5ZM2.49992 5.83333V9.16667H7.49992V5.83333H2.49992ZM9.16659 5.83333V9.16667H14.1666V5.83333H9.16659ZM2.49992 10.8333V14.1667H7.49992V10.8333H2.49992ZM18.9833 16.1L18.0916 15.4167C18.1083 15.275 18.1249 15.1417 18.1249 15C18.1249 14.8583 18.1166 14.725 18.0916 14.5833L18.9749 13.9C19.0499 13.8333 19.0749 13.725 19.0249 13.6333L18.1916 12.1917C18.1416 12.0833 18.0333 12.0833 17.9166 12.0833L16.8999 12.5C16.6666 12.35 16.4499 12.2083 16.1916 12.1083L16.0333 11.0083C16.0249 10.9083 15.9333 10.8333 15.8333 10.8333H14.1666C14.0666 10.8333 13.9749 10.9083 13.9583 11.0083L13.7999 12.1083C13.5499 12.2167 13.3083 12.35 13.0916 12.5L12.0583 12.0833C11.9666 12.0833 11.8583 12.0833 11.7999 12.1917L10.9666 13.6333C10.9166 13.725 10.9333 13.8333 11.0166 13.9L11.8999 14.5833C11.8833 14.725 11.8749 14.8583 11.8749 15C11.8749 15.1417 11.8833 15.275 11.8999 15.4167L11.0166 16.1C10.9416 16.1667 10.9166 16.275 10.9666 16.3667L11.7999 17.8083C11.8499 17.9167 11.9583 17.9167 12.0583 17.9167L13.0916 17.5C13.3083 17.65 13.5416 17.7917 13.7999 17.8917L13.9583 18.9917C13.9749 19.0917 14.0583 19.1667 14.1666 19.1667H15.8333C15.9333 19.1667 16.0249 19.0917 16.0416 18.9917L16.1999 17.8917C16.4499 17.7833 16.6666 17.65 16.8999 17.5L17.9166 17.9167C18.0333 17.9167 18.1416 17.9167 18.1999 17.8083L19.0333 16.3667C19.0833 16.275 19.0583 16.1667 18.9833 16.1ZM14.9999 16.25C14.3083 16.25 13.7499 15.6917 13.7499 15C13.7499 14.3083 14.3166 13.75 14.9999 13.75C15.6833 13.75 16.2499 14.3083 16.2499 15C16.2499 15.6917 15.6999 16.25 14.9999 16.25Z" fill="currentColor"/>
</svg>
