<svg width="20" height="20" viewBox="0 0 20 20" fill="none" xmlns="http://www.w3.org/2000/svg">
<path d="M12.5 15C9.73333 15 7.5 12.7583 7.5 10C7.5 7.23333 9.73333 5 12.5 5C13.8261 5 15.0979 5.52678 16.0355 6.46447C16.9732 7.40215 17.5 8.67392 17.5 10C17.5 11.3261 16.9732 12.5979 16.0355 13.5355C15.0979 14.4732 13.8261 15 12.5 15ZM3.33333 10.8333C3.11232 10.8333 2.90036 10.7455 2.74408 10.5893C2.5878 10.433 2.5 10.221 2.5 10C2.5 9.77899 2.5878 9.56702 2.74408 9.41074C2.90036 9.25446 3.11232 9.16667 3.33333 9.16667C3.55435 9.16667 3.76631 9.25446 3.92259 9.41074C4.07887 9.56702 4.16667 9.77899 4.16667 10C4.16667 10.221 4.07887 10.433 3.92259 10.5893C3.76631 10.7455 3.55435 10.8333 3.33333 10.8333ZM18.3333 2.5H6.35833C5.80833 2.5 5.31667 2.76667 5 3.175L0 10L5 16.8167C5.31667 17.2333 5.80833 17.5 6.35833 17.5H18.3333C18.7754 17.5 19.1993 17.3244 19.5118 17.0118C19.8244 16.6993 20 16.2754 20 15.8333V4.16667C20 3.24167 19.25 2.5 18.3333 2.5ZM10.8333 9.16667C11.0543 9.16667 11.2663 9.07887 11.4226 8.92259C11.5789 8.76631 11.6667 8.55435 11.6667 8.33333C11.6667 8.11232 11.5789 7.90036 11.4226 7.74408C11.2663 7.5878 11.0543 7.5 10.8333 7.5C10.6123 7.5 10.4004 7.5878 10.2441 7.74408C10.0878 7.90036 10 8.11232 10 8.33333C10 8.55435 10.0878 8.76631 10.2441 8.92259C10.4004 9.07887 10.6123 9.16667 10.8333 9.16667ZM12.5 13.3333C14.05 13.3333 15.2917 12.2667 15.6667 10.8333H9.33333C9.70833 12.2667 10.95 13.3333 12.5 13.3333ZM14.1667 9.16667C14.3877 9.16667 14.5996 9.07887 14.7559 8.92259C14.9122 8.76631 15 8.55435 15 8.33333C15 8.11232 14.9122 7.90036 14.7559 7.74408C14.5996 7.5878 14.3877 7.5 14.1667 7.5C13.9457 7.5 13.7337 7.5878 13.5774 7.74408C13.4211 7.90036 13.3333 8.11232 13.3333 8.33333C13.3333 8.55435 13.4211 8.76631 13.5774 8.92259C13.7337 9.07887 13.9457 9.16667 14.1667 9.16667Z" fill="currentColor"/>
</svg>
