<svg width="20" height="20" viewBox="0 0 20 20" fill="none" xmlns="http://www.w3.org/2000/svg">
<path d="M17.8415 9.65008L10.3415 2.15008C10.0332 1.84175 9.60817 1.66675 9.1665 1.66675H3.33317C2.89114 1.66675 2.46722 1.84234 2.15466 2.1549C1.8421 2.46746 1.6665 2.89139 1.6665 3.33341V9.16675C1.6665 9.60841 1.8415 10.0334 2.15817 10.3417L2.49984 10.6751C3.24984 10.2251 4.1165 10.0001 4.99984 10.0001C6.32592 10.0001 7.59769 10.5269 8.53537 11.4645C9.47305 12.4022 9.99984 13.674 9.99984 15.0001C9.99984 15.8834 9.7665 16.7417 9.3165 17.5001L9.64984 17.8334C9.95817 18.1501 10.3915 18.3334 10.8332 18.3334C11.2748 18.3334 11.6998 18.1584 12.0082 17.8417L17.8415 12.0084C18.1582 11.7001 18.3332 11.2751 18.3332 10.8334C18.3332 10.3917 18.1582 9.96675 17.8415 9.65008ZM4.58317 5.83341C4.25165 5.83341 3.93371 5.70172 3.69929 5.4673C3.46487 5.23288 3.33317 4.91494 3.33317 4.58341C3.33317 4.25189 3.46487 3.93395 3.69929 3.69953C3.93371 3.46511 4.25165 3.33341 4.58317 3.33341C4.91469 3.33341 5.23263 3.46511 5.46705 3.69953C5.70147 3.93395 5.83317 4.25189 5.83317 4.58341C5.83317 4.91494 5.70147 5.23288 5.46705 5.4673C5.23263 5.70172 4.91469 5.83341 4.58317 5.83341V5.83341ZM8.33317 15.8334H5.83317V18.3334H4.1665V15.8334H1.6665V14.1667H4.1665V11.6667H5.83317V14.1667H8.33317V15.8334Z" fill="currentColor"/>
</svg>
