<svg width="20" height="20" viewBox="0 0 20 20" fill="none" xmlns="http://www.w3.org/2000/svg">
<path d="M4.58317 7.50004C4.91469 7.50004 5.23263 7.36834 5.46705 7.13392C5.70147 6.8995 5.83317 6.58156 5.83317 6.25004C5.83317 5.91852 5.70147 5.60058 5.46705 5.36616C5.23263 5.13174 4.91469 5.00004 4.58317 5.00004C4.25165 5.00004 3.93371 5.13174 3.69929 5.36616C3.46487 5.60058 3.33317 5.91852 3.33317 6.25004C3.33317 6.58156 3.46487 6.8995 3.69929 7.13392C3.93371 7.36834 4.25165 7.50004 4.58317 7.50004ZM14.5082 9.65004C14.8082 9.95004 14.9998 10.3667 14.9998 10.8334C14.9998 11.2917 14.8165 11.7084 14.5082 12.0084L10.3415 16.175C10.0415 16.475 9.62484 16.6667 9.1665 16.6667C8.70817 16.6667 8.2915 16.4834 7.98317 16.175L2.15817 10.35C1.84984 10.0417 1.6665 9.62504 1.6665 9.16671V5.00004C1.6665 4.07504 2.40817 3.33337 3.33317 3.33337H7.49984C7.95817 3.33337 8.37484 3.51671 8.67484 3.81671L14.5082 9.65004ZM11.2832 4.75837L12.1165 3.92504L17.8415 9.65004C18.1498 9.95004 18.3332 10.375 18.3332 10.8334C18.3332 11.2917 18.1498 11.7084 17.8498 12.0084L13.3665 16.4917L12.5332 15.6584L17.2915 10.8334L11.2832 4.75837Z" fill="currentColor"/>
</svg>
