<svg width="20" height="20" viewBox="0 0 20 20" fill="none" xmlns="http://www.w3.org/2000/svg">
<path d="M4.58317 5.83341C4.91469 5.83341 5.23263 5.70172 5.46705 5.4673C5.70147 5.23288 5.83317 4.91494 5.83317 4.58341C5.83317 4.25189 5.70147 3.93395 5.46705 3.69953C5.23263 3.46511 4.91469 3.33341 4.58317 3.33341C4.25165 3.33341 3.93371 3.46511 3.69929 3.69953C3.46487 3.93395 3.33317 4.25189 3.33317 4.58341C3.33317 4.91494 3.46487 5.23288 3.69929 5.4673C3.93371 5.70172 4.25165 5.83341 4.58317 5.83341V5.83341ZM17.8415 9.65008C18.1415 9.95008 18.3332 10.3667 18.3332 10.8334C18.3332 11.2917 18.1498 11.7084 17.8415 12.0084L12.0082 17.8417C11.7082 18.1417 11.2915 18.3334 10.8332 18.3334C10.3748 18.3334 9.95817 18.1417 9.64984 17.8417L2.15817 10.3417C1.84984 10.0417 1.6665 9.62508 1.6665 9.16675V3.33341C1.6665 2.40841 2.40817 1.66675 3.33317 1.66675H9.1665C9.62484 1.66675 10.0415 1.85008 10.3415 2.15008L17.8415 9.65008ZM10.8332 16.6667L16.6665 10.8334L9.58317 3.75008L3.74984 9.58341L10.8332 16.6667ZM8.40817 7.42508L9.58317 6.25008L14.1665 10.8334L12.9915 12.0084L8.40817 7.42508ZM6.32484 9.50841L7.49984 8.33341L10.8332 11.6667L9.65817 12.8417L6.32484 9.50841Z" fill="currentColor"/>
</svg>
