<svg width="20" height="20" viewBox="0 0 20 20" fill="none" xmlns="http://www.w3.org/2000/svg">
<path d="M4.58317 5.83329C4.25165 5.83329 3.93371 5.7016 3.69929 5.46718C3.46487 5.23276 3.33317 4.91481 3.33317 4.58329C3.33317 4.25177 3.46487 3.93383 3.69929 3.69941C3.93371 3.46499 4.25165 3.33329 4.58317 3.33329C4.91469 3.33329 5.23263 3.46499 5.46705 3.69941C5.70147 3.93383 5.83317 4.25177 5.83317 4.58329C5.83317 4.91481 5.70147 5.23276 5.46705 5.46718C5.23263 5.7016 4.91469 5.83329 4.58317 5.83329V5.83329ZM17.8415 9.64996L10.3415 2.14996C10.0415 1.84996 9.62484 1.66663 9.1665 1.66663H3.33317C2.40817 1.66663 1.6665 2.40829 1.6665 3.33329V9.16663C1.6665 9.62496 1.84984 10.0416 2.15817 10.3416L9.64984 17.8416C9.95817 18.1416 10.3748 18.3333 10.8332 18.3333C11.2915 18.3333 11.7082 18.1416 12.0082 17.8416L17.8415 12.0083C18.1498 11.7083 18.3332 11.2916 18.3332 10.8333C18.3332 10.3666 18.1415 9.94996 17.8415 9.64996Z" fill="currentColor"/>
</svg>
