<svg width="20" height="20" viewBox="0 0 20 20" fill="none" xmlns="http://www.w3.org/2000/svg">
<path d="M6.24996 1.66676C4.75829 2.6251 3.74996 4.31676 3.74996 6.2501C3.74996 8.18343 4.75829 9.8751 6.27496 10.8334C3.71663 10.8334 1.66663 8.78343 1.66663 6.2501C1.66663 5.03452 2.14951 3.86873 3.00905 3.00919C3.8686 2.14965 5.03438 1.66676 6.24996 1.66676ZM15.8916 2.91676L17.0833 4.10843L4.10829 17.0834L2.91663 15.8918L15.8916 2.91676ZM10.7416 4.94176L9.50829 4.16676L8.30829 5.0001L8.65829 3.58343L7.49996 2.7001L8.95829 2.6001L9.44163 1.2251L9.99996 2.58343L11.4416 2.60843L10.3166 3.5501L10.7416 4.94176ZM7.99163 7.9501L7.02496 7.34176L6.09163 7.99176L6.37496 6.89176L5.46663 6.2001L6.59996 6.1251L6.97496 5.0501L7.39996 6.10843L8.53329 6.13343L7.65829 6.85843L7.99163 7.9501ZM15.8333 11.2501C15.8333 12.4657 15.3504 13.6315 14.4909 14.491C13.6313 15.3505 12.4655 15.8334 11.25 15.8334C10.2333 15.8334 9.29163 15.5001 8.53329 14.9418L14.9416 8.53343C15.5 9.29176 15.8333 10.2334 15.8333 11.2501ZM12.1666 16.7334L14.475 15.7751L14.275 18.5668L12.1666 16.7334ZM15.775 14.4834L16.7333 12.1751L18.5666 14.2918L15.775 14.4834ZM16.7333 10.3501L15.7833 8.03343L18.5666 8.23343L16.7333 10.3501ZM8.02496 15.7751L10.3333 16.7334L8.22496 18.5584L8.02496 15.7751Z" fill="currentColor"/>
</svg>
