<svg width="20" height="20" viewBox="0 0 20 20" fill="none" xmlns="http://www.w3.org/2000/svg">
<path d="M4.16671 8.33341V18.3334H0.833374V8.33341H4.16671ZM7.50004 18.3334C7.05801 18.3334 6.63409 18.1578 6.32153 17.8453C6.00897 17.5327 5.83337 17.1088 5.83337 16.6667V8.33341C5.83337 7.87508 6.01671 7.45841 6.32504 7.15841L11.8084 1.66675L12.6917 2.55008C12.9167 2.77508 13.0584 3.08341 13.0584 3.42508L13.0334 3.69175L12.2417 7.50008H17.5C18.425 7.50008 19.1667 8.25008 19.1667 9.16675V10.8334C19.1667 11.0501 19.125 11.2501 19.05 11.4417L16.5334 17.3167C16.2834 17.9167 15.6917 18.3334 15 18.3334H7.50004ZM7.50004 16.6667H15.025L17.5 10.8334V9.16675H10.175L11.1167 4.73341L7.50004 8.35841V16.6667Z" fill="currentColor"/>
</svg>
