<svg width="20" height="20" viewBox="0 0 20 20" fill="none" xmlns="http://www.w3.org/2000/svg">
<path d="M10 5C10 4.54167 9.625 4.16667 9.16667 4.16667H4.85L5.4 1.51667L5.41667 1.325C5.41667 1.06667 5.30833 0.833333 5.14167 0.658333L4.48333 0L0.366667 4.11667C0.141667 4.34167 0 4.65833 0 5V10.4167C0 11.1083 0.558333 11.6667 1.25 11.6667H6.875C7.39167 11.6667 7.83333 11.35 8.025 10.9083L9.90833 6.5C9.96667 6.35833 10 6.2 10 6.04167V5V5ZM18.75 8.33333H13.125C12.6083 8.33333 12.1667 8.65 11.975 9.09167L10.0917 13.5C10.0333 13.6417 10 13.8 10 13.9583V15C10 15.4583 10.375 15.8333 10.8333 15.8333H15.15L14.6 18.4833L14.5833 18.6833C14.5833 18.9417 14.6917 19.175 14.8583 19.35L15.5167 20L19.6333 15.8833C19.8583 15.6583 20 15.3417 20 15V9.58333C20 8.89167 19.4417 8.33333 18.75 8.33333Z" fill="currentColor"/>
</svg>
