<svg width="20" height="20" viewBox="0 0 20 20" fill="none" xmlns="http://www.w3.org/2000/svg">
<path d="M15.8334 11.6667H19.1667V1.66675H15.8334V11.6667ZM12.5 1.66675H5.00004C4.30837 1.66675 3.71671 2.08341 3.46671 2.68341L0.950041 8.55841C0.875041 8.75008 0.833374 8.95008 0.833374 9.16675V10.8334C0.833374 11.2754 1.00897 11.6994 1.32153 12.0119C1.63409 12.3245 2.05801 12.5001 2.50004 12.5001H7.75837L6.96671 16.3084C6.95004 16.3917 6.94171 16.4751 6.94171 16.5667C6.94171 16.9167 7.08337 17.2251 7.30837 17.4501L8.19171 18.3334L13.675 12.8417C13.9834 12.5417 14.1667 12.1251 14.1667 11.6667V3.33341C14.1667 2.40841 13.4167 1.66675 12.5 1.66675Z" fill="currentColor"/>
</svg>
