<svg width="20" height="20" viewBox="0 0 20 20" fill="none" xmlns="http://www.w3.org/2000/svg">
<path d="M10.8333 7.08325H9.16663V5.41659H10.8333V7.08325ZM10.8333 10.8333H9.16663V9.16659H10.8333V10.8333ZM10.8333 14.5833H9.16663V12.9166H10.8333V14.5833ZM18.3333 8.33325V4.99992C18.3333 4.07492 17.5833 3.33325 16.6666 3.33325H3.33329C2.89127 3.33325 2.46734 3.50885 2.15478 3.82141C1.84222 4.13397 1.66663 4.55789 1.66663 4.99992V8.33325C2.59163 8.33325 3.33329 9.08325 3.33329 9.99992C3.33329 10.4419 3.1577 10.8659 2.84514 11.1784C2.53258 11.491 2.10865 11.6666 1.66663 11.6666V14.9999C1.66663 15.4419 1.84222 15.8659 2.15478 16.1784C2.46734 16.491 2.89127 16.6666 3.33329 16.6666H16.6666C17.1087 16.6666 17.5326 16.491 17.8451 16.1784C18.1577 15.8659 18.3333 15.4419 18.3333 14.9999V11.6666C17.8913 11.6666 17.4673 11.491 17.1548 11.1784C16.8422 10.8659 16.6666 10.4419 16.6666 9.99992C16.6666 9.55789 16.8422 9.13397 17.1548 8.82141C17.4673 8.50885 17.8913 8.33325 18.3333 8.33325V8.33325Z" fill="currentColor"/>
</svg>
