<svg width="20" height="20" viewBox="0 0 20 20" fill="none" xmlns="http://www.w3.org/2000/svg">
<path d="M16.6665 1.66675H3.33317C2.89114 1.66675 2.46722 1.84234 2.15466 2.1549C1.8421 2.46746 1.6665 2.89139 1.6665 3.33341V13.3334C1.6665 13.7754 1.8421 14.1994 2.15466 14.5119C2.46722 14.8245 2.89114 15.0001 3.33317 15.0001H6.6665L9.99984 18.3334L13.3332 15.0001H16.6665C17.1085 15.0001 17.5325 14.8245 17.845 14.5119C18.1576 14.1994 18.3332 13.7754 18.3332 13.3334V3.33341C18.3332 2.89139 18.1576 2.46746 17.845 2.1549C17.5325 1.84234 17.1085 1.66675 16.6665 1.66675ZM9.99984 3.58341C11.2498 3.58341 12.2498 4.58341 12.2498 5.83341C12.2498 7.08341 11.2498 8.08341 9.99984 8.08341C8.74984 8.08341 7.74984 7.08341 7.74984 5.83341C7.74984 4.58341 8.74984 3.58341 9.99984 3.58341ZM14.9998 12.5001H4.99984V11.7501C4.99984 10.0834 8.33317 9.16675 9.99984 9.16675C11.6665 9.16675 14.9998 10.0834 14.9998 11.7501V12.5001Z" fill="currentColor"/>
</svg>
