<svg width="20" height="20" viewBox="0 0 20 20" fill="none" xmlns="http://www.w3.org/2000/svg">
<path d="M1.66675 16.6666H18.3334V5.83325C18.3334 5.16659 18.0667 4.53325 17.6001 4.06659C17.1334 3.59992 16.5001 3.33325 15.8334 3.33325H4.16675C3.50008 3.33325 2.86675 3.59992 2.40008 4.06659C1.93341 4.53325 1.66675 5.16659 1.66675 5.83325V16.6666ZM16.6667 9.16659H12.5001V7.49992H7.50008V9.16659H3.33341V5.83325C3.33341 5.61659 3.42508 5.41659 3.57508 5.24159C3.75008 5.09159 3.95008 4.99992 4.16675 4.99992H15.8334C16.0584 4.99992 16.2501 5.09159 16.4251 5.24159C16.5834 5.41659 16.6667 5.61659 16.6667 5.83325V9.16659ZM12.5001 10.8333H16.6667V14.9999H3.33341V10.8333H7.50008L9.16675 12.4999H10.8334L12.5001 10.8333ZM9.16675 9.16659H10.8334V10.8333H9.16675V9.16659Z" fill="currentColor"/>
</svg>
