<svg width="20" height="20" viewBox="0 0 20 20" fill="none" xmlns="http://www.w3.org/2000/svg">
<path d="M13.1938 17.5H6.52712C6.30611 17.5 6.09415 17.4122 5.93787 17.2559C5.78159 17.0996 5.69379 16.8877 5.69379 16.6667V10.0583L4.61046 10.9333C4.28546 11.25 3.76046 11.25 3.43546 10.9333L1.07712 8.575C0.752124 8.25 0.752124 7.725 1.07712 7.4L5.97712 2.5H7.36046C7.36046 3.41667 8.47712 4.16667 9.86046 4.16667C11.2438 4.16667 12.3605 3.41667 12.3605 2.5H13.7438L18.6438 7.4C18.9688 7.725 18.9688 8.25 18.6438 8.575L16.2855 10.9333C15.9605 11.25 15.4355 11.25 15.1105 10.9333L14.0271 10.0583V16.6667C14.0271 16.8877 13.9393 17.0996 13.783 17.2559C13.6268 17.4122 13.4148 17.5 13.1938 17.5ZM16.8771 7.98333L13.2855 4.4C13.0271 4.69167 12.7188 4.95 12.3605 5.16667C11.6605 5.58333 10.8021 5.83333 9.86046 5.83333C8.44379 5.83333 7.18546 5.26667 6.43546 4.4L2.84379 7.98333L4.02712 9.16667L6.52712 7.5H7.36046V15.8333H12.3605V7.5H13.1938L15.6938 9.16667L16.8771 7.98333Z" fill="currentColor"/>
</svg>
