<svg width="20" height="20" viewBox="0 0 20 20" fill="none" xmlns="http://www.w3.org/2000/svg">
<path d="M19.1 4.16667C18.4583 4.45833 17.7666 4.65 17.05 4.74167C17.7833 4.3 18.35 3.6 18.6166 2.75833C17.925 3.175 17.1583 3.46667 16.35 3.63333C15.6916 2.91667 14.7666 2.5 13.7166 2.5C11.7583 2.5 10.1583 4.1 10.1583 6.075C10.1583 6.35833 10.1916 6.63333 10.25 6.89167C7.28329 6.74167 4.64163 5.31667 2.88329 3.15833C2.57496 3.68333 2.39996 4.3 2.39996 4.95C2.39996 6.19167 3.02496 7.29167 3.99163 7.91667C3.39996 7.91667 2.84996 7.75 2.36663 7.5C2.36663 7.5 2.36663 7.5 2.36663 7.525C2.36663 9.25833 3.59996 10.7083 5.23329 11.0333C4.93329 11.1167 4.61663 11.1583 4.29163 11.1583C4.06663 11.1583 3.84163 11.1333 3.62496 11.0917C4.07496 12.5 5.38329 13.55 6.95829 13.575C5.74163 14.5417 4.19996 15.1083 2.51663 15.1083C2.23329 15.1083 1.94996 15.0917 1.66663 15.0583C3.24996 16.075 5.13329 16.6667 7.14996 16.6667C13.7166 16.6667 17.325 11.2167 17.325 6.49167C17.325 6.33333 17.325 6.18333 17.3166 6.025C18.0166 5.525 18.6166 4.89167 19.1 4.16667Z" fill="currentColor"/>
</svg>
