<svg width="20" height="20" viewBox="0 0 20 20" fill="none" xmlns="http://www.w3.org/2000/svg">
<path d="M1.66669 1.66675H6.66669V3.33341H13.3334V1.66675H18.3334V6.66675H16.6667V13.3334H18.3334V18.3334H13.3334V16.6667H6.66669V18.3334H1.66669V13.3334H3.33335V6.66675H1.66669V1.66675ZM13.3334 6.66675V5.00008H6.66669V6.66675H5.00002V13.3334H6.66669V15.0001H13.3334V13.3334H15V6.66675H13.3334ZM3.33335 3.33341V5.00008H5.00002V3.33341H3.33335ZM15 3.33341V5.00008H16.6667V3.33341H15ZM3.33335 15.0001V16.6667H5.00002V15.0001H3.33335ZM15 15.0001V16.6667H16.6667V15.0001H15Z" fill="currentColor"/>
</svg>
