<svg width="20" height="20" viewBox="0 0 20 20" fill="none" xmlns="http://www.w3.org/2000/svg">
<path d="M17.9167 7.5H16.225C15.1667 4.50833 12.3417 2.5 9.16669 2.5C7.17756 2.5 5.26991 3.29018 3.86339 4.6967C2.45686 6.10322 1.66669 8.01088 1.66669 10C1.66669 14.1667 5.02502 17.5 9.16669 17.5C12.3417 17.5 15.1667 15.5 16.25 12.5H17.9167V7.5ZM16.25 9.16667V10.8333H14.5834V9.16667H16.25ZM14.4334 12.5C13.4667 14.5333 11.4167 15.8333 9.16669 15.8333C5.95002 15.8333 3.33335 13.225 3.33335 10C3.33335 6.78333 5.95002 4.16667 9.16669 4.16667C11.4167 4.16667 13.4667 5.475 14.425 7.5H12.9167V12.5" fill="currentColor"/>
</svg>
