<svg width="20" height="20" viewBox="0 0 20 20" fill="none" xmlns="http://www.w3.org/2000/svg">
<path d="M16.6666 19.1666C17.5916 19.1666 18.3333 18.425 18.3333 17.5V15.8333H16.6666V17.5H15V19.1666H16.6666ZM13.3333 19.1666V17.5H10.8333V19.1666H13.3333ZM9.16665 19.1666V17.5H7.49998V15.8333H5.83331V17.5C5.83331 18.425 6.57498 19.1666 7.49998 19.1666H9.16665ZM18.3333 14.1666V11.6666H16.6666V14.1666H18.3333ZM7.49998 14.1666C7.49998 14.1666 7.49998 10.275 7.49998 8.33329C9.44165 8.33329 13.3333 8.33329 13.3333 8.33329C13.3333 8.33329 13.3333 4.99996 13.3333 3.33329C13.3333 2.40829 12.5916 1.66663 11.6666 1.66663H2.49998C1.57498 1.66663 0.833313 2.40829 0.833313 3.33329V12.5C0.833313 13.425 1.57498 14.1666 2.49998 14.1666C4.16665 14.1666 7.49998 14.1666 7.49998 14.1666ZM5.83331 12.5H2.49998V3.33329H11.6666V6.66663H7.49998C6.57498 6.66663 5.83331 7.40829 5.83331 8.33329V12.5ZM18.3333 9.99996V8.33329C18.3333 7.40829 17.5916 6.66663 16.6666 6.66663H15V8.33329H16.6666V9.99996H18.3333Z" fill="currentColor"/>
</svg>
