<svg width="20" height="20" viewBox="0 0 20 20" fill="none" xmlns="http://www.w3.org/2000/svg">
<path d="M1.66669 1.66675V6.66675H3.56669L4.64169 13.3334H3.33335V18.3334H8.33335V16.7167L12.5 16.7084V18.3334H17.5V13.3334H15.975L16.6667 7.50008H18.3334V2.50008H13.3334V5.44175L12.3334 6.66675H7.99169L6.66669 4.85008V1.66675H1.66669ZM3.33335 3.33341H5.00002V5.00008H3.33335V3.33341ZM15 4.16675H16.6667V5.83341H15V4.16675ZM5.25835 6.66675H5.92502L7.50002 8.82508V11.6667H12.5V9.09175L13.8084 7.50008H15L14.3 13.3334H12.5V15.0501H8.33335V13.3334H6.33335L5.25835 6.66675ZM9.16669 8.33341H10.8334V10.0001H9.16669V8.33341ZM5.00002 15.0001H6.66669V16.6667H5.00002V15.0001ZM14.1667 15.0001H15.8334V16.6667H14.1667" fill="currentColor"/>
</svg>
