<svg width="20" height="20" viewBox="0 0 20 20" fill="none" xmlns="http://www.w3.org/2000/svg">
<path d="M14.5833 1.66675C14.9148 1.66675 15.2328 1.79844 15.4672 2.03286C15.7016 2.26729 15.8333 2.58523 15.8333 2.91675C15.8333 3.24827 15.7016 3.56621 15.4672 3.80063C15.2328 4.03505 14.9148 4.16675 14.5833 4.16675C14.3916 4.16675 14.2083 4.12508 14.0416 4.04175L10.9666 7.12508L11.25 7.50008C13.075 6.45008 15.2166 5.83341 17.5 5.83341L18.3333 5.85841V7.53341L17.5 7.50008C15.35 7.50008 13.3333 8.12508 11.6666 9.20008C11.6666 9.63344 11.5813 10.0626 11.4154 10.4629C11.2496 10.8633 11.0065 11.2271 10.7001 11.5335C10.3937 11.84 10.0299 12.083 9.6295 12.2489C9.22913 12.4147 8.80001 12.5001 8.36665 12.5001C7.29165 14.1667 6.66665 16.1834 6.66665 18.3334L6.69998 19.1667H5.02498L4.99998 18.3334C4.99998 16.0501 5.61665 13.9084 6.66665 12.0834L6.29165 11.8001L3.20831 14.8751C3.29165 15.0417 3.33331 15.2251 3.33331 15.4167C3.33331 15.7483 3.20162 16.0662 2.9672 16.3006C2.73278 16.5351 2.41483 16.6667 2.08331 16.6667C1.75179 16.6667 1.43385 16.5351 1.19943 16.3006C0.965009 16.0662 0.833313 15.7483 0.833313 15.4167C0.833313 15.0852 0.965009 14.7673 1.19943 14.5329C1.43385 14.2984 1.75179 14.1667 2.08331 14.1667C2.27498 14.1667 2.45831 14.2084 2.62498 14.2917L5.69998 11.2084C5.25831 10.6501 4.99998 9.93341 4.99998 9.16675C4.99998 8.28269 5.35117 7.43485 5.97629 6.80973C6.60141 6.1846 7.44926 5.83341 8.33331 5.83341C9.09998 5.83341 9.81665 6.09175 10.375 6.53341L13.4583 3.45841C13.375 3.29175 13.3333 3.10841 13.3333 2.91675C13.3333 2.58523 13.465 2.26729 13.6994 2.03286C13.9339 1.79844 14.2518 1.66675 14.5833 1.66675V1.66675ZM8.33331 7.50008C7.89129 7.50008 7.46736 7.67568 7.1548 7.98824C6.84224 8.3008 6.66665 8.72472 6.66665 9.16675C6.66665 9.60878 6.84224 10.0327 7.1548 10.3453C7.46736 10.6578 7.89129 10.8334 8.33331 10.8334C8.77534 10.8334 9.19926 10.6578 9.51182 10.3453C9.82438 10.0327 9.99998 9.60878 9.99998 9.16675C9.99998 8.72472 9.82438 8.3008 9.51182 7.98824C9.19926 7.67568 8.77534 7.50008 8.33331 7.50008Z" fill="currentColor"/>
</svg>
