<svg width="20" height="20" viewBox="0 0 20 20" fill="none" xmlns="http://www.w3.org/2000/svg">
<path d="M16.6666 19.1666C17.5916 19.1666 18.3333 18.425 18.3333 17.5V8.33329C18.3333 7.40829 17.5916 6.66663 16.6666 6.66663C13.6083 6.66663 10.5583 6.66663 7.49998 6.66663C6.57498 6.66663 5.83331 7.40829 5.83331 8.33329C5.83331 11.3916 5.83331 14.4416 5.83331 17.5C5.83331 18.425 6.57498 19.1666 7.49998 19.1666H16.6666ZM16.6666 17.5H7.49998V8.33329H16.6666V17.5ZM4.16665 14.1666V12.5H2.49998V3.33329H11.6666V4.99996H13.3333V3.33329C13.3333 2.40829 12.5916 1.66663 11.6666 1.66663H2.49998C1.57498 1.66663 0.833313 2.40829 0.833313 3.33329V12.5C0.833313 13.425 1.57498 14.1666 2.49998 14.1666H4.16665Z" fill="currentColor"/>
</svg>
