<svg width="20" height="20" viewBox="0 0 20 20" fill="none" xmlns="http://www.w3.org/2000/svg">
<path d="M2.61665 1.66675C2.14368 1.66675 1.69008 1.85463 1.35564 2.18907C1.0212 2.52351 0.833313 2.97711 0.833313 3.45008V5.00008H2.49998V3.33341H4.16665V1.66675H2.61665ZM5.83331 1.66675V3.33341H8.33331V1.66675H5.83331ZM9.99998 1.66675V3.33341H11.6666V5.00008H13.3333V3.45008C13.3333 2.46675 12.5333 1.66675 11.55 1.66675H9.99998ZM0.833313 6.66675V9.16675H2.49998V6.66675H0.833313ZM7.49998 6.66675C6.57498 6.66675 5.83331 7.40841 5.83331 8.33341C5.83331 10.2751 5.83331 14.1667 5.83331 14.1667C5.83331 14.1667 9.64165 14.1667 11.55 14.1667C12.0229 14.1667 12.4765 13.9789 12.811 13.6444C13.1454 13.31 13.3333 12.8564 13.3333 12.3834C13.3333 10.4751 13.3333 6.66675 13.3333 6.66675C13.3333 6.66675 9.44165 6.66675 7.49998 6.66675ZM15 6.66675V8.33341H16.6666V10.0001H18.3333V8.33341C18.3333 7.40841 17.5916 6.66675 16.6666 6.66675H15ZM7.49998 8.33341H11.6666V12.5001H7.49998V8.33341ZM0.833313 10.8334V12.3834C0.833313 13.3667 1.63331 14.1667 2.61665 14.1667H4.16665V12.5001H2.49998V10.8334H0.833313ZM16.6666 11.6667V14.1667H18.3333V11.6667H16.6666ZM5.83331 15.8334V17.5001C5.83331 18.4251 6.57498 19.1667 7.49998 19.1667H9.16665V17.5001H7.49998V15.8334H5.83331ZM16.6666 15.8334V17.5001H15V19.1667H16.6666C17.5916 19.1667 18.3333 18.4251 18.3333 17.5001V15.8334H16.6666ZM10.8333 17.5001V19.1667H13.3333V17.5001H10.8333Z" fill="currentColor"/>
</svg>
