<svg width="20" height="20" viewBox="0 0 20 20" fill="none" xmlns="http://www.w3.org/2000/svg">
<path d="M7.50002 1.66675V3.38341C5.60002 4.10008 4.10002 5.60008 3.37502 7.50008H1.66669V12.5001H3.38335C4.10002 14.4001 5.60002 15.9084 7.50002 16.6251V18.3334H12.5V16.6167C14.4 15.9001 15.9084 14.4001 16.625 12.5001H18.3334V7.50008H16.6167C15.9 5.60008 14.4 4.10008 12.5 3.37508V1.66675H7.50002ZM9.16669 3.33341H10.8334V5.00008H9.16669V3.33341ZM7.50002 5.20841V6.66675H12.5V5.20841C13.4834 5.71675 14.2834 6.51675 14.7917 7.50008H13.3334V12.5001H14.7917C14.2834 13.4834 13.4834 14.2834 12.5 14.7917V13.3334H7.50002V14.7917C6.51669 14.2834 5.71669 13.4834 5.20835 12.5001H6.66669V7.50008H5.20835C5.71669 6.51675 6.51669 5.71675 7.50002 5.20841ZM3.33335 9.16675H5.00002V10.8334H3.33335V9.16675ZM15 9.16675H16.6667V10.8334H15V9.16675ZM9.16669 15.0001H10.8334V16.6667H9.16669" fill="currentColor"/>
</svg>
