<svg width="20" height="20" viewBox="0 0 20 20" fill="none" xmlns="http://www.w3.org/2000/svg">
<path d="M10 4.16659C8.45294 4.16659 6.96921 4.78117 5.87525 5.87513C4.78129 6.96909 4.16671 8.45282 4.16671 9.99992H5.83337C5.83337 8.89485 6.27236 7.83504 7.05376 7.05364C7.83516 6.27224 8.89497 5.83325 10 5.83325C11.1051 5.83325 12.1649 6.27224 12.9463 7.05364C13.7277 7.83504 14.1667 8.89485 14.1667 9.99992H15.8334C15.8334 8.45282 15.2188 6.96909 14.1248 5.87513C13.0309 4.78117 11.5471 4.16659 10 4.16659V4.16659ZM10.8334 11.9083C11.5667 11.5833 12.0834 10.8583 12.0834 9.99992C12.0834 9.44738 11.8639 8.91748 11.4732 8.52678C11.0825 8.13608 10.5526 7.91659 10 7.91659C9.44751 7.91659 8.9176 8.13608 8.5269 8.52678C8.1362 8.91748 7.91671 9.44738 7.91671 9.99992C7.91671 10.8333 8.43337 11.5833 9.16671 11.9083V14.6583L6.32504 17.4999L7.50004 18.6749L10 16.1749L12.5 18.6749L13.675 17.4999L10.8334 14.6583V11.9083ZM10 0.833252C7.56889 0.833252 5.23731 1.79902 3.51823 3.51811C1.79915 5.23719 0.833374 7.56877 0.833374 9.99992H2.50004C2.50004 8.0108 3.29022 6.10314 4.69674 4.69662C6.10326 3.29009 8.01092 2.49992 10 2.49992C11.9892 2.49992 13.8968 3.29009 15.3033 4.69662C16.7099 6.10314 17.5 8.0108 17.5 9.99992H19.1667C19.1667 7.56877 18.2009 5.23719 16.4819 3.51811C14.7628 1.79902 12.4312 0.833252 10 0.833252V0.833252Z" fill="currentColor"/>
</svg>
