<svg width="20" height="20" viewBox="0 0 20 20" fill="none" xmlns="http://www.w3.org/2000/svg">
<path d="M2.72508 1.66675L1.66675 2.72508L3.94175 5.00008H3.33341C3.1124 5.00008 2.90044 5.08788 2.74416 5.24416C2.58788 5.40044 2.50008 5.6124 2.50008 5.83341V14.1667C2.50008 14.3878 2.58788 14.5997 2.74416 14.756C2.90044 14.9123 3.1124 15.0001 3.33341 15.0001H13.3334C13.5001 15.0001 13.6584 14.9334 13.7834 14.8501L16.4417 17.5001L17.5001 16.4417L2.72508 1.66675ZM17.5001 5.41675L14.1667 8.75008V5.83341C14.1667 5.6124 14.079 5.40044 13.9227 5.24416C13.7664 5.08788 13.5544 5.00008 13.3334 5.00008H8.18341L17.5001 14.3167V5.41675Z" fill="currentColor"/>
</svg>
