<svg width="20" height="20" viewBox="0 0 20 20" fill="none" xmlns="http://www.w3.org/2000/svg">
<path d="M10.8334 4.16675H8.33335C8.11234 4.16675 7.90038 4.25455 7.7441 4.41083C7.58782 4.56711 7.50002 4.77907 7.50002 5.00008V15.0001C7.50002 15.2211 7.58782 15.4331 7.7441 15.5893C7.90038 15.7456 8.11234 15.8334 8.33335 15.8334H10.8334C11.0544 15.8334 11.2663 15.7456 11.4226 15.5893C11.5789 15.4331 11.6667 15.2211 11.6667 15.0001V5.00008C11.6667 4.77907 11.5789 4.56711 11.4226 4.41083C11.2663 4.25455 11.0544 4.16675 10.8334 4.16675ZM16.6667 4.16675H14.1667C13.9457 4.16675 13.7337 4.25455 13.5774 4.41083C13.4212 4.56711 13.3334 4.77907 13.3334 5.00008V15.0001C13.3334 15.2211 13.4212 15.4331 13.5774 15.5893C13.7337 15.7456 13.9457 15.8334 14.1667 15.8334H16.6667C16.8877 15.8334 17.0997 15.7456 17.2559 15.5893C17.4122 15.4331 17.5 15.2211 17.5 15.0001V5.00008C17.5 4.77907 17.4122 4.56711 17.2559 4.41083C17.0997 4.25455 16.8877 4.16675 16.6667 4.16675ZM5.00002 4.16675H2.50002C2.27901 4.16675 2.06704 4.25455 1.91076 4.41083C1.75448 4.56711 1.66669 4.77907 1.66669 5.00008V15.0001C1.66669 15.2211 1.75448 15.4331 1.91076 15.5893C2.06704 15.7456 2.27901 15.8334 2.50002 15.8334H5.00002C5.22103 15.8334 5.433 15.7456 5.58928 15.5893C5.74556 15.4331 5.83335 15.2211 5.83335 15.0001V5.00008C5.83335 4.77907 5.74556 4.56711 5.58928 4.41083C5.433 4.25455 5.22103 4.16675 5.00002 4.16675Z" fill="currentColor"/>
</svg>
