<svg width="20" height="20" viewBox="0 0 20 20" fill="none" xmlns="http://www.w3.org/2000/svg">
<path d="M16.6667 2.5H2.50002C2.27901 2.5 2.06704 2.5878 1.91076 2.74408C1.75448 2.90036 1.66669 3.11232 1.66669 3.33333V8.33333C1.66669 8.55435 1.75448 8.76631 1.91076 8.92259C2.06704 9.07887 2.27901 9.16667 2.50002 9.16667H16.6667C16.8877 9.16667 17.0997 9.07887 17.2559 8.92259C17.4122 8.76631 17.5 8.55435 17.5 8.33333V3.33333C17.5 3.11232 17.4122 2.90036 17.2559 2.74408C17.0997 2.5878 16.8877 2.5 16.6667 2.5V2.5ZM16.6667 10.8333H2.50002C2.27901 10.8333 2.06704 10.9211 1.91076 11.0774C1.75448 11.2337 1.66669 11.4457 1.66669 11.6667V16.6667C1.66669 16.8877 1.75448 17.0996 1.91076 17.2559C2.06704 17.4122 2.27901 17.5 2.50002 17.5H16.6667C16.8877 17.5 17.0997 17.4122 17.2559 17.2559C17.4122 17.0996 17.5 16.8877 17.5 16.6667V11.6667C17.5 11.4457 17.4122 11.2337 17.2559 11.0774C17.0997 10.9211 16.8877 10.8333 16.6667 10.8333Z" fill="currentColor"/>
</svg>
