<svg width="20" height="20" viewBox="0 0 20 20" fill="none" xmlns="http://www.w3.org/2000/svg">
<path d="M1.66669 2.5V5H17.5V2.5H1.66669ZM16.6667 6.66667H2.50002C2.27901 6.66667 2.06704 6.75446 1.91076 6.91074C1.75448 7.06702 1.66669 7.27899 1.66669 7.5V12.5C1.66669 12.721 1.75448 12.933 1.91076 13.0893C2.06704 13.2455 2.27901 13.3333 2.50002 13.3333H16.6667C16.8877 13.3333 17.0997 13.2455 17.2559 13.0893C17.4122 12.933 17.5 12.721 17.5 12.5V7.5C17.5 7.27899 17.4122 7.06702 17.2559 6.91074C17.0997 6.75446 16.8877 6.66667 16.6667 6.66667ZM1.66669 17.5H17.5V15H1.66669V17.5Z" fill="currentColor"/>
</svg>
