<svg width="20" height="20" viewBox="0 0 20 20" fill="none" xmlns="http://www.w3.org/2000/svg">
<path d="M3.33341 3.33341H9.16675V1.66675H3.33341C2.41675 1.66675 1.66675 2.41675 1.66675 3.33341V9.16675H3.33341V3.33341ZM8.33341 10.8334L5.00008 15.0001H15.0001L12.5001 11.6667L10.8084 13.9251L8.33341 10.8334ZM14.1667 7.08341C14.1667 6.39175 13.6084 5.83341 12.9167 5.83341C12.2251 5.83341 11.6667 6.39175 11.6667 7.08341C11.6667 7.77508 12.2251 8.33341 12.9167 8.33341C13.6084 8.33341 14.1667 7.77508 14.1667 7.08341ZM16.6667 1.66675H10.8334V3.33341H16.6667V9.16675H18.3334V3.33341C18.3334 2.41675 17.5834 1.66675 16.6667 1.66675ZM16.6667 16.6667H10.8334V18.3334H16.6667C17.5834 18.3334 18.3334 17.5834 18.3334 16.6667V10.8334H16.6667V16.6667ZM3.33341 10.8334H1.66675V16.6667C1.66675 17.5834 2.41675 18.3334 3.33341 18.3334H9.16675V16.6667H3.33341V10.8334Z" fill="currentColor"/>
</svg>
