<svg width="20" height="20" viewBox="0 0 20 20" fill="none" xmlns="http://www.w3.org/2000/svg">
<path d="M9.99175 1.66675C5.39175 1.66675 1.66675 5.40008 1.66675 10.0001C1.66675 14.6001 5.39175 18.3334 9.99175 18.3334C14.6001 18.3334 18.3334 14.6001 18.3334 10.0001C18.3334 5.40008 14.6001 1.66675 9.99175 1.66675ZM15.7667 6.66675H13.3084C13.0417 5.62508 12.6584 4.62508 12.1584 3.70008C13.6917 4.22508 14.9667 5.29175 15.7667 6.66675ZM10.0001 3.36675C10.6917 4.36675 11.2334 5.47508 11.5917 6.66675H8.40841C8.76675 5.47508 9.30841 4.36675 10.0001 3.36675ZM3.55008 11.6667C3.41675 11.1334 3.33341 10.5751 3.33341 10.0001C3.33341 9.42508 3.41675 8.86675 3.55008 8.33341H6.36675C6.30008 8.88341 6.25008 9.43341 6.25008 10.0001C6.25008 10.5667 6.30008 11.1167 6.36675 11.6667H3.55008ZM4.23341 13.3334H6.69175C6.95841 14.3751 7.34175 15.3751 7.84175 16.3001C6.30841 15.7751 5.03341 14.7167 4.23341 13.3334V13.3334ZM6.69175 6.66675H4.23341C5.03341 5.28341 6.30841 4.22508 7.84175 3.70008C7.34175 4.62508 6.95841 5.62508 6.69175 6.66675V6.66675ZM10.0001 16.6334C9.30841 15.6334 8.76675 14.5251 8.40841 13.3334H11.5917C11.2334 14.5251 10.6917 15.6334 10.0001 16.6334ZM11.9501 11.6667H8.05008C7.97508 11.1167 7.91675 10.5667 7.91675 10.0001C7.91675 9.43341 7.97508 8.87508 8.05008 8.33341H11.9501C12.0251 8.87508 12.0834 9.43341 12.0834 10.0001C12.0834 10.5667 12.0251 11.1167 11.9501 11.6667ZM12.1584 16.3001C12.6584 15.3751 13.0417 14.3751 13.3084 13.3334H15.7667C14.9667 14.7084 13.6917 15.7751 12.1584 16.3001V16.3001ZM13.6334 11.6667C13.7001 11.1167 13.7501 10.5667 13.7501 10.0001C13.7501 9.43341 13.7001 8.88341 13.6334 8.33341H16.4501C16.5834 8.86675 16.6667 9.42508 16.6667 10.0001C16.6667 10.5751 16.5834 11.1334 16.4501 11.6667H13.6334Z" fill="currentColor"/>
</svg>
