<svg width="20" height="20" viewBox="0 0 20 20" fill="none" xmlns="http://www.w3.org/2000/svg">
<path d="M9.83337 17.5L12.8334 13.5C12 12.875 10.9584 12.5 9.83337 12.5C8.70837 12.5 7.66671 12.875 6.83337 13.5L9.83337 17.5ZM9.83337 2.5C6.45837 2.5 3.34171 3.61667 0.833374 5.5L2.33337 7.5C4.41671 5.93333 7.01671 5 9.83337 5C12.65 5 15.25 5.93333 17.3334 7.5L18.8334 5.5C16.325 3.61667 13.2084 2.5 9.83337 2.5ZM9.83337 7.5C7.58337 7.5 5.50837 8.24167 3.83337 9.5L5.33337 11.5C6.58337 10.5583 8.14171 10 9.83337 10C11.525 10 13.0834 10.5583 14.3334 11.5L15.8334 9.5C14.1584 8.24167 12.0834 7.5 9.83337 7.5Z" fill="currentColor"/>
</svg>
