<svg width="20" height="20" viewBox="0 0 20 20" fill="none" xmlns="http://www.w3.org/2000/svg">
<path d="M1.90004 2.5L0.833374 3.55833L2.05837 4.78333C1.70004 5 1.34171 5.24167 1.00004 5.5L2.50004 7.5C2.94171 7.16667 3.40004 6.875 3.88337 6.60833L5.74171 8.46667C5.12504 8.75 4.53337 9.09167 4.00004 9.5L5.50004 11.5C6.15004 11.0167 6.88337 10.6417 7.66671 10.3917L9.79171 12.5C8.75004 12.5583 7.78337 12.9167 7.00004 13.5L10 17.5L12.05 14.775L14.7834 17.5L15.8334 16.4333L1.90004 2.5ZM10 2.5C8.20837 2.5 6.50004 2.81667 4.91671 3.39167L6.90837 5.39167C7.91671 5.13333 8.93337 5 10 5C12.8167 5 15.4167 5.925 17.5 7.5L19 5.5C16.4917 3.61667 13.3834 2.5 10 2.5ZM10 7.5C9.68337 7.5 9.37504 7.5 9.06671 7.54167L11.725 10.2083C12.7417 10.4417 13.6917 10.8917 14.5 11.5L16 9.5C14.3334 8.24167 12.25 7.5 10 7.5Z" fill="currentColor"/>
</svg>
