<svg width="20" height="20" viewBox="0 0 20 20" fill="none" xmlns="http://www.w3.org/2000/svg">
<path d="M10.0002 12.5001C6.31683 12.5001 3.3335 13.9917 3.3335 15.8334V17.5001H16.6668V15.8334C16.6668 13.9917 13.6835 12.5001 10.0002 12.5001ZM6.66683 7.50008C6.66683 8.38414 7.01802 9.23198 7.64314 9.8571C8.26826 10.4822 9.11611 10.8334 10.0002 10.8334C10.8842 10.8334 11.7321 10.4822 12.3572 9.8571C12.9823 9.23198 13.3335 8.38414 13.3335 7.50008H6.66683ZM9.5835 1.66675C9.3335 1.66675 9.16683 1.84175 9.16683 2.08341V4.58341H8.3335V2.50008C8.3335 2.50008 6.4585 3.21675 6.4585 5.62508C6.4585 5.62508 5.8335 5.74175 5.8335 6.66675H14.1668C14.1252 5.74175 13.5418 5.62508 13.5418 5.62508C13.5418 3.21675 11.6668 2.50008 11.6668 2.50008V4.58341H10.8335V2.08341C10.8335 1.84175 10.6752 1.66675 10.4168 1.66675H9.5835Z" fill="currentColor"/>
</svg>
