<svg width="20" height="20" viewBox="0 0 20 20" fill="none" xmlns="http://www.w3.org/2000/svg">
<path d="M9.99984 16C7.9165 16 6.07484 14.9333 4.99984 13.3333C5.02484 11.6666 8.33317 10.75 9.99984 10.75C11.6665 10.75 14.9748 11.6666 14.9998 13.3333C13.9248 14.9333 12.0832 16 9.99984 16ZM9.99984 4.16663C10.6629 4.16663 11.2988 4.43002 11.7676 4.89886C12.2364 5.3677 12.4998 6.00358 12.4998 6.66663C12.4998 7.32967 12.2364 7.96555 11.7676 8.43439C11.2988 8.90323 10.6629 9.16663 9.99984 9.16663C9.3368 9.16663 8.70091 8.90323 8.23207 8.43439C7.76323 7.96555 7.49984 7.32967 7.49984 6.66663C7.49984 6.00358 7.76323 5.3677 8.23207 4.89886C8.70091 4.43002 9.3368 4.16663 9.99984 4.16663V4.16663ZM9.99984 1.66663C8.90549 1.66663 7.82185 1.88217 6.81081 2.30096C5.79976 2.71975 4.8811 3.33358 4.10728 4.1074C2.54448 5.67021 1.6665 7.78982 1.6665 9.99996C1.6665 12.2101 2.54448 14.3297 4.10728 15.8925C4.8811 16.6663 5.79976 17.2802 6.81081 17.699C7.82185 18.1177 8.90549 18.3333 9.99984 18.3333C12.21 18.3333 14.3296 17.4553 15.8924 15.8925C17.4552 14.3297 18.3332 12.2101 18.3332 9.99996C18.3332 5.39163 14.5832 1.66663 9.99984 1.66663Z" fill="currentColor"/>
</svg>
