<svg width="20" height="20" viewBox="0 0 20 20" fill="none" xmlns="http://www.w3.org/2000/svg">
<path d="M13.3335 10.8334C13.0918 10.8334 12.8168 10.8334 12.5252 10.8751C13.4918 11.5751 14.1668 12.5001 14.1668 13.7501V15.8334H19.1668V13.7501C19.1668 11.8084 15.2752 10.8334 13.3335 10.8334ZM6.66683 10.8334C4.72516 10.8334 0.833496 11.8084 0.833496 13.7501V15.8334H12.5002V13.7501C12.5002 11.8084 8.6085 10.8334 6.66683 10.8334ZM6.66683 9.16675C7.32987 9.16675 7.96576 8.90336 8.4346 8.43452C8.90344 7.96567 9.16683 7.32979 9.16683 6.66675C9.16683 6.00371 8.90344 5.36782 8.4346 4.89898C7.96576 4.43014 7.32987 4.16675 6.66683 4.16675C6.00379 4.16675 5.3679 4.43014 4.89906 4.89898C4.43022 5.36782 4.16683 6.00371 4.16683 6.66675C4.16683 7.32979 4.43022 7.96567 4.89906 8.43452C5.3679 8.90336 6.00379 9.16675 6.66683 9.16675ZM13.3335 9.16675C13.9965 9.16675 14.6324 8.90336 15.1013 8.43452C15.5701 7.96567 15.8335 7.32979 15.8335 6.66675C15.8335 6.00371 15.5701 5.36782 15.1013 4.89898C14.6324 4.43014 13.9965 4.16675 13.3335 4.16675C12.6705 4.16675 12.0346 4.43014 11.5657 4.89898C11.0969 5.36782 10.8335 6.00371 10.8335 6.66675C10.8335 7.32979 11.0969 7.96567 11.5657 8.43452C12.0346 8.90336 12.6705 9.16675 13.3335 9.16675Z" fill="currentColor"/>
</svg>
