<svg width="20" height="20" viewBox="0 0 20 20" fill="none" xmlns="http://www.w3.org/2000/svg">
<path d="M12.5002 11.6666C10.2752 11.6666 5.8335 12.7749 5.8335 14.9999V16.6666H19.1668V14.9999C19.1668 12.7749 14.7252 11.6666 12.5002 11.6666ZM5.00016 8.33325V5.83325H3.3335V8.33325H0.833496V9.99992H3.3335V12.4999H5.00016V9.99992H7.50016V8.33325H5.00016ZM12.5002 9.99992C13.3842 9.99992 14.2321 9.64873 14.8572 9.02361C15.4823 8.39849 15.8335 7.55064 15.8335 6.66659C15.8335 5.78253 15.4823 4.93468 14.8572 4.30956C14.2321 3.68444 13.3842 3.33325 12.5002 3.33325C11.6161 3.33325 10.7683 3.68444 10.1431 4.30956C9.51802 4.93468 9.16683 5.78253 9.16683 6.66659C9.16683 7.55064 9.51802 8.39849 10.1431 9.02361C10.7683 9.64873 11.6161 9.99992 12.5002 9.99992Z" fill="currentColor"/>
</svg>
