<svg width="20" height="20" viewBox="0 0 20 20" fill="none" xmlns="http://www.w3.org/2000/svg">
<path d="M10.8915 8.67496C11.3977 7.96768 11.6699 7.11972 11.6699 6.24996C11.6699 5.3802 11.3977 4.53224 10.8915 3.82496C11.3653 3.50159 11.9262 3.3301 12.4998 3.3333C13.2734 3.3333 14.0153 3.64059 14.5622 4.18757C15.1092 4.73455 15.4165 5.47641 15.4165 6.24996C15.4165 7.02351 15.1092 7.76538 14.5622 8.31236C14.0153 8.85934 13.2734 9.16663 12.4998 9.16663C11.9262 9.16982 11.3653 8.99833 10.8915 8.67496ZM4.58317 6.24996C4.58317 5.6731 4.75423 5.10919 5.07472 4.62955C5.3952 4.14991 5.85073 3.77607 6.38368 3.55531C6.91663 3.33456 7.50307 3.2768 8.06885 3.38934C8.63463 3.50188 9.15433 3.77966 9.56223 4.18757C9.97013 4.59547 10.2479 5.11517 10.3605 5.68095C10.473 6.24673 10.4152 6.83317 10.1945 7.36612C9.97373 7.89907 9.59989 8.3546 9.12025 8.67508C8.64061 8.99557 8.0767 9.16663 7.49984 9.16663C6.72629 9.16663 5.98442 8.85934 5.43744 8.31236C4.89046 7.76538 4.58317 7.02351 4.58317 6.24996ZM6.24984 6.24996C6.24984 6.49719 6.32315 6.73886 6.4605 6.94442C6.59785 7.14999 6.79308 7.3102 7.02148 7.40481C7.24989 7.49942 7.50122 7.52418 7.7437 7.47594C7.98618 7.42771 8.20891 7.30866 8.38372 7.13385C8.55854 6.95903 8.67759 6.7363 8.72582 6.49383C8.77405 6.25135 8.7493 6.00002 8.65469 5.77161C8.56008 5.5432 8.39986 5.34798 8.1943 5.21063C7.98874 5.07327 7.74706 4.99996 7.49984 4.99996C7.16832 4.99996 6.85037 5.13166 6.61595 5.36608C6.38153 5.6005 6.24984 5.91844 6.24984 6.24996ZM13.3332 14.1666V15.8333H1.6665V14.1666C1.6665 14.1666 1.6665 10.8333 7.49984 10.8333C13.3332 10.8333 13.3332 14.1666 13.3332 14.1666ZM11.6665 14.1666C11.5498 13.5166 10.5582 12.5 7.49984 12.5C4.4415 12.5 3.3915 13.5916 3.33317 14.1666M13.2915 10.8333C13.8023 11.2306 14.2199 11.7348 14.515 12.3107C14.8101 12.8865 14.9756 13.52 14.9998 14.1666V15.8333H18.3332V14.1666C18.3332 14.1666 18.3332 11.1416 13.2832 10.8333H13.2915Z" fill="currentColor"/>
</svg>
