<svg width="20" height="20" viewBox="0 0 20 20" fill="none" xmlns="http://www.w3.org/2000/svg">
<path d="M10.8333 9.16675C11.3278 9.16675 11.8111 9.02013 12.2223 8.74542C12.6334 8.47072 12.9538 8.08027 13.143 7.62346C13.3323 7.16664 13.3818 6.66398 13.2853 6.17902C13.1888 5.69407 12.9507 5.24861 12.6011 4.89898C12.2515 4.54935 11.806 4.31125 11.3211 4.21479C10.8361 4.11832 10.3334 4.16783 9.87662 4.35705C9.41981 4.54627 9.02936 4.8667 8.75466 5.27782C8.47996 5.68895 8.33333 6.1723 8.33333 6.66675C8.33333 7.32979 8.59672 7.96568 9.06557 8.43452C9.53441 8.90336 10.1703 9.16675 10.8333 9.16675ZM10.8333 5.83342C10.9982 5.83342 11.1593 5.88229 11.2963 5.97386C11.4333 6.06543 11.5402 6.19557 11.6032 6.34785C11.6663 6.50012 11.6828 6.66767 11.6507 6.82932C11.6185 6.99098 11.5391 7.13946 11.4226 7.256C11.306 7.37255 11.1576 7.45192 10.9959 7.48407C10.8343 7.51622 10.6667 7.49972 10.5144 7.43665C10.3622 7.37358 10.232 7.26677 10.1404 7.12972C10.0489 6.99268 10 6.83157 10 6.66675C10 6.44574 10.0878 6.23377 10.2441 6.07749C10.4004 5.92121 10.6123 5.83342 10.8333 5.83342ZM14.2583 9.05008C14.7459 8.35094 15.0073 7.5191 15.0073 6.66675C15.0073 5.8144 14.7459 4.98256 14.2583 4.28342C14.498 4.20626 14.7482 4.1669 15 4.16675C15.663 4.16675 16.2989 4.43014 16.7678 4.89898C17.2366 5.36782 17.5 6.00371 17.5 6.66675C17.5 7.32979 17.2366 7.96568 16.7678 8.43452C16.2989 8.90336 15.663 9.16675 15 9.16675C14.7482 9.1666 14.498 9.12724 14.2583 9.05008ZM10.8333 10.8334C5.83333 10.8334 5.83333 14.1667 5.83333 14.1667V15.8334H15.8333V14.1667C15.8333 14.1667 15.8333 10.8334 10.8333 10.8334ZM7.5 14.1667C7.5 13.9251 7.76667 12.5001 10.8333 12.5001C13.75 12.5001 14.1167 13.8001 14.1667 14.1667M20 14.1667V15.8334H17.5V14.1667C17.4805 13.5473 17.3379 12.9379 17.0803 12.3742C16.8228 11.8104 16.4555 11.3037 16 10.8834C20 11.2917 20 14.1667 20 14.1667ZM6.66667 10.0001H4.16667V12.5001H2.5V10.0001H0V8.33342H2.5V5.83342H4.16667V8.33342H6.66667V10.0001Z" fill="currentColor"/>
</svg>
