<svg width="20" height="20" viewBox="0 0 20 20" fill="none" xmlns="http://www.w3.org/2000/svg">
<path d="M10.8334 13.3333V15H11.6667C11.8878 15 12.0997 15.0878 12.256 15.244C12.4123 15.4003 12.5001 15.6123 12.5001 15.8333H18.3334V17.5H12.5001C12.5001 17.721 12.4123 17.9329 12.256 18.0892C12.0997 18.2455 11.8878 18.3333 11.6667 18.3333H8.33341C8.1124 18.3333 7.90044 18.2455 7.74416 18.0892C7.58788 17.9329 7.50008 17.721 7.50008 17.5H1.66675V15.8333H7.50008C7.50008 15.6123 7.58788 15.4003 7.74416 15.244C7.90044 15.0878 8.1124 15 8.33341 15H9.16675V13.3333H4.16675V12.0833C4.16675 10.475 6.77508 9.16663 10.0001 9.16663C13.2251 9.16663 15.8334 10.475 15.8334 12.0833V13.3333H10.8334ZM10.0001 1.66663C10.7736 1.66663 11.5155 1.97392 12.0625 2.5209C12.6095 3.06788 12.9167 3.80974 12.9167 4.58329C12.9167 5.35684 12.6095 6.09871 12.0625 6.64569C11.5155 7.19267 10.7736 7.49996 10.0001 7.49996C9.22653 7.49996 8.48467 7.19267 7.93769 6.64569C7.39071 6.09871 7.08341 5.35684 7.08341 4.58329C7.08341 3.80974 7.39071 3.06788 7.93769 2.5209C8.48467 1.97392 9.22653 1.66663 10.0001 1.66663V1.66663Z" fill="currentColor"/>
</svg>
