<svg width="20" height="20" viewBox="0 0 20 20" fill="none" xmlns="http://www.w3.org/2000/svg">
<path d="M13.7498 10.0001C14.8998 10.0001 15.8248 9.06675 15.8248 7.91675C15.8248 6.76675 14.8998 5.83341 13.7498 5.83341C12.5998 5.83341 11.6665 6.76675 11.6665 7.91675C11.6665 9.06675 12.5998 10.0001 13.7498 10.0001ZM7.49984 9.16675C8.88317 9.16675 9.9915 8.05008 9.9915 6.66675C9.9915 5.28341 8.88317 4.16675 7.49984 4.16675C6.1165 4.16675 4.99984 5.28341 4.99984 6.66675C4.99984 8.05008 6.1165 9.16675 7.49984 9.16675ZM13.7498 11.6667C12.2248 11.6667 9.1665 12.4334 9.1665 13.9584V15.8334H18.3332V13.9584C18.3332 12.4334 15.2748 11.6667 13.7498 11.6667ZM7.49984 10.8334C5.55817 10.8334 1.6665 11.8084 1.6665 13.7501V15.8334H7.49984V13.9584C7.49984 13.2501 7.77484 12.0084 9.47484 11.0667C8.74984 10.9167 8.04984 10.8334 7.49984 10.8334Z" fill="currentColor"/>
</svg>
