<svg width="20" height="20" viewBox="0 0 20 20" fill="none" xmlns="http://www.w3.org/2000/svg">
<path d="M10.8667 8.33341C10.5334 8.54175 10.2167 8.79175 9.91675 9.08341C9.64175 9.36675 9.39175 9.67508 9.19175 10.0001H6.66675V8.75008C6.66675 8.51675 6.85008 8.33341 7.08341 8.33341H10.8667ZM16.6667 6.66675H1.66675V1.66675H16.6667V6.66675ZM15.0001 3.33341H3.33341V5.00008H15.0001V3.33341ZM4.16675 15.0001V7.50008H2.50008V16.6667H9.85008C9.36675 16.1667 9.00008 15.6001 8.75008 15.0001H4.16675ZM19.4917 17.5001L18.3334 18.6584L15.7334 16.1001C15.1584 16.4584 14.4751 16.6667 13.7501 16.6667C11.6667 16.6667 10.0001 15.0001 10.0001 12.9167C10.0001 10.8334 11.6667 9.16675 13.7501 9.16675C15.8334 9.16675 17.5001 10.8334 17.5001 12.9167C17.5001 13.6501 17.2917 14.3417 16.9251 14.9167L19.4917 17.5001ZM15.8334 12.9167C15.8334 11.7667 14.9001 10.8334 13.7501 10.8334C12.6001 10.8334 11.6667 11.7667 11.6667 12.9167C11.6667 14.0667 12.6001 15.0001 13.7501 15.0001C14.9001 15.0001 15.8334 14.0667 15.8334 12.9167Z" fill="currentColor"/>
</svg>
