<svg width="20" height="20" viewBox="0 0 20 20" fill="none" xmlns="http://www.w3.org/2000/svg" id="archive-plus-outline">
<path d="M15 10.9083V8.33333H16.6667V10.9083C16.3917 10.8667 16.1167 10.8333 15.8333 10.8333C15.55 10.8333 15.275 10.8667 15 10.9083ZM7.91667 9.16667C7.68333 9.16667 7.5 9.35 7.5 9.58333V10.8333H12.5V9.58333C12.5 9.35 12.3167 9.16667 12.0833 9.16667H7.91667ZM17.5 7.5H2.5V2.5H17.5V7.5ZM15.8333 4.16667H4.16667V5.83333H15.8333V4.16667ZM5 15.8333V8.33333H3.33333V17.5H11.125C10.9417 16.975 10.8333 16.4167 10.8333 15.8333H5ZM16.6667 15V12.5H15V15H12.5V16.6667H15V19.1667H16.6667V16.6667H19.1667V15H16.6667Z" fill="currentColor"></path>
</svg>
