<svg width="20" height="20" viewBox="0 0 20 20" fill="none" xmlns="http://www.w3.org/2000/svg">
<path d="M8.33317 11.6667C9.1665 11.6667 10.0415 11.8 10.9998 12.0334C10.3248 12.7584 9.99984 13.6084 9.99984 14.5834C9.99984 15.325 10.2082 16.025 10.6498 16.6667H1.6665V15C1.6665 14.0084 2.42484 13.2084 3.94984 12.6C5.47484 11.9834 6.9415 11.6667 8.33317 11.6667ZM14.5832 8.33337H17.4998V10H15.8332V14.5834C15.8332 15.1417 15.6415 15.6417 15.2248 16.0584C14.8082 16.475 14.3082 16.6667 13.7498 16.6667C13.1665 16.6667 12.6748 16.475 12.2748 16.0584C11.8665 15.6417 11.6665 15.1417 11.6665 14.5834C11.6665 14 11.8665 13.5084 12.2748 13.1084C12.6748 12.7 13.1665 12.5 13.7498 12.5C13.9998 12.5 14.2832 12.5667 14.5832 12.6917V8.33337ZM8.33317 10C7.43317 10 6.6665 9.67504 5.98317 9.02504C5.3165 8.37504 4.99984 7.59171 4.99984 6.66671C4.99984 5.76671 5.3165 5.00004 5.98317 4.31671C6.6665 3.65004 7.43317 3.33337 8.33317 3.33337C9.25817 3.33337 10.0415 3.65004 10.6915 4.31671C11.3415 5.00004 11.6665 5.76671 11.6665 6.66671C11.6665 7.59171 11.3415 8.37504 10.6915 9.02504C10.0415 9.67504 9.25817 10 8.33317 10Z" fill="currentColor"/>
</svg>
