<svg width="20" height="20" viewBox="0 0 20 20" fill="none" xmlns="http://www.w3.org/2000/svg">
<path d="M4.58337 17.5001C3.93337 17.5001 3.36671 17.1251 3.09171 16.5834L0.916707 8.70008L0.833374 8.33341C0.833374 8.1124 0.921171 7.90044 1.07745 7.74416C1.23373 7.58788 1.44569 7.50008 1.66671 7.50008H5.48337L9.31671 2.02508C9.46671 1.80841 9.71671 1.66675 10 1.66675C10.2834 1.66675 10.5417 1.80841 10.6917 2.03341L14.5167 7.50008H18.3334C18.5544 7.50008 18.7664 7.58788 18.9226 7.74416C19.0789 7.90044 19.1667 8.1124 19.1667 8.33341L19.1334 8.57508L16.9084 16.5834C16.6334 17.1251 16.0667 17.5001 15.4167 17.5001H4.58337ZM10 3.95008L7.50004 7.50008H12.5L10 3.95008ZM10 10.8334C9.55801 10.8334 9.13409 11.009 8.82153 11.3216C8.50897 11.6341 8.33337 12.0581 8.33337 12.5001C8.33337 12.9421 8.50897 13.366 8.82153 13.6786C9.13409 13.9912 9.55801 14.1667 10 14.1667C10.4421 14.1667 10.866 13.9912 11.1786 13.6786C11.4911 13.366 11.6667 12.9421 11.6667 12.5001C11.6667 12.0581 11.4911 11.6341 11.1786 11.3216C10.866 11.009 10.4421 10.8334 10 10.8334Z" fill="currentColor"/>
</svg>
