<svg width="20" height="20" viewBox="0 0 20 20" fill="none" xmlns="http://www.w3.org/2000/svg">
<path d="M1.66663 9.16675H4.16663V6.66675H1.66663V9.16675ZM3.33329 5.00008H5.83329V2.50008H3.33329V5.00008ZM5.83329 9.16675H8.33329V6.66675H5.83329V9.16675ZM13.3333 1.66675L9.16663 5.83341H11.6666V9.16675H15V5.83341H17.5L13.3333 1.66675ZM5.41663 19.1667C4.76663 19.1667 4.19996 18.7917 3.92496 18.2501L1.74996 12.0334L1.66663 11.6667C1.66663 11.4457 1.75442 11.2338 1.9107 11.0775C2.06698 10.9212 2.27895 10.8334 2.49996 10.8334H15.8333C16.0543 10.8334 16.2663 10.9212 16.4225 11.0775C16.5788 11.2338 16.6666 11.4457 16.6666 11.6667L16.6333 11.9084L14.4083 18.2501C14.1333 18.7917 13.5666 19.1667 12.9166 19.1667H5.41663ZM5.50829 17.5001H12.825L14.6416 12.5001H3.68329L5.50829 17.5001Z" fill="currentColor"/>
</svg>
