<svg width="20" height="20" viewBox="0 0 20 20" fill="none" xmlns="http://www.w3.org/2000/svg">
<path d="M10.4165 18.3334C10.5332 18.3334 10.6415 18.3334 10.7498 18.3001C11.2915 18.1834 11.7415 17.8167 11.9498 17.3167C12.0332 17.1167 12.0832 16.8917 12.0832 16.6667H8.74984C8.74984 17.1088 8.92543 17.5327 9.23799 17.8453C9.55055 18.1578 9.97448 18.3334 10.4165 18.3334ZM15.8332 8.75008C15.8332 6.19175 14.0498 4.05008 11.6665 3.48341V2.91675C11.6665 2.58523 11.5348 2.26729 11.3004 2.03286C11.066 1.79844 10.748 1.66675 10.4165 1.66675C10.085 1.66675 9.76704 1.79844 9.53262 2.03286C9.2982 2.26729 9.1665 2.58523 9.1665 2.91675V3.48341C6.77484 4.05008 4.99984 6.19175 4.99984 8.75008V13.3334L3.33317 15.0001V15.8334H17.4998V15.0001L15.8332 13.3334V8.75008ZM17.4748 8.33341H19.1415C19.0165 5.65841 17.6998 3.30841 15.7082 1.79175L14.5165 2.98341C16.2165 4.16675 17.3498 6.12508 17.4748 8.33341ZM6.3165 2.98341L5.12484 1.79175C3.13317 3.30841 1.8165 5.65841 1.6665 8.33341H3.33317C3.48317 6.12508 4.6165 4.16675 6.3165 2.98341Z" fill="currentColor"/>
</svg>
