<svg width="20" height="20" viewBox="0 0 20 20" fill="none" xmlns="http://www.w3.org/2000/svg">
<path d="M14.5833 10.8334C13.5888 10.8334 12.6349 11.2285 11.9317 11.9318C11.2284 12.635 10.8333 13.5889 10.8333 14.5834C10.8333 15.578 11.2284 16.5318 11.9317 17.2351C12.6349 17.9383 13.5888 18.3334 14.5833 18.3334C15.5779 18.3334 16.5317 17.9383 17.235 17.2351C17.9382 16.5318 18.3333 15.578 18.3333 14.5834C18.3333 13.5889 17.9382 12.635 17.235 11.9318C16.5317 11.2285 15.5779 10.8334 14.5833 10.8334ZM14.5833 12.0834C15.2464 12.0834 15.8823 12.3468 16.3511 12.8156C16.8199 13.2845 17.0833 13.9204 17.0833 14.5834C17.0788 15.0236 16.958 15.4548 16.7333 15.8334L13.3333 12.4334C13.7119 12.2087 14.1431 12.088 14.5833 12.0834ZM12.4333 13.3334L15.8333 16.7334C15.4548 16.9581 15.0235 17.0788 14.5833 17.0834C13.9203 17.0834 13.2844 16.82 12.8156 16.3512C12.3467 15.8823 12.0833 15.2465 12.0833 14.5834C12.0879 14.1432 12.2086 13.712 12.4333 13.3334ZM10 1.66675C9.08333 1.66675 8.33333 2.41675 8.33333 3.33341C8.33333 3.41675 8.33333 3.49175 8.33333 3.57508C5.93333 4.28341 4.16667 6.51675 4.16667 9.16675V14.1667L2.5 15.8334V16.6667H9.58333C9.36525 16.1355 9.23304 15.5729 9.19167 15.0001H5.83333V9.16675C5.83333 8.06168 6.27232 7.00187 7.05372 6.22047C7.83512 5.43907 8.89493 5.00008 10 5.00008C11.1051 5.00008 12.1649 5.43907 12.9463 6.22047C13.7277 7.00187 14.1667 8.06168 14.1667 9.16675C14.3055 9.1614 14.4445 9.1614 14.5833 9.16675C15.0044 9.16799 15.4239 9.21833 15.8333 9.31675V9.16675C15.8333 6.51675 14.0667 4.28341 11.6667 3.57508C11.6667 3.49175 11.6667 3.41675 11.6667 3.33341C11.6667 2.41675 10.925 1.66675 10 1.66675ZM8.33333 17.5001C8.33333 18.4251 9.08333 19.1667 10 19.1667C10.4167 19.1667 10.8083 19.0084 11.1083 18.7501C10.6854 18.3913 10.32 17.9698 10.025 17.5001H8.33333Z" fill="currentColor"/>
</svg>
