<svg width="20" height="20" viewBox="0 0 20 20" fill="none" xmlns="http://www.w3.org/2000/svg">
<path d="M14.1665 14.1667V8.75008C14.1665 6.66675 12.4998 5.00008 10.4165 5.00008C8.33317 5.00008 6.6665 6.66675 6.6665 8.75008V14.1667H14.1665ZM15.8332 13.3334L17.4998 15.0001V15.8334H3.33317V15.0001L4.99984 13.3334V8.75008C4.99984 6.19175 6.77484 4.05008 9.1665 3.48341V2.91675C9.1665 2.58523 9.2982 2.26729 9.53262 2.03286C9.76704 1.79844 10.085 1.66675 10.4165 1.66675C10.748 1.66675 11.066 1.79844 11.3004 2.03286C11.5348 2.26729 11.6665 2.58523 11.6665 2.91675V3.48341C14.0498 4.05008 15.8332 6.19175 15.8332 8.75008V13.3334ZM10.4165 18.3334C9.97448 18.3334 9.55055 18.1578 9.23799 17.8453C8.92543 17.5327 8.74984 17.1088 8.74984 16.6667H12.0832C12.0832 17.1088 11.9076 17.5327 11.595 17.8453C11.2825 18.1578 10.8585 18.3334 10.4165 18.3334ZM17.4748 8.33341C17.3498 6.12508 16.2165 4.16675 14.5165 2.98341L15.7082 1.79175C17.6998 3.30841 19.0165 5.65841 19.1415 8.33341H17.4748ZM6.3165 2.98341C4.6165 4.16675 3.48317 6.12508 3.33317 8.33341H1.6665C1.8165 5.65841 3.13317 3.30841 5.12484 1.79175L6.3165 2.98341Z" fill="currentColor"/>
</svg>
