<svg width="20" height="20" viewBox="0 0 20 20" fill="none" xmlns="http://www.w3.org/2000/svg">
<path fill-rule="evenodd" clip-rule="evenodd" d="M10.0001 1.66663C5.41675 1.66663 1.66675 5.41663 1.66675 9.99996C1.66675 14.5833 5.41675 18.3333 10.0001 18.3333C14.5834 18.3333 18.3334 14.5833 18.3334 9.99996C18.3334 5.41663 14.5834 1.66663 10.0001 1.66663V1.66663ZM3.33341 9.99996C3.33341 6.33329 6.33341 3.33329 10.0001 3.33329C11.5001 3.33329 12.9167 3.83329 14.0834 4.74996L4.75008 14.0833C3.83341 12.9166 3.33341 11.5 3.33341 9.99996V9.99996ZM10.0001 16.6666C8.50008 16.6666 7.08342 16.1666 5.91675 15.25L15.2501 5.91663C16.1667 7.08329 16.6667 8.49996 16.6667 9.99996C16.6667 13.6666 13.6667 16.6666 10.0001 16.6666V16.6666Z" fill="currentColor"/>
</svg>
