<svg width="20" height="20" viewBox="0 0 20 20" fill="none" xmlns="http://www.w3.org/2000/svg">
<path d="M10.0001 1.66675C5.40008 1.66675 1.66675 5.40008 1.66675 10.0001C1.66675 14.6001 5.40008 18.3334 10.0001 18.3334C14.6001 18.3334 18.3334 14.6001 18.3334 10.0001C18.3334 5.40008 14.6001 1.66675 10.0001 1.66675ZM3.33341 10.0001C3.33341 6.31675 6.31675 3.33341 10.0001 3.33341C11.5417 3.33341 12.9584 3.85841 14.0834 4.74175L4.74175 14.0834C3.85841 12.9584 3.33341 11.5417 3.33341 10.0001ZM10.0001 16.6667C8.45841 16.6667 7.04175 16.1417 5.91675 15.2584L15.2584 5.91675C16.1417 7.04175 16.6667 8.45841 16.6667 10.0001C16.6667 13.6834 13.6834 16.6667 10.0001 16.6667Z" fill="currentColor"/>
</svg>
