<svg width="20" height="20" viewBox="0 0 20 20" fill="none" xmlns="http://www.w3.org/2000/svg">
<path d="M15.8333 15.0001H7.5C7.05797 15.0001 6.63405 14.8245 6.32149 14.5119C6.00893 14.1994 5.83333 13.7754 5.83333 13.3334V3.33341C5.83333 2.89139 6.00893 2.46746 6.32149 2.1549C6.63405 1.84234 7.05797 1.66675 7.5 1.66675H8.33333V5.83341L10 4.58341L11.6667 5.83341V1.66675H15.8333C16.2754 1.66675 16.6993 1.84234 17.0118 2.1549C17.3244 2.46746 17.5 2.89139 17.5 3.33341V13.3334C17.5 13.7754 17.3244 14.1994 17.0118 14.5119C16.6993 14.8245 16.2754 15.0001 15.8333 15.0001ZM14.1667 16.6667V18.3334H4.16667C3.72464 18.3334 3.30072 18.1578 2.98816 17.8453C2.67559 17.5327 2.5 17.1088 2.5 16.6667V5.00008H4.16667V16.6667H14.1667Z" fill="currentColor"/>
</svg>
