<svg width="20" height="20" viewBox="0 0 20 20" fill="none" xmlns="http://www.w3.org/2000/svg">
<path d="M14.1665 2.5C14.6085 2.5 15.0325 2.67559 15.345 2.98816C15.6576 3.30072 15.8332 3.72464 15.8332 4.16667V17.5L9.99984 15L4.1665 17.5V4.16667C4.1665 3.24167 4.9165 2.5 5.83317 2.5H14.1665ZM9.1665 9.16667C8.72448 9.16667 8.30055 9.34226 7.98799 9.65482C7.67543 9.96738 7.49984 10.3913 7.49984 10.8333C7.49984 11.2754 7.67543 11.6993 7.98799 12.0118C8.30055 12.3244 8.72448 12.5 9.1665 12.5C9.60853 12.5 10.0325 12.3244 10.345 12.0118C10.6576 11.6993 10.8332 11.2754 10.8332 10.8333V6.66667H13.3332V5H9.99984V9.39167C9.75817 9.25 9.4665 9.16667 9.1665 9.16667Z" fill="currentColor"/>
</svg>
