<svg width="20" height="20" viewBox="0 0 20 20" fill="none" xmlns="http://www.w3.org/2000/svg">
<path d="M5.18334 9.82079C4.90834 10.0958 4.75834 10.4375 4.71668 10.7958L9.30834 12.7625L16.3833 5.69579C17.0333 5.03746 17.0333 3.98746 16.3833 3.33746L15.2 2.15413C14.55 1.50413 13.5 1.50413 12.8417 2.15413L5.18334 9.82079ZM3.33334 13.2291V18.0208L8.17501 13.6708L4.00834 12.0041L3.33334 13.2291ZM13.4333 3.92079C13.75 3.59579 14.2917 3.59579 14.6167 3.92079C14.9417 4.25413 14.9417 4.77913 14.6167 5.10413C14.2917 5.42913 13.75 5.42913 13.4333 5.10413C13.1083 4.77913 13.1083 4.25413 13.4333 3.92079Z" fill="currentColor"/>
</svg>
