<svg width="20" height="20" viewBox="0 0 20 20" fill="none" xmlns="http://www.w3.org/2000/svg">
<path d="M5.83341 1.66675H14.1667C14.6088 1.66675 15.0327 1.84234 15.3453 2.1549C15.6578 2.46746 15.8334 2.89139 15.8334 3.33341V16.6667C15.8334 17.1088 15.6578 17.5327 15.3453 17.8453C15.0327 18.1578 14.6088 18.3334 14.1667 18.3334H5.83341C5.39139 18.3334 4.96746 18.1578 4.6549 17.8453C4.34234 17.5327 4.16675 17.1088 4.16675 16.6667V3.33341C4.16675 2.89139 4.34234 2.46746 4.6549 2.1549C4.96746 1.84234 5.39139 1.66675 5.83341 1.66675V1.66675ZM5.83341 3.33341V6.66675H14.1667V3.33341H5.83341ZM5.83341 8.33341V10.0001H7.50008V8.33341H5.83341ZM9.16675 8.33341V10.0001H10.8334V8.33341H9.16675ZM12.5001 8.33341V10.0001H14.1667V8.33341H12.5001ZM5.83341 11.6667V13.3334H7.50008V11.6667H5.83341ZM9.16675 11.6667V13.3334H10.8334V11.6667H9.16675ZM12.5001 11.6667V13.3334H14.1667V11.6667H12.5001ZM5.83341 15.0001V16.6667H7.50008V15.0001H5.83341ZM9.16675 15.0001V16.6667H10.8334V15.0001H9.16675ZM12.5001 15.0001V16.6667H14.1667V15.0001H12.5001Z" fill="currentColor"/>
</svg>
