<svg width="20" height="20" viewBox="0 0 20 20" fill="none" xmlns="http://www.w3.org/2000/svg">
<path d="M7.50008 2.5L5.97508 4.16667H3.33341C2.89139 4.16667 2.46746 4.34226 2.1549 4.65482C1.84234 4.96738 1.66675 5.39131 1.66675 5.83333V15.8333C1.66675 16.2754 1.84234 16.6993 2.1549 17.0118C2.46746 17.3244 2.89139 17.5 3.33341 17.5H16.6667C17.1088 17.5 17.5327 17.3244 17.8453 17.0118C18.1578 16.6993 18.3334 16.2754 18.3334 15.8333V5.83333C18.3334 5.39131 18.1578 4.96738 17.8453 4.65482C17.5327 4.34226 17.1088 4.16667 16.6667 4.16667H14.0251L12.5001 2.5H7.50008ZM10.0001 15C8.89501 15 7.8352 14.561 7.0538 13.7796C6.2724 12.9982 5.83341 11.9384 5.83341 10.8333C5.83341 9.72826 6.2724 8.66846 7.0538 7.88705C7.8352 7.10565 8.89501 6.66667 10.0001 6.66667C11.1051 6.66667 12.165 7.10565 12.9464 7.88705C13.7278 8.66846 14.1667 9.72826 14.1667 10.8333C14.1667 11.9384 13.7278 12.9982 12.9464 13.7796C12.165 14.561 11.1051 15 10.0001 15V15ZM10.0001 14.1667L11.0417 11.875L13.3334 10.8333L11.0417 9.79167L10.0001 7.5L8.95841 9.79167L6.66675 10.8333L8.95841 11.875" fill="currentColor"/>
</svg>
