<svg width="20" height="20" viewBox="0 0 20 20" fill="none" xmlns="http://www.w3.org/2000/svg">
<path d="M10.0001 15C8.64175 15 7.45008 14.3417 6.66675 13.3333H10.0001C10.6631 13.3333 11.299 13.0699 11.7678 12.6011C12.2367 12.1323 12.5001 11.4964 12.5001 10.8333C12.5001 10.5417 12.4417 10.2583 12.3501 10H14.0834C14.1334 10.2667 14.1667 10.55 14.1667 10.8333C14.1667 11.9384 13.7278 12.9982 12.9464 13.7796C12.165 14.561 11.1051 15 10.0001 15V15ZM10.0001 6.66667C11.3584 6.66667 12.5501 7.325 13.3334 8.33333H10.0001C9.33704 8.33333 8.70115 8.59672 8.23231 9.06557C7.76347 9.53441 7.50008 10.1703 7.50008 10.8333C7.50008 11.125 7.55841 11.4 7.65008 11.6667H5.91675C5.85841 11.4 5.83341 11.1167 5.83341 10.8333C5.83341 9.72826 6.2724 8.66846 7.0538 7.88705C7.8352 7.10565 8.89501 6.66667 10.0001 6.66667V6.66667ZM16.6667 4.16667H14.0251L12.5001 2.5H7.50008L5.97508 4.16667H3.33341C2.89139 4.16667 2.46746 4.34226 2.1549 4.65482C1.84234 4.96738 1.66675 5.39131 1.66675 5.83333V15.8333C1.66675 16.2754 1.84234 16.6993 2.1549 17.0118C2.46746 17.3244 2.89139 17.5 3.33341 17.5H16.6667C17.1088 17.5 17.5327 17.3244 17.8453 17.0118C18.1578 16.6993 18.3334 16.2754 18.3334 15.8333V5.83333C18.3334 4.90833 17.5834 4.16667 16.6667 4.16667Z" fill="currentColor"/>
</svg>
