<svg width="20" height="20" viewBox="0 0 20 20" fill="none" xmlns="http://www.w3.org/2000/svg">
<path d="M10.0001 5C9.07508 5 8.33341 4.25 8.33341 3.33333C8.33341 2.89131 8.50901 2.46738 8.82157 2.15482C9.13413 1.84226 9.55805 1.66667 10.0001 1.66667C10.9084 1.66667 11.6667 2.41667 11.6667 3.33333C11.6667 3.77536 11.4912 4.19928 11.1786 4.51184C10.866 4.82441 10.4421 5 10.0001 5ZM14.1667 0H5.83341C5.39139 0 4.96746 0.175595 4.6549 0.488155C4.34234 0.800716 4.16675 1.22464 4.16675 1.66667V13.3333C4.16675 13.7754 4.34234 14.1993 4.6549 14.5118C4.96746 14.8244 5.39139 15 5.83341 15H14.1667C14.6088 15 15.0327 14.8244 15.3453 14.5118C15.6578 14.1993 15.8334 13.7754 15.8334 13.3333V1.66667C15.8334 1.22464 15.6578 0.800716 15.3453 0.488155C15.0327 0.175595 14.6088 0 14.1667 0V0ZM11.6667 16.6667V18.3333H15.8334V16.6667H11.6667ZM8.33341 16.6667H4.16675V18.3333H8.33341V20L10.8334 17.5L8.33341 15V16.6667Z" fill="currentColor"/>
</svg>
