<svg width="20" height="20" viewBox="0 0 20 20" fill="none" xmlns="http://www.w3.org/2000/svg">
<path d="M4.16667 11.6667H15.8333L14.5833 7.91667H5.41667L4.16667 11.6667ZM14.5833 15.8333C14.9149 15.8333 15.2328 15.7016 15.4672 15.4672C15.7016 15.2328 15.8333 14.9149 15.8333 14.5833C15.8333 14.2518 15.7016 13.9339 15.4672 13.6995C15.2328 13.465 14.9149 13.3333 14.5833 13.3333C14.2518 13.3333 13.9339 13.465 13.6995 13.6995C13.465 13.9339 13.3333 14.2518 13.3333 14.5833C13.3333 14.9149 13.465 15.2328 13.6995 15.4672C13.9339 15.7016 14.2518 15.8333 14.5833 15.8333ZM5.41667 15.8333C5.74819 15.8333 6.06613 15.7016 6.30055 15.4672C6.53497 15.2328 6.66667 14.9149 6.66667 14.5833C6.66667 14.2518 6.53497 13.9339 6.30055 13.6995C6.06613 13.465 5.74819 13.3333 5.41667 13.3333C5.08515 13.3333 4.7672 13.465 4.53278 13.6995C4.29836 13.9339 4.16667 14.2518 4.16667 14.5833C4.16667 14.9149 4.29836 15.2328 4.53278 15.4672C4.7672 15.7016 5.08515 15.8333 5.41667 15.8333ZM15.7667 7.5L17.5 12.5V19.1667C17.5 19.3877 17.4122 19.5996 17.2559 19.7559C17.0996 19.9122 16.8877 20 16.6667 20H15.8333C15.6123 20 15.4004 19.9122 15.2441 19.7559C15.0878 19.5996 15 19.3877 15 19.1667V18.3333H5V19.1667C5 19.3877 4.9122 19.5996 4.75592 19.7559C4.59964 19.9122 4.38768 20 4.16667 20H3.33333C3.11232 20 2.90036 19.9122 2.74408 19.7559C2.5878 19.5996 2.5 19.3877 2.5 19.1667V12.5L4.23333 7.5C4.4 7.01667 4.875 6.66667 5.41667 6.66667H14.5833C15.125 6.66667 15.6 7.01667 15.7667 7.5ZM10 0C11.7667 0 13.4583 0.716667 14.7083 1.95833L13.525 3.14167C12.5917 2.20833 11.3167 1.66667 10 1.66667C8.68333 1.66667 7.40833 2.20833 6.475 3.14167L5.3 1.95833C6.54167 0.716667 8.23333 0 10 0ZM10 3.33333C10.8833 3.33333 11.725 3.7 12.35 4.31667L11.1667 5.5C10.8583 5.19167 10.4417 5 10 5C9.58333 5 9.14167 5.19167 8.83333 5.5L7.65 4.31667C8.275 3.7 9.11667 3.33333 10 3.33333Z" fill="currentColor"/>
</svg>
