<svg width="20" height="20" viewBox="0 0 20 20" fill="none" xmlns="http://www.w3.org/2000/svg">
<path d="M4.16667 8.33325L5.41667 4.58325H14.5833L15.8333 8.33325H4.16667ZM14.5833 12.4999C14.2518 12.4999 13.9339 12.3682 13.6995 12.1338C13.465 11.8994 13.3333 11.5814 13.3333 11.2499C13.3333 10.9184 13.465 10.6005 13.6995 10.366C13.9339 10.1316 14.2518 9.99992 14.5833 9.99992C14.9149 9.99992 15.2328 10.1316 15.4672 10.366C15.7016 10.6005 15.8333 10.9184 15.8333 11.2499C15.8333 11.5814 15.7016 11.8994 15.4672 12.1338C15.2328 12.3682 14.9149 12.4999 14.5833 12.4999ZM5.41667 12.4999C5.08515 12.4999 4.7672 12.3682 4.53278 12.1338C4.29836 11.8994 4.16667 11.5814 4.16667 11.2499C4.16667 10.9184 4.29836 10.6005 4.53278 10.366C4.7672 10.1316 5.08515 9.99992 5.41667 9.99992C5.74819 9.99992 6.06613 10.1316 6.30055 10.366C6.53497 10.6005 6.66667 10.9184 6.66667 11.2499C6.66667 11.5814 6.53497 11.8994 6.30055 12.1338C6.06613 12.3682 5.74819 12.4999 5.41667 12.4999ZM15.7667 4.16659C15.6 3.68325 15.1333 3.33325 14.5833 3.33325H5.41667C4.86667 3.33325 4.4 3.68325 4.23333 4.16659L2.5 9.16659V15.8333C2.5 16.0543 2.5878 16.2662 2.74408 16.4225C2.90036 16.5788 3.11232 16.6666 3.33333 16.6666H4.16667C4.38768 16.6666 4.59964 16.5788 4.75592 16.4225C4.9122 16.2662 5 16.0543 5 15.8333V14.9999H15V15.8333C15 16.0543 15.0878 16.2662 15.2441 16.4225C15.4004 16.5788 15.6123 16.6666 15.8333 16.6666H16.6667C16.8877 16.6666 17.0996 16.5788 17.2559 16.4225C17.4122 16.2662 17.5 16.0543 17.5 15.8333V9.16659L15.7667 4.16659Z" fill="currentColor"/>
</svg>
