<svg width="20" height="20" viewBox="0 0 20 20" fill="none" xmlns="http://www.w3.org/2000/svg">
<path d="M18.0419 3.41675L16.9252 2.95008V10.4751L18.9502 5.59175C19.2919 4.74175 18.9002 3.76675 18.0419 3.41675ZM1.79186 6.50008L5.92519 16.4584C6.18353 17.1001 6.79186 17.4917 7.43353 17.5084C7.65019 17.5084 7.87519 17.4667 8.09186 17.3751L14.2335 14.8334C14.8585 14.5751 15.2419 13.9584 15.2585 13.3417C15.2669 13.1251 15.2252 12.8834 15.1502 12.6667L10.9835 2.70841C10.7419 2.06675 10.1252 1.67508 9.47519 1.66675C9.25853 1.66675 9.04186 1.71675 8.83353 1.79175L2.70019 4.33341C1.85019 4.68341 1.44186 5.65842 1.79186 6.50008ZM15.2502 3.33341C15.2502 2.89139 15.0746 2.46746 14.762 2.1549C14.4495 1.84234 14.0256 1.66675 13.5835 1.66675H12.3752L15.2502 8.61675" fill="currentColor"/>
</svg>
