<svg width="20" height="20" viewBox="0 0 20 20" fill="none" xmlns="http://www.w3.org/2000/svg">
<path d="M4.16683 1.66675H15.8335C16.0545 1.66675 16.2665 1.75455 16.4228 1.91083C16.579 2.06711 16.6668 2.27907 16.6668 2.50008V10.8334C16.6668 11.0544 16.579 11.2664 16.4228 11.4227C16.2665 11.579 16.0545 11.6667 15.8335 11.6667H4.16683C3.94582 11.6667 3.73385 11.579 3.57757 11.4227C3.42129 11.2664 3.3335 11.0544 3.3335 10.8334V2.50008C3.3335 2.27907 3.42129 2.06711 3.57757 1.91083C3.73385 1.75455 3.94582 1.66675 4.16683 1.66675ZM5.00016 3.33341V10.0001H15.0002V3.33341H5.00016ZM16.6668 14.1667C16.6668 14.3878 16.579 14.5997 16.4228 14.756C16.2665 14.9123 16.0545 15.0001 15.8335 15.0001H4.16683C3.94582 15.0001 3.73385 14.9123 3.57757 14.756C3.42129 14.5997 3.3335 14.3878 3.3335 14.1667V13.3334H16.6668V14.1667ZM16.6668 17.5001C16.6668 17.7211 16.579 17.9331 16.4228 18.0893C16.2665 18.2456 16.0545 18.3334 15.8335 18.3334H4.16683C3.94582 18.3334 3.73385 18.2456 3.57757 18.0893C3.42129 17.9331 3.3335 17.7211 3.3335 17.5001V16.6667H16.6668V17.5001Z" fill="currentColor"/>
</svg>
