<svg width="20" height="20" viewBox="0 0 20 20" fill="none" xmlns="http://www.w3.org/2000/svg">
<g clip-path="url(#clip0_18832_5110)">
<path d="M18.4029 2.5H2.43072C1.56023 2.53333 0.865441 3.25833 0.833496 4.16667V15.8333C0.865441 16.7417 1.56023 17.4667 2.43072 17.5H18.4029C19.2734 17.4667 19.9682 16.7417 20.0002 15.8333V4.16667C19.9682 3.25833 19.2734 2.53333 18.4029 2.5ZM18.4029 15.8333H2.43072V4.16667H18.4029V15.8333ZM12.0141 14.1667V13.125C12.0141 11.7417 9.34669 11.0417 8.021 11.0417C6.6953 11.0417 4.02794 11.7417 4.02794 13.125V14.1667H12.0141ZM8.021 5.83333C7.49148 5.83333 6.98366 6.05283 6.60924 6.44353C6.23482 6.83423 6.02447 7.36413 6.02447 7.91667C6.02447 8.19025 6.07611 8.46116 6.17644 8.71392C6.27678 8.96669 6.42384 9.19635 6.60924 9.38981C6.98366 9.78051 7.49148 10 8.021 10C8.28318 10 8.5428 9.94611 8.78503 9.84142C9.02726 9.73672 9.24736 9.58326 9.43275 9.38981C9.61815 9.19635 9.76521 8.96669 9.86555 8.71392C9.96588 8.46116 10.0175 8.19025 10.0175 7.91667C10.0175 7.64308 9.96588 7.37217 9.86555 7.11941C9.76521 6.86665 9.61815 6.63698 9.43275 6.44353C9.24736 6.25007 9.02726 6.09661 8.78503 5.99192C8.5428 5.88722 8.28318 5.83333 8.021 5.83333ZM12.0141 5.83333V6.66667H16.8057V5.83333H12.0141ZM12.0141 7.5V8.33333H16.8057V7.5H12.0141ZM12.0141 9.16667V10H15.2085V9.16667H12.0141Z" fill="currentColor"/>
</g>
<defs>
<clipPath id="clip0_18832_5110">
<rect width="20" height="20" fill="currentColor"/>
</clipPath>
</defs>
</svg>
