<svg width="20" height="20" viewBox="0 0 20 20" fill="none" xmlns="http://www.w3.org/2000/svg">
<path d="M9.47519 2.5C9.25853 2.5 9.04186 2.55 8.83353 2.625L2.70019 5.16667C1.85019 5.51667 1.44186 6.49167 1.79186 7.33333L5.92519 17.2917C6.18353 17.9333 6.79186 18.3167 7.43353 18.3333C7.65019 18.3333 7.87519 18.3083 8.09186 18.2083L14.2335 15.6667C14.8585 15.4083 15.2419 14.7917 15.2585 14.1667C15.2669 13.9583 15.2252 13.7167 15.1502 13.5L10.9835 3.54167C10.7419 2.9 10.1252 2.50833 9.47519 2.5ZM12.3752 2.5L15.2502 9.45833V4.16667C15.2502 3.72464 15.0746 3.30072 14.762 2.98816C14.4495 2.67559 14.0256 2.5 13.5835 2.5H12.3752ZM16.9252 3.78333V11.3083L18.9502 6.425C19.2919 5.575 18.9002 4.60833 18.0419 4.25833L16.9252 3.78333ZM9.47519 4.14167L13.6252 14.1583L7.46686 16.7083L3.31686 6.7" fill="currentColor"/>
</svg>
