<svg width="20" height="20" viewBox="0 0 20 20" fill="none" xmlns="http://www.w3.org/2000/svg">
<path d="M9.99984 7.49992H11.6665V4.99992H14.1665V3.33325H11.6665V0.833252H9.99984V3.33325H7.49984V4.99992H9.99984V7.49992ZM6.6665 14.9999C6.22448 14.9999 5.80055 15.1755 5.48799 15.4881C5.17543 15.8006 4.99984 16.2246 4.99984 16.6666C4.99984 17.1086 5.17543 17.5325 5.48799 17.8451C5.80055 18.1577 6.22448 18.3333 6.6665 18.3333C7.10853 18.3333 7.53245 18.1577 7.84501 17.8451C8.15758 17.5325 8.33317 17.1086 8.33317 16.6666C8.33317 16.2246 8.15758 15.8006 7.84501 15.4881C7.53245 15.1755 7.10853 14.9999 6.6665 14.9999ZM14.9998 14.9999C14.5578 14.9999 14.1339 15.1755 13.8213 15.4881C13.5088 15.8006 13.3332 16.2246 13.3332 16.6666C13.3332 17.1086 13.5088 17.5325 13.8213 17.8451C14.1339 18.1577 14.5578 18.3333 14.9998 18.3333C15.4419 18.3333 15.8658 18.1577 16.1783 17.8451C16.4909 17.5325 16.6665 17.1086 16.6665 16.6666C16.6665 16.2246 16.4909 15.8006 16.1783 15.4881C15.8658 15.1755 15.4419 14.9999 14.9998 14.9999ZM6.80817 12.2916L6.83317 12.1916L7.58317 10.8333H13.7915C14.4165 10.8333 14.9665 10.4916 15.2498 9.97492L18.4665 4.13325L17.0165 3.33325H17.0082L16.0915 4.99992L13.7915 9.16659H7.9415L7.83317 8.94158L5.9665 4.99992L5.17484 3.33325L4.3915 1.66659H1.6665V3.33325H3.33317L6.33317 9.65825L5.20817 11.6999C5.07484 11.9333 4.99984 12.2083 4.99984 12.4999C4.99984 12.9419 5.17543 13.3659 5.48799 13.6784C5.80055 13.991 6.22448 14.1666 6.6665 14.1666H16.6665V12.4999H7.0165C6.90817 12.4999 6.80817 12.4083 6.80817 12.2916Z" fill="currentColor"/>
</svg>
