<svg width="20" height="20" viewBox="0 0 20 20" fill="none" xmlns="http://www.w3.org/2000/svg">
<path d="M15 15C15.442 15 15.8659 15.1756 16.1785 15.4881C16.491 15.8007 16.6666 16.2246 16.6666 16.6666C16.6666 17.1087 16.491 17.5326 16.1785 17.8451C15.8659 18.1577 15.442 18.3333 15 18.3333C14.075 18.3333 13.3333 17.5833 13.3333 16.6666C13.3333 15.7416 14.075 15 15 15ZM1.66663 1.66663H4.39163L5.17496 3.33329H17.5C17.721 3.33329 17.9329 3.42109 18.0892 3.57737C18.2455 3.73365 18.3333 3.94561 18.3333 4.16663C18.3333 4.30829 18.2916 4.44996 18.2333 4.58329L15.25 9.97496C14.9666 10.4833 14.4166 10.8333 13.7916 10.8333H7.58329L6.83329 12.1916L6.80829 12.2916C6.80829 12.3469 6.83024 12.3999 6.86931 12.4389C6.90838 12.478 6.96137 12.5 7.01663 12.5H16.6666V14.1666H6.66663C5.74163 14.1666 4.99996 13.4166 4.99996 12.5C4.99996 12.2083 5.07496 11.9333 5.19996 11.7L6.33329 9.65829L3.33329 3.33329H1.66663V1.66663ZM6.66663 15C7.10865 15 7.53258 15.1756 7.84514 15.4881C8.1577 15.8007 8.33329 16.2246 8.33329 16.6666C8.33329 17.1087 8.1577 17.5326 7.84514 17.8451C7.53258 18.1577 7.10865 18.3333 6.66663 18.3333C5.74163 18.3333 4.99996 17.5833 4.99996 16.6666C4.99996 15.7416 5.74163 15 6.66663 15ZM14.1666 9.16663L16.4833 4.99996H5.94996L7.91663 9.16663H14.1666Z" fill="currentColor"/>
</svg>
