<svg width="20" height="20" viewBox="0 0 20 20" fill="none" xmlns="http://www.w3.org/2000/svg">
<path d="M4.16659 3.33325H19.1666V13.3333H4.16659V3.33325ZM11.6666 5.83325C12.3296 5.83325 12.9655 6.09664 13.4344 6.56548C13.9032 7.03433 14.1666 7.67021 14.1666 8.33325C14.1666 8.99629 13.9032 9.63218 13.4344 10.101C12.9655 10.5699 12.3296 10.8333 11.6666 10.8333C11.0035 10.8333 10.3677 10.5699 9.89882 10.101C9.42998 9.63218 9.16659 8.99629 9.16659 8.33325C9.16659 7.67021 9.42998 7.03433 9.89882 6.56548C10.3677 6.09664 11.0035 5.83325 11.6666 5.83325V5.83325ZM7.49992 4.99992C7.49992 5.44195 7.32432 5.86587 7.01176 6.17843C6.6992 6.49099 6.27528 6.66659 5.83325 6.66659V9.99992C6.27528 9.99992 6.6992 10.1755 7.01176 10.4881C7.32432 10.8006 7.49992 11.2246 7.49992 11.6666H15.8333C15.8333 11.2246 16.0088 10.8006 16.3214 10.4881C16.634 10.1755 17.0579 9.99992 17.4999 9.99992V6.66659C17.0579 6.66659 16.634 6.49099 16.3214 6.17843C16.0088 5.86587 15.8333 5.44195 15.8333 4.99992H7.49992ZM0.833252 6.66659H2.49992V14.9999H15.8333V16.6666H0.833252V6.66659Z" fill="currentColor"/>
</svg>
