<svg width="20" height="20" viewBox="0 0 20 20" fill="none" xmlns="http://www.w3.org/2000/svg">
<path d="M18.3333 14.1666H15V8.33325H18.3333V14.1666ZM19.1667 6.66659H14.1667C13.9457 6.66659 13.7337 6.75438 13.5774 6.91066C13.4211 7.06694 13.3333 7.2789 13.3333 7.49992V15.8333C13.3333 16.0543 13.4211 16.2662 13.5774 16.4225C13.7337 16.5788 13.9457 16.6666 14.1667 16.6666H19.1667C19.3877 16.6666 19.5996 16.5788 19.7559 16.4225C19.9122 16.2662 20 16.0543 20 15.8333V7.49992C20 7.2789 19.9122 7.06694 19.7559 6.91066C19.5996 6.75438 19.3877 6.66659 19.1667 6.66659ZM3.33333 4.99992H18.3333V3.33325H3.33333C2.89131 3.33325 2.46738 3.50885 2.15482 3.82141C1.84226 4.13397 1.66667 4.55789 1.66667 4.99992V14.1666H0V16.6666H11.6667V14.1666H3.33333V4.99992Z" fill="currentColor"/>
</svg>
