<svg width="20" height="20" viewBox="0 0 20 20" fill="none" xmlns="http://www.w3.org/2000/svg">
<path d="M19.1667 6.95841H14.1667C13.9457 6.95841 13.7337 7.04621 13.5774 7.20249C13.4211 7.35877 13.3333 7.57073 13.3333 7.79175V11.2751L15 12.9417V8.62508H18.3333V14.4584H16.5167L19.0167 16.9584H19.1667C19.3877 16.9584 19.5996 16.8706 19.7559 16.7143C19.9122 16.5581 20 16.3461 20 16.1251V7.79175C20 7.57073 19.9122 7.35877 19.7559 7.20249C19.5996 7.04621 19.3877 6.95841 19.1667 6.95841ZM3.33333 5.51675L12.275 14.4584H3.33333V5.51675ZM1.6 1.66675L0.541667 2.72508L2.05833 4.24175C1.81667 4.52508 1.66667 4.87508 1.66667 5.29175V14.4584H0V16.9584H14.775L16.7333 18.9167L17.7917 17.8584L3.24167 3.30841L1.6 1.66675ZM18.3333 5.29175V3.62508H5.68333L7.35 5.29175H18.3333Z" fill="currentColor"/>
</svg>
