<svg width="20" height="20" viewBox="0 0 20 20" fill="none" xmlns="http://www.w3.org/2000/svg">
<path d="M10.8334 17.5L12.5001 16.6667L14.1667 17.5V11.6667H10.8334M14.1667 7.5V5.83333L12.5001 6.66667L10.8334 5.83333V7.5L9.16675 8.33333L10.8334 9.16667V10.8333L12.5001 10L14.1667 10.8333V9.16667L15.8334 8.33333M16.6667 2.5H3.33341C2.89139 2.5 2.46746 2.67559 2.1549 2.98816C1.84234 3.30072 1.66675 3.72464 1.66675 4.16667V12.5C1.66675 12.942 1.84234 13.366 2.1549 13.6785C2.46746 13.9911 2.89139 14.1667 3.33341 14.1667H9.16675V12.5H3.33341V4.16667H16.6667V12.5H15.8334V14.1667H16.6667C17.1088 14.1667 17.5327 13.9911 17.8453 13.6785C18.1578 13.366 18.3334 12.942 18.3334 12.5V4.16667C18.3334 3.72464 18.1578 3.30072 17.8453 2.98816C17.5327 2.67559 17.1088 2.5 16.6667 2.5ZM9.16675 6.66667H4.16675V5H9.16675M7.50008 9.16667H4.16675V7.5H7.50008M9.16675 11.6667H4.16675V10H9.16675V11.6667Z" fill="currentColor"/>
</svg>
