<svg width="20" height="20" viewBox="0 0 20 20" fill="none" xmlns="http://www.w3.org/2000/svg">
<path d="M3.33329 2.5C2.40829 2.5 1.66663 3.24167 1.66663 4.16667V12.5C1.66663 12.942 1.84222 13.366 2.15478 13.6785C2.46734 13.9911 2.89127 14.1667 3.33329 14.1667H9.99996V18.3333L12.5 15.8333L15 18.3333V14.1667H16.6666C17.1087 14.1667 17.5326 13.9911 17.8451 13.6785C18.1577 13.366 18.3333 12.942 18.3333 12.5V6.66667V5V4.16667C18.3333 3.72464 18.1577 3.30072 17.8451 2.98816C17.5326 2.67559 17.1087 2.5 16.6666 2.5H13.3333H3.33329ZM9.99996 4.16667L12.5 5.83333L15 4.16667V7.08333L17.5 8.33333L15 9.58333V12.5L12.5 10.8333L9.99996 12.5V9.58333L7.49996 8.33333L9.99996 7.08333V4.16667ZM3.33329 4.16667H7.49996V5.83333H3.33329V4.16667ZM3.33329 7.5H5.83329V9.16667H3.33329V7.5ZM3.33329 10.8333H7.49996V12.5H3.33329V10.8333Z" fill="currentColor"/>
</svg>
