<svg width="20" height="20" viewBox="0 0 20 20" fill="none" xmlns="http://www.w3.org/2000/svg">
<path d="M3.33341 2.5C2.40841 2.5 1.66675 3.24167 1.66675 4.16667V12.5C1.66675 12.942 1.84234 13.366 2.1549 13.6785C2.46746 13.9911 2.89139 14.1667 3.33341 14.1667H10.0001V18.3333L12.5001 15.8333L15.0001 18.3333V14.1667H16.6667C17.1088 14.1667 17.5327 13.9911 17.8453 13.6785C18.1578 13.366 18.3334 12.942 18.3334 12.5V6.66667V5V4.16667C18.3334 3.72464 18.1578 3.30072 17.8453 2.98816C17.5327 2.67559 17.1088 2.5 16.6667 2.5H13.3334H3.33341ZM10.0001 4.16667L12.5001 5.83333L15.0001 4.16667V7.08333L17.5001 8.33333L15.0001 9.58333V12.5L12.5001 10.8333L10.0001 12.5V9.58333L7.50008 8.33333L10.0001 7.08333V4.16667ZM3.33341 4.16667H7.50008V5.83333H3.33341V4.16667ZM3.33341 7.5H5.83341V9.16667H3.33341V7.5ZM3.33341 10.8333H7.50008V12.5H3.33341V10.8333Z" fill="currentColor"/>
</svg>
