<svg width="20" height="20" viewBox="0 0 20 20" fill="none" xmlns="http://www.w3.org/2000/svg">
<path d="M5.99992 9.33325C7.47492 9.33325 8.66658 10.5249 8.66658 11.9999C8.66658 13.4749 7.47492 14.6666 5.99992 14.6666C4.52492 14.6666 3.33325 13.4749 3.33325 11.9999C3.33325 10.5249 4.52492 9.33325 5.99992 9.33325ZM12.3333 13.3333C12.7753 13.3333 13.1992 13.5088 13.5118 13.8214C13.8243 14.134 13.9999 14.5579 13.9999 14.9999C13.9999 15.4419 13.8243 15.8659 13.5118 16.1784C13.1992 16.491 12.7753 16.6666 12.3333 16.6666C11.8912 16.6666 11.4673 16.491 11.1547 16.1784C10.8422 15.8659 10.6666 15.4419 10.6666 14.9999C10.6666 14.5579 10.8422 14.134 11.1547 13.8214C11.4673 13.5088 11.8912 13.3333 12.3333 13.3333ZM12.6666 3.33325C13.1919 3.33325 13.712 3.43672 14.1973 3.63773C14.6826 3.83875 15.1236 4.13339 15.495 4.50482C15.8664 4.87626 16.1611 5.31722 16.3621 5.80252C16.5631 6.28782 16.6666 6.80796 16.6666 7.33325C16.6666 9.54159 14.8749 11.3333 12.6666 11.3333C11.6057 11.3333 10.5883 10.9118 9.83816 10.1617C9.08801 9.41153 8.66658 8.39412 8.66658 7.33325C8.66658 5.12492 10.4583 3.33325 12.6666 3.33325Z" fill="currentColor"/>
</svg>
