<svg width="20" height="20" viewBox="0 0 20 20" fill="none" xmlns="http://www.w3.org/2000/svg">
<path d="M16.6667 13.3334V3.33341H6.66675V13.3334H16.6667ZM18.3334 13.3334C18.3334 13.7754 18.1578 14.1994 17.8453 14.5119C17.5327 14.8245 17.1088 15.0001 16.6667 15.0001H6.66675C5.74175 15.0001 5.00008 14.2501 5.00008 13.3334V3.33341C5.00008 2.40841 5.74175 1.66675 6.66675 1.66675H16.6667C17.1088 1.66675 17.5327 1.84234 17.8453 2.1549C18.1578 2.46746 18.3334 2.89139 18.3334 3.33341V13.3334ZM13.3334 16.6667V18.3334H3.33341C2.89139 18.3334 2.46746 18.1578 2.1549 17.8453C1.84234 17.5327 1.66675 17.1088 1.66675 16.6667V5.83341H3.33341V16.6667H13.3334Z" fill="currentColor"/>
</svg>
