<svg width="20" height="20" viewBox="0 0 20 20" fill="none" xmlns="http://www.w3.org/2000/svg">
<path d="M9.99996 1.66675C5.39996 1.66675 1.66663 5.40008 1.66663 10.0001C1.66663 14.6001 5.39996 18.3334 9.99996 18.3334C14.6 18.3334 18.3333 14.6001 18.3333 10.0001C18.3333 5.40008 14.6 1.66675 9.99996 1.66675ZM9.99996 16.6667C6.32496 16.6667 3.33329 13.6751 3.33329 10.0001C3.33329 6.32508 6.32496 3.33341 9.99996 3.33341C13.675 3.33341 16.6666 6.32508 16.6666 10.0001C16.6666 13.6751 13.675 16.6667 9.99996 16.6667ZM13.825 6.31675L8.33329 11.8084L6.17496 9.65841L4.99996 10.8334L8.33329 14.1667L15 7.50008L13.825 6.31675Z" fill="currentColor"/>
</svg>
