<svg width="20" height="20" viewBox="0 0 20 20" fill="none" xmlns="http://www.w3.org/2000/svg">
<path d="M15.8333 2.49992H12.35C12 1.53325 11.0833 0.833252 10 0.833252C8.91667 0.833252 8 1.53325 7.65 2.49992H4.16667C3.25 2.49992 2.5 3.24992 2.5 4.16659V15.8333C2.5 16.7499 3.25 17.4999 4.16667 17.4999H15.8333C16.75 17.4999 17.5 16.7499 17.5 15.8333V4.16659C17.5 3.24992 16.75 2.49992 15.8333 2.49992ZM10 2.49992C10.4583 2.49992 10.8333 2.87492 10.8333 3.33325C10.8333 3.79159 10.4583 4.16659 10 4.16659C9.54167 4.16659 9.16667 3.79159 9.16667 3.33325C9.16667 2.87492 9.54167 2.49992 10 2.49992ZM5.83333 5.83325H14.1667V4.16659H15.8333V15.8333H4.16667V4.16659H5.83333V5.83325ZM10 14.1666V12.4999H14.1667V14.1666H10ZM10 9.16659V7.49992H14.1667V9.16659H10ZM6.66667 9.99992V7.49992H5.83333V6.66659H7.5V9.99992H6.66667ZM7.70833 11.6666C8.05 11.6666 8.33333 11.9499 8.33333 12.2916C8.33333 12.4583 8.26667 12.6166 8.15833 12.7249L6.76667 14.1666H8.33333V14.9999H5.83333V14.2333L7.5 12.4999H5.83333V11.6666H7.70833Z" fill="currentColor"/>
</svg>
