<svg width="20" height="20" viewBox="0 0 20 20" fill="none" xmlns="http://www.w3.org/2000/svg">
<path d="M15.8333 2.49992C16.2754 2.49992 16.6993 2.67551 17.0118 2.98807C17.3244 3.30063 17.5 3.72456 17.5 4.16659V15.8333C17.5 16.2753 17.3244 16.6992 17.0118 17.0118C16.6993 17.3243 16.2754 17.4999 15.8333 17.4999H4.16667C3.72464 17.4999 3.30072 17.3243 2.98816 17.0118C2.67559 16.6992 2.5 16.2753 2.5 15.8333V4.16659C2.5 3.72456 2.67559 3.30063 2.98816 2.98807C3.30072 2.67551 3.72464 2.49992 4.16667 2.49992H7.65C8 1.53325 8.91667 0.833252 10 0.833252C11.0833 0.833252 12 1.53325 12.35 2.49992H15.8333ZM10 2.49992C9.77899 2.49992 9.56702 2.58772 9.41074 2.744C9.25446 2.90028 9.16667 3.11224 9.16667 3.33325C9.16667 3.55427 9.25446 3.76623 9.41074 3.92251C9.56702 4.07879 9.77899 4.16659 10 4.16659C10.221 4.16659 10.433 4.07879 10.5893 3.92251C10.7455 3.76623 10.8333 3.55427 10.8333 3.33325C10.8333 3.11224 10.7455 2.90028 10.5893 2.744C10.433 2.58772 10.221 2.49992 10 2.49992ZM5.83333 5.83325V4.16659H4.16667V15.8333H15.8333V4.16659H14.1667V5.83325H5.83333ZM10 7.49992C10.442 7.49992 10.866 7.67551 11.1785 7.98807C11.4911 8.30063 11.6667 8.72456 11.6667 9.16659C11.6667 9.60861 11.4911 10.0325 11.1785 10.3451C10.866 10.6577 10.442 10.8333 10 10.8333C9.55797 10.8333 9.13405 10.6577 8.82149 10.3451C8.50893 10.0325 8.33333 9.60861 8.33333 9.16659C8.33333 8.72456 8.50893 8.30063 8.82149 7.98807C9.13405 7.67551 9.55797 7.49992 10 7.49992ZM6.66667 14.1666V13.3333C6.66667 12.4166 8.15833 11.6666 10 11.6666C11.8417 11.6666 13.3333 12.4166 13.3333 13.3333V14.1666H6.66667Z" fill="currentColor"/>
</svg>
