<svg width="20" height="20" viewBox="0 0 20 20" fill="none" xmlns="http://www.w3.org/2000/svg">
<path d="M12.5 19.1666C11.5833 19.1666 10.8333 18.4249 10.8333 17.4999V9.99992C10.8333 9.08325 11.5833 8.33325 12.5 8.33325H15.8333L19.1667 11.6666V17.4999C19.1667 18.4249 18.425 19.1666 17.5 19.1666H12.5ZM12.5 17.4999H17.5V12.3583L15.1417 9.99992H12.5V17.4999ZM15.8333 2.49992C16.75 2.49992 17.5 3.24992 17.5 4.16659V7.64159L16.525 6.66659H15.8333V4.16659H14.1667V5.83325H5.83333V4.16659H4.16667V15.8333H9.16667V17.4999H4.16667C3.25 17.4999 2.5 16.7499 2.5 15.8333V4.16659C2.5 3.24992 3.25 2.49992 4.16667 2.49992H7.65C8 1.53325 8.91667 0.833252 10 0.833252C11.0833 0.833252 12 1.53325 12.35 2.49992H15.8333ZM10 2.49992C9.54167 2.49992 9.16667 2.87492 9.16667 3.33325C9.16667 3.79159 9.54167 4.16659 10 4.16659C10.4583 4.16659 10.8333 3.79159 10.8333 3.33325C10.8333 2.87492 10.4583 2.49992 10 2.49992Z" fill="currentColor"/>
</svg>
