<svg width="20" height="20" viewBox="0 0 20 20" fill="none" xmlns="http://www.w3.org/2000/svg">
<path d="M10.0001 1.66675C5.39175 1.66675 1.66675 5.41675 1.66675 10.0001C1.66675 12.2102 2.54472 14.3298 4.10752 15.8926C4.88135 16.6665 5.80001 17.2803 6.81105 17.6991C7.8221 18.1179 8.90573 18.3334 10.0001 18.3334C11.8751 18.3334 13.6084 17.7001 15.0001 16.6667V14.4001C13.7751 15.7834 11.9917 16.6667 10.0001 16.6667C8.23197 16.6667 6.53628 15.9644 5.28604 14.7141C4.03579 13.4639 3.33341 11.7682 3.33341 10.0001C3.33341 8.23197 4.03579 6.53628 5.28604 5.28604C6.53628 4.03579 8.23197 3.33341 10.0001 3.33341C12.8001 3.33341 15.1917 5.05841 16.1751 7.50008H17.9501C16.8917 4.11675 13.7501 1.66675 10.0001 1.66675ZM9.16675 5.83341V10.8334L13.5417 13.4584L14.1667 12.4334L10.4167 10.2084V5.83341H9.16675ZM16.6667 9.16675V15.0001H18.3334V9.16675H16.6667ZM16.6667 16.6667V18.3334H18.3334V16.6667H16.6667Z" fill="currentColor"/>
</svg>
