<svg width="20" height="20" viewBox="0 0 20 20" fill="none" xmlns="http://www.w3.org/2000/svg">
<path d="M9.16667 0.833252C5.95 0.833252 3.33333 3.44992 3.33333 6.66659C3.33333 8.21368 3.94791 9.69741 5.04188 10.7914C6.13584 11.8853 7.61957 12.4999 9.16667 12.4999C12.3833 12.4999 15 9.89158 15 6.66659C15 3.44992 12.3833 0.833252 9.16667 0.833252ZM9.16667 2.62492C11.3917 2.62492 13.2083 4.43325 13.2083 6.66659C13.2083 8.89992 11.3917 10.7083 9.16667 10.7083C8.09475 10.7083 7.06674 10.2824 6.30878 9.52448C5.55082 8.76652 5.125 7.7385 5.125 6.66659C5.125 5.59467 5.55082 4.56666 6.30878 3.8087C7.06674 3.05074 8.09475 2.62492 9.16667 2.62492V2.62492ZM8.33333 4.16659V7.24158L10.9917 8.77492L11.6167 7.69158L9.58333 6.51659V4.16659H8.33333ZM2.5 13.3333V19.9999H4.16667V17.4999H14.1667V19.9999L17.5 16.6666L14.1667 13.3333V15.8333H4.16667V13.3333" fill="currentColor"/>
</svg>
