<svg width="20" height="20" viewBox="0 0 20 20" fill="none" xmlns="http://www.w3.org/2000/svg">
<path d="M12.1584 4.16663L10.0001 6.32496L7.84175 4.16663L6.66675 5.34163L8.82508 7.49996L6.66675 9.65829L7.84175 10.8333L10.0001 8.67496L12.1584 10.8333L13.3334 9.65829L11.1751 7.49996L13.3334 5.34163L12.1584 4.16663ZM14.1667 1.66663C14.6088 1.66663 15.0327 1.84222 15.3453 2.15478C15.6578 2.46734 15.8334 2.89127 15.8334 3.33329V11.6666C15.8334 12.1087 15.6578 12.5326 15.3453 12.8451C15.0327 13.1577 14.6088 13.3333 14.1667 13.3333H10.8334V15H11.6667C11.8878 15 12.0997 15.0878 12.256 15.244C12.4123 15.4003 12.5001 15.6123 12.5001 15.8333H18.3334V17.5H12.5001C12.5001 17.721 12.4123 17.9329 12.256 18.0892C12.0997 18.2455 11.8878 18.3333 11.6667 18.3333H8.33341C8.1124 18.3333 7.90044 18.2455 7.74416 18.0892C7.58788 17.9329 7.50008 17.721 7.50008 17.5H1.66675V15.8333H7.50008C7.50008 15.6123 7.58788 15.4003 7.74416 15.244C7.90044 15.0878 8.1124 15 8.33341 15H9.16675V13.3333H5.83341C4.90841 13.3333 4.16675 12.5833 4.16675 11.6666V3.33329C4.16675 2.89127 4.34234 2.46734 4.6549 2.15478C4.96746 1.84222 5.39139 1.66663 5.83341 1.66663H14.1667Z" fill="currentColor"/>
</svg>
