<svg width="20" height="20" viewBox="0 0 20 20" fill="none" xmlns="http://www.w3.org/2000/svg">
<path d="M16.125 8.36659C15.5583 5.49159 13.0333 3.33325 10 3.33325C7.59167 3.33325 5.5 4.69992 4.45833 6.69992C1.95 6.96659 0 9.09159 0 11.6666C0 14.4249 2.24167 16.6666 5 16.6666H15.8333C18.1333 16.6666 20 14.7999 20 12.4999C20 10.2999 18.2917 8.51659 16.125 8.36659ZM15.8333 14.9999H5C3.15833 14.9999 1.66667 13.5083 1.66667 11.6666C1.66667 9.82492 3.15833 8.33325 5 8.33325H5.59167C6.14167 6.40825 7.9 4.99992 10 4.99992C12.5333 4.99992 14.5833 7.04992 14.5833 9.58325V9.99992H15.8333C17.2167 9.99992 18.3333 11.1166 18.3333 12.4999C18.3333 13.8833 17.2167 14.9999 15.8333 14.9999Z" fill="currentColor"/>
</svg>
