<svg width="20" height="20" viewBox="0 0 20 20" fill="none" xmlns="http://www.w3.org/2000/svg">
<path d="M15.1042 8.35425C14.632 5.96536 12.5279 4.16675 10.0001 4.16675C7.99314 4.16675 6.25008 5.30564 5.38203 6.96536C3.29175 7.19453 1.66675 8.95841 1.66675 11.1112C1.66675 12.2163 2.10573 13.2761 2.88714 14.0575C3.66854 14.8389 4.72835 15.2779 5.83341 15.2779H14.8612C15.3172 15.2779 15.7687 15.188 16.19 15.0136C16.6112 14.8391 16.994 14.5833 17.3164 14.2609C17.6388 13.9384 17.8946 13.5557 18.0691 13.1344C18.2436 12.7131 18.3334 12.2616 18.3334 11.8056C18.3334 9.9723 16.9098 8.48619 15.1042 8.35425Z" fill="currentColor"/>
</svg>
