<svg width="20" height="20" viewBox="0 0 20 20" fill="none" xmlns="http://www.w3.org/2000/svg">
<path d="M6.66667 2.5C6.22464 2.5 5.80072 2.67559 5.48816 2.98816C5.17559 3.30072 5 3.72464 5 4.16667V7.5C5 7.94203 4.82441 8.36595 4.51184 8.67851C4.19928 8.99107 3.77536 9.16667 3.33333 9.16667H2.5V10.8333H3.33333C3.77536 10.8333 4.19928 11.0089 4.51184 11.3215C4.82441 11.634 5 12.058 5 12.5V15.8333C5 16.2754 5.17559 16.6993 5.48816 17.0118C5.80072 17.3244 6.22464 17.5 6.66667 17.5H8.33333V15.8333H6.66667V11.6667C6.66667 11.2246 6.49107 10.8007 6.17851 10.4882C5.86595 10.1756 5.44203 10 5 10C5.44203 10 5.86595 9.8244 6.17851 9.51184C6.49107 9.19928 6.66667 8.77536 6.66667 8.33333V4.16667H8.33333V2.5M13.3333 2.5C13.7754 2.5 14.1993 2.67559 14.5118 2.98816C14.8244 3.30072 15 3.72464 15 4.16667V7.5C15 7.94203 15.1756 8.36595 15.4882 8.67851C15.8007 8.99107 16.2246 9.16667 16.6667 9.16667H17.5V10.8333H16.6667C16.2246 10.8333 15.8007 11.0089 15.4882 11.3215C15.1756 11.634 15 12.058 15 12.5V15.8333C15 16.2754 14.8244 16.6993 14.5118 17.0118C14.1993 17.3244 13.7754 17.5 13.3333 17.5H11.6667V15.8333H13.3333V11.6667C13.3333 11.2246 13.5089 10.8007 13.8215 10.4882C14.134 10.1756 14.558 10 15 10C14.558 10 14.134 9.8244 13.8215 9.51184C13.5089 9.19928 13.3333 8.77536 13.3333 8.33333V4.16667H11.6667V2.5H13.3333Z" fill="currentColor"/>
</svg>
