<svg width="20" height="20" viewBox="0 0 20 20" fill="none" xmlns="http://www.w3.org/2000/svg" id="columns">
<path d="M16.2501 1.66675H3.75008C3.19755 1.66675 2.66764 1.88624 2.27694 2.27694C1.88624 2.66764 1.66675 3.19755 1.66675 3.75008V16.2501C1.66675 16.8026 1.88624 17.3325 2.27694 17.7232C2.66764 18.1139 3.19755 18.3334 3.75008 18.3334H16.2501C16.8026 18.3334 17.3325 18.1139 17.7232 17.7232C18.1139 17.3325 18.3334 16.8026 18.3334 16.2501V3.75008C18.3334 3.19755 18.1139 2.66764 17.7232 2.27694C17.3325 1.88624 16.8026 1.66675 16.2501 1.66675ZM8.91675 14.3334C8.91675 14.5986 8.81139 14.853 8.62385 15.0405C8.43632 15.2281 8.18196 15.3334 7.91675 15.3334H4.83341C4.28341 15.3334 3.83341 14.8834 3.83341 14.3334V4.83341C3.83341 4.5682 3.93877 4.31384 4.12631 4.12631C4.31384 3.93877 4.5682 3.83341 4.83341 3.83341H7.91675C8.46675 3.83341 8.91675 4.28341 8.91675 4.83341V14.3334ZM16.1667 10.1667C16.1667 10.7167 15.7167 11.1667 15.1667 11.1667H12.0834C11.5334 11.1667 11.0834 10.7167 11.0834 10.1667V4.83341C11.0834 4.28341 11.5334 3.83341 12.0834 3.83341H15.1667C15.7167 3.83341 16.1667 4.28341 16.1667 4.83341V10.1667Z" fill="currentColor"></path>
</svg>
