<svg width="20" height="20" viewBox="0 0 20 20" fill="none" xmlns="http://www.w3.org/2000/svg">
<path d="M5.83341 14.1667L8.50008 8.50008L14.1667 5.83341L11.5001 11.5001L5.83341 14.1667ZM10.0001 9.25008C9.80117 9.25008 9.6104 9.3291 9.46975 9.46975C9.3291 9.6104 9.25008 9.80117 9.25008 10.0001C9.25008 10.199 9.3291 10.3898 9.46975 10.5304C9.6104 10.6711 9.80117 10.7501 10.0001 10.7501C10.199 10.7501 10.3898 10.6711 10.5304 10.5304C10.6711 10.3898 10.7501 10.199 10.7501 10.0001C10.7501 9.80117 10.6711 9.6104 10.5304 9.46975C10.3898 9.3291 10.199 9.25008 10.0001 9.25008ZM10.0001 1.66675C11.0944 1.66675 12.1781 1.8823 13.1891 2.30109C14.2002 2.71987 15.1188 3.3337 15.8926 4.10752C16.6665 4.88135 17.2803 5.80001 17.6991 6.81105C18.1179 7.8221 18.3334 8.90573 18.3334 10.0001C18.3334 12.2102 17.4554 14.3298 15.8926 15.8926C14.3298 17.4554 12.2102 18.3334 10.0001 18.3334C8.90573 18.3334 7.8221 18.1179 6.81105 17.6991C5.80001 17.2803 4.88135 16.6665 4.10752 15.8926C2.54472 14.3298 1.66675 12.2102 1.66675 10.0001C1.66675 7.78994 2.54472 5.67033 4.10752 4.10752C5.67033 2.54472 7.78994 1.66675 10.0001 1.66675V1.66675ZM10.0001 3.33341C8.23197 3.33341 6.53628 4.03579 5.28604 5.28604C4.03579 6.53628 3.33341 8.23197 3.33341 10.0001C3.33341 11.7682 4.03579 13.4639 5.28604 14.7141C6.53628 15.9644 8.23197 16.6667 10.0001 16.6667C11.7682 16.6667 13.4639 15.9644 14.7141 14.7141C15.9644 13.4639 16.6667 11.7682 16.6667 10.0001C16.6667 8.23197 15.9644 6.53628 14.7141 5.28604C13.4639 4.03579 11.7682 3.33341 10.0001 3.33341V3.33341Z" fill="currentColor"/>
</svg>
