<svg width="20" height="20" viewBox="0 0 20 20" fill="none" xmlns="http://www.w3.org/2000/svg">
<path d="M15.8334 17.4999H6.66669V5.83325H15.8334V17.4999ZM15.8334 4.16659H6.66669C6.22466 4.16659 5.80074 4.34218 5.48818 4.65474C5.17561 4.9673 5.00002 5.39122 5.00002 5.83325V17.4999C5.00002 17.9419 5.17561 18.3659 5.48818 18.6784C5.80074 18.991 6.22466 19.1666 6.66669 19.1666H15.8334C16.2754 19.1666 16.6993 18.991 17.0119 18.6784C17.3244 18.3659 17.5 17.9419 17.5 17.4999V5.83325C17.5 5.39122 17.3244 4.9673 17.0119 4.65474C16.6993 4.34218 16.2754 4.16659 15.8334 4.16659V4.16659ZM13.3334 0.833252H3.33335C2.89133 0.833252 2.4674 1.00885 2.15484 1.32141C1.84228 1.63397 1.66669 2.05789 1.66669 2.49992V14.1666H3.33335V2.49992H13.3334V0.833252Z" fill="currentColor"/>
</svg>
