<svg width="20" height="20" viewBox="0 0 20 20" fill="none" xmlns="http://www.w3.org/2000/svg">
<path d="M1.66667 3.33341H5V1.66675H1.66667C1.22464 1.66675 0.800716 1.84234 0.488155 2.1549C0.175595 2.46746 0 2.89139 0 3.33341L0 6.66675H1.66667V3.33341ZM18.3333 1.66675H15V3.33341H18.3333V6.66675H20V3.33341C20 2.89139 19.8244 2.46746 19.5118 2.1549C19.1993 1.84234 18.7754 1.66675 18.3333 1.66675ZM1.66667 13.3334H0V16.6667C0 17.1088 0.175595 17.5327 0.488155 17.8453C0.800716 18.1578 1.22464 18.3334 1.66667 18.3334H5V16.6667H1.66667V13.3334ZM18.3333 16.6667H15V18.3334H18.3333C18.7754 18.3334 19.1993 18.1578 19.5118 17.8453C19.8244 17.5327 20 17.1088 20 16.6667V13.3334H18.3333V16.6667ZM3.33333 6.66675V13.3334C3.33333 13.7754 3.50893 14.1994 3.82149 14.5119C4.13405 14.8245 4.55797 15.0001 5 15.0001H15C15.442 15.0001 15.8659 14.8245 16.1785 14.5119C16.4911 14.1994 16.6667 13.7754 16.6667 13.3334V6.66675C16.6667 6.22472 16.4911 5.8008 16.1785 5.48824C15.8659 5.17568 15.442 5.00008 15 5.00008H5C4.55797 5.00008 4.13405 5.17568 3.82149 5.48824C3.50893 5.8008 3.33333 6.22472 3.33333 6.66675V6.66675ZM5 13.3334V10.0001H15V13.3334H5ZM15 6.66675V8.33341H5V6.66675H15Z" fill="currentColor"/>
</svg>
