<svg width="20" height="20" viewBox="0 0 20 20" fill="none" xmlns="http://www.w3.org/2000/svg">
<path d="M17.4999 5.83333V4.16667H5.83325V5.83333H17.4999ZM17.4999 12.5V8.33333H5.83325V12.5H17.4999ZM17.4999 2.5C17.9419 2.5 18.3659 2.67559 18.6784 2.98816C18.991 3.30072 19.1666 3.72464 19.1666 4.16667V12.5C19.1666 12.942 18.991 13.366 18.6784 13.6785C18.3659 13.9911 17.9419 14.1667 17.4999 14.1667H5.83325C4.90825 14.1667 4.16659 13.4167 4.16659 12.5V4.16667C4.16659 3.24167 4.90825 2.5 5.83325 2.5H17.4999ZM2.49992 15.8333H14.9999V17.5H2.49992C2.05789 17.5 1.63397 17.3244 1.32141 17.0118C1.00885 16.6993 0.833252 16.2754 0.833252 15.8333V6.66667H2.49992V15.8333Z" fill="currentColor"/>
</svg>
