<svg width="20" height="20" viewBox="0 0 20 20" fill="none" xmlns="http://www.w3.org/2000/svg">
<path d="M10.3999 9.08333C8.50825 8.59167 7.89992 8.08333 7.89992 7.29167C7.89992 6.38333 8.74159 5.75 10.1499 5.75C11.6333 5.75 12.1833 6.45833 12.2333 7.5H14.0749C14.0166 6.06667 13.1416 4.75 11.3999 4.325V2.5H8.89992V4.3C7.28325 4.65 5.98325 5.7 5.98325 7.30833C5.98325 9.23333 7.57492 10.1917 9.89992 10.75C11.9833 11.25 12.3999 11.9833 12.3999 12.7583C12.3999 13.3333 11.9916 14.25 10.1499 14.25C8.43325 14.25 7.75825 13.4833 7.64992 12.5H5.83325C5.93325 14.325 7.29992 15.35 8.89992 15.6917V17.5H11.3999V15.7083C13.0249 15.4167 14.3166 14.4583 14.3166 12.75C14.3166 10.3833 12.2916 9.58333 10.3999 9.08333Z" fill="currentColor"/>
</svg>
