<svg width="20" height="20" viewBox="0 0 20 20" fill="none" xmlns="http://www.w3.org/2000/svg">
<path d="M9.99992 2.5C6.31659 2.5 3.33325 3.99167 3.33325 5.83333C3.33325 7.675 6.31659 9.16667 9.99992 9.16667C13.6833 9.16667 16.6666 7.675 16.6666 5.83333C16.6666 3.99167 13.6833 2.5 9.99992 2.5ZM3.33325 7.5V10C3.33325 11.8417 6.31659 13.3333 9.99992 13.3333C13.6833 13.3333 16.6666 11.8417 16.6666 10V7.5C16.6666 9.34167 13.6833 10.8333 9.99992 10.8333C6.31659 10.8333 3.33325 9.34167 3.33325 7.5ZM3.33325 11.6667V14.1667C3.33325 16.0083 6.31659 17.5 9.99992 17.5C13.6833 17.5 16.6666 16.0083 16.6666 14.1667V11.6667C16.6666 13.5083 13.6833 15 9.99992 15C6.31659 15 3.33325 13.5083 3.33325 11.6667Z" fill="currentColor"/>
</svg>
