<svg width="20" height="20" viewBox="0 0 20 20" fill="none" xmlns="http://www.w3.org/2000/svg">
<path d="M5.00008 1.66675C4.07508 1.66675 3.33341 2.40841 3.33341 3.33341V10.0001C3.33341 10.9251 4.07508 11.6667 5.00008 11.6667H15.0001C15.9251 11.6667 16.6667 10.9251 16.6667 10.0001V3.33341C16.6667 2.40841 15.9251 1.66675 15.0001 1.66675H5.00008ZM5.00008 3.33341H15.0001V10.0001H5.00008V3.33341ZM3.33341 12.5001C2.40841 12.5001 1.66675 13.2417 1.66675 14.1667V16.6667C1.66675 17.5917 2.40841 18.3334 3.33341 18.3334H16.6667C17.5917 18.3334 18.3334 17.5917 18.3334 16.6667V14.1667C18.3334 13.2417 17.5917 12.5001 16.6667 12.5001H3.33341ZM6.66675 14.1667H16.6667V16.6667H6.66675V14.1667ZM7.50008 14.7917V16.0417H10.8334V14.7917H7.50008ZM12.5001 14.7917V16.0417H15.8334V14.7917H12.5001Z" fill="currentColor"/>
</svg>
