<svg width="20" height="20" viewBox="0 0 20 20" fill="none" xmlns="http://www.w3.org/2000/svg">
<path d="M9.99998 6.66659C10.9166 6.66659 11.6666 5.91659 11.6666 4.99992C11.6666 4.08325 10.9166 3.33325 9.99998 3.33325C9.08331 3.33325 8.33331 4.08325 8.33331 4.99992C8.33331 5.91659 9.08331 6.66659 9.99998 6.66659ZM9.99998 8.33325C9.08331 8.33325 8.33331 9.08325 8.33331 9.99992C8.33331 10.9166 9.08331 11.6666 9.99998 11.6666C10.9166 11.6666 11.6666 10.9166 11.6666 9.99992C11.6666 9.08325 10.9166 8.33325 9.99998 8.33325ZM9.99998 13.3333C9.08331 13.3333 8.33331 14.0833 8.33331 14.9999C8.33331 15.9166 9.08331 16.6666 9.99998 16.6666C10.9166 16.6666 11.6666 15.9166 11.6666 14.9999C11.6666 14.0833 10.9166 13.3333 9.99998 13.3333Z" fill="currentColor"/>
</svg>
