<svg width="20" height="20" viewBox="0 0 20 20" fill="none" xmlns="http://www.w3.org/2000/svg">
<path d="M15 15H10V10.175C9.45 10.6833 8.725 11 7.91667 11C6.21667 11 4.83333 9.61667 4.83333 7.91667C4.83333 7.09892 5.15818 6.31466 5.73642 5.73642C6.31466 5.15818 7.09892 4.83333 7.91667 4.83333C9.61667 4.83333 11 6.21667 11 7.91667C11 8.725 10.6833 9.45 10.175 10H15V15ZM15.8333 2.5H4.16667C3.24167 2.5 2.5 3.24167 2.5 4.16667V15.8333C2.5 16.2754 2.67559 16.6993 2.98816 17.0118C3.30072 17.3244 3.72464 17.5 4.16667 17.5H15.8333C16.2754 17.5 16.6993 17.3244 17.0118 17.0118C17.3244 16.6993 17.5 16.2754 17.5 15.8333V4.16667C17.5 3.24167 16.75 2.5 15.8333 2.5Z" fill="currentColor"/>
</svg>
