<svg width="20" height="20" viewBox="0 0 20 20" fill="none" xmlns="http://www.w3.org/2000/svg">
<path d="M3.33341 3.33325H16.6667C17.1088 3.33325 17.5327 3.50885 17.8453 3.82141C18.1578 4.13397 18.3334 4.55789 18.3334 4.99992V14.9999C18.3334 15.4419 18.1578 15.8659 17.8453 16.1784C17.5327 16.491 17.1088 16.6666 16.6667 16.6666H3.33341C2.40841 16.6666 1.66675 15.9166 1.66675 14.9999V4.99992C1.66675 4.07492 2.40841 3.33325 3.33341 3.33325ZM10.0001 9.16659L16.6667 4.99992H3.33341L10.0001 9.16659ZM3.33341 14.9999H16.6667V6.97492L10.0001 11.1333L3.33341 6.97492V14.9999Z" fill="currentColor"/>
</svg>
