<svg width="20" height="20" viewBox="0 0 20 20" fill="none" xmlns="http://www.w3.org/2000/svg">
<path d="M15.8333 8.33329C15.8333 9.48329 14.0666 10.4166 12.9166 10.4166C11.7666 10.4166 10.625 9.48329 10.625 8.33329H9.37496C9.37496 9.48329 8.23329 10.4166 7.08329 10.4166C5.93329 10.4166 4.16663 9.48329 4.16663 8.33329H3.54163C3.40829 8.86663 3.33329 9.42496 3.33329 9.99996C3.33329 11.7681 4.03567 13.4638 5.28591 14.714C6.53616 15.9642 8.23185 16.6666 9.99996 16.6666C11.7681 16.6666 13.4638 15.9642 14.714 14.714C15.9642 13.4638 16.6666 11.7681 16.6666 9.99996C16.6666 9.42496 16.5916 8.86663 16.4583 8.33329H15.8333ZM9.99996 3.33329C7.53329 3.33329 5.37496 4.67496 4.22496 6.66663H15.775C14.625 4.67496 12.4666 3.33329 9.99996 3.33329ZM18.3333 9.99996C18.3333 12.2101 17.4553 14.3297 15.8925 15.8925C14.3297 17.4553 12.2101 18.3333 9.99996 18.3333C8.90561 18.3333 7.82198 18.1177 6.81093 17.699C5.79988 17.2802 4.88122 16.6663 4.1074 15.8925C2.5446 14.3297 1.66663 12.2101 1.66663 9.99996C1.66663 7.78982 2.5446 5.67021 4.1074 4.1074C5.67021 2.5446 7.78982 1.66663 9.99996 1.66663C11.0943 1.66663 12.1779 1.88217 13.189 2.30096C14.2 2.71975 15.1187 3.33358 15.8925 4.1074C16.6663 4.88122 17.2802 5.79988 17.699 6.81093C18.1177 7.82198 18.3333 8.90561 18.3333 9.99996V9.99996ZM9.99996 14.3583C8.54163 14.3583 7.25829 13.75 6.50829 12.85L7.69163 11.6666C8.06663 12.2666 8.95829 12.6916 9.99996 12.6916C11.0416 12.6916 11.9333 12.2666 12.3083 11.6666L13.4916 12.85C12.7416 13.75 11.4583 14.3583 9.99996 14.3583Z" fill="currentColor"/>
</svg>
