<svg width="20" height="20" viewBox="0 0 20 20" fill="none" xmlns="http://www.w3.org/2000/svg">
<path d="M7.08329 9.16675C6.75177 9.16675 6.43383 9.03505 6.19941 8.80063C5.96499 8.56621 5.83329 8.24827 5.83329 7.91675C5.83329 7.58523 5.96499 7.26728 6.19941 7.03286C6.43383 6.79844 6.75177 6.66675 7.08329 6.66675C7.41481 6.66675 7.73276 6.79844 7.96718 7.03286C8.2016 7.26728 8.33329 7.58523 8.33329 7.91675C8.33329 8.24827 8.2016 8.56621 7.96718 8.80063C7.73276 9.03505 7.41481 9.16675 7.08329 9.16675ZM12.9166 9.16675C12.5851 9.16675 12.2672 9.03505 12.0327 8.80063C11.7983 8.56621 11.6666 8.24827 11.6666 7.91675C11.6666 7.58523 11.7983 7.26728 12.0327 7.03286C12.2672 6.79844 12.5851 6.66675 12.9166 6.66675C13.2481 6.66675 13.5661 6.79844 13.8005 7.03286C14.0349 7.26728 14.1666 7.58523 14.1666 7.91675C14.1666 8.24827 14.0349 8.56621 13.8005 8.80063C13.5661 9.03505 13.2481 9.16675 12.9166 9.16675V9.16675ZM9.99996 16.6667C11.7681 16.6667 13.4638 15.9644 14.714 14.7141C15.9642 13.4639 16.6666 11.7682 16.6666 10.0001C16.6666 8.23197 15.9642 6.53628 14.714 5.28604C13.4638 4.03579 11.7681 3.33341 9.99996 3.33341C8.23185 3.33341 6.53616 4.03579 5.28591 5.28604C4.03567 6.53628 3.33329 8.23197 3.33329 10.0001C3.33329 11.7682 4.03567 13.4639 5.28591 14.7141C6.53616 15.9644 8.23185 16.6667 9.99996 16.6667ZM9.99996 1.66675C11.0943 1.66675 12.1779 1.8823 13.189 2.30109C14.2 2.71987 15.1187 3.3337 15.8925 4.10752C16.6663 4.88135 17.2802 5.80001 17.699 6.81105C18.1177 7.8221 18.3333 8.90573 18.3333 10.0001C18.3333 12.2102 17.4553 14.3298 15.8925 15.8926C14.3297 17.4554 12.2101 18.3334 9.99996 18.3334C5.39163 18.3334 1.66663 14.5834 1.66663 10.0001C1.66663 7.78994 2.5446 5.67033 4.1074 4.10752C5.67021 2.54472 7.78982 1.66675 9.99996 1.66675V1.66675ZM7.49996 11.6667H12.5C12.721 11.6667 12.9329 11.7545 13.0892 11.9108C13.2455 12.0671 13.3333 12.2791 13.3333 12.5001C13.3333 12.7211 13.2455 12.9331 13.0892 13.0893C12.9329 13.2456 12.721 13.3334 12.5 13.3334H7.49996C7.27895 13.3334 7.06698 13.2456 6.9107 13.0893C6.75442 12.9331 6.66663 12.7211 6.66663 12.5001C6.66663 12.2791 6.75442 12.0671 6.9107 11.9108C7.06698 11.7545 7.27895 11.6667 7.49996 11.6667V11.6667Z" fill="currentColor"/>
</svg>
