<svg width="20" height="20" viewBox="0 0 20 20" fill="none" xmlns="http://www.w3.org/2000/svg">
<path d="M16.6666 10.0001C16.6666 8.23197 15.9642 6.53628 14.714 5.28604C13.4638 4.03579 11.7681 3.33341 9.99996 3.33341C8.23185 3.33341 6.53616 4.03579 5.28591 5.28604C4.03567 6.53628 3.33329 8.23197 3.33329 10.0001C3.33329 11.7682 4.03567 13.4639 5.28591 14.7141C6.53616 15.9644 8.23185 16.6667 9.99996 16.6667C11.7681 16.6667 13.4638 15.9644 14.714 14.7141C15.9642 13.4639 16.6666 11.7682 16.6666 10.0001ZM18.3333 10.0001C18.3333 12.2102 17.4553 14.3298 15.8925 15.8926C14.3297 17.4554 12.2101 18.3334 9.99996 18.3334C8.90561 18.3334 7.82198 18.1179 6.81093 17.6991C5.79988 17.2803 4.88122 16.6665 4.1074 15.8926C2.5446 14.3298 1.66663 12.2102 1.66663 10.0001C1.66663 7.78994 2.5446 5.67033 4.1074 4.10752C5.67021 2.54472 7.78982 1.66675 9.99996 1.66675C11.0943 1.66675 12.1779 1.8823 13.189 2.30109C14.2 2.71987 15.1187 3.3337 15.8925 4.10752C16.6663 4.88135 17.2802 5.80001 17.699 6.81105C18.1177 7.8221 18.3333 8.90573 18.3333 10.0001V10.0001ZM8.33329 7.91675C8.33329 8.58341 7.74996 9.16675 7.08329 9.16675C6.41663 9.16675 5.83329 8.58341 5.83329 7.91675C5.83329 7.25008 6.41663 6.66675 7.08329 6.66675C7.74996 6.66675 8.33329 7.25008 8.33329 7.91675ZM14.1666 7.91675C14.1666 8.58341 13.5833 9.16675 12.9166 9.16675C12.25 9.16675 11.6666 8.58341 11.6666 7.91675C11.6666 7.25008 12.25 6.66675 12.9166 6.66675C13.5833 6.66675 14.1666 7.25008 14.1666 7.91675ZM9.99996 14.3584C8.54163 14.3584 7.25829 13.7501 6.50829 12.8501L7.69163 11.6667C8.06663 12.2667 8.95829 12.6917 9.99996 12.6917C11.0416 12.6917 11.9333 12.2667 12.3083 11.6667L13.4916 12.8501C12.7416 13.7501 11.4583 14.3584 9.99996 14.3584Z" fill="currentColor"/>
</svg>
