<svg width="20" height="20" viewBox="0 0 20 20" fill="none" xmlns="http://www.w3.org/2000/svg">
<path d="M9.99996 14.5833C11.9416 14.5833 13.5833 13.3666 14.2583 11.6666H5.74163C6.40829 13.3666 8.05829 14.5833 9.99996 14.5833ZM7.08329 9.16663C7.41481 9.16663 7.73276 9.03493 7.96718 8.80051C8.2016 8.56609 8.33329 8.24815 8.33329 7.91663C8.33329 7.58511 8.2016 7.26716 7.96718 7.03274C7.73276 6.79832 7.41481 6.66663 7.08329 6.66663C6.75177 6.66663 6.43383 6.79832 6.19941 7.03274C5.96499 7.26716 5.83329 7.58511 5.83329 7.91663C5.83329 8.24815 5.96499 8.56609 6.19941 8.80051C6.43383 9.03493 6.75177 9.16663 7.08329 9.16663ZM12.9166 9.16663C13.2481 9.16663 13.5661 9.03493 13.8005 8.80051C14.0349 8.56609 14.1666 8.24815 14.1666 7.91663C14.1666 7.58511 14.0349 7.26716 13.8005 7.03274C13.5661 6.79832 13.2481 6.66663 12.9166 6.66663C12.5851 6.66663 12.2672 6.79832 12.0327 7.03274C11.7983 7.26716 11.6666 7.58511 11.6666 7.91663C11.6666 8.24815 11.7983 8.56609 12.0327 8.80051C12.2672 9.03493 12.5851 9.16663 12.9166 9.16663V9.16663ZM9.99996 16.6666C8.23185 16.6666 6.53616 15.9642 5.28591 14.714C4.03567 13.4638 3.33329 11.7681 3.33329 9.99996C3.33329 8.23185 4.03567 6.53616 5.28591 5.28591C6.53616 4.03567 8.23185 3.33329 9.99996 3.33329C11.7681 3.33329 13.4638 4.03567 14.714 5.28591C15.9642 6.53616 16.6666 8.23185 16.6666 9.99996C16.6666 11.7681 15.9642 13.4638 14.714 14.714C13.4638 15.9642 11.7681 16.6666 9.99996 16.6666V16.6666ZM9.99996 1.66663C5.39163 1.66663 1.66663 5.41663 1.66663 9.99996C1.66663 12.2101 2.5446 14.3297 4.1074 15.8925C4.88122 16.6663 5.79988 17.2802 6.81093 17.699C7.82198 18.1177 8.90561 18.3333 9.99996 18.3333C12.2101 18.3333 14.3297 17.4553 15.8925 15.8925C17.4553 14.3297 18.3333 12.2101 18.3333 9.99996C18.3333 8.90561 18.1177 7.82198 17.699 6.81093C17.2802 5.79988 16.6663 4.88122 15.8925 4.1074C15.1187 3.33358 14.2 2.71975 13.189 2.30096C12.1779 1.88217 11.0943 1.66663 9.99996 1.66663V1.66663Z" fill="currentColor"/>
</svg>
