<svg width="20" height="20" viewBox="0 0 20 20" fill="none" xmlns="http://www.w3.org/2000/svg">
<path d="M8.9414 1.66675C8.7664 1.66675 8.53307 1.76675 8.28307 1.93341C7.80807 2.25008 6.84974 3.25008 6.47474 4.25008C6.1914 5.00008 6.18307 5.68341 6.29974 6.19175C5.83307 6.27508 5.4914 6.42508 5.35807 6.48341C4.93307 6.66675 4.03307 7.46675 3.94974 8.70841C3.92474 9.14175 3.98307 9.58341 4.1164 10.0001C3.5664 10.1584 3.24974 10.3584 3.22474 10.3667C2.95807 10.4667 2.5164 10.7751 2.3914 10.9417C2.09974 11.2751 1.90807 11.6667 1.79974 12.0834C1.55807 12.9917 1.6414 14.0251 2.08307 14.8584C2.32474 15.3251 2.65807 15.8334 3.02474 16.1917C4.22474 17.4251 6.2914 17.8917 7.92474 18.1584C9.9164 18.4917 11.9997 18.3751 13.8581 17.6084C16.6497 16.4501 17.3914 14.5834 17.5081 14.0751C17.7497 12.9167 17.4497 11.8251 17.3247 11.5584C17.1414 11.1751 16.8414 10.7834 16.3497 10.5334C16.0164 10.3251 15.7247 10.2167 15.5081 10.1667C15.7247 9.37508 15.4164 8.75008 14.9914 8.28341C14.3497 7.60008 13.6914 7.50008 13.6914 7.50008C13.9081 7.08341 13.9914 6.58341 13.8747 6.10008C13.7414 5.50841 13.4164 5.13341 12.9914 4.88341C12.5581 4.62508 12.0247 4.50008 11.4747 4.40008C11.2081 4.35008 10.0997 4.19175 9.6414 3.55841C9.2664 3.04175 9.25807 2.10841 9.15807 1.83341C9.1164 1.72508 9.05807 1.66675 8.9414 1.66675ZM12.8081 8.00841C12.8664 8.00841 12.9164 8.01675 12.9664 8.01675C14.1581 8.15008 15.0081 9.30008 14.8664 10.5751C14.7247 11.8501 13.6414 12.7834 12.4497 12.6501C11.2581 12.5001 10.4081 11.3751 10.5497 10.0917C10.6831 8.88341 11.6747 7.96675 12.8081 8.00841ZM6.65807 8.00841C7.7664 8.04175 8.6914 8.98341 8.77474 10.1751C8.87474 11.4584 7.98307 12.5667 6.7914 12.6584H6.78307C5.5914 12.7501 4.5414 11.7834 4.4414 10.5001C4.34974 9.21675 5.2414 8.10841 6.43307 8.01675C6.50807 8.00841 6.58307 8.00841 6.65807 8.00841ZM6.67474 9.42508C6.6414 9.42508 6.6164 9.42508 6.58307 9.43341C6.1164 9.49175 5.78307 9.91675 5.8414 10.3751C5.8914 10.8334 6.3164 11.1584 6.78307 11.1001C7.24974 11.0417 7.58307 10.6167 7.53307 10.1584C7.48307 9.72508 7.09974 9.41675 6.67474 9.42508ZM12.7581 9.44175C12.3247 9.45841 11.9747 9.79175 11.9414 10.2334C11.9081 10.6917 12.2664 11.0917 12.7331 11.1167C13.2247 11.1501 13.6081 10.7917 13.6414 10.3334C13.6747 9.86675 13.3164 9.46675 12.8497 9.44175C12.8081 9.44175 12.8081 9.44175 12.7581 9.44175ZM6.73307 13.4584C6.97474 13.4501 7.1914 13.5251 7.3914 13.5667C8.37474 13.7501 9.22474 13.7751 9.63307 13.7751C10.0414 13.7751 10.8831 13.7501 11.8581 13.5667C12.1997 13.5001 12.5914 13.3584 12.8997 13.5667C13.2997 13.8334 13.0081 14.7917 12.3914 15.4417C12.0081 15.8334 11.1164 16.5917 9.63307 16.5917C8.14974 16.5917 7.24974 15.8334 6.87474 15.4417C6.25807 14.7917 5.9664 13.8334 6.35807 13.5667C6.47474 13.4917 6.59974 13.4584 6.73307 13.4584Z" fill="currentColor"/>
</svg>
