<svg width="20" height="20" viewBox="0 0 20 20" fill="none" xmlns="http://www.w3.org/2000/svg">
<path d="M7.49996 6.66675C7.94199 6.66675 8.36591 6.84234 8.67847 7.1549C8.99103 7.46746 9.16663 7.89139 9.16663 8.33341C9.16663 8.63341 9.08329 8.92508 8.94163 9.16675C8.65829 8.66675 8.11663 8.33341 7.49996 8.33341C6.88329 8.33341 6.34163 8.66675 6.05829 9.16675C5.91663 8.92508 5.83329 8.63341 5.83329 8.33341C5.83329 7.89139 6.00889 7.46746 6.32145 7.1549C6.63401 6.84234 7.05793 6.66675 7.49996 6.66675V6.66675ZM12.5 6.66675C12.942 6.66675 13.3659 6.84234 13.6785 7.1549C13.991 7.46746 14.1666 7.89139 14.1666 8.33341C14.1666 8.63341 14.0833 8.92508 13.9416 9.16675C13.6583 8.66675 13.1166 8.33341 12.5 8.33341C11.8833 8.33341 11.3416 8.66675 11.0583 9.16675C10.9166 8.92508 10.8333 8.63341 10.8333 8.33341C10.8333 7.89139 11.0089 7.46746 11.3214 7.1549C11.634 6.84234 12.0579 6.66675 12.5 6.66675V6.66675ZM9.99996 16.6667C11.7681 16.6667 13.4638 15.9644 14.714 14.7141C15.9642 13.4639 16.6666 11.7682 16.6666 10.0001C16.6666 8.23197 15.9642 6.53628 14.714 5.28604C13.4638 4.03579 11.7681 3.33341 9.99996 3.33341C8.23185 3.33341 6.53616 4.03579 5.28591 5.28604C4.03567 6.53628 3.33329 8.23197 3.33329 10.0001C3.33329 11.7682 4.03567 13.4639 5.28591 14.7141C6.53616 15.9644 8.23185 16.6667 9.99996 16.6667ZM9.99996 1.66675C11.0943 1.66675 12.1779 1.8823 13.189 2.30109C14.2 2.71987 15.1187 3.3337 15.8925 4.10752C16.6663 4.88135 17.2802 5.80001 17.699 6.81105C18.1177 7.8221 18.3333 8.90573 18.3333 10.0001C18.3333 12.2102 17.4553 14.3298 15.8925 15.8926C14.3297 17.4554 12.2101 18.3334 9.99996 18.3334C5.39163 18.3334 1.66663 14.5834 1.66663 10.0001C1.66663 7.78994 2.5446 5.67033 4.1074 4.10752C5.67021 2.54472 7.78982 1.66675 9.99996 1.66675V1.66675ZM7.49996 10.8334H12.5C12.721 10.8334 12.9329 10.9212 13.0892 11.0775C13.2455 11.2338 13.3333 11.4457 13.3333 11.6667C13.3333 11.8878 13.2455 12.0997 13.0892 12.256C12.9329 12.4123 12.721 12.5001 12.5 12.5001C12.5 14.1667 11.75 15.0001 10.8333 15.0001C9.91663 15.0001 9.16663 14.1667 9.16663 12.5001H7.49996C7.27895 12.5001 7.06698 12.4123 6.9107 12.256C6.75442 12.0997 6.66663 11.8878 6.66663 11.6667C6.66663 11.4457 6.75442 11.2338 6.9107 11.0775C7.06698 10.9212 7.27895 10.8334 7.49996 10.8334V10.8334Z" fill="currentColor"/>
</svg>
