<svg width="20" height="20" viewBox="0 0 20 20" fill="none" xmlns="http://www.w3.org/2000/svg">
<path d="M9.99998 5.41675C9.33694 5.41675 8.70105 5.68014 8.23221 6.14898C7.76337 6.61782 7.49998 7.25371 7.49998 7.91675C7.49998 8.57979 7.76337 9.21567 8.23221 9.68452C8.70105 10.1534 9.33694 10.4167 9.99998 10.4167C10.663 10.4167 11.2989 10.1534 11.7677 9.68452C12.2366 9.21567 12.5 8.57979 12.5 7.91675C12.5 7.25371 12.2366 6.61782 11.7677 6.14898C11.2989 5.68014 10.663 5.41675 9.99998 5.41675ZM9.99998 12.0834C8.89491 12.0834 7.8351 11.6444 7.0537 10.863C6.2723 10.0816 5.83331 9.02182 5.83331 7.91675C5.83331 6.81168 6.2723 5.75187 7.0537 4.97047C7.8351 4.18907 8.89491 3.75008 9.99998 3.75008C11.105 3.75008 12.1649 4.18907 12.9463 4.97047C13.7277 5.75187 14.1666 6.81168 14.1666 7.91675C14.1666 9.02182 13.7277 10.0816 12.9463 10.863C12.1649 11.6444 11.105 12.0834 9.99998 12.0834V12.0834ZM9.99998 1.66675C5.94998 1.66675 2.31665 4.16675 0.833313 7.91675C2.82498 12.9834 8.54165 15.4667 13.6083 13.4751C16.15 12.4751 18.1666 10.4667 19.1666 7.91675C17.6833 4.16675 14.05 1.66675 9.99998 1.66675ZM5.83331 16.2501H7.49998V17.9167H5.83331V16.2501ZM9.16665 16.2501H10.8333V17.9167H9.16665V16.2501ZM12.5 16.2501H14.1666V17.9167H12.5V16.2501Z" fill="currentColor"/>
</svg>
