<svg width="20" height="20" viewBox="0 0 20 20" fill="none" xmlns="http://www.w3.org/2000/svg">
<path d="M1.66665 3.55833L2.73331 2.5L16.6666 16.4333L15.6083 17.5L13.0416 14.9333C12.0833 15.25 11.0666 15.4167 9.99998 15.4167C5.83331 15.4167 2.27498 12.825 0.833313 9.16667C1.40831 7.7 2.32498 6.40833 3.49165 5.38333L1.66665 3.55833ZM9.99998 6.66667C10.663 6.66667 11.2989 6.93006 11.7677 7.3989C12.2366 7.86774 12.5 8.50363 12.5 9.16667C12.5 9.45833 12.45 9.74167 12.3583 10L9.16665 6.80833C9.42498 6.71667 9.70831 6.66667 9.99998 6.66667ZM9.99998 2.91667C14.1666 2.91667 17.725 5.50833 19.1666 9.16667C18.4833 10.9 17.325 12.4 15.8333 13.4917L14.65 12.3C15.7833 11.5167 16.7166 10.45 17.35 9.16667C15.975 6.36667 13.1333 4.58333 9.99998 4.58333C9.09165 4.58333 8.19998 4.73333 7.36665 5L6.08331 3.725C7.28331 3.20833 8.60831 2.91667 9.99998 2.91667ZM2.64998 9.16667C4.02498 11.9667 6.86665 13.75 9.99998 13.75C10.575 13.75 11.1416 13.6917 11.6666 13.575L9.76665 11.6667C8.57498 11.5417 7.62498 10.5917 7.49998 9.4L4.66665 6.55833C3.84165 7.26667 3.14998 8.15 2.64998 9.16667Z" fill="currentColor"/>
</svg>
