<svg width="20" height="20" viewBox="0 0 20 20" fill="none" xmlns="http://www.w3.org/2000/svg">
<path d="M9.99996 1.66675C8.90561 1.66675 7.82198 1.8823 6.81093 2.30109C5.79988 2.71987 4.88122 3.3337 4.1074 4.10752C2.5446 5.67033 1.66663 7.78994 1.66663 10.0001C1.66663 12.2102 2.5446 14.3298 4.1074 15.8926C4.88122 16.6665 5.79988 17.2803 6.81093 17.6991C7.82198 18.1179 8.90561 18.3334 9.99996 18.3334C12.2101 18.3334 14.3297 17.4554 15.8925 15.8926C17.4553 14.3298 18.3333 12.2102 18.3333 10.0001C18.3333 8.90573 18.1177 7.8221 17.699 6.81105C17.2802 5.80001 16.6663 4.88135 15.8925 4.10752C15.1187 3.3337 14.2 2.71987 13.189 2.30109C12.1779 1.8823 11.0943 1.66675 9.99996 1.66675V1.66675ZM9.99996 6.99175C11.3083 7.83341 12.85 8.33341 14.5166 8.33341C15.1666 8.33341 15.7916 8.25841 16.3916 8.11675C16.5666 8.70841 16.6666 9.34175 16.6666 10.0001C16.6666 13.6751 13.675 16.6667 9.99996 16.6667C7.49996 16.6667 5.32496 15.2834 4.16663 13.2417L5.62496 11.6667V10.8334C5.62496 10.5571 5.73471 10.2922 5.93006 10.0968C6.12541 9.90149 6.39036 9.79175 6.66663 9.79175C6.94289 9.79175 7.20785 9.90149 7.4032 10.0968C7.59855 10.2922 7.70829 10.5571 7.70829 10.8334V11.6667H9.99996V6.99175ZM13.3333 9.79175C13.057 9.79175 12.7921 9.90149 12.5967 10.0968C12.4014 10.2922 12.2916 10.5571 12.2916 10.8334C12.2916 11.1097 12.4014 11.3746 12.5967 11.57C12.7921 11.7653 13.057 11.8751 13.3333 11.8751C13.6096 11.8751 13.8745 11.7653 14.0699 11.57C14.2652 11.3746 14.375 11.1097 14.375 10.8334C14.375 10.5571 14.2652 10.2922 14.0699 10.0968C13.8745 9.90149 13.6096 9.79175 13.3333 9.79175Z" fill="currentColor"/>
</svg>
