<svg width="20" height="20" viewBox="0 0 20 20" fill="none" xmlns="http://www.w3.org/2000/svg">
<path d="M7.49996 9.79175C7.22369 9.79175 6.95874 9.90149 6.76339 10.0968C6.56804 10.2922 6.45829 10.5571 6.45829 10.8334C6.45829 11.1097 6.56804 11.3746 6.76339 11.57C6.95874 11.7653 7.22369 11.8751 7.49996 11.8751C7.63675 11.8751 7.77221 11.8481 7.89859 11.7958C8.02497 11.7434 8.1398 11.6667 8.23653 11.57C8.33326 11.4733 8.40998 11.3584 8.46233 11.232C8.51468 11.1057 8.54163 10.9702 8.54163 10.8334C8.54163 10.6966 8.51468 10.5612 8.46233 10.4348C8.40998 10.3084 8.33326 10.1936 8.23653 10.0968C8.1398 10.0001 8.02497 9.92339 7.89859 9.87104C7.77221 9.81869 7.63675 9.79175 7.49996 9.79175ZM12.5 9.79175C12.2237 9.79175 11.9587 9.90149 11.7634 10.0968C11.568 10.2922 11.4583 10.5571 11.4583 10.8334C11.4583 11.1097 11.568 11.3746 11.7634 11.57C11.9587 11.7653 12.2237 11.8751 12.5 11.8751C12.7762 11.8751 13.0412 11.7653 13.2365 11.57C13.4319 11.3746 13.5416 11.1097 13.5416 10.8334C13.5416 10.5571 13.4319 10.2922 13.2365 10.0968C13.0412 9.90149 12.7762 9.79175 12.5 9.79175ZM9.99996 1.66675C8.90561 1.66675 7.82198 1.8823 6.81093 2.30109C5.79988 2.71987 4.88122 3.3337 4.1074 4.10752C2.5446 5.67033 1.66663 7.78994 1.66663 10.0001C1.66663 12.2102 2.5446 14.3298 4.1074 15.8926C4.88122 16.6665 5.79988 17.2803 6.81093 17.6991C7.82198 18.1179 8.90561 18.3334 9.99996 18.3334C12.2101 18.3334 14.3297 17.4554 15.8925 15.8926C17.4553 14.3298 18.3333 12.2102 18.3333 10.0001C18.3333 8.90573 18.1177 7.8221 17.699 6.81105C17.2802 5.80001 16.6663 4.88135 15.8925 4.10752C15.1187 3.3337 14.2 2.71987 13.189 2.30109C12.1779 1.8823 11.0943 1.66675 9.99996 1.66675V1.66675ZM9.99996 16.6667C6.32496 16.6667 3.33329 13.6751 3.33329 10.0001C3.33329 9.75841 3.33329 9.51675 3.37496 9.28341C5.34163 8.40841 6.89996 6.80008 7.71663 4.80841C9.22496 6.94175 11.7083 8.33341 14.5166 8.33341C15.1666 8.33341 15.7916 8.25841 16.3916 8.11675C16.5666 8.70841 16.6666 9.34175 16.6666 10.0001C16.6666 13.6751 13.675 16.6667 9.99996 16.6667Z" fill="currentColor"/>
</svg>
