<svg width="20" height="20" viewBox="0 0 20 20" fill="none" xmlns="http://www.w3.org/2000/svg">
<path d="M4.99999 4.99992H15V8.29992L9.99999 6.66659L4.99999 8.29992V4.99992ZM3.28332 15.8333H3.33332C4.66666 15.8333 5.83332 15.0999 6.66666 14.1666C7.49999 15.0999 8.66666 15.8333 9.99999 15.8333C11.3333 15.8333 12.5 15.0999 13.3333 14.1666C14.1667 15.0999 15.3333 15.8333 16.6667 15.8333H16.7083L18.2917 10.2583C18.3583 10.0499 18.3333 9.81659 18.2417 9.61659C18.1333 9.41659 17.9583 9.26659 17.7417 9.19992L16.6667 8.84992V4.99992C16.6667 4.07492 15.9167 3.33325 15 3.33325H12.5V0.833252H7.49999V3.33325H4.99999C4.55796 3.33325 4.13404 3.50885 3.82148 3.82141C3.50892 4.13397 3.33332 4.55789 3.33332 4.99992V8.84992L2.25832 9.19992C2.04166 9.26659 1.86666 9.41659 1.75832 9.61659C1.66666 9.81659 1.64166 10.0499 1.70832 10.2583L3.28332 15.8333ZM16.6667 17.4999C15.5083 17.4999 14.35 17.1083 13.3333 16.3916C11.3 17.8166 8.69999 17.8166 6.66666 16.3916C5.64999 17.1083 4.49166 17.4999 3.33332 17.4999H1.66666V19.1666H3.33332C4.47499 19.1666 5.61666 18.8749 6.66666 18.3333C8.74999 19.4166 11.25 19.4166 13.3333 18.3333C14.3833 18.8749 15.5167 19.1666 16.6667 19.1666H18.3333V17.4999H16.6667Z" fill="currentColor"/>
</svg>
