<svg width="20" height="20" viewBox="0 0 20 20" fill="none" xmlns="http://www.w3.org/2000/svg">
<path d="M11.6668 1.66675H5.00016C4.07516 1.66675 3.3335 2.40841 3.3335 3.33341V16.6667C3.3335 17.5917 4.07516 18.3334 5.00016 18.3334H11.5085C11.0668 17.5751 10.8335 16.7084 10.8335 15.8334C10.8335 13.0751 13.0752 10.8334 15.8335 10.8334C16.1168 10.8334 16.3918 10.8584 16.6668 10.9001V6.66675L11.6668 1.66675ZM10.8335 7.50008V2.91675L15.4168 7.50008H10.8335ZM19.1668 16.6667H16.6668V19.1667H15.0002V16.6667H12.5002V15.0001H15.0002V12.5001H16.6668V15.0001H19.1668V16.6667Z" fill="currentColor"/>
</svg>
