<svg width="20" height="20" viewBox="0 0 20 20" fill="none" xmlns="http://www.w3.org/2000/svg">
<path d="M7.49992 10.8334C7.49992 11.4965 7.76331 12.1323 8.23215 12.6012C8.70099 13.07 9.33688 13.3334 9.99992 13.3334C10.663 13.3334 11.2988 13.07 11.7677 12.6012C12.2365 12.1323 12.4999 11.4965 12.4999 10.8334C12.4999 10.1704 12.2365 9.53449 11.7677 9.06565C11.2988 8.59681 10.663 8.33341 9.99992 8.33341C9.33688 8.33341 8.70099 8.59681 8.23215 9.06565C7.76331 9.53449 7.49992 10.1704 7.49992 10.8334ZM16.6666 16.3251V6.66675L11.6666 1.66675H4.99992C4.55789 1.66675 4.13397 1.84234 3.82141 2.1549C3.50885 2.46746 3.33325 2.89139 3.33325 3.33341V16.6667C3.33325 17.1088 3.50885 17.5327 3.82141 17.8453C4.13397 18.1578 4.55789 18.3334 4.99992 18.3334H14.9999C15.3749 18.3334 15.7083 18.2084 15.9916 18.0001L12.2999 14.3084C11.6333 14.7417 10.8333 15.0001 9.99992 15.0001C8.89485 15.0001 7.83504 14.5611 7.05364 13.7797C6.27224 12.9983 5.83325 11.9385 5.83325 10.8334C5.83325 9.72835 6.27224 8.66854 7.05364 7.88714C7.83504 7.10573 8.89485 6.66675 9.99992 6.66675C11.105 6.66675 12.1648 7.10573 12.9462 7.88714C13.7276 8.66854 14.1666 9.72835 14.1666 10.8334C14.1666 11.6667 13.9083 12.4667 13.4749 13.1251L16.6666 16.3251Z" fill="currentColor"/>
</svg>
