<svg width="20" height="20" viewBox="0 0 20 20" fill="none" xmlns="http://www.w3.org/2000/svg">
<path d="M10.2447 18.3334H4.07895C3.20263 18.3334 2.5 17.5917 2.5 16.6667V3.33341C2.5 2.41675 3.20263 1.66675 4.07895 1.66675H10.3947L15.1316 6.66675V10.9084C14.8711 10.8667 14.6105 10.8334 14.3421 10.8334C14.0737 10.8334 13.8132 10.8667 13.5526 10.9084V7.50008H9.60526V3.33341H4.07895V16.6667H9.67632C9.77105 17.2667 9.96842 17.8251 10.2447 18.3334ZM17.5 15.0001H15.1316V12.5001H13.5526V15.0001H11.1842V16.6667H13.5526V19.1667H15.1316V16.6667H17.5V15.0001Z" fill="currentColor"/>
</svg>
