<svg width="20" height="20" viewBox="0 0 20 20" fill="none" xmlns="http://www.w3.org/2000/svg">
<path d="M6.66659 10.0001H13.3333V11.6667H6.66659V10.0001ZM8.33325 16.6667H4.99992V3.33341H10.8333V7.50008H14.9999V10.0834L16.6666 8.41675V6.66675L11.6666 1.66675H4.99992C4.55789 1.66675 4.13397 1.84234 3.82141 2.1549C3.50885 2.46746 3.33325 2.89139 3.33325 3.33341V16.6667C3.33325 17.1088 3.50885 17.5327 3.82141 17.8453C4.13397 18.1578 4.55789 18.3334 4.99992 18.3334H8.33325V16.6667ZM6.66659 15.0001H10.0833L10.8333 14.2501V13.3334H6.66659V15.0001ZM16.8333 10.8334C16.9166 10.8334 17.0833 10.9167 17.1666 11.0001L18.2499 12.0834C18.4166 12.2501 18.4166 12.5834 18.2499 12.7501L17.4166 13.5834L15.6666 11.8334L16.4999 11.0001C16.5833 10.9167 16.6666 10.8334 16.8333 10.8334ZM16.8333 14.0834L11.7499 19.1667H9.99992V17.4167L15.0833 12.3334L16.8333 14.0834Z" fill="currentColor"/>
</svg>
