<svg width="20" height="20" viewBox="0 0 20 20" fill="none" xmlns="http://www.w3.org/2000/svg" id="file-compare">
<path d="M8.33325 14.9999H4.99992V13.3333H8.33325V14.9999ZM8.33325 11.6666H4.99992V9.99992H8.33325V11.6666ZM8.33325 0.833252V1.66659H4.99992C4.07492 1.66659 3.33325 2.40825 3.33325 3.33325V16.6666C3.33325 17.1086 3.50885 17.5325 3.82141 17.8451C4.13397 18.1577 4.55789 18.3333 4.99992 18.3333H8.33325V19.1666H9.99992V0.833252H8.33325ZM16.6666 6.66659V16.6666C16.6666 17.5916 15.9249 18.3333 14.9999 18.3333H11.6666V16.6666H14.9999V9.16659H11.6666V7.49992H15.4166L11.6666 3.74992V1.66659L16.6666 6.66659ZM13.3333 11.6666H11.6666V9.99992H13.3333V11.6666ZM13.3333 14.9999H11.6666V13.3333H13.3333V14.9999Z" fill="currentColor"></path>
</svg>
