<svg width="20" height="20" viewBox="0 0 20 20" fill="none" xmlns="http://www.w3.org/2000/svg">
<path d="M14.1667 5.83333H10.8333C9.91668 5.83333 9.16668 6.58333 9.16668 7.5V15C9.16668 15.925 9.91668 16.6667 10.8333 16.6667H15.8333C16.7583 16.6667 17.5 15.925 17.5 15V9.16667L14.1667 5.83333ZM15.8333 10H13.3333V7.5H13.475L15.8333 9.85833V10ZM3.33334 9.16667C3.33334 5.48333 6.31668 2.5 10 2.5L10.8333 2.55V4.23333L10 4.16667C7.24168 4.16667 5.00001 6.40833 5.00001 9.16667H7.50001L4.16668 12.5L0.833344 9.16667H3.33334Z" fill="currentColor"/>
</svg>
