<svg width="20" height="20" viewBox="0 0 20 20" fill="none" xmlns="http://www.w3.org/2000/svg">
<path d="M11.6666 6.66675H8.33325V5.00008H11.6666V6.66675ZM16.6666 3.33341V16.6667C16.6666 17.5917 15.9249 18.3334 14.9999 18.3334H4.99992C4.07492 18.3334 3.33325 17.5917 3.33325 16.6667V3.33341C3.33325 2.89139 3.50885 2.46746 3.82141 2.1549C4.13397 1.84234 4.55789 1.66675 4.99992 1.66675H14.9999C15.9249 1.66675 16.6666 2.41675 16.6666 3.33341ZM14.9999 10.8334H4.99992V16.6667H14.9999V10.8334ZM14.9999 3.33341H4.99992V9.16675H14.9999V3.33341ZM11.6666 12.5001H8.33325V14.1667H11.6666V12.5001Z" fill="currentColor"/>
</svg>
