<svg width="20" height="20" viewBox="0 0 20 20" fill="none" xmlns="http://www.w3.org/2000/svg">
<path d="M16.3324 10.7501L11.6081 15.5001H9.70179V13.5834L14.4261 8.83341L16.3324 10.7501ZM19.1504 10.0834C19.1504 10.3334 18.9018 10.5834 18.6531 10.8334L16.5811 12.9167L15.8351 12.1667L17.9901 10.0001L17.4928 9.50008L16.9126 10.0834L15.0063 8.16675L16.8297 6.41675C16.9955 6.25008 17.327 6.25008 17.5756 6.41675L18.736 7.58341C18.9018 7.75008 18.9018 8.08341 18.736 8.33341C18.5702 8.50008 18.4045 8.66675 18.4045 8.83341C18.4045 9.00008 18.5702 9.16675 18.736 9.33341C18.9847 9.58341 19.2333 9.83341 19.1504 10.0834ZM2.491 16.6667V3.33341H8.29279V7.50008H12.4369V8.75008L14.0946 7.08341V6.66675L9.12161 1.66675H2.491C1.57929 1.66675 0.833344 2.41675 0.833344 3.33341V16.6667C0.833344 17.5834 1.57929 18.3334 2.491 18.3334H12.4369C13.3486 18.3334 14.0946 17.5834 14.0946 16.6667H2.491ZM9.12161 14.2501C8.95585 14.2501 8.79008 14.3334 8.7072 14.3334L8.29279 12.5001H7.04955L5.30901 13.9167L5.80631 11.6667H4.56306L3.73424 15.8334H4.97748L7.38108 13.6667L7.87837 15.5834H8.7072L9.12161 15.5001V14.2501Z" fill="currentColor"/>
</svg>
