<svg width="20" height="20" viewBox="0 0 20 20" fill="none" xmlns="http://www.w3.org/2000/svg">
<path d="M1.99172 1.44165L0.925049 2.49998L7.50005 9.07498V13.225C7.46672 13.4666 7.55005 13.725 7.74172 13.9167L11.0834 17.2583C11.4084 17.5833 11.9334 17.5833 12.2584 17.2583C12.45 17.0833 12.5334 16.8166 12.5 16.5666V14.075L17.3667 18.9416L18.425 17.8833L12.5 11.9583V11.95L10.8334 10.2917L9.16672 8.61665L3.45838 2.91665L1.99172 1.44165ZM5.17505 2.49998L6.83338 4.16665H14.1334L10.925 8.25832L12.5 9.83332V8.95832L16.4917 3.84998C16.775 3.49165 16.7084 2.96665 16.35 2.68332C16.1917 2.56665 16.0167 2.49998 15.8334 2.49998H5.17505ZM9.16672 10.7417L10.8334 12.4083V14.65L9.16672 12.9833V10.7417Z" fill="currentColor"/>
</svg>
