<svg width="20" height="20" viewBox="0 0 20 20" fill="none" xmlns="http://www.w3.org/2000/svg">
<path d="M12.5 16.5667C12.5334 16.8167 12.45 17.0833 12.2584 17.2583C11.9334 17.5833 11.4084 17.5833 11.0834 17.2583L7.74171 13.9167C7.55004 13.725 7.46671 13.4667 7.50004 13.225V8.95833L3.50838 3.85C3.22504 3.49167 3.29171 2.96667 3.65004 2.68333C3.80838 2.56667 3.98338 2.5 4.16671 2.5H15.8334C16.0167 2.5 16.1917 2.56667 16.35 2.68333C16.7084 2.96667 16.775 3.49167 16.4917 3.85L12.5 8.95833V16.5667ZM5.86671 4.16667L9.16671 8.38333V12.9833L10.8334 14.65V8.375L14.1334 4.16667H5.86671Z" fill="currentColor"/>
</svg>
