<svg width="20" height="20" viewBox="0 0 20 20" fill="none" xmlns="http://www.w3.org/2000/svg">
<path d="M11.1666 4.16667H15.8333V12.5H9.99992L9.66659 10.8333H4.99992V16.6667H3.33325V2.5H10.8333L11.1666 4.16667ZM10.8333 10.8333H12.4999V9.16667H14.1666V7.5H12.4999V5.83333H10.8333V7.5L9.99992 5.83333V4.16667H8.33325V5.83333H6.66659V4.16667H4.99992V5.83333H6.66659V7.5H4.99992V9.16667H6.66659V7.5H8.33325V9.16667H9.99992V7.5L10.8333 9.16667V10.8333ZM8.33325 7.5V5.83333H9.99992V7.5H8.33325ZM10.8333 7.5H12.4999V9.16667H10.8333V7.5Z" fill="currentColor"/>
</svg>
