<svg width="20" height="20" viewBox="0 0 20 20" fill="none" xmlns="http://www.w3.org/2000/svg">
<path d="M13.3334 0H6.66675C5.75008 0 5.00008 0.75 5.00008 1.66667V15C5.00008 15.9167 5.75008 16.6667 6.66675 16.6667H16.6667C17.5834 16.6667 18.3334 15.9167 18.3334 15V5L13.3334 0ZM16.6667 15H6.66675V1.66667H12.5001V5.83333H16.6667V15ZM3.33341 3.33333V18.3333H16.6667V20H3.33341C2.41675 20 1.66675 19.25 1.66675 18.3333V3.33333H3.33341ZM8.33341 8.33333V10H15.0001V8.33333H8.33341ZM8.33341 11.6667V13.3333H12.5001V11.6667H8.33341Z" fill="currentColor"/>
</svg>
