<svg width="20" height="20" viewBox="0 0 20 20" fill="none" xmlns="http://www.w3.org/2000/svg" id="folder-key">
<path d="M3.33341 3.33325C2.41675 3.33325 1.66675 4.08325 1.66675 4.99992V14.9999C1.66675 15.9166 2.41675 16.6666 3.33341 16.6666H16.6667C17.5834 16.6666 18.3334 15.9166 18.3334 14.9999V6.66659C18.3334 5.74992 17.5834 4.99992 16.6667 4.99992H10.0001L8.33341 3.33325M9.16675 8.33325C10.2501 8.33325 11.1667 8.99992 11.5001 9.99992H16.6667V11.6666H15.0001V13.3333H13.3334V11.6666H11.5001C11.1667 12.6666 10.2501 13.3333 9.16675 13.3333C7.75008 13.3333 6.66675 12.2499 6.66675 10.8333C6.66675 9.41659 7.75008 8.33325 9.16675 8.33325ZM9.16675 9.99992C8.66675 9.99992 8.33341 10.3333 8.33341 10.8333C8.33341 11.3333 8.66675 11.6666 9.16675 11.6666C9.66675 11.6666 10.0001 11.3333 10.0001 10.8333C10.0001 10.3333 9.66675 9.99992 9.16675 9.99992Z" fill="currentColor"></path>
</svg>
