<svg width="20" height="20" viewBox="0 0 20 20" fill="none" xmlns="http://www.w3.org/2000/svg">
<path d="M10.8332 15.8333C10.8332 16.1166 10.8665 16.3916 10.9082 16.6666H3.33317C2.4165 16.6666 1.6665 15.9249 1.6665 14.9999V4.99992C1.6665 4.07492 2.40817 3.33325 3.33317 3.33325H8.33317L9.99984 4.99992H16.6665C17.5832 4.99992 18.3332 5.74159 18.3332 6.66659V11.5083C17.5998 11.0833 16.7498 10.8333 15.8332 10.8333C13.0748 10.8333 10.8332 13.0749 10.8332 15.8333ZM16.6665 14.9999V12.4999H14.9998V14.9999H12.4998V16.6666H14.9998V19.1666H16.6665V16.6666H19.1665V14.9999H16.6665Z" fill="currentColor"/>
</svg>
