<svg width="20" height="20" viewBox="0 0 20 20" fill="none" xmlns="http://www.w3.org/2000/svg">
<path d="M16.6667 14.9999H3.33341V6.66659H16.6667M16.6667 4.99992H10.0001L8.33341 3.33325H3.33341C2.89139 3.33325 2.46746 3.50885 2.1549 3.82141C1.84234 4.13397 1.66675 4.55789 1.66675 4.99992V14.9999C1.66675 15.4419 1.84234 15.8659 2.1549 16.1784C2.46746 16.491 2.89139 16.6666 3.33341 16.6666H16.6667C17.1088 16.6666 17.5327 16.491 17.8453 16.1784C18.1578 15.8659 18.3334 15.4419 18.3334 14.9999V6.66659C18.3334 6.22456 18.1578 5.80063 17.8453 5.48807C17.5327 5.17551 17.1088 4.99992 16.6667 4.99992ZM12.5001 13.3333H5.00008V11.6666H12.5001V13.3333ZM15.0001 9.99992H5.00008V8.33325H15.0001V9.99992Z" fill="currentColor"/>
</svg>
