<svg width="20" height="20" viewBox="0 0 20 20" fill="none" xmlns="http://www.w3.org/2000/svg">
<path d="M4.99999 3.33325V9.16659H3.33332C2.40832 9.16659 1.66666 9.90825 1.66666 10.8333V14.1666C1.66666 14.8296 1.93005 15.4655 2.39889 15.9344C2.86773 16.4032 3.50362 16.6666 4.16666 16.6666C4.8297 16.6666 5.46558 16.4032 5.93442 15.9344C6.40326 15.4655 6.66666 14.8296 6.66666 14.1666H8.33332C8.33332 14.8296 8.59671 15.4655 9.06556 15.9344C9.5344 16.4032 10.1703 16.6666 10.8333 16.6666C11.4964 16.6666 12.1322 16.4032 12.6011 15.9344C13.0699 15.4655 13.3333 14.8296 13.3333 14.1666V10.8333L9.99999 3.33325H4.99999ZM14.1667 4.16659V15.8333H18.3333V14.5833H15.4167V4.16659H14.1667ZM6.24999 4.58325H9.33332L12.0833 10.8333H6.24999V4.58325ZM4.16666 12.9166C4.49818 12.9166 4.81612 13.0483 5.05054 13.2827C5.28496 13.5171 5.41666 13.8351 5.41666 14.1666C5.41666 14.4981 5.28496 14.816 5.05054 15.0505C4.81612 15.2849 4.49818 15.4166 4.16666 15.4166C3.83514 15.4166 3.51719 15.2849 3.28277 15.0505C3.04835 14.816 2.91666 14.4981 2.91666 14.1666C2.91666 13.8351 3.04835 13.5171 3.28277 13.2827C3.51719 13.0483 3.83514 12.9166 4.16666 12.9166V12.9166ZM10.8333 12.9166C11.1648 12.9166 11.4828 13.0483 11.7172 13.2827C11.9516 13.5171 12.0833 13.8351 12.0833 14.1666C12.0833 14.4981 11.9516 14.816 11.7172 15.0505C11.4828 15.2849 11.1648 15.4166 10.8333 15.4166C10.5018 15.4166 10.1839 15.2849 9.94944 15.0505C9.71502 14.816 9.58332 14.4981 9.58332 14.1666C9.58332 13.8351 9.71502 13.5171 9.94944 13.2827C10.1839 13.0483 10.5018 12.9166 10.8333 12.9166Z" fill="currentColor"/>
</svg>
