<svg width="20" height="20" viewBox="0 0 20 20" fill="none" xmlns="http://www.w3.org/2000/svg">
<path d="M13.3333 6.17508L9.50825 10.0001L13.3333 13.8251L12.1583 15.0001L8.33325 11.1751L4.50825 15.0001L3.33325 13.8251L7.15825 10.0001L3.33325 6.17508L4.50825 5.00008L8.33325 8.82508L12.1583 5.00008L13.3333 6.17508ZM18.2083 7.50008H14.1416V6.66675L14.8833 5.98341C15.5166 5.45008 15.9833 5.00008 16.2999 4.62508C16.6083 4.25841 16.7666 3.91675 16.7749 3.60008C16.7833 3.36675 16.7083 3.16675 16.5499 3.01675C16.3999 2.85841 16.1583 2.78341 15.8333 2.77508C15.5749 2.78341 15.3499 2.83341 15.1333 2.91675L14.5833 3.24175L14.2083 2.26675C14.4333 2.08341 14.6999 1.94175 15.0249 1.82508C15.3499 1.70841 15.7083 1.66675 16.0999 1.66675C16.7499 1.66675 17.2499 1.83341 17.5833 2.17508C17.9166 2.50008 18.0999 2.95008 18.0999 3.48341C18.0916 3.95008 17.9416 4.38341 17.6499 4.77508C17.3666 5.17508 17.0166 5.55008 16.5916 5.90841L16.0583 6.34175V6.35841H18.2083V7.50008Z" fill="currentColor"/>
</svg>
