<svg width="20" height="20" viewBox="0 0 20 20" fill="none" xmlns="http://www.w3.org/2000/svg">
<path d="M4.16675 17.5H15.8334V15.8333H4.16675V17.5ZM10.0001 14.1667C11.3262 14.1667 12.5979 13.6399 13.5356 12.7022C14.4733 11.7645 15.0001 10.4927 15.0001 9.16667V2.5H12.9167V9.16667C12.9167 9.94021 12.6095 10.6821 12.0625 11.2291C11.5155 11.776 10.7736 12.0833 10.0001 12.0833C9.22653 12.0833 8.48467 11.776 7.93769 11.2291C7.39071 10.6821 7.08341 9.94021 7.08341 9.16667V2.5H5.00008V9.16667C5.00008 10.4927 5.52687 11.7645 6.46455 12.7022C7.40223 13.6399 8.674 14.1667 10.0001 14.1667Z" fill="currentColor"/>
</svg>
