<svg width="20" height="20" viewBox="0 0 20 20" fill="none" xmlns="http://www.w3.org/2000/svg">
<path d="M6 8.16663C5 6.24996 6.41667 3.99996 8.41667 3.58329C11 2.74996 14.75 3.91663 14.6667 7.08329H12.1667C12.1667 6.83329 12.0833 6.58329 12.0833 6.41663C11.9167 5.91663 11.5833 5.66663 11.0833 5.49996C10.4167 5.24996 9.33333 5.33329 8.75 5.74996C7.5 6.83329 8.66667 7.91663 10 8.33329H6.16667C6.08333 8.24996 6.08333 8.16663 6 8.16663ZM17.5 10.8333V9.16663H2.5V10.8333H10.5C10.6667 10.9166 10.8333 10.9166 11 11C11.5 11.25 11.9167 11.4166 12.0833 11.9166C12.1667 12.25 12.25 12.6666 12.0833 13C11.9167 13.4166 11.5833 13.5833 11.1667 13.75C9.66667 14.1666 7.83333 13.5833 7.91667 11.75H5.41667C5.33333 13.9166 7.16667 15.4166 9.16667 15.6666C12.3333 16.3333 16.0833 14.3333 14.4167 10.75L17.5 10.8333Z" fill="currentColor"/>
</svg>
