<svg width="20" height="20" viewBox="0 0 20 20" fill="none" xmlns="http://www.w3.org/2000/svg">
<path d="M15 8.33333C14.779 8.33333 14.567 8.24554 14.4108 8.08926C14.2545 7.93298 14.1667 7.72101 14.1667 7.5C14.1667 7.27899 14.2545 7.06702 14.4108 6.91074C14.567 6.75446 14.779 6.66667 15 6.66667C15.221 6.66667 15.433 6.75446 15.5893 6.91074C15.7455 7.06702 15.8333 7.27899 15.8333 7.5C15.8333 7.72101 15.7455 7.93298 15.5893 8.08926C15.433 8.24554 15.221 8.33333 15 8.33333ZM10 8.33333H5.00001V4.16667H10V8.33333ZM16.475 6.025L16.4833 6.01667L13.3833 2.91667L12.5 3.8L14.2583 5.55833C13.475 5.83333 12.9167 6.60833 12.9167 7.5C12.9167 7.77359 12.9706 8.0445 13.0753 8.29726C13.18 8.55002 13.3334 8.77968 13.5269 8.97314C13.9176 9.36384 14.4475 9.58333 15 9.58333C15.3 9.58333 15.575 9.51667 15.8333 9.40833V15.4167C15.8333 15.6377 15.7455 15.8496 15.5893 16.0059C15.433 16.1622 15.221 16.25 15 16.25C14.779 16.25 14.567 16.1622 14.4108 16.0059C14.2545 15.8496 14.1667 15.6377 14.1667 15.4167V11.6667C14.1667 10.7417 13.4167 10 12.5 10H11.6667V4.16667C11.6667 3.24167 10.9167 2.5 10 2.5H5.00001C4.07501 2.5 3.33334 3.24167 3.33334 4.16667V17.5H11.6667V11.25H12.9167V15.4167C12.9167 15.9692 13.1362 16.4991 13.5269 16.8898C13.9176 17.2805 14.4475 17.5 15 17.5C15.2736 17.5 15.5445 17.4461 15.7973 17.3414C16.05 17.2367 16.2797 17.0833 16.4731 16.8898C16.6666 16.6964 16.8201 16.4667 16.9248 16.2139C17.0295 15.9612 17.0833 15.6903 17.0833 15.4167V7.5C17.0833 6.925 16.85 6.4 16.475 6.025Z" fill="currentColor"/>
</svg>
