<svg width="20" height="20" viewBox="0 0 20 20" fill="none" xmlns="http://www.w3.org/2000/svg">
<path d="M15.8333 2.5C16.2754 2.5 16.6993 2.67559 17.0118 2.98816C17.3244 3.30072 17.5 3.72464 17.5 4.16667V15.8333C17.5 16.2754 17.3244 16.6993 17.0118 17.0118C16.6993 17.3244 16.2754 17.5 15.8333 17.5H14.1667H12.5V7.5V4.16667C12.5 3.72464 12.6756 3.30072 12.9882 2.98816C13.3007 2.67559 13.7246 2.5 14.1667 2.5H15.8333ZM4.16667 17.5C3.72464 17.5 3.30072 17.3244 2.98816 17.0118C2.67559 16.6993 2.5 16.2754 2.5 15.8333V14.1667C2.5 13.7246 2.67559 13.3007 2.98816 12.9882C3.30072 12.6756 3.72464 12.5 4.16667 12.5H7.5V9.16667C7.5 8.72464 7.67559 8.30072 7.98816 7.98816C8.30072 7.67559 8.72464 7.5 9.16667 7.5H12.0833V17.5H4.16667Z" fill="currentColor"/>
</svg>
