<svg width="20" height="20" viewBox="0 0 20 20" fill="none" xmlns="http://www.w3.org/2000/svg">
<path d="M19.1667 9.16663H17.5V7.49996H15.8334V9.16663H14.1667V10.8333H15.8334V12.5H17.5V10.8333H19.1667V9.16663ZM6.66671 9.16663V11.1666H10C9.83337 12 9.00004 13.6666 6.66671 13.6666C4.66671 13.6666 3.08337 12 3.08337 9.99996C3.08337 7.99996 4.66671 6.33329 6.66671 6.33329C7.83337 6.33329 8.58337 6.83329 9.00004 7.24996L10.5834 5.74996C9.58337 4.74996 8.25004 4.16663 6.66671 4.16663C3.41671 4.16663 0.833374 6.74996 0.833374 9.99996C0.833374 13.25 3.41671 15.8333 6.66671 15.8333C10 15.8333 12.25 13.5 12.25 10.1666C12.25 9.74996 12.25 9.49996 12.1667 9.16663H6.66671Z" fill="currentColor"/>
</svg>
