<svg width="20" height="20" viewBox="0 0 20 20" fill="none" xmlns="http://www.w3.org/2000/svg">
<path d="M17.3 13.6166H17.2916C17.9166 13.9749 18.3333 14.6499 18.3333 15.4166C18.3333 15.9691 18.1138 16.499 17.7231 16.8897C17.3324 17.2804 16.8025 17.4999 16.25 17.4999H3.74996C3.19742 17.4999 2.66752 17.2804 2.27682 16.8897C1.88612 16.499 1.66663 15.9691 1.66663 15.4166C1.66663 14.6499 2.08329 13.9749 2.70829 13.6166H2.69996L9.16663 9.88325C9.16663 9.88325 9.16663 9.16659 9.99996 8.33325C10.8333 8.33325 11.6666 7.58325 11.6666 6.66659C11.6666 6.22456 11.491 5.80063 11.1785 5.48807C10.8659 5.17551 10.442 4.99992 9.99996 4.99992C9.55793 4.99992 9.13401 5.17551 8.82145 5.48807C8.50889 5.80063 8.33329 6.22456 8.33329 6.66659H6.66663C6.66663 5.78253 7.01782 4.93468 7.64294 4.30956C8.26806 3.68444 9.1159 3.33325 9.99996 3.33325C10.884 3.33325 11.7319 3.68444 12.357 4.30956C12.9821 4.93468 13.3333 5.78253 13.3333 6.66659C13.3333 8.21659 12.275 9.51659 10.8333 9.89159L17.3 13.6166ZM3.74996 15.8333H16.25C16.3916 15.8333 16.5333 15.7583 16.6083 15.6249C16.725 15.4166 16.6666 15.1749 16.4583 15.0583L9.99996 11.3249L3.54163 15.0583C3.33329 15.1749 3.27496 15.4166 3.39163 15.6249C3.46663 15.7583 3.60829 15.8333 3.74996 15.8333Z" fill="currentColor"/>
</svg>
