<svg width="20" height="20" viewBox="0 0 20 20" fill="none" xmlns="http://www.w3.org/2000/svg">
<path d="M14.1667 1.66675C14.6088 1.66675 15.0327 1.84234 15.3453 2.1549C15.6578 2.46746 15.8334 2.89139 15.8334 3.33341V11.6667C15.8334 12.1088 15.6578 12.5327 15.3453 12.8453C15.0327 13.1578 14.6088 13.3334 14.1667 13.3334H10.8334V15.0001H11.6667C11.8878 15.0001 12.0997 15.0879 12.256 15.2442C12.4123 15.4004 12.5001 15.6124 12.5001 15.8334H18.3334V17.5001H12.5001C12.5001 17.7211 12.4123 17.9331 12.256 18.0893C12.0997 18.2456 11.8878 18.3334 11.6667 18.3334H8.33341C8.1124 18.3334 7.90044 18.2456 7.74416 18.0893C7.58788 17.9331 7.50008 17.7211 7.50008 17.5001H1.66675V15.8334H7.50008C7.50008 15.6124 7.58788 15.4004 7.74416 15.2442C7.90044 15.0879 8.1124 15.0001 8.33341 15.0001H9.16675V13.3334H5.83341C4.90841 13.3334 4.16675 12.5834 4.16675 11.6667V3.33341C4.16675 2.89139 4.34234 2.46746 4.6549 2.1549C4.96746 1.84234 5.39139 1.66675 5.83341 1.66675H14.1667ZM10.1584 3.33341C9.43341 3.33341 8.85008 3.50008 8.40008 3.82508C7.96675 4.16675 7.75008 4.64175 7.75841 5.30008L7.76675 5.32508H9.37508C9.38341 5.07508 9.45841 4.88341 9.60841 4.75008C9.75841 4.62508 9.94175 4.55841 10.1584 4.55841C10.4167 4.55841 10.6334 4.64175 10.7834 4.79175C10.9334 4.95008 11.0001 5.16675 11.0001 5.41675C11.0001 5.68341 10.9417 5.90841 10.8084 6.10008C10.6917 6.29175 10.5167 6.45841 10.3001 6.59175C9.87508 6.87508 9.58341 7.12508 9.42508 7.35008C9.25841 7.56675 9.16675 7.91675 9.16675 8.33341H10.8334C10.8334 8.07508 10.8667 7.86675 10.9417 7.71675C11.0167 7.55841 11.1584 7.41675 11.3667 7.28341C11.7417 7.08341 12.0501 6.84175 12.2917 6.50841C12.5334 6.17508 12.6584 5.83341 12.6584 5.41675C12.6584 4.78341 12.4334 4.27508 11.9834 3.90008C11.5417 3.52508 10.9334 3.33341 10.1584 3.33341ZM9.16675 9.16675V10.8334H10.8334V9.16675H9.16675Z" fill="currentColor"/>
</svg>
