<svg width="20" height="20" viewBox="0 0 20 20" fill="none" xmlns="http://www.w3.org/2000/svg">
<path d="M8.33333 15.8334H10.8333V18.3334H8.33333V15.8334ZM10 1.66675C14.4583 1.85008 16.4 6.35008 13.75 9.72508C13.0583 10.5584 11.9417 11.1084 11.3917 11.8084C10.8333 12.5001 10.8333 13.3334 10.8333 14.1667H8.33333C8.33333 12.7751 8.33333 11.6001 8.89167 10.7667C9.44167 9.93341 10.5583 9.44175 11.25 8.89175C13.2667 7.02508 12.7667 4.38341 10 4.16675C9.33696 4.16675 8.70107 4.43014 8.23223 4.89898C7.76339 5.36782 7.5 6.00371 7.5 6.66675H5C5 5.34067 5.52678 4.0689 6.46447 3.13121C7.40215 2.19353 8.67392 1.66675 10 1.66675Z" fill="currentColor"/>
</svg>
