<svg width="20" height="20" viewBox="0 0 20 20" fill="none" xmlns="http://www.w3.org/2000/svg">
<path d="M15.833 2.5C16.7497 2.5 17.5 3.25033 17.5 4.16699V15.833C17.5 16.7497 16.7497 17.5 15.833 17.5H4.16699C3.25033 17.5 2.5 16.7497 2.5 15.833V4.16699C2.5 3.25033 3.25033 2.5 4.16699 2.5H15.833ZM4.16699 13.333V15.833H15.833V13.333H13.3164C12.5497 14.3413 11.3583 15 10 15C8.64167 15 7.44193 14.3413 6.68359 13.333H4.16699ZM4.16699 4.16699V11.667H7.65039C8.0005 12.6334 8.90849 13.333 10 13.333C11.0915 13.333 12.0078 12.6334 12.3496 11.667H15.833V4.16699H4.16699ZM13.333 8.33301L12.1582 9.50879L10.833 8.19141V11.667H9.16699V8.19141L7.8418 9.50879L6.66699 8.33301L10 5L13.333 8.33301Z" fill="currentColor"/>
</svg>
