<svg width="20" height="20" viewBox="0 0 20 20" fill="none" xmlns="http://www.w3.org/2000/svg">
<path d="M15.5 5.5166C17.9833 5.5166 20 7.49994 20 9.99994C20 12.4666 17.9833 14.4749 15.5 14.4749C14.2917 14.4749 13.1667 14.0083 12.3167 13.1666L10 11.1166L7.64167 13.2083C6.83333 14.0166 5.7 14.4833 4.5 14.4833C2.01667 14.4833 0 12.4666 0 9.99994C0 7.53327 2.01667 5.5166 4.5 5.5166C5.7 5.5166 6.83333 5.98327 7.68333 6.83327L10 8.88327L12.3583 6.7916C13.1667 5.98327 14.3 5.5166 15.5 5.5166ZM6.5 11.9916L8.75 9.99994L6.53333 8.0416C5.96667 7.47493 5.25833 7.18327 4.5 7.18327C2.94167 7.18327 1.66667 8.4416 1.66667 9.99994C1.66667 11.5583 2.94167 12.8166 4.5 12.8166C5.25833 12.8166 5.96667 12.5249 6.5 11.9916ZM13.5 8.00827L11.25 9.99994L13.4667 11.9583C14.0333 12.5249 14.75 12.8166 15.5 12.8166C17.0583 12.8166 18.3333 11.5583 18.3333 9.99994C18.3333 8.4416 17.0583 7.18327 15.5 7.18327C14.7417 7.18327 14.0333 7.47493 13.5 8.00827Z" fill="currentColor"/>
</svg>
