<svg width="20" height="20" viewBox="0 0 20 20" fill="none" xmlns="http://www.w3.org/2000/svg">
<path d="M18.3332 15.0001V18.3334H14.9998V15.8334H12.4998V13.3334H9.99984L8.1165 11.4501C7.65817 11.5917 7.17484 11.6667 6.6665 11.6667C5.34042 11.6667 4.06865 11.14 3.13097 10.2023C2.19329 9.2646 1.6665 7.99283 1.6665 6.66675C1.6665 5.34067 2.19329 4.0689 3.13097 3.13121C4.06865 2.19353 5.34042 1.66675 6.6665 1.66675C7.99259 1.66675 9.26436 2.19353 10.202 3.13121C11.1397 4.0689 11.6665 5.34067 11.6665 6.66675C11.6665 7.17508 11.5915 7.65841 11.4498 8.11675L18.3332 15.0001ZM5.83317 4.16675C5.39114 4.16675 4.96722 4.34234 4.65466 4.6549C4.3421 4.96746 4.1665 5.39139 4.1665 5.83341C4.1665 6.27544 4.3421 6.69936 4.65466 7.01193C4.96722 7.32449 5.39114 7.50008 5.83317 7.50008C6.2752 7.50008 6.69912 7.32449 7.01168 7.01193C7.32424 6.69936 7.49984 6.27544 7.49984 5.83341C7.49984 5.39139 7.32424 4.96746 7.01168 4.6549C6.69912 4.34234 6.2752 4.16675 5.83317 4.16675Z" fill="currentColor"/>
</svg>
