<svg width="20" height="20" viewBox="0 0 20 20" fill="none" xmlns="http://www.w3.org/2000/svg">
<path d="M9.99999 18.3334L13.3333 15.0001H6.66666L9.99999 18.3334ZM15.8333 5.83341H14.1667V4.16675H15.8333V5.83341ZM15.8333 8.33341H14.1667V6.66675H15.8333V8.33341ZM13.3333 5.83341H11.6667V4.16675H13.3333V5.83341ZM13.3333 8.33341H11.6667V6.66675H13.3333V8.33341ZM13.3333 11.6667H6.66666V10.0001H13.3333V11.6667ZM5.83332 5.83341H4.16666V4.16675H5.83332V5.83341ZM5.83332 8.33341H4.16666V6.66675H5.83332V8.33341ZM6.66666 6.66675H8.33332V8.33341H6.66666V6.66675ZM6.66666 4.16675H8.33332V5.83341H6.66666V4.16675ZM9.16666 6.66675H10.8333V8.33341H9.16666V6.66675ZM9.16666 4.16675H10.8333V5.83341H9.16666V4.16675ZM16.6667 1.66675H3.33332C2.40832 1.66675 1.66666 2.40841 1.66666 3.33341V11.6667C1.66666 12.1088 1.84225 12.5327 2.15481 12.8453C2.46737 13.1578 2.8913 13.3334 3.33332 13.3334H16.6667C17.1087 13.3334 17.5326 13.1578 17.8452 12.8453C18.1577 12.5327 18.3333 12.1088 18.3333 11.6667V3.33341C18.3333 2.40841 17.5833 1.66675 16.6667 1.66675Z" fill="currentColor"/>
</svg>
