<svg width="20" height="20" viewBox="0 0 20 20" fill="none" xmlns="http://www.w3.org/2000/svg">
<path d="M15.8333 8.33341H14.1667V6.66675H15.8333V8.33341ZM15.8333 10.8334H14.1667V9.16675H15.8333V10.8334ZM13.3333 8.33341H11.6667V6.66675H13.3333V8.33341ZM13.3333 10.8334H11.6667V9.16675H13.3333V10.8334ZM13.3333 14.1667H6.66666V12.5001H13.3333V14.1667ZM5.83332 8.33341H4.16666V6.66675H5.83332V8.33341ZM5.83332 10.8334H4.16666V9.16675H5.83332V10.8334ZM6.66666 9.16675H8.33332V10.8334H6.66666V9.16675ZM6.66666 6.66675H8.33332V8.33341H6.66666V6.66675ZM9.16666 9.16675H10.8333V10.8334H9.16666V9.16675ZM9.16666 6.66675H10.8333V8.33341H9.16666V6.66675ZM16.6667 4.16675H3.33332C2.40832 4.16675 1.66666 4.90841 1.66666 5.83341V14.1667C1.66666 14.6088 1.84225 15.0327 2.15481 15.3453C2.46737 15.6578 2.8913 15.8334 3.33332 15.8334H16.6667C17.1087 15.8334 17.5326 15.6578 17.8452 15.3453C18.1577 15.0327 18.3333 14.6088 18.3333 14.1667V5.83341C18.3333 4.90841 17.5833 4.16675 16.6667 4.16675Z" fill="currentColor"/>
</svg>
