<svg width="20" height="20" viewBox="0 0 20 20" fill="none" xmlns="http://www.w3.org/2000/svg">
<path d="M3.33325 0.833252C2.40825 0.833252 1.66659 1.57492 1.66659 2.49992V5.83325C1.66659 6.75825 2.40825 7.49992 3.33325 7.49992H0.833252V9.16659H10.8333V7.49992H8.33325C9.25825 7.49992 9.99992 6.75825 9.99992 5.83325V2.49992C9.99992 1.57492 9.25825 0.833252 8.33325 0.833252H3.33325ZM3.33325 2.49992H8.33325V5.83325H3.33325V2.49992ZM2.49992 10.8333V14.9999V16.6666H8.33325V14.9999H4.16659V10.8333H2.49992ZM11.6666 10.8333C10.7416 10.8333 9.99992 11.5749 9.99992 12.4999V15.8333C9.99992 16.7583 10.7416 17.4999 11.6666 17.4999H9.16659V19.1666H19.1666V17.4999H16.6666C17.5916 17.4999 18.3333 16.7583 18.3333 15.8333V12.4999C18.3333 11.5749 17.5916 10.8333 16.6666 10.8333H11.6666ZM11.6666 12.4999H16.6666V15.8333H11.6666V12.4999Z" fill="currentColor"/>
</svg>
