<svg width="20" height="20" viewBox="0 0 20 20" fill="none" xmlns="http://www.w3.org/2000/svg">
<path d="M0.833333 2.72508L1.9 1.66675L16.6667 16.4334L15.6083 17.5001L13.9417 15.8334H0V14.1667H3.33333C2.40833 14.1667 1.66667 13.4167 1.66667 12.5001V4.16675C1.66667 3.98341 1.7 3.80841 1.75 3.64175L0.833333 2.72508ZM3.33333 12.5001H10.6083L3.33333 5.22508V12.5001ZM16.6667 12.5001V4.16675H6.51667L4.85 2.50008H16.6667C17.1087 2.50008 17.5326 2.67568 17.8452 2.98824C18.1577 3.3008 18.3333 3.72472 18.3333 4.16675V12.5001C18.3333 12.9421 18.1577 13.366 17.8452 13.6786C17.5326 13.9912 17.1087 14.1667 16.6667 14.1667H20V15.8334H18.1833L14.85 12.5001H16.6667Z" fill="currentColor"/>
</svg>
