<svg width="20" height="20" viewBox="0 0 20 20" fill="none" xmlns="http://www.w3.org/2000/svg">
<path d="M16.6666 9.16659H19.1666V10.8333H16.6666V9.16659ZM0.833252 9.16659H3.33325V10.8333H0.833252V9.16659ZM10.8333 0.833252V3.33325H9.16659V0.833252H10.8333ZM4.09992 2.91659L5.87492 4.69992L4.69159 5.87492L2.91659 4.10825L4.09992 2.91659ZM14.1249 4.69159L15.8916 2.91659L17.0833 4.10825L15.3083 5.87492L14.1249 4.69159ZM9.99992 4.99992C11.326 4.99992 12.5978 5.5267 13.5355 6.46439C14.4731 7.40207 14.9999 8.67384 14.9999 9.99992C14.9999 11.8499 13.9916 13.4666 12.4999 14.3333V15.8333C12.4999 16.0543 12.4121 16.2662 12.2558 16.4225C12.0996 16.5788 11.8876 16.6666 11.6666 16.6666H8.33325C8.11224 16.6666 7.90028 16.5788 7.744 16.4225C7.58772 16.2662 7.49992 16.0543 7.49992 15.8333V14.3333C6.00825 13.4666 4.99992 11.8499 4.99992 9.99992C4.99992 8.67384 5.5267 7.40207 6.46439 6.46439C7.40207 5.5267 8.67384 4.99992 9.99992 4.99992V4.99992ZM11.6666 17.4999V18.3333C11.6666 18.5543 11.5788 18.7662 11.4225 18.9225C11.2662 19.0788 11.0543 19.1666 10.8333 19.1666H9.16659C8.94557 19.1666 8.73361 19.0788 8.57733 18.9225C8.42105 18.7662 8.33325 18.5543 8.33325 18.3333V17.4999H11.6666ZM9.16659 14.9999H10.8333V13.2249C12.2749 12.8583 13.3333 11.5499 13.3333 9.99992C13.3333 9.11586 12.9821 8.26802 12.3569 7.6429C11.7318 7.01777 10.884 6.66659 9.99992 6.66659C9.11586 6.66659 8.26802 7.01777 7.6429 7.6429C7.01777 8.26802 6.66659 9.11586 6.66659 9.99992C6.66659 11.5499 7.72492 12.8583 9.16659 13.2249V14.9999Z" fill="currentColor"/>
</svg>
