<svg width="20" height="20" viewBox="0 0 20 20" fill="none" xmlns="http://www.w3.org/2000/svg">
<path d="M9.99999 1.66675C8.45289 1.66675 6.96916 2.28133 5.8752 3.37529C4.78124 4.46925 4.16666 5.95299 4.16666 7.50008C4.16666 9.48341 5.15832 11.2251 6.66666 12.2834V14.1667C6.66666 14.3878 6.75445 14.5997 6.91073 14.756C7.06701 14.9123 7.27898 15.0001 7.49999 15.0001H12.5C12.721 15.0001 12.933 14.9123 13.0892 14.756C13.2455 14.5997 13.3333 14.3878 13.3333 14.1667V12.2834C14.8417 11.2251 15.8333 9.48341 15.8333 7.50008C15.8333 5.95299 15.2187 4.46925 14.1248 3.37529C13.0308 2.28133 11.5471 1.66675 9.99999 1.66675V1.66675ZM7.49999 17.5001C7.49999 17.7211 7.58779 17.9331 7.74407 18.0893C7.90035 18.2456 8.11231 18.3334 8.33332 18.3334H11.6667C11.8877 18.3334 12.0996 18.2456 12.2559 18.0893C12.4122 17.9331 12.5 17.7211 12.5 17.5001V16.6667H7.49999V17.5001Z" fill="currentColor"/>
</svg>
