<svg width="20" height="20" viewBox="0 0 20 20" fill="none" xmlns="http://www.w3.org/2000/svg">
<path d="M7.91699 2.5C10.9085 2.50018 13.333 4.92543 13.333 7.91699C13.3329 9.25837 12.8418 10.4915 12.0254 11.4414L12.2588 11.667H12.917L17.0752 15.833L15.833 17.0752L11.667 12.917V12.2588L11.4414 12.0254C10.4915 12.8418 9.25837 13.3329 7.91699 13.333C4.92543 13.333 2.50018 10.9085 2.5 7.91699C2.5 4.92533 4.92533 2.5 7.91699 2.5ZM7.91699 4.16699C5.84199 4.16699 4.16699 5.84199 4.16699 7.91699C4.16717 9.99184 5.8421 11.667 7.91699 11.667C9.99173 11.6668 11.6668 9.99173 11.667 7.91699C11.667 5.8421 9.99184 4.16717 7.91699 4.16699ZM8.33301 7.5H10V8.33301H8.33301V10H7.5V8.33301H5.83301V7.5H7.5V5.83301H8.33301V7.5Z" fill="currentColor"/>
</svg>
