<svg width="20" height="20" viewBox="0 0 20 20" fill="none" xmlns="http://www.w3.org/2000/svg" id="map-marker-distance">
<path d="M5.41675 6.75841C4.67508 6.75841 4.07508 6.15841 4.07508 5.41675C4.07508 5.06092 4.21643 4.71966 4.46805 4.46805C4.71966 4.21643 5.06092 4.07508 5.41675 4.07508C6.15841 4.07508 6.75841 4.67508 6.75841 5.41675C6.75841 5.77258 6.61706 6.11384 6.36545 6.36545C6.11384 6.61706 5.77258 6.75841 5.41675 6.75841ZM5.41675 1.66675C3.33341 1.66675 1.66675 3.33341 1.66675 5.41675C1.66675 8.22508 5.41675 12.3834 5.41675 12.3834C5.41675 12.3834 9.16675 8.22508 9.16675 5.41675C9.16675 3.33341 7.50008 1.66675 5.41675 1.66675ZM14.5834 6.75841C14.2276 6.75841 13.8863 6.61706 13.6347 6.36545C13.3831 6.11384 13.2417 5.77258 13.2417 5.41675C13.2417 4.67508 13.8417 4.07508 14.5834 4.07508C15.3251 4.07508 15.9251 4.67508 15.9251 5.41675C15.9251 5.77258 15.7837 6.11384 15.5321 6.36545C15.2805 6.61706 14.9392 6.75841 14.5834 6.75841ZM14.5834 1.66675C12.5001 1.66675 10.8334 3.33341 10.8334 5.41675C10.8334 8.22508 14.5834 12.3834 14.5834 12.3834C14.5834 12.3834 18.3334 8.22508 18.3334 5.41675C18.3334 3.33341 16.6667 1.66675 14.5834 1.66675ZM14.5834 13.3334C13.5251 13.3334 12.5834 14.0001 12.2334 15.0001H7.76675C7.30841 13.7001 5.87508 13.0167 4.58341 13.4751C3.27508 13.9334 2.59175 15.3667 3.05008 16.6667C3.51675 17.9667 4.94175 18.6501 6.25008 18.1917C6.95841 17.9417 7.50008 17.3751 7.76675 16.6667H12.2417C12.7001 17.9667 14.1334 18.6501 15.4167 18.1917C16.7334 17.7334 17.4167 16.3001 16.9584 15.0001C16.6001 14.0001 15.6501 13.3334 14.5834 13.3334ZM14.5834 17.0834C14.2519 17.0834 13.934 16.9517 13.6995 16.7173C13.4651 16.4829 13.3334 16.1649 13.3334 15.8334C13.3334 15.5019 13.4651 15.184 13.6995 14.9495C13.934 14.7151 14.2519 14.5834 14.5834 14.5834C14.9149 14.5834 15.2329 14.7151 15.4673 14.9495C15.7017 15.184 15.8334 15.5019 15.8334 15.8334C15.8334 16.1649 15.7017 16.4829 15.4673 16.7173C15.2329 16.9517 14.9149 17.0834 14.5834 17.0834Z" fill="currentColor"></path>
</svg>
