<svg width="20" height="20" viewBox="0 0 20 20" fill="none" xmlns="http://www.w3.org/2000/svg" id="map-marker-path">
<path d="M15 12.4999C15.663 12.4999 16.2989 12.7633 16.7678 13.2322C17.2366 13.701 17.5 14.3369 17.5 14.9999C17.5 15.663 17.2366 16.2989 16.7678 16.7677C16.2989 17.2365 15.663 17.4999 15 17.4999C13.9083 17.4999 12.9833 16.8083 12.6417 15.8333H11.6667V14.1666H12.6417C12.9833 13.1916 13.9083 12.4999 15 12.4999ZM15 14.1666C14.779 14.1666 14.567 14.2544 14.4107 14.4107C14.2545 14.567 14.1667 14.7789 14.1667 14.9999C14.1667 15.2209 14.2545 15.4329 14.4107 15.5892C14.567 15.7455 14.779 15.8333 15 15.8333C15.221 15.8333 15.433 15.7455 15.5893 15.5892C15.7455 15.4329 15.8333 15.2209 15.8333 14.9999C15.8333 14.7789 15.7455 14.567 15.5893 14.4107C15.433 14.2544 15.221 14.1666 15 14.1666ZM15 6.6666C15.316 6.6666 15.6192 6.54105 15.8426 6.31757C16.0661 6.09409 16.1917 5.79098 16.1917 5.47493C16.1917 4.8166 15.6583 4.28327 15 4.28327C14.3417 4.28327 13.8083 4.8166 13.8083 5.47493C13.8083 5.79098 13.9339 6.09409 14.1574 6.31757C14.3808 6.54105 14.684 6.6666 15 6.6666ZM15 2.1416C15.8841 2.1416 16.7319 2.49279 17.357 3.11791C17.9821 3.74303 18.3333 4.59088 18.3333 5.47493C18.3333 7.9666 15 11.6666 15 11.6666C15 11.6666 11.6667 7.9666 11.6667 5.47493C11.6667 4.59088 12.0179 3.74303 12.643 3.11791C13.2681 2.49279 14.1159 2.1416 15 2.1416ZM7.35833 14.1666H8.33333V15.8333H7.35833C7.01667 16.8083 6.09167 17.4999 5 17.4999C4.33696 17.4999 3.70107 17.2365 3.23223 16.7677C2.76339 16.2989 2.5 15.663 2.5 14.9999C2.5 13.9083 3.19167 12.9833 4.16667 12.6416V11.6666H5.83333V12.6416C6.54167 12.8916 7.10833 13.4583 7.35833 14.1666ZM5 14.1666C4.77899 14.1666 4.56702 14.2544 4.41074 14.4107C4.25446 14.567 4.16667 14.7789 4.16667 14.9999C4.16667 15.2209 4.25446 15.4329 4.41074 15.5892C4.56702 15.7455 4.77899 15.8333 5 15.8333C5.22101 15.8333 5.43298 15.7455 5.58926 15.5892C5.74554 15.4329 5.83333 15.2209 5.83333 14.9999C5.83333 14.7789 5.74554 14.567 5.58926 14.4107C5.43298 14.2544 5.22101 14.1666 5 14.1666ZM5 2.49993C5.66304 2.49993 6.29893 2.76333 6.76777 3.23217C7.23661 3.70101 7.5 4.33689 7.5 4.99993C7.5 6.0916 6.80833 7.0166 5.83333 7.35827V8.33327H4.16667V7.35827C3.19167 7.0166 2.5 6.0916 2.5 4.99993C2.5 4.33689 2.76339 3.70101 3.23223 3.23217C3.70107 2.76333 4.33696 2.49993 5 2.49993ZM5 4.1666C4.77899 4.1666 4.56702 4.2544 4.41074 4.41068C4.25446 4.56696 4.16667 4.77892 4.16667 4.99993C4.16667 5.22095 4.25446 5.43291 4.41074 5.58919C4.56702 5.74547 4.77899 5.83327 5 5.83327C5.22101 5.83327 5.43298 5.74547 5.58926 5.58919C5.74554 5.43291 5.83333 5.22095 5.83333 4.99993C5.83333 4.77892 5.74554 4.56696 5.58926 4.41068C5.43298 4.2544 5.22101 4.1666 5 4.1666ZM9.16667 15.8333V14.1666H10.8333V15.8333H9.16667ZM5.83333 10.8333H4.16667V9.1666H5.83333V10.8333Z" fill="currentColor"></path>
</svg>
