<svg width="20" height="20" viewBox="0 0 20 20" fill="none" xmlns="http://www.w3.org/2000/svg" id="map-marker-multiple-outline">
<path d="M9.58333 7.50008C9.58333 6.35008 10.5167 5.41675 11.6667 5.41675C12.5833 5.41675 13.3583 6.00841 13.6417 6.82508C13.7083 7.04175 13.75 7.26675 13.75 7.50008C13.75 8.65008 12.8167 9.58341 11.6667 9.58341C10.7583 9.58341 10 9.00841 9.7 8.20008C9.625 7.98341 9.58333 7.74175 9.58333 7.50008ZM4.16667 7.50008C4.16667 11.2501 8.4 16.3834 9.16667 17.3417L8.33333 18.3334C8.33333 18.3334 2.5 11.8751 2.5 7.50008C2.5 4.85841 4.25833 2.62508 6.66667 1.90841C5.13333 3.28341 4.16667 5.27508 4.16667 7.50008ZM11.6667 1.66675C14.8833 1.66675 17.5 4.27508 17.5 7.50008C17.5 11.8751 11.6667 18.3334 11.6667 18.3334C11.6667 18.3334 5.83333 11.8751 5.83333 7.50008C5.83333 4.27508 8.45 1.66675 11.6667 1.66675ZM11.6667 3.33341C9.36667 3.33341 7.5 5.20008 7.5 7.50008C7.5 8.33341 7.5 10.0001 11.6667 15.5917C15.8333 10.0001 15.8333 8.33341 15.8333 7.50008C15.8333 5.20008 13.9667 3.33341 11.6667 3.33341Z" fill="currentColor"></path>
</svg>
