<svg width="20" height="20" viewBox="0 0 20 20" fill="none" xmlns="http://www.w3.org/2000/svg">
<path d="M10.0001 5.41663C10.5526 5.41663 11.0825 5.63612 11.4732 6.02682C11.8639 6.41752 12.0834 6.94742 12.0834 7.49996C12.0834 7.77355 12.0295 8.04445 11.9248 8.29722C11.8201 8.54998 11.6667 8.77964 11.4732 8.9731C11.2798 9.16655 11.0501 9.32001 10.7973 9.42471C10.5446 9.52941 10.2737 9.58329 10.0001 9.58329C9.44755 9.58329 8.91764 9.3638 8.52694 8.9731C8.13624 8.5824 7.91675 8.05249 7.91675 7.49996C7.91675 6.94742 8.13624 6.41752 8.52694 6.02682C8.91764 5.63612 9.44755 5.41663 10.0001 5.41663ZM10.0001 1.66663C11.5472 1.66663 13.0309 2.28121 14.1249 3.37517C15.2188 4.46913 15.8334 5.95286 15.8334 7.49996C15.8334 11.875 10.0001 18.3333 10.0001 18.3333C10.0001 18.3333 4.16675 11.875 4.16675 7.49996C4.16675 5.95286 4.78133 4.46913 5.87529 3.37517C6.96925 2.28121 8.45299 1.66663 10.0001 1.66663V1.66663ZM10.0001 3.33329C8.89501 3.33329 7.8352 3.77228 7.0538 4.55368C6.2724 5.33508 5.83341 6.39489 5.83341 7.49996C5.83341 8.33329 5.83341 9.99996 10.0001 15.5916C14.1667 9.99996 14.1667 8.33329 14.1667 7.49996C14.1667 6.39489 13.7278 5.33508 12.9464 4.55368C12.165 3.77228 11.1052 3.33329 10.0001 3.33329V3.33329Z" fill="currentColor"/>
</svg>
