<svg width="20" height="20" viewBox="0 0 20 20" fill="none" xmlns="http://www.w3.org/2000/svg" id="map-marker-check-outline">
<path d="M10.0001 3.33341C12.3334 3.33341 14.1667 5.16675 14.1667 7.50008C14.1667 9.91675 11.7501 13.5001 10.0001 15.7501C8.25008 13.5001 5.83341 9.91675 5.83341 7.50008C5.83341 5.16675 7.66675 3.33341 10.0001 3.33341ZM10.0001 1.66675C6.75008 1.66675 4.16675 4.25008 4.16675 7.50008C4.16675 11.8334 10.0001 18.3334 10.0001 18.3334C10.0001 18.3334 15.8334 11.8334 15.8334 7.50008C15.8334 4.25008 13.2501 1.66675 10.0001 1.66675ZM9.41675 11.6667L13.5001 7.50008L12.3334 6.33341L9.41675 9.33341L8.08341 8.00008L6.91675 9.16675L9.41675 11.6667Z" fill="currentColor"></path>
</svg>
