<svg width="20" height="20" viewBox="0 0 20 20" fill="none" xmlns="http://www.w3.org/2000/svg">
<path d="M16.6667 1.66675H3.33341C2.41675 1.66675 1.66675 2.41675 1.66675 3.33341V18.3334L5.00008 15.0001H16.6667C17.5834 15.0001 18.3334 14.2501 18.3334 13.3334V3.33341C18.3334 2.41675 17.5834 1.66675 16.6667 1.66675ZM16.6667 13.3334H4.33341L3.33341 14.3334V3.33341H16.6667V13.3334ZM10.1667 4.58341C9.41675 4.58341 8.83341 4.75008 8.41675 5.00008C7.91675 5.33341 7.66675 5.83341 7.75008 6.41675H9.41675C9.41675 6.16675 9.50008 6.00008 9.66675 5.91675C9.83341 5.83341 10.0001 5.75008 10.2501 5.75008C10.5001 5.75008 10.7501 5.83341 10.9167 6.00008C11.0834 6.16675 11.1667 6.33341 11.1667 6.58341C11.1667 6.83341 11.0834 7.00008 11.0001 7.16675C10.8334 7.33341 10.6667 7.50008 10.5001 7.58341C10.0834 7.83341 9.75008 8.08341 9.58341 8.25008C9.25008 8.50008 9.16675 8.75008 9.16675 9.16675H10.8334C10.8334 8.91675 10.9167 8.75008 10.9167 8.58341C11.0001 8.41675 11.1667 8.33341 11.3334 8.16675C11.7501 8.00008 12.0001 7.75008 12.2501 7.41675C12.5001 7.08341 12.5834 6.75008 12.5834 6.41675C12.5834 5.83341 12.3334 5.33341 11.9167 5.00008C11.5834 4.75008 10.9167 4.58341 10.1667 4.58341ZM9.16675 10.0001V11.6667H10.8334V10.0001H9.16675Z" fill="currentColor"/>
</svg>
