<svg width="20" height="20" viewBox="0 0 20 20" fill="none" xmlns="http://www.w3.org/2000/svg">
<path d="M11.25 8.33341C11.25 8.66494 11.1183 8.98288 10.8839 9.2173C10.6495 9.45172 10.3315 9.58341 10 9.58341C9.30002 9.58341 8.75002 9.02508 8.75002 8.33341C8.75002 8.00189 8.88172 7.68395 9.11614 7.44953C9.35056 7.21511 9.6685 7.08341 10 7.08341C10.3315 7.08341 10.6495 7.21511 10.8839 7.44953C11.1183 7.68395 11.25 8.00189 11.25 8.33341ZM18.3334 3.33341V13.3334C18.3334 13.7754 18.1578 14.1994 17.8452 14.5119C17.5326 14.8245 17.1087 15.0001 16.6667 15.0001H5.00002L1.66669 18.3334V3.33341C1.66669 2.89139 1.84228 2.46746 2.15484 2.1549C2.4674 1.84234 2.89133 1.66675 3.33335 1.66675H16.6667C17.1087 1.66675 17.5326 1.84234 17.8452 2.1549C18.1578 2.46746 18.3334 2.89139 18.3334 3.33341ZM13.975 9.43341L13.0834 8.75008C13.0917 8.60841 13.0917 8.46675 13.0834 8.33341C13.1 8.20008 13.1 8.05841 13.0834 7.91675L13.9667 7.23341C14.0417 7.16675 14.0667 7.05841 14.0167 6.96675L13.1834 5.52508C13.1334 5.41675 13.025 5.39175 12.9167 5.41675L11.8917 5.83341C11.6667 5.66675 11.4417 5.52508 11.1834 5.41675L11.025 4.32508C11.0084 4.23341 10.925 4.16675 10.8334 4.16675H9.16669C9.06669 4.16675 8.97502 4.24175 8.95835 4.34175L8.80002 5.44175C8.55002 5.54175 8.30835 5.67508 8.08335 5.83341L7.05002 5.41675C6.95002 5.38341 6.84169 5.41675 6.79169 5.50841L5.95835 6.95008C5.90835 7.04175 5.92502 7.15008 6.00835 7.21675L6.89169 7.91675C6.85835 8.18341 6.85835 8.46675 6.89169 8.75008L6.00835 9.43341C5.93335 9.50008 5.90835 9.60841 5.95835 9.70008L6.79169 11.1417C6.84169 11.2501 6.95002 11.2751 7.05002 11.2501L8.08335 10.8334C8.30002 11.0001 8.53335 11.1417 8.79169 11.2501L8.95002 12.3417C8.97502 12.4417 9.06669 12.5001 9.16669 12.5001H10.8334C10.9334 12.5001 11.025 12.4251 11.0417 12.3251L11.2 11.2251C11.45 11.1167 11.6667 10.9834 11.9 10.8334L12.9417 11.2501C13.0417 11.2501 13.15 11.2501 13.2 11.1417L14.0334 9.70008C14.0834 9.60841 14.0584 9.50008 13.975 9.43341Z" fill="currentColor"/>
</svg>
