<svg width="20" height="20" viewBox="0 0 20 20" fill="none" xmlns="http://www.w3.org/2000/svg">
<path d="M3.33341 1.66675C2.89139 1.66675 2.46746 1.84234 2.1549 2.1549C1.84234 2.46746 1.66675 2.89139 1.66675 3.33341V13.3334C1.66675 13.7754 1.84234 14.1994 2.1549 14.5119C2.46746 14.8245 2.89139 15.0001 3.33341 15.0001H6.66675V17.5001C6.66675 17.7211 6.75455 17.9331 6.91083 18.0893C7.06711 18.2456 7.27907 18.3334 7.50008 18.3334H7.91675C8.12508 18.3334 8.33341 18.2501 8.50008 18.0917L11.5834 15.0001H16.6667C17.1088 15.0001 17.5327 14.8245 17.8453 14.5119C18.1578 14.1994 18.3334 13.7754 18.3334 13.3334V3.33341C18.3334 2.40841 17.5834 1.66675 16.6667 1.66675H3.33341ZM3.33341 3.33341H16.6667V13.3334H10.9001L8.33341 15.9001V13.3334H3.33341V3.33341ZM10.1584 4.58341C9.41675 4.58341 8.82508 4.73341 8.37508 5.03341C7.91675 5.33341 7.68341 5.83341 7.72508 6.40841C0.175081 6.40841 5.47508 6.40841 9.36675 6.40841C9.36675 6.17508 9.45008 6.00008 9.58341 5.88341C9.75008 5.76675 9.93341 5.70841 10.1584 5.70841C10.4167 5.70841 10.6417 5.77508 10.7917 5.92508C10.9417 6.06675 11.0167 6.25008 11.0167 6.50008C11.0167 6.73341 10.9501 6.94175 10.8334 7.11675C10.6917 7.30008 10.5167 7.45008 10.3001 7.56675C9.86675 7.83341 9.58341 8.06675 9.40841 8.26675C9.25008 8.46675 9.16675 8.75008 9.16675 9.16675H10.8334C10.8334 8.93341 10.8751 8.75008 10.9501 8.60008C11.0251 8.45841 11.1667 8.33341 11.3834 8.20841C11.7667 8.03341 12.0834 7.80008 12.3251 7.50008C12.5667 7.19175 12.6917 6.86675 12.6917 6.50008C12.6917 5.91675 12.4667 5.45008 12.0167 5.10008C11.5667 4.75841 10.9417 4.58341 10.1584 4.58341ZM9.16675 10.0001V11.6667H10.8334V10.0001H9.16675Z" fill="currentColor"/>
</svg>
