<svg width="20" height="20" viewBox="0 0 20 20" fill="none" xmlns="http://www.w3.org/2000/svg">
<path d="M16.6667 1.66663C17.1088 1.66663 17.5327 1.84222 17.8453 2.15478C18.1578 2.46734 18.3334 2.89127 18.3334 3.33329V13.3333C18.3334 13.7753 18.1578 14.1992 17.8453 14.5118C17.5327 14.8244 17.1088 15 16.6667 15H5.00008L1.66675 18.3333V3.33329C1.66675 2.40829 2.41675 1.66663 3.33341 1.66663H16.6667ZM3.33341 3.33329V14.3083L4.30841 13.3333H16.6667V3.33329H3.33341ZM5.00008 5.83329H15.0001V7.49996H5.00008V5.83329ZM5.00008 9.16663H12.5001V10.8333H5.00008V9.16663Z" fill="currentColor"/>
</svg>
