<svg width="20" height="20" viewBox="0 0 20 20" fill="none" xmlns="http://www.w3.org/2000/svg">
<path d="M9.99984 1.66675C10.6629 1.66675 11.2988 1.93014 11.7676 2.39898C12.2364 2.86782 12.4998 3.50371 12.4998 4.16675V9.16675C12.4998 9.82979 12.2364 10.4657 11.7676 10.9345C11.2988 11.4034 10.6629 11.6667 9.99984 11.6667C9.3368 11.6667 8.70091 11.4034 8.23207 10.9345C7.76323 10.4657 7.49984 9.82979 7.49984 9.16675V4.16675C7.49984 3.50371 7.76323 2.86782 8.23207 2.39898C8.70091 1.93014 9.3368 1.66675 9.99984 1.66675V1.66675ZM15.8332 9.16675C15.8332 12.1084 13.6582 14.5334 10.8332 14.9417V17.5001H9.1665V14.9417C6.3415 14.5334 4.1665 12.1084 4.1665 9.16675H5.83317C5.83317 10.2718 6.27216 11.3316 7.05356 12.113C7.83496 12.8944 8.89477 13.3334 9.99984 13.3334C11.1049 13.3334 12.1647 12.8944 12.9461 12.113C13.7275 11.3316 14.1665 10.2718 14.1665 9.16675H15.8332Z" fill="currentColor"/>
</svg>
