<svg width="20" height="20" viewBox="0 0 20 20" fill="none" xmlns="http://www.w3.org/2000/svg">
<path d="M15.8332 7.5H14.4165C14.4165 10 12.2998 11.75 9.99984 11.75C7.69984 11.75 5.58317 10 5.58317 7.5H4.1665C4.1665 10.3417 6.43317 12.6917 9.1665 13.1V15.8333H10.8332V13.1C13.5665 12.6917 15.8332 10.3417 15.8332 7.5ZM12.4998 19.1667H14.1665V17.5H12.4998V19.1667ZM9.1665 19.1667H10.8332V17.5H9.1665V19.1667ZM9.99984 10C10.6629 10 11.2988 9.73661 11.7676 9.26777C12.2364 8.79893 12.4998 8.16304 12.4998 7.5V2.5C12.4998 1.83696 12.2364 1.20107 11.7676 0.732233C11.2988 0.263392 10.6629 0 9.99984 0C9.3368 0 8.70091 0.263392 8.23207 0.732233C7.76323 1.20107 7.49984 1.83696 7.49984 2.5V7.5C7.49984 8.16304 7.76323 8.79893 8.23207 9.26777C8.70091 9.73661 9.3368 10 9.99984 10ZM5.83317 19.1667H7.49984V17.5H5.83317V19.1667Z" fill="currentColor"/>
</svg>
