<svg width="20" height="20" viewBox="0 0 20 20" fill="none" xmlns="http://www.w3.org/2000/svg">
<path d="M18.3334 17.381L2.69849 1.66675L1.66675 2.69849L4.0477 5.07945C3.01595 6.34929 2.38103 8.01595 2.38103 9.84135C2.38103 14.2064 5.95246 17.7779 10.3175 17.7779C12.1429 17.7779 13.8096 17.1429 15.0794 16.1112L17.3017 18.3334L18.3334 17.381ZM10.3175 16.1906C6.82548 16.1906 3.96834 13.3334 3.96834 9.84135C3.96834 8.49214 4.44453 7.2223 5.15881 6.19056L8.01595 9.0477H6.34929V10.635H9.60326L13.9683 15.0001C12.9366 15.7144 11.6667 16.1906 10.3175 16.1906ZM7.30167 4.2858L6.11119 3.09532C7.38103 2.38103 8.8096 1.90484 10.3175 1.90484C14.6826 1.90484 18.254 5.47627 18.254 9.84135C18.254 11.3493 17.7779 12.7779 17.0636 14.0477L15.8731 12.8572C16.3493 11.9842 16.6667 10.9525 16.6667 9.84135C16.6667 6.34929 13.8096 3.49214 10.3175 3.49214C9.20643 3.49214 8.17468 3.80961 7.30167 4.2858ZM13.6509 10.635L12.0636 9.0477H14.2858V10.635H13.6509Z" fill="currentColor"/>
</svg>
