<svg width="20" height="20" viewBox="0 0 20 20" fill="none" xmlns="http://www.w3.org/2000/svg">
<path d="M10.0001 16.6666C6.32508 16.6666 3.33341 13.675 3.33341 9.99996C3.33341 6.32496 6.32508 3.33329 10.0001 3.33329C13.6751 3.33329 16.6667 6.32496 16.6667 9.99996C16.6667 13.675 13.6751 16.6666 10.0001 16.6666ZM10.0001 1.66663C8.90573 1.66663 7.8221 1.88217 6.81105 2.30096C5.80001 2.71975 4.88135 3.33358 4.10752 4.1074C2.54472 5.67021 1.66675 7.78982 1.66675 9.99996C1.66675 12.2101 2.54472 14.3297 4.10752 15.8925C4.88135 16.6663 5.80001 17.2802 6.81105 17.699C7.8221 18.1177 8.90573 18.3333 10.0001 18.3333C12.2102 18.3333 14.3298 17.4553 15.8926 15.8925C17.4554 14.3297 18.3334 12.2101 18.3334 9.99996C18.3334 8.90561 18.1179 7.82198 17.6991 6.81093C17.2803 5.79988 16.6665 4.88122 15.8926 4.1074C15.1188 3.33358 14.2002 2.71975 13.1891 2.30096C12.1781 1.88217 11.0944 1.66663 10.0001 1.66663V1.66663ZM5.83341 10.8333H14.1667V9.16663H5.83341" fill="currentColor"/>
</svg>
