<svg width="20" height="20" viewBox="0 0 20 20" fill="none" xmlns="http://www.w3.org/2000/svg">
<path d="M6.03338 1.66675C4.66672 1.66675 3.30005 1.66675 2.95838 1.70008C2.22505 1.74175 1.73338 2.27508 1.70005 2.96675C1.66672 3.64175 1.66672 16.3251 1.70005 17.0084C1.74172 17.6917 2.25838 18.2167 2.95838 18.2584C3.71672 18.3001 6.20005 18.3084 6.90838 18.3084C5.63338 17.4251 5.45838 15.7667 5.34172 12.6917C5.27505 10.8667 5.33338 4.46675 5.34172 4.20008L5.37505 2.45008L12.0834 9.16675V11.2501L6.74172 5.92508C6.73338 6.98341 6.71672 8.35841 6.71672 9.61675C6.71672 10.8334 6.73338 11.9501 6.76672 12.5417C6.96672 15.8917 7.28338 17.4667 9.02505 18.0834C9.58338 18.2751 10.0584 18.3334 10.8917 18.3334C11.575 18.3334 16.3584 18.3334 17.0417 18.3001C17.7751 18.2584 18.275 17.7251 18.3084 17.0334C18.3334 16.3584 18.3334 3.70841 18.3084 3.01675C18.2584 2.33341 17.7417 1.81675 17.0417 1.77508C16.2834 1.73341 13.8084 1.69175 13.0917 1.69175C14.3667 2.57508 14.5334 4.23341 14.6584 7.31675C14.725 9.14175 14.6667 15.5334 14.6584 15.8084L14.625 17.5501L7.94172 10.8334V8.75008L13.2584 14.0751C13.2667 13.0167 13.2834 11.6417 13.2834 10.3834C13.2834 9.16675 13.2667 8.05008 13.2334 7.46675C13.0334 4.10841 12.7167 2.53341 10.975 1.91675C10.4417 1.72508 9.94172 1.66675 9.10838 1.66675H6.03338Z" fill="currentColor"/>
</svg>
