<svg width="20" height="20" viewBox="0 0 20 20" fill="none" xmlns="http://www.w3.org/2000/svg">
<path d="M17.1167 4.35833C17.3583 4.64167 17.5 5 17.5 5.41667V15.8333C17.5 16.2754 17.3244 16.6993 17.0118 17.0118C16.6993 17.3244 16.2754 17.5 15.8333 17.5H4.16667C3.72464 17.5 3.30072 17.3244 2.98816 17.0118C2.67559 16.6993 2.5 16.2754 2.5 15.8333V5.41667C2.5 5 2.64167 4.64167 2.88333 4.35833L4.03333 2.95833C4.26667 2.675 4.60833 2.5 5 2.5H15C15.3917 2.5 15.7333 2.675 15.9583 2.95833L17.1167 4.35833ZM4.26667 4.16667H15.725L14.9417 3.33333H4.94167L4.26667 4.16667ZM10 7.91667L5.41667 12.5H8.33333V14.1667H11.6667V12.5H14.5833L10 7.91667Z" fill="currentColor"/>
</svg>
