<svg width="20" height="20" viewBox="0 0 20 20" fill="none" xmlns="http://www.w3.org/2000/svg">
<path d="M17.2583 5.86875C16.975 6.15208 16.7 6.42708 16.6917 6.70208C16.6667 6.96875 16.95 7.24375 17.2167 7.50208C17.6167 7.91875 18.0083 8.29375 17.9917 8.70208C17.975 9.11042 17.55 9.53542 17.125 9.95208L13.6833 13.4021L12.5 12.2187L16.0417 8.68542L15.2417 7.88542L14.0583 9.06042L10.9333 5.93542L14.1333 2.74375C14.4583 2.41875 15 2.41875 15.3083 2.74375L17.2583 4.69375C17.5833 5.00208 17.5833 5.54375 17.2583 5.86875ZM2.5 14.3771L10.4667 6.40208L13.5917 9.52708L5.625 17.5021H2.5V14.3771Z" fill="currentColor"/>
</svg>
