<svg width="20" height="20" viewBox="0 0 20 20" fill="none" xmlns="http://www.w3.org/2000/svg">
<path d="M15.8333 15.8333V4.16667H4.16667V15.8333H15.8333ZM15.8333 2.5C16.2754 2.5 16.6993 2.67559 17.0118 2.98816C17.3244 3.30072 17.5 3.72464 17.5 4.16667V15.8333C17.5 16.7583 16.75 17.5 15.8333 17.5H4.16667C3.72464 17.5 3.30072 17.3244 2.98816 17.0118C2.67559 16.6993 2.5 16.2754 2.5 15.8333V4.16667C2.5 3.72464 2.67559 3.30072 2.98816 2.98816C3.30072 2.67559 3.72464 2.5 4.16667 2.5H15.8333ZM13.9167 7.79167L13.0833 8.625L11.375 6.91667L12.2083 6.08333C12.3833 5.9 12.675 5.9 12.85 6.08333L13.9167 7.15C14.1 7.325 14.1 7.61667 13.9167 7.79167ZM5.83333 12.45L10.8833 7.4L12.6 9.11667L7.55 14.1667H5.83333V12.45Z" fill="currentColor"/>
</svg>
