<svg width="20" height="20" viewBox="0 0 20 20" fill="none" xmlns="http://www.w3.org/2000/svg">
<path d="M16.85 1.66675H6.48335C5.66669 1.66675 5.00002 2.33341 5.00002 3.15008V13.5167C5.00002 14.3334 5.66669 15.0001 6.48335 15.0001H16.85C17.6667 15.0001 18.3334 14.3417 18.3334 13.5167V3.15008C18.3334 2.33341 17.6667 1.66675 16.85 1.66675ZM9.21669 12.5001H7.50002V10.7834L12.55 5.73341L14.2667 7.45008L9.21669 12.5001ZM15.5834 6.12508L14.75 6.95841L13.0417 5.25008L13.875 4.41675C14.05 4.23341 14.3417 4.23341 14.5167 4.41675L15.5834 5.48341C15.7667 5.65841 15.7667 5.95008 15.5834 6.12508ZM3.33335 5.00008H1.66669V16.6667C1.66669 17.5917 2.41669 18.3334 3.33335 18.3334H15V16.6667H3.33335V5.00008Z" fill="currentColor"/>
</svg>
