<svg width="20" height="20" viewBox="0 0 20 20" fill="none" xmlns="http://www.w3.org/2000/svg">
<path d="M16.6667 13.7501C15.625 13.7501 14.625 13.5834 13.6917 13.2751C13.4 13.1834 13.075 13.2501 12.8417 13.4834L11.0083 15.3167C8.65 14.1167 6.71667 12.1834 5.51667 9.82508L7.35 7.99175C7.58333 7.75841 7.65 7.43341 7.55833 7.14175C7.25 6.20841 7.08333 5.20841 7.08333 4.16675C7.08333 3.94573 6.99554 3.73377 6.83926 3.57749C6.68298 3.42121 6.47101 3.33341 6.25 3.33341H3.33333C3.11232 3.33341 2.90036 3.42121 2.74408 3.57749C2.5878 3.73377 2.5 3.94573 2.5 4.16675C2.5 7.92398 3.99256 11.5273 6.64932 14.1841C9.30609 16.8409 12.9094 18.3334 16.6667 18.3334C16.8877 18.3334 17.0996 18.2456 17.2559 18.0893C17.4122 17.9331 17.5 17.7211 17.5 17.5001V14.5834C17.5 14.3624 17.4122 14.1504 17.2559 13.9942C17.0996 13.8379 16.8877 13.7501 16.6667 13.7501ZM15 6.84175L15.7833 7.61675L15 8.40008V6.84175ZM15 3.25841L15.7833 4.04175L15 4.82508V3.25841ZM12.2583 8.75008L14.1667 6.84175V10.0001H14.5833L16.9583 7.61675L15.175 5.83341L16.9583 4.04175L14.5833 1.66675H14.1667V4.82508L12.2583 2.91675L11.6667 3.50841L13.9917 5.83341L11.6667 8.15841L12.2583 8.75008Z" fill="currentColor"/>
</svg>
