<svg width="20" height="20" viewBox="0 0 20 20" fill="none" xmlns="http://www.w3.org/2000/svg">
<path d="M7.53329 17.9501C8.33329 18.1917 9.14163 18.3334 9.99996 18.3334C12.2101 18.3334 14.3297 17.4554 15.8925 15.8926C17.4553 14.3298 18.3333 12.2102 18.3333 10.0001C18.3333 8.90573 18.1177 7.8221 17.699 6.81105C17.2802 5.80001 16.6663 4.88135 15.8925 4.10752C15.1187 3.3337 14.2 2.71987 13.189 2.30109C12.1779 1.8823 11.0943 1.66675 9.99996 1.66675C8.90561 1.66675 7.82198 1.8823 6.81093 2.30109C5.79988 2.71987 4.88122 3.3337 4.1074 4.10752C2.5446 5.67033 1.66663 7.78994 1.66663 10.0001C1.66663 13.5417 3.89163 16.5834 7.03329 17.7834C6.95829 17.1334 6.88329 16.0584 7.03329 15.3167L7.99163 11.2001C7.99163 11.2001 7.74996 10.7167 7.74996 9.95008C7.74996 8.80008 8.46663 7.94175 9.28329 7.94175C9.99996 7.94175 10.3333 8.46675 10.3333 9.14175C10.3333 9.85841 9.85829 10.8834 9.61663 11.8667C9.47496 12.6834 10.05 13.4001 10.8833 13.4001C12.3666 13.4001 13.5166 11.8167 13.5166 9.58341C13.5166 7.58341 12.0833 6.21675 10.025 6.21675C7.67496 6.21675 6.29163 7.96675 6.29163 9.80841C6.29163 10.5251 6.52496 11.2501 6.90829 11.7251C6.98329 11.7751 6.98329 11.8417 6.95829 11.9667L6.71663 12.8751C6.71663 13.0167 6.62496 13.0667 6.48329 12.9667C5.41663 12.5001 4.79996 10.9834 4.79996 9.75841C4.79996 7.12508 6.66663 4.73341 10.2666 4.73341C13.1333 4.73341 15.3666 6.79175 15.3666 9.52508C15.3666 12.3917 13.5916 14.6917 11.05 14.6917C10.2416 14.6917 9.44996 14.2584 9.16663 13.7501L8.60829 15.7251C8.41663 16.4417 7.89163 17.4001 7.53329 17.9751V17.9501Z" fill="currentColor"/>
</svg>
