<svg width="20" height="20" viewBox="0 0 20 20" fill="none" xmlns="http://www.w3.org/2000/svg">
<path d="M13.3333 4.16675C12.3917 4.16675 11.475 4.45841 10.7 5.00008H3.33332C2.40832 5.00008 1.66666 5.74175 1.66666 6.66675V11.6667C1.66666 12.5917 2.40832 13.3334 3.33332 13.3334H4.16666V14.1667C4.16666 14.3878 4.25445 14.5997 4.41073 14.756C4.56701 14.9123 4.77898 15.0001 4.99999 15.0001H6.66666C6.88767 15.0001 7.09963 14.9123 7.25591 14.756C7.41219 14.5997 7.49999 14.3878 7.49999 14.1667V13.3334H12.5V14.1667C12.5 14.3878 12.5878 14.5997 12.7441 14.756C12.9003 14.9123 13.1123 15.0001 13.3333 15.0001H15C15.221 15.0001 15.433 14.9123 15.5892 14.756C15.7455 14.5997 15.8333 14.3878 15.8333 14.1667V13.3334H16.6667C17.5917 13.3334 18.3333 12.5917 18.3333 11.6667V6.66675C18.3333 5.74175 17.5917 5.00008 16.6667 5.00008H15.9583C15.1917 4.45841 14.275 4.16675 13.3333 4.16675ZM13.3333 5.41675C14.1069 5.41675 14.8487 5.72404 15.3957 6.27102C15.9427 6.818 16.25 7.55987 16.25 8.33341C16.25 9.10696 15.9427 9.84883 15.3957 10.3958C14.8487 10.9428 14.1069 11.2501 13.3333 11.2501C12.5598 11.2501 11.8179 10.9428 11.2709 10.3958C10.7239 9.84883 10.4167 9.10696 10.4167 8.33341C10.4167 7.55987 10.7239 6.818 11.2709 6.27102C11.8179 5.72404 12.5598 5.41675 13.3333 5.41675V5.41675ZM3.33332 6.66675H6.66666V7.50008H3.33332V6.66675ZM13.3333 6.66675C12.8913 6.66675 12.4674 6.84234 12.1548 7.1549C11.8423 7.46746 11.6667 7.89139 11.6667 8.33341C11.6667 8.77544 11.8423 9.19936 12.1548 9.51193C12.4674 9.82449 12.8913 10.0001 13.3333 10.0001C13.7754 10.0001 14.1993 9.82449 14.5118 9.51193C14.8244 9.19936 15 8.77544 15 8.33341C15 7.89139 14.8244 7.46746 14.5118 7.1549C14.1993 6.84234 13.7754 6.66675 13.3333 6.66675V6.66675ZM3.33332 8.33341H6.66666V9.16675H3.33332V8.33341ZM3.33332 10.0001H6.66666V10.8334H3.33332V10.0001Z" fill="currentColor"/>
</svg>
