<svg width="20" height="20" viewBox="0 0 20 20" fill="none" xmlns="http://www.w3.org/2000/svg">
<g clip-path="url(#clip0_18832_5060)">
<path d="M5.12891 10.4637C5.55329 10.154 5.9958 10.129 6.45605 10.3895L10.5488 14.4823C10.7943 14.9 10.7944 15.3176 10.5488 15.7352L6.45605 19.828C6.00128 20.0799 5.55868 20.055 5.12891 19.7538C3.70893 18.3709 2.33254 16.9578 1 15.5145V14.703C2.33254 13.2597 3.70893 11.8467 5.12891 10.4637ZM17.6641 10.3895C18.1244 10.1289 18.5667 10.154 18.9912 10.4637C20.4112 11.8467 21.7875 13.2597 23.1201 14.703V15.5145C21.7875 16.9578 20.4112 18.3709 18.9912 19.7538C18.5614 20.055 18.119 20.0801 17.6641 19.828L13.5713 15.7352C13.3258 15.3177 13.3259 14.8999 13.5713 14.4823L17.6641 10.3895ZM11.7656 4.0116C12.1457 3.96663 12.4898 4.05239 12.7979 4.26941C14.1128 5.58434 15.4273 6.89979 16.7422 8.21472C16.9879 8.65709 16.9879 9.0995 16.7422 9.54187L12.6504 13.6337C12.2572 13.8794 11.8639 13.8794 11.4707 13.6337C10.1066 12.2696 8.74202 10.906 7.37793 9.54187C7.13222 9.09959 7.13236 8.657 7.37793 8.21472C8.69284 6.89978 10.0083 5.58435 11.3232 4.26941C11.4656 4.16194 11.6132 4.07607 11.7656 4.0116Z" fill="currentColor"/>
</g>
<defs>
<clipPath id="clip0_18832_5060">
<rect width="20" height="20" fill="currentColor"/>
</clipPath>
</defs>
</svg>
