<svg width="20" height="20" viewBox="0 0 20 20" fill="none" xmlns="http://www.w3.org/2000/svg">
<path d="M9.99996 8.33341C10.442 8.33341 10.8659 8.50901 11.1785 8.82157C11.491 9.13413 11.6666 9.55805 11.6666 10.0001C11.6666 10.4167 11.5166 10.7834 11.275 11.0751L13.9166 18.3334H12.1416L9.99996 12.4417L7.85829 18.3334H6.08329L8.72496 11.0751C8.48329 10.7834 8.33329 10.4167 8.33329 10.0001C8.33329 9.55805 8.50889 9.13413 8.82145 8.82157C9.13401 8.50901 9.55793 8.33341 9.99996 8.33341V8.33341ZM9.99996 6.66675C9.1159 6.66675 8.26806 7.01794 7.64294 7.64306C7.01782 8.26818 6.66663 9.11603 6.66663 10.0001C6.66663 10.4167 6.74996 10.8334 6.89996 11.2167L6.16663 13.2167C5.44163 12.3417 4.99996 11.2251 4.99996 10.0001C4.99996 8.674 5.52674 7.40223 6.46443 6.46455C7.40211 5.52687 8.67388 5.00008 9.99996 5.00008C11.326 5.00008 12.5978 5.52687 13.5355 6.46455C14.4732 7.40223 15 8.674 15 10.0001C15 11.2251 14.5583 12.3417 13.8333 13.2167L13.1 11.2167C13.25 10.8334 13.3333 10.4167 13.3333 10.0001C13.3333 9.11603 12.9821 8.26818 12.357 7.64306C11.7319 7.01794 10.884 6.66675 9.99996 6.66675V6.66675ZM9.99996 3.33341C8.23185 3.33341 6.53616 4.03579 5.28591 5.28604C4.03567 6.53628 3.33329 8.23197 3.33329 10.0001C3.33329 11.9667 4.16663 13.7501 5.53329 14.9501L4.93329 16.6167C2.94996 15.0917 1.66663 12.6917 1.66663 10.0001C1.66663 7.78994 2.5446 5.67033 4.1074 4.10752C5.67021 2.54472 7.78982 1.66675 9.99996 1.66675C11.0943 1.66675 12.1779 1.8823 13.189 2.30109C14.2 2.71987 15.1187 3.3337 15.8925 4.10752C16.6663 4.88135 17.2802 5.80001 17.699 6.81105C18.1177 7.8221 18.3333 8.90573 18.3333 10.0001C18.3333 12.6917 17.05 15.0917 15.0666 16.6167L14.4666 14.9501C15.8333 13.7501 16.6666 11.9667 16.6666 10.0001C16.6666 8.23197 15.9642 6.53628 14.714 5.28604C13.4638 4.03579 11.7681 3.33341 9.99996 3.33341V3.33341Z" fill="currentColor"/>
</svg>
