<svg width="20" height="20" viewBox="0 0 20 20" fill="none" xmlns="http://www.w3.org/2000/svg">
<path d="M9.81671 0C7.28337 0 4.99171 1.025 3.33337 2.68333L4.50837 3.85833C5.86671 2.5 7.73337 1.66667 9.81671 1.66667C11.9 1.66667 13.7667 2.5 15.1167 3.86667L16.2917 2.69167C14.6417 1.025 12.35 0 9.81671 0ZM5.69171 5.04167L6.86671 6.21667C7.62504 5.46667 8.66671 5 9.81671 5C10.9667 5 12.0084 5.46667 12.7667 6.21667L13.9417 5.04167C12.8834 3.98333 11.425 3.33333 9.81671 3.33333C8.20837 3.33333 6.75004 3.98333 5.69171 5.04167ZM9.81671 12.5C9.37468 12.5 8.95076 12.3244 8.6382 12.0118C8.32564 11.6993 8.15004 11.2754 8.15004 10.8333C8.15004 10.3913 8.32564 9.96738 8.6382 9.65482C8.95076 9.34226 9.37468 9.16667 9.81671 9.16667C10.2587 9.16667 10.6827 9.34226 10.9952 9.65482C11.3078 9.96738 11.4834 10.3913 11.4834 10.8333C11.4834 11.2754 11.3078 11.6993 10.9952 12.0118C10.6827 12.3244 10.2587 12.5 9.81671 12.5ZM12.3167 7.5H7.31671C7.09569 7.5 6.88373 7.5878 6.72745 7.74408C6.57117 7.90036 6.48337 8.11232 6.48337 8.33333V18.3333C6.48337 18.5543 6.57117 18.7663 6.72745 18.9226C6.88373 19.0789 7.09569 19.1667 7.31671 19.1667H12.3167C12.5377 19.1667 12.7497 19.0789 12.906 18.9226C13.0622 18.7663 13.15 18.5543 13.15 18.3333V8.33333C13.15 8.11232 13.0622 7.90036 12.906 7.74408C12.7497 7.5878 12.5377 7.5 12.3167 7.5Z" fill="currentColor"/>
</svg>
