<svg width="20" height="20" viewBox="0 0 20 20" fill="none" xmlns="http://www.w3.org/2000/svg">
<path d="M10.9416 18.4917L9.5833 15.3001C10.8916 14.8167 12.1166 14.1667 13.25 13.4084L10.9416 18.4917ZM4.69997 10.4167L1.5083 9.05841L6.59163 6.75008C5.8333 7.88342 5.1833 9.10842 4.69997 10.4167ZM16.0166 3.33341C16.25 3.33341 16.4583 3.33341 16.6333 3.37508C16.775 4.53341 16.6166 6.91675 13.8833 9.65008C12.4666 11.0751 10.775 12.1667 8.87497 12.8917L7.0833 11.1417C7.84997 9.21675 8.94163 7.52508 10.35 6.11675C12.65 3.81675 14.7 3.33341 16.0166 3.33341ZM16.0166 1.66675C14.3666 1.66675 11.8666 2.24175 9.16663 4.94175C7.34163 6.76675 6.24997 8.77508 5.54163 10.5334C5.3083 11.1584 5.46663 11.8417 5.92497 12.3084L7.69997 14.0751C8.01663 14.3917 8.44163 14.5834 8.8833 14.5834C9.07497 14.5834 9.27497 14.5334 9.46663 14.4584C11.25 13.7751 13.2333 12.6584 15.0583 10.8334C19.775 6.11675 18.0083 1.99175 18.0083 1.99175C18.0083 1.99175 17.25 1.66675 16.0166 1.66675ZM12.1166 7.88342C11.4666 7.23342 11.4666 6.17508 12.1166 5.52508C12.7666 4.87508 13.825 4.87508 14.475 5.52508C15.1166 6.17508 15.125 7.23342 14.475 7.88342C13.825 8.53342 12.7666 8.53342 12.1166 7.88342ZM5.19997 18.3334L8.2333 15.3001C7.94997 15.2251 7.67497 15.1001 7.42497 14.9251L4.02497 18.3334H5.19997ZM1.66663 18.3334H2.84163L6.81663 14.3667L5.6333 13.1917L1.66663 17.1584V18.3334ZM1.66663 15.9751L5.07497 12.5751C4.89997 12.3251 4.77497 12.0584 4.69997 11.7667L1.66663 14.8001V15.9751Z" fill="currentColor"/>
</svg>
