<svg width="20" height="20" viewBox="0 0 20 20" fill="none" xmlns="http://www.w3.org/2000/svg">
<path d="M4.16667 2.5H15.8333C16.2754 2.5 16.6993 2.67559 17.0118 2.98816C17.3244 3.30072 17.5 3.72464 17.5 4.16667V15.8333C17.5 16.2754 17.3244 16.6993 17.0118 17.0118C16.6993 17.3244 16.2754 17.5 15.8333 17.5H4.16667C3.72464 17.5 3.30072 17.3244 2.98816 17.0118C2.67559 16.6993 2.5 16.2754 2.5 15.8333V4.16667C2.5 3.72464 2.67559 3.30072 2.98816 2.98816C3.30072 2.67559 3.72464 2.5 4.16667 2.5V2.5ZM6.25 12.5C5.91848 12.5 5.60054 12.6317 5.36612 12.8661C5.1317 13.1005 5 13.4185 5 13.75C5 14.0815 5.1317 14.3995 5.36612 14.6339C5.60054 14.8683 5.91848 15 6.25 15C6.58152 15 6.89946 14.8683 7.13388 14.6339C7.3683 14.3995 7.5 14.0815 7.5 13.75C7.5 13.4185 7.3683 13.1005 7.13388 12.8661C6.89946 12.6317 6.58152 12.5 6.25 12.5V12.5ZM5 8.33333V10C6.32608 10 7.59785 10.5268 8.53553 11.4645C9.47322 12.4021 10 13.6739 10 15H11.6667C11.6667 13.2319 10.9643 11.5362 9.71405 10.286C8.4638 9.03571 6.76811 8.33333 5 8.33333V8.33333ZM5 5V6.66667C7.21014 6.66667 9.32975 7.54464 10.8926 9.10744C12.4554 10.6702 13.3333 12.7899 13.3333 15H15C15 12.3478 13.9464 9.8043 12.0711 7.92893C10.1957 6.05357 7.65216 5 5 5V5Z" fill="currentColor"/>
</svg>
