<svg width="20" height="20" viewBox="0 0 20 20" fill="none" xmlns="http://www.w3.org/2000/svg">
<path d="M5.15004 12.6666C5.63185 12.6666 6.09393 12.858 6.43462 13.1987C6.77531 13.5394 6.96671 14.0014 6.96671 14.4833C6.96671 15.4666 6.15004 16.2999 5.15004 16.2999C4.16671 16.2999 3.33337 15.4666 3.33337 14.4833C3.33337 14.0014 3.52477 13.5394 3.86546 13.1987C4.20615 12.858 4.66823 12.6666 5.15004 12.6666V12.6666ZM3.33337 3.33325C6.77235 3.33325 10.0705 4.69938 12.5022 7.1311C14.9339 9.56282 16.3 12.8609 16.3 16.2999H13.9417C13.9417 14.9068 13.6673 13.5273 13.1342 12.2403C12.6011 10.9532 11.8197 9.78377 10.8346 8.79869C9.84952 7.81362 8.68007 7.03222 7.39301 6.4991C6.10595 5.96598 4.72648 5.69159 3.33337 5.69159V3.33325ZM3.33337 8.04992C5.52141 8.04992 7.61983 8.91911 9.167 10.4663C10.7142 12.0135 11.5834 14.1119 11.5834 16.2999H9.22504C9.22504 14.7374 8.60431 13.2388 7.49941 12.1339C6.39451 11.029 4.89594 10.4083 3.33337 10.4083V8.04992Z" fill="currentColor"/>
</svg>
