<svg width="20" height="20" viewBox="0 0 20 20" fill="none" xmlns="http://www.w3.org/2000/svg">
<path d="M14.8334 15.8334C14.5001 14.8334 13.5834 14.1667 12.5001 14.1667C11.0834 14.1667 10.0001 15.2501 10.0001 16.6667C10.0001 18.0834 11.0834 19.1667 12.5001 19.1667C13.5834 19.1667 14.5001 18.5001 14.8334 17.5001H15.8334V19.1667H17.5001V17.5001H19.1667V15.8334H14.8334ZM12.5001 17.7501C11.9167 17.7501 11.4167 17.2501 11.4167 16.6667C11.4167 16.0834 11.9167 15.5834 12.5001 15.5834C13.0834 15.5834 13.5834 16.0834 13.5834 16.6667C13.5834 17.2501 13.0834 17.7501 12.5001 17.7501ZM7.50008 8.33341H11.6667V10.0001H7.50008V8.33341ZM7.50008 5.00008H11.6667V6.66675H7.50008V5.00008ZM5.83341 4.16675C5.83341 3.66675 6.16675 3.33341 6.66675 3.33341H13.3334V12.5834C13.9167 12.7501 14.5001 13.0001 15.0001 13.3334V4.16675C15.0001 3.66675 15.3334 3.33341 15.8334 3.33341C16.3334 3.33341 16.6667 3.66675 16.6667 4.16675V5.00008H18.3334V4.16675C18.3334 2.75008 17.2501 1.66675 15.8334 1.66675H6.66675C5.25008 1.66675 4.16675 2.75008 4.16675 4.16675V13.3334H5.83341V4.16675ZM8.33341 16.6667C8.33341 16.0834 8.41675 15.5001 8.66675 15.0001H1.66675V15.8334C1.66675 17.2501 2.75008 18.3334 4.16675 18.3334H8.66675C8.41675 17.8334 8.33341 17.2501 8.33341 16.6667ZM7.50008 13.3334H10.0001C10.5001 13.0001 11.0834 12.6667 11.6667 12.5834V11.6667H7.50008V13.3334Z" fill="currentColor"/>
</svg>
