<svg width="20" height="20" viewBox="0 0 20 20" fill="none" xmlns="http://www.w3.org/2000/svg">
<path d="M3.33333 3.33325H16.6667C16.8877 3.33325 17.0996 3.42105 17.2559 3.57733C17.4122 3.73361 17.5 3.94557 17.5 4.16659V7.49992C17.5 7.72093 17.4122 7.93289 17.2559 8.08917C17.0996 8.24545 16.8877 8.33325 16.6667 8.33325H3.33333C3.11232 8.33325 2.90036 8.24545 2.74408 8.08917C2.5878 7.93289 2.5 7.72093 2.5 7.49992V4.16659C2.5 3.94557 2.5878 3.73361 2.74408 3.57733C2.90036 3.42105 3.11232 3.33325 3.33333 3.33325V3.33325ZM7.5 6.66659H8.33333V4.99992H7.5V6.66659ZM4.16667 4.99992V6.66659H5.83333V4.99992H4.16667ZM6.66667 13.3333H9.16667V10.8333H10.8333V13.3333H13.3333V14.9999H10.8333V17.4999H9.16667V14.9999H6.66667V13.3333Z" fill="currentColor"/>
</svg>
