<svg width="20" height="20" viewBox="0 0 20 20" fill="none" xmlns="http://www.w3.org/2000/svg">
<path d="M2.50008 0.833252H15.8334C16.0544 0.833252 16.2664 0.921049 16.4227 1.07733C16.579 1.23361 16.6667 1.44557 16.6667 1.66659V4.99992C16.6667 5.22093 16.579 5.43289 16.4227 5.58917C16.2664 5.74545 16.0544 5.83325 15.8334 5.83325H2.50008C2.27907 5.83325 2.06711 5.74545 1.91083 5.58917C1.75455 5.43289 1.66675 5.22093 1.66675 4.99992V1.66659C1.66675 1.44557 1.75455 1.23361 1.91083 1.07733C2.06711 0.921049 2.27907 0.833252 2.50008 0.833252V0.833252ZM2.50008 7.49992H15.8334C16.0544 7.49992 16.2664 7.58772 16.4227 7.744C16.579 7.90028 16.6667 8.11224 16.6667 8.33325V8.89159L14.5834 7.96659L9.16675 10.3666V12.4999H2.50008C2.27907 12.4999 2.06711 12.4121 1.91083 12.2558C1.75455 12.0996 1.66675 11.8876 1.66675 11.6666V8.33325C1.66675 8.11224 1.75455 7.90028 1.91083 7.744C2.06711 7.58772 2.27907 7.49992 2.50008 7.49992V7.49992ZM2.50008 14.1666H9.16675C9.21675 16.0416 10.0001 17.8333 11.2167 19.1666H2.50008C2.27907 19.1666 2.06711 19.0788 1.91083 18.9225C1.75455 18.7662 1.66675 18.5543 1.66675 18.3333V14.9999C1.66675 14.7789 1.75455 14.5669 1.91083 14.4107C2.06711 14.2544 2.27907 14.1666 2.50008 14.1666V14.1666ZM6.66675 4.16659H7.50008V2.49992H6.66675V4.16659ZM6.66675 10.8333H7.50008V9.16659H6.66675V10.8333ZM6.66675 17.4999H7.50008V15.8333H6.66675V17.4999ZM3.33341 2.49992V4.16659H5.00008V2.49992H3.33341ZM3.33341 9.16659V10.8333H5.00008V9.16659H3.33341ZM3.33341 15.8333V17.4999H5.00008V15.8333H3.33341ZM14.5834 9.99992L18.3334 11.6666V14.1666C18.3334 16.4833 16.7334 18.6416 14.5834 19.1666C12.4334 18.6416 10.8334 16.4833 10.8334 14.1666V11.6666L14.5834 9.99992ZM14.5834 11.6166L12.5001 12.5499V14.7666C12.5001 16.0499 13.3917 17.2499 14.5834 17.5499V11.6166Z" fill="currentColor"/>
</svg>
