<svg width="20" height="20" viewBox="0 0 20 20" fill="none" xmlns="http://www.w3.org/2000/svg">
<path d="M10.8333 15.0001H11.6666C11.8876 15.0001 12.0996 15.0879 12.2558 15.2442C12.4121 15.4004 12.4999 15.6124 12.4999 15.8334H13.1083L10.8333 13.5584V15.0001ZM18.3333 15.8334V16.8167L17.3499 15.8334H18.3333ZM17.4999 18.1001L16.4416 19.1667L14.7749 17.5001H12.4999C12.4999 17.7211 12.4121 17.9331 12.2558 18.0893C12.0996 18.2456 11.8876 18.3334 11.6666 18.3334H8.33325C8.11224 18.3334 7.90028 18.2456 7.744 18.0893C7.58772 17.9331 7.49992 17.7211 7.49992 17.5001H1.66659V15.8334H7.49992C7.49992 15.6124 7.58772 15.4004 7.744 15.2442C7.90028 15.0879 8.11224 15.0001 8.33325 15.0001H9.16659V13.3334H3.33325C3.11224 13.3334 2.90028 13.2456 2.744 13.0893C2.58772 12.9331 2.49992 12.7211 2.49992 12.5001V9.16675C2.49992 8.94573 2.58772 8.73377 2.744 8.57749C2.90028 8.42121 3.11224 8.33341 3.33325 8.33341H5.60825L3.94159 6.66675H3.33325C3.11224 6.66675 2.90028 6.57895 2.744 6.42267C2.58772 6.26639 2.49992 6.05443 2.49992 5.83341V5.22508L0.833252 3.55841L1.89992 2.50008L17.4999 18.1001ZM3.33325 1.66675H16.6666C16.8876 1.66675 17.0996 1.75455 17.2558 1.91083C17.4121 2.06711 17.4999 2.27907 17.4999 2.50008V5.83341C17.4999 6.05443 17.4121 6.26639 17.2558 6.42267C17.0996 6.57895 16.8876 6.66675 16.6666 6.66675H8.18325L5.83325 4.31675V3.33341H4.84992L3.19992 1.66675C3.24159 1.66675 3.28325 1.66675 3.33325 1.66675ZM16.6666 8.33341C16.8876 8.33341 17.0996 8.42121 17.2558 8.57749C17.4121 8.73377 17.4999 8.94573 17.4999 9.16675V12.5001C17.4999 12.7211 17.4121 12.9331 17.2558 13.0893C17.0996 13.2456 16.8876 13.3334 16.6666 13.3334H14.8499L9.84992 8.33341H16.6666ZM7.49992 5.00008H8.33325V3.33341H7.49992V5.00008ZM7.49992 11.6667H8.33325V11.0584L7.49992 10.2251V11.6667ZM4.16659 10.0001V11.6667H5.83325V10.0001H4.16659Z" fill="currentColor"/>
</svg>
