<svg width="20" height="20" viewBox="0 0 20 20" fill="none" xmlns="http://www.w3.org/2000/svg">
<path d="M3.33333 0.833252H16.6667C16.8877 0.833252 17.0996 0.921049 17.2559 1.07733C17.4122 1.23361 17.5 1.44557 17.5 1.66659V4.99992C17.5 5.22093 17.4122 5.43289 17.2559 5.58917C17.0996 5.74545 16.8877 5.83325 16.6667 5.83325H3.33333C3.11232 5.83325 2.90036 5.74545 2.74408 5.58917C2.5878 5.43289 2.5 5.22093 2.5 4.99992V1.66659C2.5 1.44557 2.5878 1.23361 2.74408 1.07733C2.90036 0.921049 3.11232 0.833252 3.33333 0.833252V0.833252ZM3.33333 7.49992H16.6667C16.8877 7.49992 17.0996 7.58772 17.2559 7.744C17.4122 7.90028 17.5 8.11224 17.5 8.33325V11.6666C17.5 11.8876 17.4122 12.0996 17.2559 12.2558C17.0996 12.4121 16.8877 12.4999 16.6667 12.4999H3.33333C3.11232 12.4999 2.90036 12.4121 2.74408 12.2558C2.5878 12.0996 2.5 11.8876 2.5 11.6666V8.33325C2.5 8.11224 2.5878 7.90028 2.74408 7.744C2.90036 7.58772 3.11232 7.49992 3.33333 7.49992V7.49992ZM3.33333 14.1666H16.6667C16.8877 14.1666 17.0996 14.2544 17.2559 14.4107C17.4122 14.5669 17.5 14.7789 17.5 14.9999V18.3333C17.5 18.5543 17.4122 18.7662 17.2559 18.9225C17.0996 19.0788 16.8877 19.1666 16.6667 19.1666H3.33333C3.11232 19.1666 2.90036 19.0788 2.74408 18.9225C2.5878 18.7662 2.5 18.5543 2.5 18.3333V14.9999C2.5 14.7789 2.5878 14.5669 2.74408 14.4107C2.90036 14.2544 3.11232 14.1666 3.33333 14.1666V14.1666ZM7.5 4.16659H8.33333V2.49992H7.5V4.16659ZM7.5 10.8333H8.33333V9.16659H7.5V10.8333ZM7.5 17.4999H8.33333V15.8333H7.5V17.4999ZM4.16667 2.49992V4.16659H5.83333V2.49992H4.16667ZM4.16667 9.16659V10.8333H5.83333V9.16659H4.16667ZM4.16667 15.8333V17.4999H5.83333V15.8333H4.16667Z" fill="currentColor"/>
</svg>
