<svg width="20" height="20" viewBox="0 0 20 20" fill="none" xmlns="http://www.w3.org/2000/svg">
<path d="M15 13.4001C14.3667 13.4001 13.8 13.6501 13.3667 14.0417L7.425 10.5834C7.46667 10.3917 7.5 10.2001 7.5 10.0001C7.5 9.80008 7.46667 9.60842 7.425 9.41675L13.3 5.99175C13.75 6.40841 14.3417 6.66675 15 6.66675C15.663 6.66675 16.2989 6.40336 16.7678 5.93452C17.2366 5.46567 17.5 4.82979 17.5 4.16675C17.5 3.50371 17.2366 2.86782 16.7678 2.39898C16.2989 1.93014 15.663 1.66675 15 1.66675C14.337 1.66675 13.7011 1.93014 13.2322 2.39898C12.7634 2.86782 12.5 3.50371 12.5 4.16675C12.5 4.36675 12.5333 4.55841 12.575 4.75008L6.7 8.17508C6.25 7.75842 5.65833 7.50008 5 7.50008C4.33696 7.50008 3.70107 7.76347 3.23223 8.23231C2.76339 8.70116 2.5 9.33704 2.5 10.0001C2.5 10.6631 2.76339 11.299 3.23223 11.7678C3.70107 12.2367 4.33696 12.5001 5 12.5001C5.65833 12.5001 6.25 12.2417 6.7 11.8251L12.6333 15.2834C12.5917 15.4584 12.5667 15.6417 12.5667 15.8334C12.5667 17.1751 13.6583 18.2584 15 18.2584C16.3417 18.2584 17.4333 17.1751 17.4333 15.8334C17.4333 15.1881 17.177 14.5691 16.7206 14.1128C16.2643 13.6564 15.6454 13.4001 15 13.4001V13.4001Z" fill="currentColor"/>
</svg>
