<svg width="20" height="20" viewBox="0 0 20 20" fill="none" xmlns="http://www.w3.org/2000/svg" id="shield-lock-outline">
<path d="M17.5 9.16659C17.5 13.7916 14.3 18.1166 10 19.1666C5.7 18.1166 2.5 13.7916 2.5 9.16659V4.16659L10 0.833252L17.5 4.16659V9.16659ZM10 17.4999C13.125 16.6666 15.8333 12.9499 15.8333 9.34992V5.24992L10 2.64992L4.16667 5.24992V9.34992C4.16667 12.9499 6.875 16.6666 10 17.4999ZM12.3333 9.16659V7.91659C12.3333 6.74992 11.1667 5.83325 10 5.83325C8.83333 5.83325 7.66667 6.74992 7.66667 7.91659V9.16659C7.16667 9.16659 6.66667 9.66659 6.66667 10.1666V13.0833C6.66667 13.6666 7.16667 14.1666 7.66667 14.1666H12.25C12.8333 14.1666 13.3333 13.6666 13.3333 13.1666V10.2499C13.3333 9.66659 12.8333 9.16659 12.3333 9.16659ZM11.25 9.16659H8.75V7.91659C8.75 7.24992 9.33333 6.83325 10 6.83325C10.6667 6.83325 11.25 7.24992 11.25 7.91659V9.16659Z" fill="currentColor"/>
</svg>
