<svg width="20" height="20" viewBox="0 0 20 20" fill="none" xmlns="http://www.w3.org/2000/svg">
<path d="M3.33337 4.99992V3.33325H3.41671C10.75 3.33325 16.6667 9.24992 16.6667 16.5833V16.6666H15V16.5833C15 10.1666 9.83337 4.99992 3.33337 4.99992ZM3.33337 8.33325V6.66659C5.98554 6.66659 8.52908 7.72015 10.4044 9.59552C12.2798 11.4709 13.3334 14.0144 13.3334 16.6666H11.6667C11.6667 15.5722 11.4512 14.4886 11.0324 13.4776C10.6136 12.4665 9.99975 11.5479 9.22593 10.774C8.45211 10.0002 7.53345 9.38638 6.5224 8.96759C5.51136 8.5488 4.42772 8.33325 3.33337 8.33325ZM3.33337 11.6666V9.99992C5.10148 9.99992 6.79718 10.7023 8.04742 11.9525C9.29766 13.2028 10 14.8985 10 16.6666H8.33337C8.33337 15.3405 7.80659 14.0687 6.86891 13.1311C5.93123 12.1934 4.65946 11.6666 3.33337 11.6666ZM3.33337 13.3333C4.21743 13.3333 5.06528 13.6844 5.6904 14.3096C6.31552 14.9347 6.66671 15.7825 6.66671 16.6666H3.33337V13.3333Z" fill="currentColor"/>
</svg>
