<svg width="20" height="20" viewBox="0 0 20 20" fill="none" xmlns="http://www.w3.org/2000/svg">
<path d="M6.40837 6.04175C7.49171 6.07508 8.25837 6.48341 8.73337 7.25842C9.20004 8.04175 9.43337 9.00841 9.41671 10.1667C9.42504 11.4584 9.16671 12.4834 8.67504 13.2251C8.15837 13.9584 7.38337 14.3501 6.35004 14.3751C5.30004 14.3417 4.54171 13.9584 4.05837 13.1751C3.57504 12.4001 3.33337 11.4167 3.33337 10.2084C3.33337 9.00008 3.58337 8.00841 4.09171 7.24175C4.58337 6.45841 5.34171 6.07508 6.40837 6.04175ZM6.38337 7.40008C6.01671 7.40008 5.72504 7.62508 5.50837 8.09175C5.29171 8.54175 5.19171 9.26675 5.19171 10.2084C5.18337 11.1667 5.29171 11.8751 5.50004 12.3251C5.71671 12.7917 6.01671 13.0167 6.40004 13.0167C7.16671 13.0167 7.55837 12.0751 7.56671 10.2084C7.56671 8.35008 7.17504 7.41675 6.38337 7.40008ZM11.0334 14.3751V12.8917L11.3917 12.9084L11.8417 12.8917L12.7084 12.7334C12.9917 12.6417 13.2584 12.5251 13.475 12.3584C13.75 12.1667 13.975 11.9417 14.15 11.6751C14.3334 11.4167 14.4584 11.1417 14.5334 10.8584L14.5084 10.8501C14.1334 11.2001 13.575 11.3751 12.8167 11.3834C12.1084 11.3751 11.5167 11.1667 11.0417 10.7501C10.5667 10.3334 10.3417 9.73342 10.3084 8.95842C10.3167 8.12508 10.6 7.45008 11.15 6.90008C11.7084 6.35008 12.425 6.06675 13.3584 6.04175C14.4 6.07508 15.1667 6.41675 15.6584 7.07508C16.15 7.70841 16.3917 8.54175 16.3917 9.53341C16.3834 10.3334 16.2667 11.0417 16.025 11.6751C15.7834 12.2917 15.4584 12.8167 15.025 13.2417C14.6417 13.5917 14.1834 13.8584 13.65 14.0501C13.1167 14.2334 12.525 14.3417 11.875 14.3751H11.0334ZM13.3084 7.40008C12.9667 7.40842 12.6917 7.54175 12.475 7.80008C12.2667 8.05841 12.1584 8.40841 12.1584 8.84175C12.1584 9.20841 12.2584 9.50842 12.45 9.75842C12.65 10.0167 12.95 10.1417 13.35 10.1501C13.6167 10.1501 13.8417 10.0917 14.025 9.99175C14.2084 9.88341 14.3417 9.75841 14.4334 9.60841C14.5084 9.51675 14.5334 9.35008 14.5334 9.13342C14.5417 8.67508 14.45 8.28341 14.2584 7.94175C14.0667 7.60008 13.75 7.41675 13.3084 7.40008ZM7.63337 4.37508L10.3417 1.66675L13.05 4.37508H7.63337ZM13.05 16.0417L10.3417 18.7501L7.63337 16.0417H13.05Z" fill="currentColor"/>
</svg>
