<svg width="20" height="20" viewBox="0 0 20 20" fill="none" xmlns="http://www.w3.org/2000/svg">
<path d="M2.5 9.99992C2.5 11.8416 3.25833 13.4999 4.46667 14.6999L2.5 16.6666H7.5V11.6666L5.63333 13.5333C4.73333 12.6249 4.16667 11.3833 4.16667 9.99992C4.16667 7.82492 5.55833 5.97492 7.5 5.29159V3.54992C4.625 4.29159 2.5 6.89159 2.5 9.99992ZM9.16667 14.1666H10.8333V12.4999H9.16667V14.1666ZM17.5 3.33325H12.5V8.33325L14.3667 6.46659C15.2667 7.37492 15.8333 8.61659 15.8333 9.99992C15.8333 12.1749 14.4417 14.0249 12.5 14.7083V16.4499C15.375 15.7083 17.5 13.1083 17.5 9.99992C17.5 8.15825 16.7417 6.49992 15.5333 5.29992L17.5 3.33325ZM9.16667 10.8333H10.8333V5.83325H9.16667V10.8333Z" fill="currentColor"/>
</svg>
