<svg width="20" height="20" viewBox="0 0 20 20" fill="none" xmlns="http://www.w3.org/2000/svg">
<path d="M14.1667 11.6667H15.8333V14.1667H18.3333V15.8333H15.8333V18.3333H14.1667V15.8333H11.6667V14.1667H14.1667V11.6667ZM10 14.1667V12.5H5.83333V14.1667H10ZM14.1667 9.16667H5.83333V10.8333H12.2417C10.8917 11.725 10 13.2583 10 15C10 15.9083 10.2417 16.7667 10.6667 17.5H4.16667C3.24167 17.5 2.5 16.75 2.5 15.8333V4.16667C2.5 3.24167 3.24167 2.5 4.16667 2.5H15.8333C16.2754 2.5 16.6993 2.67559 17.0118 2.98816C17.3244 3.30072 17.5 3.72464 17.5 4.16667V10.6667C16.7667 10.2417 15.9083 10 15 10L14.1667 10.0667V9.16667ZM14.1667 7.5V5.83333H5.83333V7.5H14.1667Z" fill="currentColor"/>
</svg>
