<svg width="20" height="20" viewBox="0 0 20 20" fill="none" xmlns="http://www.w3.org/2000/svg">
<g clip-path="url(#clip0_18832_4936)">
<path d="M13.3333 12.4999H7.49992V10.8333H13.3333V12.4999ZM15.8333 9.16659H7.49992V7.49992H15.8333V9.16659ZM15.8333 5.83325H7.49992V4.16659H15.8333V5.83325ZM2.49992 4.16659V17.4999H15.8333V19.1666H2.49992C2.05789 19.1666 1.63397 18.991 1.32141 18.6784C1.00885 18.3659 0.833252 17.9419 0.833252 17.4999V4.16659H2.49992ZM17.4999 0.833252C17.9419 0.833252 18.3659 1.00885 18.6784 1.32141C18.991 1.63397 19.1666 2.05789 19.1666 2.49992V14.1666C19.1666 15.0916 18.4249 15.8333 17.4999 15.8333H5.83325C5.39122 15.8333 4.9673 15.6577 4.65474 15.3451C4.34218 15.0325 4.16659 14.6086 4.16659 14.1666V2.49992C4.16659 1.57492 4.90825 0.833252 5.83325 0.833252H17.4999ZM5.83325 2.49992V14.1666H17.4999V2.49992H5.83325Z" fill="currentColor"/>
</g>
<defs>
<clipPath id="clip0_18832_4936">
<rect width="20" height="20" fill="currentColor"/>
</clipPath>
</defs>
</svg>
