<svg width="20" height="20" viewBox="0 0 20 20" fill="none" xmlns="http://www.w3.org/2000/svg">
<path d="M19.1667 9.16675C19.1667 8.24175 18.4167 7.50008 17.5 7.50008H12.2334L13.0334 3.69175C13.05 3.60841 13.0584 3.51675 13.0584 3.42508C13.0584 3.08341 12.9167 2.76675 12.6917 2.54175L11.8084 1.66675L6.32504 7.15008C6.01671 7.45841 5.83337 7.87508 5.83337 8.33341V16.6667C5.83337 17.1088 6.00897 17.5327 6.32153 17.8453C6.63409 18.1578 7.05801 18.3334 7.50004 18.3334H15C15.6917 18.3334 16.2834 17.9167 16.5334 17.3167L19.05 11.4417C19.125 11.2501 19.1667 11.0501 19.1667 10.8334V9.16675ZM0.833374 18.3334H4.16671V8.33341H0.833374V18.3334Z" fill="currentColor"/>
</svg>
