<svg width="20" height="20" viewBox="0 0 20 20" fill="none" xmlns="http://www.w3.org/2000/svg">
<path d="M15.8334 11.6667V1.66675H19.1667V11.6667H15.8334ZM12.5 1.66675C12.9421 1.66675 13.366 1.84234 13.6786 2.1549C13.9911 2.46746 14.1667 2.89139 14.1667 3.33341V11.6667C14.1667 12.1251 13.9834 12.5417 13.675 12.8417L8.19171 18.3334L7.30837 17.4501C7.08337 17.2251 6.94171 16.9167 6.94171 16.5667L6.96671 16.3084L7.75837 12.5001H2.50004C1.57504 12.5001 0.833374 11.7501 0.833374 10.8334V9.16675C0.833374 8.95008 0.875041 8.75008 0.950041 8.55841L3.46671 2.68341C3.71671 2.08341 4.30837 1.66675 5.00004 1.66675H12.5ZM12.5 3.33341H4.97504L2.50004 9.16675V10.8334H9.81671L8.87504 15.2667L12.5 11.6417V3.33341Z" fill="currentColor"/>
</svg>
