<svg width="20" height="20" viewBox="0 0 20 20" fill="none" xmlns="http://www.w3.org/2000/svg">
<path d="M16.6666 9.99992C16.6666 10.4419 16.8422 10.8659 17.1548 11.1784C17.4673 11.491 17.8913 11.6666 18.3333 11.6666V14.9999C18.3333 15.4419 18.1577 15.8659 17.8451 16.1784C17.5326 16.491 17.1087 16.6666 16.6666 16.6666H3.33329C2.89127 16.6666 2.46734 16.491 2.15478 16.1784C1.84222 15.8659 1.66663 15.4419 1.66663 14.9999V11.6666C2.59163 11.6666 3.33329 10.9166 3.33329 9.99992C3.33329 9.55789 3.1577 9.13397 2.84514 8.82141C2.53258 8.50885 2.10865 8.33325 1.66663 8.33325V4.99992C1.66663 4.07492 2.41663 3.33325 3.33329 3.33325H16.6666C17.1087 3.33325 17.5326 3.50885 17.8451 3.82141C18.1577 4.13397 18.3333 4.55789 18.3333 4.99992V8.33325C17.8913 8.33325 17.4673 8.50885 17.1548 8.82141C16.8422 9.13397 16.6666 9.55789 16.6666 9.99992ZM13.75 13.5416C13.75 12.2916 11.25 11.6666 9.99996 11.6666C8.74996 11.6666 6.24996 12.2916 6.24996 13.5416V14.1666H13.75V13.5416ZM9.99996 10.2083C10.4972 10.2083 10.9742 10.0107 11.3258 9.65908C11.6774 9.30745 11.875 8.83053 11.875 8.33325C11.875 7.83597 11.6774 7.35906 11.3258 7.00743C10.9742 6.6558 10.4972 6.45825 9.99996 6.45825C9.50268 6.45825 9.02576 6.6558 8.67413 7.00743C8.3225 7.35906 8.12496 7.83597 8.12496 8.33325C8.12496 8.83053 8.3225 9.30745 8.67413 9.65908C9.02576 10.0107 9.50268 10.2083 9.99996 10.2083Z" fill="currentColor"/>
</svg>
