<svg width="20" height="20" viewBox="0 0 20 20" fill="none" xmlns="http://www.w3.org/2000/svg">
<path d="M3.33329 3.33325C2.89127 3.33325 2.46734 3.50885 2.15478 3.82141C1.84222 4.13397 1.66663 4.55789 1.66663 4.99992V8.33325C2.59163 8.33325 3.33329 9.08325 3.33329 9.99992C3.33329 10.4419 3.1577 10.8659 2.84514 11.1784C2.53258 11.491 2.10865 11.6666 1.66663 11.6666V14.9999C1.66663 15.4419 1.84222 15.8659 2.15478 16.1784C2.46734 16.491 2.89127 16.6666 3.33329 16.6666H16.6666C17.1087 16.6666 17.5326 16.491 17.8451 16.1784C18.1577 15.8659 18.3333 15.4419 18.3333 14.9999V11.6666C17.8913 11.6666 17.4673 11.491 17.1548 11.1784C16.8422 10.8659 16.6666 10.4419 16.6666 9.99992C16.6666 9.07492 17.4166 8.33325 18.3333 8.33325V4.99992C18.3333 4.07492 17.5833 3.33325 16.6666 3.33325H3.33329ZM12.9166 5.83325L14.1666 7.08325L7.08329 14.1666L5.83329 12.9166L12.9166 5.83325ZM7.34163 5.86659C8.15829 5.86659 8.81663 6.52492 8.81663 7.34159C8.81663 7.73278 8.66122 8.10795 8.38461 8.38457C8.10799 8.66118 7.73282 8.81659 7.34163 8.81659C6.52496 8.81659 5.86663 8.15825 5.86663 7.34159C5.86663 6.95039 6.02203 6.57522 6.29864 6.2986C6.57526 6.02199 6.95043 5.86659 7.34163 5.86659ZM12.6583 11.1833C13.475 11.1833 14.1333 11.8416 14.1333 12.6583C14.1333 13.0494 13.9779 13.4246 13.7013 13.7012C13.4247 13.9779 13.0495 14.1333 12.6583 14.1333C11.8416 14.1333 11.1833 13.4749 11.1833 12.6583C11.1833 12.2671 11.3387 11.8919 11.6153 11.6153C11.8919 11.3387 12.2671 11.1833 12.6583 11.1833V11.1833Z" fill="currentColor"/>
</svg>
