<svg width="20" height="20" viewBox="0 0 20 20" fill="none" xmlns="http://www.w3.org/2000/svg">
<path d="M10 16.6667C8.4529 16.6667 6.96917 16.0521 5.87521 14.9582C4.78125 13.8642 4.16667 12.3805 4.16667 10.8334C4.16667 9.28628 4.78125 7.80255 5.87521 6.70858C6.96917 5.61462 8.4529 5.00004 10 5.00004C11.5471 5.00004 13.0308 5.61462 14.1248 6.70858C15.2188 7.80255 15.8333 9.28628 15.8333 10.8334C15.8333 12.3805 15.2188 13.8642 14.1248 14.9582C13.0308 16.0521 11.5471 16.6667 10 16.6667ZM15.8583 6.15837L17.0417 4.97504C16.6667 4.55004 16.2917 4.16671 15.8667 3.80004L14.6833 5.00004C13.3917 3.95004 11.7667 3.33337 10 3.33337C8.01088 3.33337 6.10322 4.12355 4.6967 5.53007C3.29018 6.9366 2.5 8.84425 2.5 10.8334C2.5 12.8225 3.29018 14.7302 4.6967 16.1367C6.10322 17.5432 8.01088 18.3334 10 18.3334C14.1667 18.3334 17.5 14.975 17.5 10.8334C17.5 9.06671 16.8833 7.44171 15.8583 6.15837ZM9.16667 11.6667H10.8333V6.66671H9.16667V11.6667ZM12.5 0.833374H7.5V2.50004H12.5V0.833374Z" fill="currentColor"/>
</svg>
