<svg width="20" height="20" viewBox="0 0 20 20" fill="none" xmlns="http://www.w3.org/2000/svg">
<path d="M15.8333 5V4.16667C15.8333 3.72464 15.6577 3.30072 15.3452 2.98816C15.0326 2.67559 14.6087 2.5 14.1667 2.5H12.5C12.058 2.5 11.634 2.67559 11.3215 2.98816C11.0089 3.30072 10.8333 3.72464 10.8333 4.16667V5H9.16667V4.16667C9.16667 3.72464 8.99107 3.30072 8.67851 2.98816C8.36595 2.67559 7.94203 2.5 7.5 2.5H5.83333C5.39131 2.5 4.96738 2.67559 4.65482 2.98816C4.34226 3.30072 4.16667 3.72464 4.16667 4.16667V5H2.5V16.6667H11.6667V15H4.16667V6.66667H15.8333V10.8333H17.5V5M17.5 12.5V15H20V16.6667H17.5V19.1667H15.8333V16.6667H13.3333V15H15.8333V12.5H17.5Z" fill="currentColor"/>
</svg>
