<svg width="20" height="20" viewBox="0 0 20 20" fill="none" xmlns="http://www.w3.org/2000/svg">
<path d="M10.7249 12.5584L8.60825 10.4667L8.63325 10.4417C10.0833 8.82508 11.1166 6.96675 11.7249 5.00008H14.1666V3.33341H8.33325V1.66675H6.66659V3.33341H0.833252V5.00008H10.1416C9.58325 6.60008 8.69992 8.12508 7.49992 9.45841C6.72492 8.60008 6.08325 7.65841 5.57492 6.66675H3.90825C4.51659 8.02508 5.34992 9.30841 6.39159 10.4667L2.14992 14.6501L3.33325 15.8334L7.49992 11.6667L10.0916 14.2584L10.7249 12.5584ZM15.4166 8.33341H13.7499L9.99992 18.3334H11.6666L12.5999 15.8334H16.5583L17.4999 18.3334H19.1666L15.4166 8.33341ZM13.2333 14.1667L14.5833 10.5584L15.9333 14.1667H13.2333Z" fill="currentColor"/>
</svg>
