<svg width="20" height="20" viewBox="0 0 20 20" fill="none" xmlns="http://www.w3.org/2000/svg">
<path d="M17.499 8.43333H11.849L14.1323 6.08333C11.8573 3.83333 8.17399 3.75 5.89899 6C3.62399 8.25833 3.62399 11.9 5.89899 14.1667C8.17399 16.4167 11.8573 16.4167 14.1323 14.1667C15.2657 13.0417 15.8323 11.7333 15.8323 10.0833H17.499C17.499 11.7333 16.7657 13.875 15.299 15.325C12.374 18.225 7.62399 18.225 4.69899 15.325C1.78232 12.4333 1.75732 7.73333 4.68232 4.84167C7.60732 1.95 12.299 1.95 15.224 4.84167L17.499 2.5V8.43333ZM10.4157 6.66667V10.2083L13.3323 11.9417L12.7323 12.95L9.16565 10.8333V6.66667H10.4157Z" fill="currentColor"/>
</svg>
