<svg width="20" height="20" viewBox="0 0 20 20" fill="none" xmlns="http://www.w3.org/2000/svg">
<path d="M2.49998 1.66675C1.57498 1.66675 0.833313 2.40841 0.833313 3.33341V12.5001C0.833313 13.4251 1.57498 14.1667 2.49998 14.1667H4.16665V12.5001H2.49998V3.33341H11.6666V5.00008H13.3333V3.33341C13.3333 2.40841 12.5916 1.66675 11.6666 1.66675H2.49998ZM7.49998 6.66675C6.57498 6.66675 5.83331 7.40841 5.83331 8.33341V10.0001H7.49998V8.33341H9.16665V6.66675H7.49998ZM10.8333 6.66675V8.33341H11.6666V9.16675H13.3333V6.66675H10.8333ZM15 6.66675V8.33341H16.6666V17.5001H7.49998V15.8334H5.83331V17.5001C5.83331 18.4251 6.57498 19.1667 7.49998 19.1667H16.6666C17.5916 19.1667 18.3333 18.4251 18.3333 17.5001V8.33341C18.3333 7.40841 17.5916 6.66675 16.6666 6.66675H15ZM11.6666 10.8334V12.5001H9.99998V14.1667H11.6666C12.5916 14.1667 13.3333 13.4251 13.3333 12.5001V10.8334H11.6666ZM5.83331 11.6667V14.1667H8.33331V12.5001H7.49998V11.6667H5.83331Z" fill="currentColor"/>
</svg>
