<svg width="20" height="20" viewBox="0 0 20 20" fill="none" xmlns="http://www.w3.org/2000/svg">
<path d="M2.49998 1.66675H4.16665V3.33341H2.49998V5.00008H0.833313V3.33341C0.833313 2.89139 1.00891 2.46746 1.32147 2.1549C1.63403 1.84234 2.05795 1.66675 2.49998 1.66675V1.66675ZM11.6666 1.66675C12.1087 1.66675 12.5326 1.84234 12.8452 2.1549C13.1577 2.46746 13.3333 2.89139 13.3333 3.33341V5.00008H11.6666V3.33341H9.99998V1.66675H11.6666ZM16.6666 6.66675C17.1087 6.66675 17.5326 6.84234 17.8452 7.1549C18.1577 7.46746 18.3333 7.89139 18.3333 8.33341V10.0001H16.6666V8.33341H15V6.66675H16.6666ZM18.3333 17.5001C18.3333 17.9421 18.1577 18.366 17.8452 18.6786C17.5326 18.9912 17.1087 19.1667 16.6666 19.1667H15V17.5001H16.6666V15.8334H18.3333V17.5001ZM16.6666 11.6667H18.3333V14.1667H16.6666V11.6667ZM10.8333 8.33341V6.66675H13.3333V9.16675H11.6666V8.33341H10.8333ZM10.8333 19.1667V17.5001H13.3333V19.1667H10.8333ZM7.49998 19.1667C7.05795 19.1667 6.63403 18.9912 6.32147 18.6786C6.00891 18.366 5.83331 17.9421 5.83331 17.5001V15.8334H7.49998V17.5001H9.16665V19.1667H7.49998ZM5.83331 14.1667V11.6667H7.49998V12.5001H8.33331V14.1667H5.83331ZM5.83331 3.33341V1.66675H8.33331V3.33341H5.83331ZM2.49998 14.1667C2.05795 14.1667 1.63403 13.9912 1.32147 13.6786C1.00891 13.366 0.833313 12.9421 0.833313 12.5001V10.8334H2.49998V12.5001H4.16665V14.1667H2.49998ZM0.833313 6.66675H2.49998V9.16675H0.833313V6.66675ZM7.49998 6.66675H9.16665V8.33341H7.49998V10.0001H5.83331V8.33341C5.83331 7.89139 6.00891 7.46746 6.32147 7.1549C6.63403 6.84234 7.05795 6.66675 7.49998 6.66675ZM13.3333 12.5001C13.3333 12.9421 13.1577 13.366 12.8452 13.6786C12.5326 13.9912 12.1087 14.1667 11.6666 14.1667H9.99998V12.5001H11.6666V10.8334H13.3333V12.5001Z" fill="currentColor"/>
</svg>
