<svg width="20" height="20" viewBox="0 0 20 20" fill="none" xmlns="http://www.w3.org/2000/svg">
<path d="M10.8334 15.8334C10.8334 15.5834 10.8334 15.2501 10.9167 15.0001H6.66669V13.3334H5.00002V6.66675H6.66669V5.00008H13.3334V6.66675H15V10.9167C15.25 10.8334 15.5834 10.8334 15.8334 10.8334C16.0834 10.8334 16.4167 10.8334 16.6667 10.9167V6.66675H18.3334V1.66675H13.3334V3.33341H6.66669V1.66675H1.66669V6.66675H3.33335V13.3334H1.66669V18.3334H6.66669V16.6667H10.9167C10.8334 16.4167 10.8334 16.0834 10.8334 15.8334ZM15 3.33341H16.6667V5.00008H15V3.33341ZM3.33335 3.33341H5.00002V5.00008H3.33335V3.33341ZM5.00002 16.6667H3.33335V15.0001H5.00002V16.6667ZM16.6667 12.5001V15.0001H19.1667V16.6667H16.6667V19.1667H15V16.6667H12.5V15.0001H15V12.5001H16.6667Z" fill="currentColor"/>
</svg>
