<svg width="20" height="20" viewBox="0 0 20 20" fill="none" xmlns="http://www.w3.org/2000/svg">
<path d="M2.49998 1.66663C1.57498 1.66663 0.833313 2.40829 0.833313 3.33329V4.99996H2.49998V3.33329H4.16665V1.66663H2.49998ZM5.83331 1.66663V3.33329H8.33331V1.66663H5.83331ZM9.99998 1.66663V3.33329H11.6666V4.99996H13.3333V3.33329C13.3333 2.40829 12.5916 1.66663 11.6666 1.66663H9.99998ZM0.833313 6.66663V9.16663H2.49998V6.66663H0.833313ZM11.6666 6.66663C11.6666 6.66663 11.6666 10.5583 11.6666 12.5C9.72498 12.5 5.83331 12.5 5.83331 12.5C5.83331 12.5 5.83331 15.8333 5.83331 17.5C5.83331 18.425 6.57498 19.1666 7.49998 19.1666H16.6666C17.5916 19.1666 18.3333 18.425 18.3333 17.5V8.33329C18.3333 7.40829 17.5916 6.66663 16.6666 6.66663C15 6.66663 11.6666 6.66663 11.6666 6.66663ZM13.3333 8.33329H16.6666V17.5H7.49998V14.1666H11.6666C12.5916 14.1666 13.3333 13.425 13.3333 12.5V8.33329ZM0.833313 10.8333V12.5C0.833313 13.425 1.57498 14.1666 2.49998 14.1666H4.16665V12.5H2.49998V10.8333H0.833313Z" fill="currentColor"/>
</svg>
