<svg width="20" height="20" viewBox="0 0 20 20" fill="none" xmlns="http://www.w3.org/2000/svg">
<path d="M6.25002 3.33325C5.9185 3.33325 5.60056 3.46495 5.36614 3.69937C5.13172 3.93379 5.00002 4.25173 5.00002 4.58325C5.00002 4.91477 5.13172 5.23272 5.36614 5.46714C5.60056 5.70156 5.9185 5.83325 6.25002 5.83325C6.77502 5.83325 7.25002 5.49992 7.42502 4.99992H10.8334C11.3917 4.44159 11.9417 4.16659 12.5 4.16659H7.42502C7.25002 3.66659 6.77502 3.33325 6.25002 3.33325ZM15.8334 4.16659C6.66669 4.16659 11.6667 14.1666 4.16669 14.1666V15.8333C13.3334 15.8333 8.33335 5.83325 15.8334 5.83325V4.16659ZM13.75 14.1666C13.225 14.1666 12.75 14.4999 12.575 14.9999H9.16669C8.60835 15.5583 8.05835 15.8333 7.50002 15.8333H12.575C12.75 16.3333 13.225 16.6666 13.75 16.6666C14.0815 16.6666 14.3995 16.5349 14.6339 16.3005C14.8683 16.066 15 15.7481 15 15.4166C15 15.0851 14.8683 14.7671 14.6339 14.5327C14.3995 14.2983 14.0815 14.1666 13.75 14.1666Z" fill="currentColor"/>
</svg>
