<svg width="20" height="20" viewBox="0 0 20 20" fill="none" xmlns="http://www.w3.org/2000/svg">
<path d="M2.49998 1.66663C1.57498 1.66663 0.833313 2.40829 0.833313 3.33329V12.5C0.833313 13.425 1.57498 14.1666 2.49998 14.1666C3.60831 14.1666 5.83331 14.1666 5.83331 14.1666C5.83331 14.1666 5.83331 16.3916 5.83331 17.5C5.83331 18.425 6.57498 19.1666 7.49998 19.1666H16.6666C17.5916 19.1666 18.3333 18.425 18.3333 17.5V8.33329C18.3333 7.40829 17.5916 6.66663 16.6666 6.66663C15.5583 6.66663 13.3333 6.66663 13.3333 6.66663C13.3333 6.66663 13.3333 4.44163 13.3333 3.33329C13.3333 2.40829 12.5916 1.66663 11.6666 1.66663H2.49998ZM2.49998 3.33329H11.6666C11.6666 4.44163 11.6666 6.66663 11.6666 6.66663H7.49998C6.57498 6.66663 5.83331 7.40829 5.83331 8.33329V12.5C5.83331 12.5 3.60831 12.5 2.49998 12.5V3.33329ZM7.49998 8.33329H11.6666V12.5H7.49998V8.33329ZM13.3333 8.33329C13.3333 8.33329 15.5583 8.33329 16.6666 8.33329V17.5H7.49998C7.49998 16.3916 7.49998 14.1666 7.49998 14.1666H11.6666C12.5916 14.1666 13.3333 13.425 13.3333 12.5V8.33329Z" fill="currentColor"/>
</svg>
