<svg width="20" height="20" viewBox="0 0 20 20" fill="none" xmlns="http://www.w3.org/2000/svg">
<path d="M18.3334 6.66667V11.6667H16.125C15.3167 13.4333 13.6917 14.8167 11.6667 15.45V17.5H6.66669V15.45C3.75002 14.5417 1.66669 12.0833 1.66669 9.16667C1.66669 5.48333 5.02502 2.5 9.16669 2.5C12.3167 2.5 15 4.225 16.125 6.66667H18.3334ZM13.3334 11.6667V6.66667H14.2167C13.2084 5.175 11.325 4.16667 9.16669 4.16667C5.94169 4.16667 3.33335 6.40833 3.33335 9.16667C3.33335 11.1583 4.70002 12.8833 6.66669 13.6833V12.5H11.6667V13.6833C12.7417 13.25 13.625 12.5417 14.2167 11.6667H13.3334ZM15 10H16.6667V8.33333H15V10ZM8.33335 15.8333H10V14.1667H8.33335V15.8333Z" fill="currentColor"/>
</svg>
