<svg width="20" height="20" viewBox="0 0 20 20" fill="none" xmlns="http://www.w3.org/2000/svg">
<path d="M1.66669 3.33325H6.66669V4.99992H13.3334V3.33325H18.3334V8.33325H16.6667V11.6666H18.3334V16.6666H13.3334V14.9999H6.66669V16.6666H1.66669V11.6666H3.33335V8.33325H1.66669V3.33325ZM13.3334 8.33325V6.66659H6.66669V8.33325H5.00002V11.6666H6.66669V13.3333H13.3334V11.6666H15V8.33325H13.3334ZM3.33335 4.99992V6.66659H5.00002V4.99992H3.33335ZM15 4.99992V6.66659H16.6667V4.99992H15ZM3.33335 13.3333V14.9999H5.00002V13.3333H3.33335ZM15 13.3333V14.9999H16.6667V13.3333H15Z" fill="currentColor"/>
</svg>
