<svg width="20" height="20" viewBox="0 0 20 20" fill="none" xmlns="http://www.w3.org/2000/svg">
<path d="M17.5 10.8333H2.50002C2.27901 10.8333 2.06704 10.9211 1.91076 11.0774C1.75448 11.2337 1.66669 11.4457 1.66669 11.6667V16.6667C1.66669 16.8877 1.75448 17.0996 1.91076 17.2559C2.06704 17.4122 2.27901 17.5 2.50002 17.5H17.5C17.721 17.5 17.933 17.4122 18.0893 17.2559C18.2456 17.0996 18.3334 16.8877 18.3334 16.6667V11.6667C18.3334 11.4457 18.2456 11.2337 18.0893 11.0774C17.933 10.9211 17.721 10.8333 17.5 10.8333ZM16.6667 15.8333H3.33335V12.5H16.6667M17.5 2.5H2.50002C2.27901 2.5 2.06704 2.5878 1.91076 2.74408C1.75448 2.90036 1.66669 3.11232 1.66669 3.33333V8.33333C1.66669 8.55435 1.75448 8.76631 1.91076 8.92259C2.06704 9.07887 2.27901 9.16667 2.50002 9.16667H17.5C17.721 9.16667 17.933 9.07887 18.0893 8.92259C18.2456 8.76631 18.3334 8.55435 18.3334 8.33333V3.33333C18.3334 3.11232 18.2456 2.90036 18.0893 2.74408C17.933 2.5878 17.721 2.5 17.5 2.5ZM16.6667 7.5H3.33335V4.16667H16.6667V7.5Z" fill="currentColor"/>
</svg>
