<svg width="20" height="20" viewBox="0 0 20 20" fill="none" xmlns="http://www.w3.org/2000/svg">
<path d="M15.4167 12.5C14.6431 12.5 13.9013 12.1927 13.3543 11.6457C12.8073 11.0987 12.5 10.3569 12.5 9.58333C12.5 8.80979 12.8073 8.06792 13.3543 7.52094C13.9013 6.97396 14.6431 6.66667 15.4167 6.66667C16.1902 6.66667 16.9321 6.97396 17.4791 7.52094C18.026 8.06792 18.3333 8.80979 18.3333 9.58333C18.3333 10.3569 18.026 11.0987 17.4791 11.6457C16.9321 12.1927 16.1902 12.5 15.4167 12.5V12.5ZM4.58333 12.5C3.80979 12.5 3.06792 12.1927 2.52094 11.6457C1.97396 11.0987 1.66667 10.3569 1.66667 9.58333C1.66667 8.80979 1.97396 8.06792 2.52094 7.52094C3.06792 6.97396 3.80979 6.66667 4.58333 6.66667C5.35688 6.66667 6.09875 6.97396 6.64573 7.52094C7.19271 8.06792 7.5 8.80979 7.5 9.58333C7.5 10.3569 7.19271 11.0987 6.64573 11.6457C6.09875 12.1927 5.35688 12.5 4.58333 12.5V12.5ZM15.4167 5C14.2011 5 13.0353 5.48289 12.1758 6.34243C11.3162 7.20197 10.8333 8.36776 10.8333 9.58333C10.8333 10.6917 11.225 11.7083 11.8833 12.5H8.11667C8.775 11.7083 9.16667 10.6917 9.16667 9.58333C9.16667 8.36776 8.68378 7.20197 7.82424 6.34243C6.9647 5.48289 5.79891 5 4.58333 5C3.36776 5 2.20197 5.48289 1.34243 6.34243C0.482886 7.20197 0 8.36776 0 9.58333C0 10.7989 0.482886 11.9647 1.34243 12.8242C2.20197 13.6838 3.36776 14.1667 4.58333 14.1667H15.4167C16.6322 14.1667 17.798 13.6838 18.6576 12.8242C19.5171 11.9647 20 10.7989 20 9.58333C20 8.36776 19.5171 7.20197 18.6576 6.34243C17.798 5.48289 16.6322 5 15.4167 5V5Z" fill="currentColor"/>
</svg>
