<svg width="20" height="20" viewBox="0 0 20 20" fill="none" xmlns="http://www.w3.org/2000/svg">
<path d="M16.6666 11.6667H3.33329V6.66675H7.56663L5.83329 9.02508L7.18329 10.0001L9.16663 7.30008L9.99996 6.16675L10.8333 7.30008L12.8166 10.0001L14.1666 9.02508L12.4333 6.66675H16.6666V11.6667ZM16.6666 15.8334H3.33329V14.1667H16.6666V15.8334ZM7.49996 3.33341C7.72097 3.33341 7.93293 3.42121 8.08921 3.57749C8.24549 3.73377 8.33329 3.94573 8.33329 4.16675C8.33329 4.38776 8.24549 4.59972 8.08921 4.756C7.93293 4.91228 7.72097 5.00008 7.49996 5.00008C7.27895 5.00008 7.06698 4.91228 6.9107 4.756C6.75442 4.59972 6.66663 4.38776 6.66663 4.16675C6.66663 3.94573 6.75442 3.73377 6.9107 3.57749C7.06698 3.42121 7.27895 3.33341 7.49996 3.33341V3.33341ZM12.5 3.33341C12.721 3.33341 12.9329 3.42121 13.0892 3.57749C13.2455 3.73377 13.3333 3.94573 13.3333 4.16675C13.3333 4.38776 13.2455 4.59972 13.0892 4.756C12.9329 4.91228 12.721 5.00008 12.5 5.00008C12.2789 5.00008 12.067 4.91228 11.9107 4.756C11.7544 4.59972 11.6666 4.38776 11.6666 4.16675C11.6666 3.94573 11.7544 3.73377 11.9107 3.57749C12.067 3.42121 12.2789 3.33341 12.5 3.33341V3.33341ZM16.6666 5.00008H14.85C14.9416 4.74175 15 4.45841 15 4.16675C15 3.50371 14.7366 2.86782 14.2677 2.39898C13.7989 1.93014 13.163 1.66675 12.5 1.66675C11.625 1.66675 10.8666 2.11675 10.4166 2.79175L9.99996 3.33341L9.58329 2.78341C9.13329 2.11675 8.37496 1.66675 7.49996 1.66675C6.83692 1.66675 6.20103 1.93014 5.73219 2.39898C5.26335 2.86782 4.99996 3.50371 4.99996 4.16675C4.99996 4.45841 5.05829 4.74175 5.14996 5.00008H3.33329C2.40829 5.00008 1.66663 5.74175 1.66663 6.66675V15.8334C1.66663 16.7584 2.40829 17.5001 3.33329 17.5001H16.6666C17.5916 17.5001 18.3333 16.7584 18.3333 15.8334V6.66675C18.3333 5.74175 17.5916 5.00008 16.6666 5.00008Z" fill="currentColor"/>
</svg>
