<svg width="20" height="20" viewBox="0 0 20 20" fill="none" xmlns="http://www.w3.org/2000/svg">
<path d="M16.6667 15V15.8333C16.6667 16.2754 16.4912 16.6993 16.1786 17.0118C15.866 17.3244 15.4421 17.5 15.0001 17.5H3.33341C2.40841 17.5 1.66675 16.75 1.66675 15.8333V4.16667C1.66675 3.72464 1.84234 3.30072 2.1549 2.98816C2.46746 2.67559 2.89139 2.5 3.33341 2.5H15.0001C15.4421 2.5 15.866 2.67559 16.1786 2.98816C16.4912 3.30072 16.6667 3.72464 16.6667 4.16667V5H9.16675C8.24175 5 7.50008 5.75 7.50008 6.66667V13.3333C7.50008 13.7754 7.67568 14.1993 7.98824 14.5118C8.3008 14.8244 8.72472 15 9.16675 15H16.6667ZM9.16675 13.3333H17.5001V6.66667H9.16675V13.3333ZM12.5001 11.25C12.1686 11.25 11.8506 11.1183 11.6162 10.8839C11.3818 10.6495 11.2501 10.3315 11.2501 10C11.2501 9.66848 11.3818 9.35054 11.6162 9.11612C11.8506 8.8817 12.1686 8.75 12.5001 8.75C12.8316 8.75 13.1495 8.8817 13.384 9.11612C13.6184 9.35054 13.7501 9.66848 13.7501 10C13.7501 10.3315 13.6184 10.6495 13.384 10.8839C13.1495 11.1183 12.8316 11.25 12.5001 11.25Z" fill="currentColor"/>
</svg>
