<svg width="20" height="20" viewBox="0 0 20 20" fill="none" xmlns="http://www.w3.org/2000/svg">
<path d="M6.66675 0L5.97508 4.16667H5.83341C5.39139 4.16667 4.96746 4.34226 4.6549 4.65482C4.34234 4.96738 4.16675 5.39131 4.16675 5.83333V14.1667C4.16675 15.0917 4.91675 15.8333 5.83341 15.8333H5.97508L6.66675 20H13.3334L14.0251 15.8333H14.1667C14.6088 15.8333 15.0327 15.6577 15.3453 15.3452C15.6578 15.0326 15.8334 14.6087 15.8334 14.1667V5.83333C15.8334 4.90833 15.0834 4.16667 14.1667 4.16667H14.0251L13.3334 0H6.66675ZM5.83341 5.83333H14.1667V14.1667H5.83341V5.83333Z" fill="currentColor"/>
</svg>
