<svg width="20" height="20" viewBox="0 0 20 20" fill="none" xmlns="http://www.w3.org/2000/svg">
<path d="M13.9583 11.6334C14.1666 11.7417 14.3 11.8001 14.3416 11.8834C14.3916 11.9751 14.375 12.3917 14.1666 12.8667C14 13.3334 13.1333 13.7834 12.75 13.8001C12.3666 13.8167 12.3583 14.1001 10.2833 13.1917C8.20829 12.2834 6.95829 10.0667 6.85829 9.92508C6.75829 9.78341 6.05829 8.77508 6.09163 7.75008C6.13329 6.73341 6.66663 6.25008 6.88329 6.05008C7.08329 5.83341 7.30829 5.80841 7.44996 5.83341H7.84163C7.96663 5.83341 8.14163 5.78341 8.29996 6.20841L8.87496 7.76675C8.92496 7.87508 8.95829 8.00008 8.88329 8.13341L8.65829 8.47508L8.33329 8.82508C8.23329 8.92508 8.11663 9.03341 8.23329 9.24175C8.33329 9.45841 8.74996 10.1501 9.33329 10.7251C10.0916 11.4584 10.7583 11.7001 10.9583 11.8084C11.1583 11.9251 11.2833 11.9084 11.4083 11.7751L12.0833 10.9917C12.2416 10.7834 12.375 10.8334 12.5666 10.9001L13.9583 11.6334ZM9.99996 1.66675C11.0943 1.66675 12.1779 1.8823 13.189 2.30109C14.2 2.71987 15.1187 3.3337 15.8925 4.10752C16.6663 4.88135 17.2802 5.80001 17.699 6.81105C18.1177 7.8221 18.3333 8.90573 18.3333 10.0001C18.3333 12.2102 17.4553 14.3298 15.8925 15.8926C14.3297 17.4554 12.2101 18.3334 9.99996 18.3334C8.35829 18.3334 6.83329 17.8584 5.54163 17.0417L1.66663 18.3334L2.95829 14.4584C2.14163 13.1667 1.66663 11.6417 1.66663 10.0001C1.66663 7.78994 2.5446 5.67033 4.1074 4.10752C5.67021 2.54472 7.78982 1.66675 9.99996 1.66675V1.66675ZM9.99996 3.33341C8.23185 3.33341 6.53616 4.03579 5.28591 5.28604C4.03567 6.53628 3.33329 8.23197 3.33329 10.0001C3.33329 11.4334 3.78329 12.7584 4.54996 13.8417L3.74996 16.2501L6.15829 15.4501C7.24163 16.2167 8.56663 16.6667 9.99996 16.6667C11.7681 16.6667 13.4638 15.9644 14.714 14.7141C15.9642 13.4639 16.6666 11.7682 16.6666 10.0001C16.6666 8.23197 15.9642 6.53628 14.714 5.28604C13.4638 4.03579 11.7681 3.33341 9.99996 3.33341V3.33341Z" fill="currentColor"/>
</svg>
